ISO-10303-21;
HEADER;
/* Generated by software containing ST-Developer
 * from STEP Tools, Inc. (www.steptools.com) 
 */

FILE_DESCRIPTION(
/* description */ (''),
/* implementation_level */ '2;1');

FILE_NAME(
/* name */ 'Onbox.step',
/* time_stamp */ '2026-08-30T11:48:51+03:00',
/* author */ (''),
/* organization */ (''),
/* preprocessor_version */ 'ST-DEVELOPER v20.1',
/* originating_system */ 'Autodesk Translation Framework v15.8.0.0',
/* authorisation */ '');

FILE_SCHEMA (('AUTOMOTIVE_DESIGN { 1 0 10303 214 3 1 1 }'));
ENDSEC;

DATA;
#10=MECHANICAL_DESIGN_GEOMETRIC_PRESENTATION_REPRESENTATION('',(#13),#1264);
#11=SHAPE_REPRESENTATION_RELATIONSHIP('SRR','None',#1271,#12);
#12=ADVANCED_BREP_SHAPE_REPRESENTATION('',(#14),#1263);
#13=STYLED_ITEM('',(#1280),#14);
#14=MANIFOLD_SOLID_BREP('Body1',#742);
#15=SPHERICAL_SURFACE('',#810,5.);
#16=SPHERICAL_SURFACE('',#815,5.);
#17=SPHERICAL_SURFACE('',#820,5.);
#18=SPHERICAL_SURFACE('',#822,5.);
#19=FACE_BOUND('',#143,.T.);
#20=FACE_BOUND('',#158,.T.);
#21=FACE_BOUND('',#159,.T.);
#22=FACE_BOUND('',#160,.T.);
#23=FACE_BOUND('',#161,.T.);
#24=FACE_BOUND('',#162,.T.);
#25=PLANE('',#762);
#26=PLANE('',#766);
#27=PLANE('',#770);
#28=PLANE('',#774);
#29=PLANE('',#775);
#30=PLANE('',#776);
#31=PLANE('',#777);
#32=PLANE('',#778);
#33=PLANE('',#779);
#34=PLANE('',#780);
#35=PLANE('',#781);
#36=PLANE('',#782);
#37=PLANE('',#783);
#38=PLANE('',#784);
#39=PLANE('',#785);
#40=PLANE('',#786);
#41=PLANE('',#787);
#42=PLANE('',#788);
#43=PLANE('',#789);
#44=PLANE('',#790);
#45=PLANE('',#791);
#46=PLANE('',#792);
#47=PLANE('',#793);
#48=PLANE('',#795);
#49=PLANE('',#797);
#50=PLANE('',#800);
#51=PLANE('',#801);
#52=PLANE('',#802);
#53=PLANE('',#803);
#54=PLANE('',#825);
#55=PLANE('',#827);
#56=PLANE('',#828);
#57=PLANE('',#830);
#58=PLANE('',#832);
#59=FACE_OUTER_BOUND('',#110,.T.);
#60=FACE_OUTER_BOUND('',#111,.T.);
#61=FACE_OUTER_BOUND('',#112,.T.);
#62=FACE_OUTER_BOUND('',#113,.T.);
#63=FACE_OUTER_BOUND('',#114,.T.);
#64=FACE_OUTER_BOUND('',#115,.T.);
#65=FACE_OUTER_BOUND('',#116,.T.);
#66=FACE_OUTER_BOUND('',#117,.T.);
#67=FACE_OUTER_BOUND('',#118,.T.);
#68=FACE_OUTER_BOUND('',#119,.T.);
#69=FACE_OUTER_BOUND('',#120,.T.);
#70=FACE_OUTER_BOUND('',#121,.T.);
#71=FACE_OUTER_BOUND('',#122,.T.);
#72=FACE_OUTER_BOUND('',#123,.T.);
#73=FACE_OUTER_BOUND('',#124,.T.);
#74=FACE_OUTER_BOUND('',#125,.T.);
#75=FACE_OUTER_BOUND('',#126,.T.);
#76=FACE_OUTER_BOUND('',#127,.T.);
#77=FACE_OUTER_BOUND('',#128,.T.);
#78=FACE_OUTER_BOUND('',#129,.T.);
#79=FACE_OUTER_BOUND('',#130,.T.);
#80=FACE_OUTER_BOUND('',#131,.T.);
#81=FACE_OUTER_BOUND('',#132,.T.);
#82=FACE_OUTER_BOUND('',#133,.T.);
#83=FACE_OUTER_BOUND('',#134,.T.);
#84=FACE_OUTER_BOUND('',#135,.T.);
#85=FACE_OUTER_BOUND('',#136,.T.);
#86=FACE_OUTER_BOUND('',#137,.T.);
#87=FACE_OUTER_BOUND('',#138,.T.);
#88=FACE_OUTER_BOUND('',#139,.T.);
#89=FACE_OUTER_BOUND('',#140,.T.);
#90=FACE_OUTER_BOUND('',#141,.T.);
#91=FACE_OUTER_BOUND('',#142,.T.);
#92=FACE_OUTER_BOUND('',#144,.T.);
#93=FACE_OUTER_BOUND('',#145,.T.);
#94=FACE_OUTER_BOUND('',#146,.T.);
#95=FACE_OUTER_BOUND('',#147,.T.);
#96=FACE_OUTER_BOUND('',#148,.T.);
#97=FACE_OUTER_BOUND('',#149,.T.);
#98=FACE_OUTER_BOUND('',#150,.T.);
#99=FACE_OUTER_BOUND('',#151,.T.);
#100=FACE_OUTER_BOUND('',#152,.T.);
#101=FACE_OUTER_BOUND('',#153,.T.);
#102=FACE_OUTER_BOUND('',#154,.T.);
#103=FACE_OUTER_BOUND('',#155,.T.);
#104=FACE_OUTER_BOUND('',#156,.T.);
#105=FACE_OUTER_BOUND('',#157,.T.);
#106=FACE_OUTER_BOUND('',#163,.T.);
#107=FACE_OUTER_BOUND('',#164,.T.);
#108=FACE_OUTER_BOUND('',#165,.T.);
#109=FACE_OUTER_BOUND('',#166,.T.);
#110=EDGE_LOOP('',(#484,#485,#486,#487));
#111=EDGE_LOOP('',(#488,#489,#490,#491));
#112=EDGE_LOOP('',(#492));
#113=EDGE_LOOP('',(#493,#494,#495,#496));
#114=EDGE_LOOP('',(#497));
#115=EDGE_LOOP('',(#498,#499,#500,#501));
#116=EDGE_LOOP('',(#502));
#117=EDGE_LOOP('',(#503,#504,#505,#506));
#118=EDGE_LOOP('',(#507));
#119=EDGE_LOOP('',(#508,#509,#510));
#120=EDGE_LOOP('',(#511,#512,#513));
#121=EDGE_LOOP('',(#514,#515,#516));
#122=EDGE_LOOP('',(#517,#518,#519,#520));
#123=EDGE_LOOP('',(#521,#522,#523));
#124=EDGE_LOOP('',(#524,#525,#526));
#125=EDGE_LOOP('',(#527,#528,#529));
#126=EDGE_LOOP('',(#530,#531,#532,#533,#534,#535));
#127=EDGE_LOOP('',(#536,#537,#538,#539));
#128=EDGE_LOOP('',(#540,#541,#542,#543));
#129=EDGE_LOOP('',(#544,#545,#546,#547));
#130=EDGE_LOOP('',(#548,#549,#550,#551,#552,#553));
#131=EDGE_LOOP('',(#554,#555,#556,#557));
#132=EDGE_LOOP('',(#558,#559,#560,#561));
#133=EDGE_LOOP('',(#562,#563,#564,#565));
#134=EDGE_LOOP('',(#566,#567,#568,#569,#570,#571));
#135=EDGE_LOOP('',(#572,#573,#574,#575));
#136=EDGE_LOOP('',(#576,#577,#578,#579));
#137=EDGE_LOOP('',(#580,#581,#582));
#138=EDGE_LOOP('',(#583,#584,#585));
#139=EDGE_LOOP('',(#586,#587,#588,#589,#590,#591));
#140=EDGE_LOOP('',(#592,#593,#594,#595));
#141=EDGE_LOOP('',(#596,#597,#598,#599));
#142=EDGE_LOOP('',(#600,#601,#602,#603));
#143=EDGE_LOOP('',(#604));
#144=EDGE_LOOP('',(#605,#606,#607,#608));
#145=EDGE_LOOP('',(#609,#610,#611,#612));
#146=EDGE_LOOP('',(#613,#614,#615,#616));
#147=EDGE_LOOP('',(#617,#618,#619));
#148=EDGE_LOOP('',(#620,#621,#622,#623));
#149=EDGE_LOOP('',(#624,#625,#626));
#150=EDGE_LOOP('',(#627,#628,#629,#630));
#151=EDGE_LOOP('',(#631,#632,#633));
#152=EDGE_LOOP('',(#634,#635,#636));
#153=EDGE_LOOP('',(#637,#638,#639,#640));
#154=EDGE_LOOP('',(#641,#642,#643,#644));
#155=EDGE_LOOP('',(#645,#646,#647,#648));
#156=EDGE_LOOP('',(#649,#650,#651,#652));
#157=EDGE_LOOP('',(#653,#654,#655,#656));
#158=EDGE_LOOP('',(#657));
#159=EDGE_LOOP('',(#658));
#160=EDGE_LOOP('',(#659));
#161=EDGE_LOOP('',(#660));
#162=EDGE_LOOP('',(#661));
#163=EDGE_LOOP('',(#662,#663,#664,#665));
#164=EDGE_LOOP('',(#666,#667,#668,#669));
#165=EDGE_LOOP('',(#670,#671,#672,#673));
#166=EDGE_LOOP('',(#674,#675,#676,#677));
#167=LINE('',#1065,#238);
#168=LINE('',#1071,#239);
#169=LINE('',#1078,#240);
#170=LINE('',#1085,#241);
#171=LINE('',#1092,#242);
#172=LINE('',#1098,#243);
#173=LINE('',#1100,#244);
#174=LINE('',#1101,#245);
#175=LINE('',#1105,#246);
#176=LINE('',#1107,#247);
#177=LINE('',#1108,#248);
#178=LINE('',#1112,#249);
#179=LINE('',#1114,#250);
#180=LINE('',#1115,#251);
#181=LINE('',#1118,#252);
#182=LINE('',#1120,#253);
#183=LINE('',#1121,#254);
#184=LINE('',#1125,#255);
#185=LINE('',#1127,#256);
#186=LINE('',#1128,#257);
#187=LINE('',#1132,#258);
#188=LINE('',#1134,#259);
#189=LINE('',#1135,#260);
#190=LINE('',#1139,#261);
#191=LINE('',#1141,#262);
#192=LINE('',#1142,#263);
#193=LINE('',#1146,#264);
#194=LINE('',#1148,#265);
#195=LINE('',#1149,#266);
#196=LINE('',#1151,#267);
#197=LINE('',#1152,#268);
#198=LINE('',#1154,#269);
#199=LINE('',#1155,#270);
#200=LINE('',#1157,#271);
#201=LINE('',#1158,#272);
#202=LINE('',#1160,#273);
#203=LINE('',#1161,#274);
#204=LINE('',#1163,#275);
#205=LINE('',#1165,#276);
#206=LINE('',#1167,#277);
#207=LINE('',#1168,#278);
#208=LINE('',#1170,#279);
#209=LINE('',#1171,#280);
#210=LINE('',#1173,#281);
#211=LINE('',#1174,#282);
#212=LINE('',#1176,#283);
#213=LINE('',#1177,#284);
#214=LINE('',#1179,#285);
#215=LINE('',#1181,#286);
#216=LINE('',#1183,#287);
#217=LINE('',#1184,#288);
#218=LINE('',#1186,#289);
#219=LINE('',#1187,#290);
#220=LINE('',#1189,#291);
#221=LINE('',#1198,#292);
#222=LINE('',#1209,#293);
#223=LINE('',#1212,#294);
#224=LINE('',#1217,#295);
#225=LINE('',#1220,#296);
#226=LINE('',#1227,#297);
#227=LINE('',#1230,#298);
#228=LINE('',#1236,#299);
#229=LINE('',#1239,#300);
#230=LINE('',#1245,#301);
#231=LINE('',#1246,#302);
#232=LINE('',#1248,#303);
#233=LINE('',#1250,#304);
#234=LINE('',#1252,#305);
#235=LINE('',#1255,#306);
#236=LINE('',#1257,#307);
#237=LINE('',#1259,#308);
#238=VECTOR('',#839,3.50000000000001);
#239=VECTOR('',#846,1.5);
#240=VECTOR('',#855,1.5);
#241=VECTOR('',#864,1.5);
#242=VECTOR('',#873,1.5);
#243=VECTOR('',#880,10.);
#244=VECTOR('',#881,10.);
#245=VECTOR('',#882,10.);
#246=VECTOR('',#885,10.);
#247=VECTOR('',#886,10.);
#248=VECTOR('',#887,10.);
#249=VECTOR('',#890,10.);
#250=VECTOR('',#891,10.);
#251=VECTOR('',#892,10.);
#252=VECTOR('',#895,10.);
#253=VECTOR('',#896,10.);
#254=VECTOR('',#897,10.);
#255=VECTOR('',#900,10.);
#256=VECTOR('',#901,10.);
#257=VECTOR('',#902,10.);
#258=VECTOR('',#905,10.);
#259=VECTOR('',#906,10.);
#260=VECTOR('',#907,10.);
#261=VECTOR('',#910,10.);
#262=VECTOR('',#911,10.);
#263=VECTOR('',#912,10.);
#264=VECTOR('',#915,10.);
#265=VECTOR('',#916,10.);
#266=VECTOR('',#917,10.);
#267=VECTOR('',#918,10.);
#268=VECTOR('',#919,10.);
#269=VECTOR('',#922,10.);
#270=VECTOR('',#923,10.);
#271=VECTOR('',#926,10.);
#272=VECTOR('',#927,10.);
#273=VECTOR('',#930,10.);
#274=VECTOR('',#931,10.);
#275=VECTOR('',#934,10.);
#276=VECTOR('',#935,10.);
#277=VECTOR('',#936,10.);
#278=VECTOR('',#937,10.);
#279=VECTOR('',#940,10.);
#280=VECTOR('',#941,10.);
#281=VECTOR('',#944,10.);
#282=VECTOR('',#945,10.);
#283=VECTOR('',#948,10.);
#284=VECTOR('',#949,10.);
#285=VECTOR('',#952,10.);
#286=VECTOR('',#953,10.);
#287=VECTOR('',#954,10.);
#288=VECTOR('',#955,10.);
#289=VECTOR('',#958,10.);
#290=VECTOR('',#959,10.);
#291=VECTOR('',#962,10.);
#292=VECTOR('',#975,10.);
#293=VECTOR('',#990,10.);
#294=VECTOR('',#993,10.);
#295=VECTOR('',#998,10.);
#296=VECTOR('',#1001,10.);
#297=VECTOR('',#1010,10.);
#298=VECTOR('',#1013,10.);
#299=VECTOR('',#1022,10.);
#300=VECTOR('',#1025,10.);
#301=VECTOR('',#1036,10.);
#302=VECTOR('',#1037,10.);
#303=VECTOR('',#1040,10.);
#304=VECTOR('',#1043,10.);
#305=VECTOR('',#1046,10.);
#306=VECTOR('',#1051,10.);
#307=VECTOR('',#1054,10.);
#308=VECTOR('',#1057,10.);
#309=CIRCLE('',#757,3.50000000000001);
#310=CIRCLE('',#758,3.50000000000001);
#311=CIRCLE('',#760,1.5);
#312=CIRCLE('',#761,1.5);
#313=CIRCLE('',#764,1.5);
#314=CIRCLE('',#765,1.5);
#315=CIRCLE('',#768,1.5);
#316=CIRCLE('',#769,1.5);
#317=CIRCLE('',#772,1.5);
#318=CIRCLE('',#773,1.5);
#319=CIRCLE('',#794,5.);
#320=CIRCLE('',#796,5.);
#321=CIRCLE('',#798,5.);
#322=CIRCLE('',#799,5.);
#323=CIRCLE('',#805,5.);
#324=CIRCLE('',#806,5.);
#325=CIRCLE('',#808,5.);
#326=CIRCLE('',#809,5.);
#327=CIRCLE('',#811,5.);
#328=CIRCLE('',#813,5.);
#329=CIRCLE('',#814,5.);
#330=CIRCLE('',#816,5.);
#331=CIRCLE('',#818,5.);
#332=CIRCLE('',#819,5.);
#333=CIRCLE('',#821,5.);
#334=CIRCLE('',#823,5.);
#335=VERTEX_POINT('',#1062);
#336=VERTEX_POINT('',#1064);
#337=VERTEX_POINT('',#1068);
#338=VERTEX_POINT('',#1070);
#339=VERTEX_POINT('',#1075);
#340=VERTEX_POINT('',#1077);
#341=VERTEX_POINT('',#1082);
#342=VERTEX_POINT('',#1084);
#343=VERTEX_POINT('',#1089);
#344=VERTEX_POINT('',#1091);
#345=VERTEX_POINT('',#1096);
#346=VERTEX_POINT('',#1097);
#347=VERTEX_POINT('',#1099);
#348=VERTEX_POINT('',#1103);
#349=VERTEX_POINT('',#1104);
#350=VERTEX_POINT('',#1106);
#351=VERTEX_POINT('',#1110);
#352=VERTEX_POINT('',#1111);
#353=VERTEX_POINT('',#1113);
#354=VERTEX_POINT('',#1117);
#355=VERTEX_POINT('',#1119);
#356=VERTEX_POINT('',#1123);
#357=VERTEX_POINT('',#1124);
#358=VERTEX_POINT('',#1126);
#359=VERTEX_POINT('',#1130);
#360=VERTEX_POINT('',#1131);
#361=VERTEX_POINT('',#1133);
#362=VERTEX_POINT('',#1137);
#363=VERTEX_POINT('',#1138);
#364=VERTEX_POINT('',#1140);
#365=VERTEX_POINT('',#1144);
#366=VERTEX_POINT('',#1145);
#367=VERTEX_POINT('',#1147);
#368=VERTEX_POINT('',#1150);
#369=VERTEX_POINT('',#1164);
#370=VERTEX_POINT('',#1166);
#371=VERTEX_POINT('',#1180);
#372=VERTEX_POINT('',#1182);
#373=VERTEX_POINT('',#1195);
#374=VERTEX_POINT('',#1197);
#375=VERTEX_POINT('',#1205);
#376=VERTEX_POINT('',#1206);
#377=VERTEX_POINT('',#1208);
#378=VERTEX_POINT('',#1210);
#379=VERTEX_POINT('',#1214);
#380=VERTEX_POINT('',#1215);
#381=VERTEX_POINT('',#1218);
#382=VERTEX_POINT('',#1224);
#383=VERTEX_POINT('',#1225);
#384=VERTEX_POINT('',#1228);
#385=VERTEX_POINT('',#1234);
#386=VERTEX_POINT('',#1237);
#387=EDGE_CURVE('',#335,#335,#309,.T.);
#388=EDGE_CURVE('',#335,#336,#167,.T.);
#389=EDGE_CURVE('',#336,#336,#310,.T.);
#390=EDGE_CURVE('',#337,#337,#311,.T.);
#391=EDGE_CURVE('',#337,#338,#168,.T.);
#392=EDGE_CURVE('',#338,#338,#312,.T.);
#393=EDGE_CURVE('',#339,#339,#313,.T.);
#394=EDGE_CURVE('',#339,#340,#169,.T.);
#395=EDGE_CURVE('',#340,#340,#314,.T.);
#396=EDGE_CURVE('',#341,#341,#315,.T.);
#397=EDGE_CURVE('',#341,#342,#170,.T.);
#398=EDGE_CURVE('',#342,#342,#316,.T.);
#399=EDGE_CURVE('',#343,#343,#317,.T.);
#400=EDGE_CURVE('',#343,#344,#171,.T.);
#401=EDGE_CURVE('',#344,#344,#318,.T.);
#402=EDGE_CURVE('',#345,#346,#172,.T.);
#403=EDGE_CURVE('',#347,#345,#173,.T.);
#404=EDGE_CURVE('',#346,#347,#174,.T.);
#405=EDGE_CURVE('',#348,#349,#175,.T.);
#406=EDGE_CURVE('',#350,#348,#176,.T.);
#407=EDGE_CURVE('',#349,#350,#177,.T.);
#408=EDGE_CURVE('',#351,#352,#178,.T.);
#409=EDGE_CURVE('',#353,#351,#179,.T.);
#410=EDGE_CURVE('',#352,#353,#180,.T.);
#411=EDGE_CURVE('',#354,#353,#181,.T.);
#412=EDGE_CURVE('',#351,#355,#182,.T.);
#413=EDGE_CURVE('',#355,#354,#183,.T.);
#414=EDGE_CURVE('',#356,#357,#184,.T.);
#415=EDGE_CURVE('',#358,#356,#185,.T.);
#416=EDGE_CURVE('',#357,#358,#186,.T.);
#417=EDGE_CURVE('',#359,#360,#187,.T.);
#418=EDGE_CURVE('',#361,#359,#188,.T.);
#419=EDGE_CURVE('',#360,#361,#189,.T.);
#420=EDGE_CURVE('',#362,#363,#190,.T.);
#421=EDGE_CURVE('',#364,#362,#191,.T.);
#422=EDGE_CURVE('',#363,#364,#192,.T.);
#423=EDGE_CURVE('',#365,#366,#193,.T.);
#424=EDGE_CURVE('',#366,#367,#194,.T.);
#425=EDGE_CURVE('',#367,#361,#195,.T.);
#426=EDGE_CURVE('',#359,#368,#196,.T.);
#427=EDGE_CURVE('',#368,#365,#197,.T.);
#428=EDGE_CURVE('',#368,#364,#198,.T.);
#429=EDGE_CURVE('',#362,#365,#199,.T.);
#430=EDGE_CURVE('',#357,#363,#200,.T.);
#431=EDGE_CURVE('',#364,#356,#201,.T.);
#432=EDGE_CURVE('',#363,#352,#202,.T.);
#433=EDGE_CURVE('',#353,#362,#203,.T.);
#434=EDGE_CURVE('',#348,#360,#204,.T.);
#435=EDGE_CURVE('',#361,#369,#205,.T.);
#436=EDGE_CURVE('',#369,#370,#206,.T.);
#437=EDGE_CURVE('',#370,#350,#207,.T.);
#438=EDGE_CURVE('',#356,#359,#208,.T.);
#439=EDGE_CURVE('',#360,#358,#209,.T.);
#440=EDGE_CURVE('',#346,#357,#210,.T.);
#441=EDGE_CURVE('',#358,#345,#211,.T.);
#442=EDGE_CURVE('',#352,#346,#212,.T.);
#443=EDGE_CURVE('',#347,#351,#213,.T.);
#444=EDGE_CURVE('',#355,#349,#214,.T.);
#445=EDGE_CURVE('',#350,#371,#215,.T.);
#446=EDGE_CURVE('',#371,#372,#216,.T.);
#447=EDGE_CURVE('',#372,#354,#217,.T.);
#448=EDGE_CURVE('',#345,#348,#218,.T.);
#449=EDGE_CURVE('',#349,#347,#219,.T.);
#450=EDGE_CURVE('',#354,#365,#220,.T.);
#451=EDGE_CURVE('',#371,#370,#319,.T.);
#452=EDGE_CURVE('',#369,#367,#320,.T.);
#453=EDGE_CURVE('',#373,#372,#321,.T.);
#454=EDGE_CURVE('',#373,#374,#221,.T.);
#455=EDGE_CURVE('',#366,#374,#322,.T.);
#456=EDGE_CURVE('',#375,#376,#323,.T.);
#457=EDGE_CURVE('',#376,#377,#222,.T.);
#458=EDGE_CURVE('',#377,#378,#324,.T.);
#459=EDGE_CURVE('',#378,#375,#223,.T.);
#460=EDGE_CURVE('',#379,#380,#325,.T.);
#461=EDGE_CURVE('',#380,#376,#224,.T.);
#462=EDGE_CURVE('',#376,#381,#326,.T.);
#463=EDGE_CURVE('',#381,#379,#225,.T.);
#464=EDGE_CURVE('',#375,#381,#327,.T.);
#465=EDGE_CURVE('',#382,#383,#328,.T.);
#466=EDGE_CURVE('',#383,#380,#226,.T.);
#467=EDGE_CURVE('',#380,#384,#329,.T.);
#468=EDGE_CURVE('',#384,#382,#227,.T.);
#469=EDGE_CURVE('',#379,#384,#330,.T.);
#470=EDGE_CURVE('',#385,#377,#331,.T.);
#471=EDGE_CURVE('',#377,#383,#228,.T.);
#472=EDGE_CURVE('',#383,#386,#332,.T.);
#473=EDGE_CURVE('',#386,#385,#229,.T.);
#474=EDGE_CURVE('',#382,#386,#333,.T.);
#475=EDGE_CURVE('',#385,#378,#334,.T.);
#476=EDGE_CURVE('',#375,#366,#230,.T.);
#477=EDGE_CURVE('',#374,#381,#231,.T.);
#478=EDGE_CURVE('',#367,#378,#232,.T.);
#479=EDGE_CURVE('',#385,#369,#233,.T.);
#480=EDGE_CURVE('',#370,#386,#234,.T.);
#481=EDGE_CURVE('',#382,#371,#235,.T.);
#482=EDGE_CURVE('',#372,#384,#236,.T.);
#483=EDGE_CURVE('',#379,#373,#237,.T.);
#484=ORIENTED_EDGE('',*,*,#387,.F.);
#485=ORIENTED_EDGE('',*,*,#388,.T.);
#486=ORIENTED_EDGE('',*,*,#389,.F.);
#487=ORIENTED_EDGE('',*,*,#388,.F.);
#488=ORIENTED_EDGE('',*,*,#390,.F.);
#489=ORIENTED_EDGE('',*,*,#391,.T.);
#490=ORIENTED_EDGE('',*,*,#392,.F.);
#491=ORIENTED_EDGE('',*,*,#391,.F.);
#492=ORIENTED_EDGE('',*,*,#390,.T.);
#493=ORIENTED_EDGE('',*,*,#393,.F.);
#494=ORIENTED_EDGE('',*,*,#394,.T.);
#495=ORIENTED_EDGE('',*,*,#395,.F.);
#496=ORIENTED_EDGE('',*,*,#394,.F.);
#497=ORIENTED_EDGE('',*,*,#393,.T.);
#498=ORIENTED_EDGE('',*,*,#396,.F.);
#499=ORIENTED_EDGE('',*,*,#397,.T.);
#500=ORIENTED_EDGE('',*,*,#398,.F.);
#501=ORIENTED_EDGE('',*,*,#397,.F.);
#502=ORIENTED_EDGE('',*,*,#396,.T.);
#503=ORIENTED_EDGE('',*,*,#399,.F.);
#504=ORIENTED_EDGE('',*,*,#400,.T.);
#505=ORIENTED_EDGE('',*,*,#401,.F.);
#506=ORIENTED_EDGE('',*,*,#400,.F.);
#507=ORIENTED_EDGE('',*,*,#399,.T.);
#508=ORIENTED_EDGE('',*,*,#402,.F.);
#509=ORIENTED_EDGE('',*,*,#403,.F.);
#510=ORIENTED_EDGE('',*,*,#404,.F.);
#511=ORIENTED_EDGE('',*,*,#405,.F.);
#512=ORIENTED_EDGE('',*,*,#406,.F.);
#513=ORIENTED_EDGE('',*,*,#407,.F.);
#514=ORIENTED_EDGE('',*,*,#408,.F.);
#515=ORIENTED_EDGE('',*,*,#409,.F.);
#516=ORIENTED_EDGE('',*,*,#410,.F.);
#517=ORIENTED_EDGE('',*,*,#411,.T.);
#518=ORIENTED_EDGE('',*,*,#409,.T.);
#519=ORIENTED_EDGE('',*,*,#412,.T.);
#520=ORIENTED_EDGE('',*,*,#413,.T.);
#521=ORIENTED_EDGE('',*,*,#414,.F.);
#522=ORIENTED_EDGE('',*,*,#415,.F.);
#523=ORIENTED_EDGE('',*,*,#416,.F.);
#524=ORIENTED_EDGE('',*,*,#417,.F.);
#525=ORIENTED_EDGE('',*,*,#418,.F.);
#526=ORIENTED_EDGE('',*,*,#419,.F.);
#527=ORIENTED_EDGE('',*,*,#420,.F.);
#528=ORIENTED_EDGE('',*,*,#421,.F.);
#529=ORIENTED_EDGE('',*,*,#422,.F.);
#530=ORIENTED_EDGE('',*,*,#423,.T.);
#531=ORIENTED_EDGE('',*,*,#424,.T.);
#532=ORIENTED_EDGE('',*,*,#425,.T.);
#533=ORIENTED_EDGE('',*,*,#418,.T.);
#534=ORIENTED_EDGE('',*,*,#426,.T.);
#535=ORIENTED_EDGE('',*,*,#427,.T.);
#536=ORIENTED_EDGE('',*,*,#428,.T.);
#537=ORIENTED_EDGE('',*,*,#421,.T.);
#538=ORIENTED_EDGE('',*,*,#429,.T.);
#539=ORIENTED_EDGE('',*,*,#427,.F.);
#540=ORIENTED_EDGE('',*,*,#414,.T.);
#541=ORIENTED_EDGE('',*,*,#430,.T.);
#542=ORIENTED_EDGE('',*,*,#422,.T.);
#543=ORIENTED_EDGE('',*,*,#431,.T.);
#544=ORIENTED_EDGE('',*,*,#420,.T.);
#545=ORIENTED_EDGE('',*,*,#432,.T.);
#546=ORIENTED_EDGE('',*,*,#410,.T.);
#547=ORIENTED_EDGE('',*,*,#433,.T.);
#548=ORIENTED_EDGE('',*,*,#406,.T.);
#549=ORIENTED_EDGE('',*,*,#434,.T.);
#550=ORIENTED_EDGE('',*,*,#419,.T.);
#551=ORIENTED_EDGE('',*,*,#435,.T.);
#552=ORIENTED_EDGE('',*,*,#436,.T.);
#553=ORIENTED_EDGE('',*,*,#437,.T.);
#554=ORIENTED_EDGE('',*,*,#415,.T.);
#555=ORIENTED_EDGE('',*,*,#438,.T.);
#556=ORIENTED_EDGE('',*,*,#417,.T.);
#557=ORIENTED_EDGE('',*,*,#439,.T.);
#558=ORIENTED_EDGE('',*,*,#402,.T.);
#559=ORIENTED_EDGE('',*,*,#440,.T.);
#560=ORIENTED_EDGE('',*,*,#416,.T.);
#561=ORIENTED_EDGE('',*,*,#441,.T.);
#562=ORIENTED_EDGE('',*,*,#408,.T.);
#563=ORIENTED_EDGE('',*,*,#442,.T.);
#564=ORIENTED_EDGE('',*,*,#404,.T.);
#565=ORIENTED_EDGE('',*,*,#443,.T.);
#566=ORIENTED_EDGE('',*,*,#444,.T.);
#567=ORIENTED_EDGE('',*,*,#407,.T.);
#568=ORIENTED_EDGE('',*,*,#445,.T.);
#569=ORIENTED_EDGE('',*,*,#446,.T.);
#570=ORIENTED_EDGE('',*,*,#447,.T.);
#571=ORIENTED_EDGE('',*,*,#413,.F.);
#572=ORIENTED_EDGE('',*,*,#403,.T.);
#573=ORIENTED_EDGE('',*,*,#448,.T.);
#574=ORIENTED_EDGE('',*,*,#405,.T.);
#575=ORIENTED_EDGE('',*,*,#449,.T.);
#576=ORIENTED_EDGE('',*,*,#429,.F.);
#577=ORIENTED_EDGE('',*,*,#433,.F.);
#578=ORIENTED_EDGE('',*,*,#411,.F.);
#579=ORIENTED_EDGE('',*,*,#450,.T.);
#580=ORIENTED_EDGE('',*,*,#437,.F.);
#581=ORIENTED_EDGE('',*,*,#451,.F.);
#582=ORIENTED_EDGE('',*,*,#445,.F.);
#583=ORIENTED_EDGE('',*,*,#425,.F.);
#584=ORIENTED_EDGE('',*,*,#452,.F.);
#585=ORIENTED_EDGE('',*,*,#435,.F.);
#586=ORIENTED_EDGE('',*,*,#423,.F.);
#587=ORIENTED_EDGE('',*,*,#450,.F.);
#588=ORIENTED_EDGE('',*,*,#447,.F.);
#589=ORIENTED_EDGE('',*,*,#453,.F.);
#590=ORIENTED_EDGE('',*,*,#454,.T.);
#591=ORIENTED_EDGE('',*,*,#455,.F.);
#592=ORIENTED_EDGE('',*,*,#412,.F.);
#593=ORIENTED_EDGE('',*,*,#443,.F.);
#594=ORIENTED_EDGE('',*,*,#449,.F.);
#595=ORIENTED_EDGE('',*,*,#444,.F.);
#596=ORIENTED_EDGE('',*,*,#426,.F.);
#597=ORIENTED_EDGE('',*,*,#438,.F.);
#598=ORIENTED_EDGE('',*,*,#431,.F.);
#599=ORIENTED_EDGE('',*,*,#428,.F.);
#600=ORIENTED_EDGE('',*,*,#430,.F.);
#601=ORIENTED_EDGE('',*,*,#440,.F.);
#602=ORIENTED_EDGE('',*,*,#442,.F.);
#603=ORIENTED_EDGE('',*,*,#432,.F.);
#604=ORIENTED_EDGE('',*,*,#387,.T.);
#605=ORIENTED_EDGE('',*,*,#434,.F.);
#606=ORIENTED_EDGE('',*,*,#448,.F.);
#607=ORIENTED_EDGE('',*,*,#441,.F.);
#608=ORIENTED_EDGE('',*,*,#439,.F.);
#609=ORIENTED_EDGE('',*,*,#456,.T.);
#610=ORIENTED_EDGE('',*,*,#457,.T.);
#611=ORIENTED_EDGE('',*,*,#458,.T.);
#612=ORIENTED_EDGE('',*,*,#459,.T.);
#613=ORIENTED_EDGE('',*,*,#460,.T.);
#614=ORIENTED_EDGE('',*,*,#461,.T.);
#615=ORIENTED_EDGE('',*,*,#462,.T.);
#616=ORIENTED_EDGE('',*,*,#463,.T.);
#617=ORIENTED_EDGE('',*,*,#462,.F.);
#618=ORIENTED_EDGE('',*,*,#456,.F.);
#619=ORIENTED_EDGE('',*,*,#464,.T.);
#620=ORIENTED_EDGE('',*,*,#465,.T.);
#621=ORIENTED_EDGE('',*,*,#466,.T.);
#622=ORIENTED_EDGE('',*,*,#467,.T.);
#623=ORIENTED_EDGE('',*,*,#468,.T.);
#624=ORIENTED_EDGE('',*,*,#467,.F.);
#625=ORIENTED_EDGE('',*,*,#460,.F.);
#626=ORIENTED_EDGE('',*,*,#469,.T.);
#627=ORIENTED_EDGE('',*,*,#470,.T.);
#628=ORIENTED_EDGE('',*,*,#471,.T.);
#629=ORIENTED_EDGE('',*,*,#472,.T.);
#630=ORIENTED_EDGE('',*,*,#473,.T.);
#631=ORIENTED_EDGE('',*,*,#472,.F.);
#632=ORIENTED_EDGE('',*,*,#465,.F.);
#633=ORIENTED_EDGE('',*,*,#474,.T.);
#634=ORIENTED_EDGE('',*,*,#458,.F.);
#635=ORIENTED_EDGE('',*,*,#470,.F.);
#636=ORIENTED_EDGE('',*,*,#475,.T.);
#637=ORIENTED_EDGE('',*,*,#464,.F.);
#638=ORIENTED_EDGE('',*,*,#476,.T.);
#639=ORIENTED_EDGE('',*,*,#455,.T.);
#640=ORIENTED_EDGE('',*,*,#477,.T.);
#641=ORIENTED_EDGE('',*,*,#459,.F.);
#642=ORIENTED_EDGE('',*,*,#478,.F.);
#643=ORIENTED_EDGE('',*,*,#424,.F.);
#644=ORIENTED_EDGE('',*,*,#476,.F.);
#645=ORIENTED_EDGE('',*,*,#475,.F.);
#646=ORIENTED_EDGE('',*,*,#479,.T.);
#647=ORIENTED_EDGE('',*,*,#452,.T.);
#648=ORIENTED_EDGE('',*,*,#478,.T.);
#649=ORIENTED_EDGE('',*,*,#473,.F.);
#650=ORIENTED_EDGE('',*,*,#480,.F.);
#651=ORIENTED_EDGE('',*,*,#436,.F.);
#652=ORIENTED_EDGE('',*,*,#479,.F.);
#653=ORIENTED_EDGE('',*,*,#457,.F.);
#654=ORIENTED_EDGE('',*,*,#461,.F.);
#655=ORIENTED_EDGE('',*,*,#466,.F.);
#656=ORIENTED_EDGE('',*,*,#471,.F.);
#657=ORIENTED_EDGE('',*,*,#389,.T.);
#658=ORIENTED_EDGE('',*,*,#392,.T.);
#659=ORIENTED_EDGE('',*,*,#395,.T.);
#660=ORIENTED_EDGE('',*,*,#398,.T.);
#661=ORIENTED_EDGE('',*,*,#401,.T.);
#662=ORIENTED_EDGE('',*,*,#474,.F.);
#663=ORIENTED_EDGE('',*,*,#481,.T.);
#664=ORIENTED_EDGE('',*,*,#451,.T.);
#665=ORIENTED_EDGE('',*,*,#480,.T.);
#666=ORIENTED_EDGE('',*,*,#468,.F.);
#667=ORIENTED_EDGE('',*,*,#482,.F.);
#668=ORIENTED_EDGE('',*,*,#446,.F.);
#669=ORIENTED_EDGE('',*,*,#481,.F.);
#670=ORIENTED_EDGE('',*,*,#469,.F.);
#671=ORIENTED_EDGE('',*,*,#483,.T.);
#672=ORIENTED_EDGE('',*,*,#453,.T.);
#673=ORIENTED_EDGE('',*,*,#482,.T.);
#674=ORIENTED_EDGE('',*,*,#463,.F.);
#675=ORIENTED_EDGE('',*,*,#477,.F.);
#676=ORIENTED_EDGE('',*,*,#454,.F.);
#677=ORIENTED_EDGE('',*,*,#483,.F.);
#678=CYLINDRICAL_SURFACE('',#756,3.50000000000001);
#679=CYLINDRICAL_SURFACE('',#759,1.5);
#680=CYLINDRICAL_SURFACE('',#763,1.5);
#681=CYLINDRICAL_SURFACE('',#767,1.5);
#682=CYLINDRICAL_SURFACE('',#771,1.5);
#683=CYLINDRICAL_SURFACE('',#804,5.);
#684=CYLINDRICAL_SURFACE('',#807,5.);
#685=CYLINDRICAL_SURFACE('',#812,5.);
#686=CYLINDRICAL_SURFACE('',#817,5.);
#687=CYLINDRICAL_SURFACE('',#824,5.);
#688=CYLINDRICAL_SURFACE('',#826,5.);
#689=CYLINDRICAL_SURFACE('',#829,5.);
#690=CYLINDRICAL_SURFACE('',#831,5.);
#691=ADVANCED_FACE('',(#59),#678,.F.);
#692=ADVANCED_FACE('',(#60),#679,.T.);
#693=ADVANCED_FACE('',(#61),#25,.F.);
#694=ADVANCED_FACE('',(#62),#680,.T.);
#695=ADVANCED_FACE('',(#63),#26,.F.);
#696=ADVANCED_FACE('',(#64),#681,.T.);
#697=ADVANCED_FACE('',(#65),#27,.F.);
#698=ADVANCED_FACE('',(#66),#682,.T.);
#699=ADVANCED_FACE('',(#67),#28,.F.);
#700=ADVANCED_FACE('',(#68),#29,.T.);
#701=ADVANCED_FACE('',(#69),#30,.T.);
#702=ADVANCED_FACE('',(#70),#31,.T.);
#703=ADVANCED_FACE('',(#71),#32,.T.);
#704=ADVANCED_FACE('',(#72),#33,.T.);
#705=ADVANCED_FACE('',(#73),#34,.T.);
#706=ADVANCED_FACE('',(#74),#35,.T.);
#707=ADVANCED_FACE('',(#75),#36,.T.);
#708=ADVANCED_FACE('',(#76),#37,.T.);
#709=ADVANCED_FACE('',(#77),#38,.T.);
#710=ADVANCED_FACE('',(#78),#39,.T.);
#711=ADVANCED_FACE('',(#79),#40,.T.);
#712=ADVANCED_FACE('',(#80),#41,.T.);
#713=ADVANCED_FACE('',(#81),#42,.T.);
#714=ADVANCED_FACE('',(#82),#43,.T.);
#715=ADVANCED_FACE('',(#83),#44,.T.);
#716=ADVANCED_FACE('',(#84),#45,.T.);
#717=ADVANCED_FACE('',(#85),#46,.T.);
#718=ADVANCED_FACE('',(#86),#47,.F.);
#719=ADVANCED_FACE('',(#87),#48,.F.);
#720=ADVANCED_FACE('',(#88),#49,.F.);
#721=ADVANCED_FACE('',(#89),#50,.T.);
#722=ADVANCED_FACE('',(#90),#51,.T.);
#723=ADVANCED_FACE('',(#91,#19),#52,.T.);
#724=ADVANCED_FACE('',(#92),#53,.T.);
#725=ADVANCED_FACE('',(#93),#683,.F.);
#726=ADVANCED_FACE('',(#94),#684,.F.);
#727=ADVANCED_FACE('',(#95),#15,.F.);
#728=ADVANCED_FACE('',(#96),#685,.F.);
#729=ADVANCED_FACE('',(#97),#16,.F.);
#730=ADVANCED_FACE('',(#98),#686,.F.);
#731=ADVANCED_FACE('',(#99),#17,.F.);
#732=ADVANCED_FACE('',(#100),#18,.F.);
#733=ADVANCED_FACE('',(#101),#687,.F.);
#734=ADVANCED_FACE('',(#102),#54,.F.);
#735=ADVANCED_FACE('',(#103),#688,.F.);
#736=ADVANCED_FACE('',(#104),#55,.F.);
#737=ADVANCED_FACE('',(#105,#20,#21,#22,#23,#24),#56,.F.);
#738=ADVANCED_FACE('',(#106),#689,.F.);
#739=ADVANCED_FACE('',(#107),#57,.F.);
#740=ADVANCED_FACE('',(#108),#690,.F.);
#741=ADVANCED_FACE('',(#109),#58,.F.);
#742=CLOSED_SHELL('',(#691,#692,#693,#694,#695,#696,#697,#698,#699,#700,
#701,#702,#703,#704,#705,#706,#707,#708,#709,#710,#711,#712,#713,#714,#715,
#716,#717,#718,#719,#720,#721,#722,#723,#724,#725,#726,#727,#728,#729,#730,
#731,#732,#733,#734,#735,#736,#737,#738,#739,#740,#741));
#743=DERIVED_UNIT_ELEMENT(#745,1.);
#744=DERIVED_UNIT_ELEMENT(#1266,-3.);
#745=(
MASS_UNIT()
NAMED_UNIT(*)
SI_UNIT(.KILO.,.GRAM.)
);
#746=DERIVED_UNIT((#743,#744));
#747=MEASURE_REPRESENTATION_ITEM('density measure',
POSITIVE_RATIO_MEASURE(7850.),#746);
#748=PROPERTY_DEFINITION_REPRESENTATION(#753,#750);
#749=PROPERTY_DEFINITION_REPRESENTATION(#754,#751);
#750=REPRESENTATION('material name',(#752),#1263);
#751=REPRESENTATION('density',(#747),#1263);
#752=DESCRIPTIVE_REPRESENTATION_ITEM('Steel','Steel');
#753=PROPERTY_DEFINITION('material property','material name',#1273);
#754=PROPERTY_DEFINITION('material property','density of part',#1273);
#755=AXIS2_PLACEMENT_3D('',#1060,#833,#834);
#756=AXIS2_PLACEMENT_3D('',#1061,#835,#836);
#757=AXIS2_PLACEMENT_3D('',#1063,#837,#838);
#758=AXIS2_PLACEMENT_3D('',#1066,#840,#841);
#759=AXIS2_PLACEMENT_3D('',#1067,#842,#843);
#760=AXIS2_PLACEMENT_3D('',#1069,#844,#845);
#761=AXIS2_PLACEMENT_3D('',#1072,#847,#848);
#762=AXIS2_PLACEMENT_3D('',#1073,#849,#850);
#763=AXIS2_PLACEMENT_3D('',#1074,#851,#852);
#764=AXIS2_PLACEMENT_3D('',#1076,#853,#854);
#765=AXIS2_PLACEMENT_3D('',#1079,#856,#857);
#766=AXIS2_PLACEMENT_3D('',#1080,#858,#859);
#767=AXIS2_PLACEMENT_3D('',#1081,#860,#861);
#768=AXIS2_PLACEMENT_3D('',#1083,#862,#863);
#769=AXIS2_PLACEMENT_3D('',#1086,#865,#866);
#770=AXIS2_PLACEMENT_3D('',#1087,#867,#868);
#771=AXIS2_PLACEMENT_3D('',#1088,#869,#870);
#772=AXIS2_PLACEMENT_3D('',#1090,#871,#872);
#773=AXIS2_PLACEMENT_3D('',#1093,#874,#875);
#774=AXIS2_PLACEMENT_3D('',#1094,#876,#877);
#775=AXIS2_PLACEMENT_3D('',#1095,#878,#879);
#776=AXIS2_PLACEMENT_3D('',#1102,#883,#884);
#777=AXIS2_PLACEMENT_3D('',#1109,#888,#889);
#778=AXIS2_PLACEMENT_3D('',#1116,#893,#894);
#779=AXIS2_PLACEMENT_3D('',#1122,#898,#899);
#780=AXIS2_PLACEMENT_3D('',#1129,#903,#904);
#781=AXIS2_PLACEMENT_3D('',#1136,#908,#909);
#782=AXIS2_PLACEMENT_3D('',#1143,#913,#914);
#783=AXIS2_PLACEMENT_3D('',#1153,#920,#921);
#784=AXIS2_PLACEMENT_3D('',#1156,#924,#925);
#785=AXIS2_PLACEMENT_3D('',#1159,#928,#929);
#786=AXIS2_PLACEMENT_3D('',#1162,#932,#933);
#787=AXIS2_PLACEMENT_3D('',#1169,#938,#939);
#788=AXIS2_PLACEMENT_3D('',#1172,#942,#943);
#789=AXIS2_PLACEMENT_3D('',#1175,#946,#947);
#790=AXIS2_PLACEMENT_3D('',#1178,#950,#951);
#791=AXIS2_PLACEMENT_3D('',#1185,#956,#957);
#792=AXIS2_PLACEMENT_3D('',#1188,#960,#961);
#793=AXIS2_PLACEMENT_3D('',#1190,#963,#964);
#794=AXIS2_PLACEMENT_3D('',#1191,#965,#966);
#795=AXIS2_PLACEMENT_3D('',#1192,#967,#968);
#796=AXIS2_PLACEMENT_3D('',#1193,#969,#970);
#797=AXIS2_PLACEMENT_3D('',#1194,#971,#972);
#798=AXIS2_PLACEMENT_3D('',#1196,#973,#974);
#799=AXIS2_PLACEMENT_3D('',#1199,#976,#977);
#800=AXIS2_PLACEMENT_3D('',#1200,#978,#979);
#801=AXIS2_PLACEMENT_3D('',#1201,#980,#981);
#802=AXIS2_PLACEMENT_3D('',#1202,#982,#983);
#803=AXIS2_PLACEMENT_3D('',#1203,#984,#985);
#804=AXIS2_PLACEMENT_3D('',#1204,#986,#987);
#805=AXIS2_PLACEMENT_3D('',#1207,#988,#989);
#806=AXIS2_PLACEMENT_3D('',#1211,#991,#992);
#807=AXIS2_PLACEMENT_3D('',#1213,#994,#995);
#808=AXIS2_PLACEMENT_3D('',#1216,#996,#997);
#809=AXIS2_PLACEMENT_3D('',#1219,#999,#1000);
#810=AXIS2_PLACEMENT_3D('',#1221,#1002,#1003);
#811=AXIS2_PLACEMENT_3D('',#1222,#1004,#1005);
#812=AXIS2_PLACEMENT_3D('',#1223,#1006,#1007);
#813=AXIS2_PLACEMENT_3D('',#1226,#1008,#1009);
#814=AXIS2_PLACEMENT_3D('',#1229,#1011,#1012);
#815=AXIS2_PLACEMENT_3D('',#1231,#1014,#1015);
#816=AXIS2_PLACEMENT_3D('',#1232,#1016,#1017);
#817=AXIS2_PLACEMENT_3D('',#1233,#1018,#1019);
#818=AXIS2_PLACEMENT_3D('',#1235,#1020,#1021);
#819=AXIS2_PLACEMENT_3D('',#1238,#1023,#1024);
#820=AXIS2_PLACEMENT_3D('',#1240,#1026,#1027);
#821=AXIS2_PLACEMENT_3D('',#1241,#1028,#1029);
#822=AXIS2_PLACEMENT_3D('',#1242,#1030,#1031);
#823=AXIS2_PLACEMENT_3D('',#1243,#1032,#1033);
#824=AXIS2_PLACEMENT_3D('',#1244,#1034,#1035);
#825=AXIS2_PLACEMENT_3D('',#1247,#1038,#1039);
#826=AXIS2_PLACEMENT_3D('',#1249,#1041,#1042);
#827=AXIS2_PLACEMENT_3D('',#1251,#1044,#1045);
#828=AXIS2_PLACEMENT_3D('',#1253,#1047,#1048);
#829=AXIS2_PLACEMENT_3D('',#1254,#1049,#1050);
#830=AXIS2_PLACEMENT_3D('',#1256,#1052,#1053);
#831=AXIS2_PLACEMENT_3D('',#1258,#1055,#1056);
#832=AXIS2_PLACEMENT_3D('',#1260,#1058,#1059);
#833=DIRECTION('axis',(0.,0.,1.));
#834=DIRECTION('refdir',(1.,0.,0.));
#835=DIRECTION('center_axis',(0.,-1.,0.));
#836=DIRECTION('ref_axis',(1.,0.,0.));
#837=DIRECTION('center_axis',(0.,-1.,0.));
#838=DIRECTION('ref_axis',(1.,0.,0.));
#839=DIRECTION('',(0.,-1.,0.));
#840=DIRECTION('center_axis',(0.,1.,0.));
#841=DIRECTION('ref_axis',(1.,0.,0.));
#842=DIRECTION('center_axis',(0.,-1.,0.));
#843=DIRECTION('ref_axis',(1.,0.,0.));
#844=DIRECTION('center_axis',(0.,-1.,0.));
#845=DIRECTION('ref_axis',(1.,0.,0.));
#846=DIRECTION('',(0.,1.,0.));
#847=DIRECTION('center_axis',(0.,1.,0.));
#848=DIRECTION('ref_axis',(1.,0.,0.));
#849=DIRECTION('center_axis',(0.,1.,0.));
#850=DIRECTION('ref_axis',(1.,0.,0.));
#851=DIRECTION('center_axis',(0.,-1.,0.));
#852=DIRECTION('ref_axis',(1.,0.,0.));
#853=DIRECTION('center_axis',(0.,-1.,0.));
#854=DIRECTION('ref_axis',(1.,0.,0.));
#855=DIRECTION('',(0.,1.,0.));
#856=DIRECTION('center_axis',(0.,1.,0.));
#857=DIRECTION('ref_axis',(1.,0.,0.));
#858=DIRECTION('center_axis',(0.,1.,0.));
#859=DIRECTION('ref_axis',(1.,0.,0.));
#860=DIRECTION('center_axis',(0.,-1.,0.));
#861=DIRECTION('ref_axis',(1.,0.,0.));
#862=DIRECTION('center_axis',(0.,-1.,0.));
#863=DIRECTION('ref_axis',(1.,0.,0.));
#864=DIRECTION('',(0.,1.,0.));
#865=DIRECTION('center_axis',(0.,1.,0.));
#866=DIRECTION('ref_axis',(1.,0.,0.));
#867=DIRECTION('center_axis',(0.,1.,0.));
#868=DIRECTION('ref_axis',(1.,0.,0.));
#869=DIRECTION('center_axis',(0.,-1.,0.));
#870=DIRECTION('ref_axis',(1.,0.,0.));
#871=DIRECTION('center_axis',(0.,-1.,0.));
#872=DIRECTION('ref_axis',(1.,0.,0.));
#873=DIRECTION('',(0.,1.,0.));
#874=DIRECTION('center_axis',(0.,1.,0.));
#875=DIRECTION('ref_axis',(1.,0.,0.));
#876=DIRECTION('center_axis',(0.,1.,0.));
#877=DIRECTION('ref_axis',(1.,0.,0.));
#878=DIRECTION('center_axis',(0.577350269189627,0.577350269189625,-0.577350269189626));
#879=DIRECTION('ref_axis',(-0.707106781186547,0.,-0.707106781186548));
#880=DIRECTION('',(-0.707106781186547,0.707106781186548,0.));
#881=DIRECTION('',(0.707106781186547,0.,0.707106781186548));
#882=DIRECTION('',(-1.57009245868377E-15,-0.707106781186547,-0.707106781186547));
#883=DIRECTION('center_axis',(0.577350269189626,-0.577350269189626,-0.577350269189626));
#884=DIRECTION('ref_axis',(-0.707106781186547,0.,-0.707106781186548));
#885=DIRECTION('',(-0.707106781186547,0.,-0.707106781186548));
#886=DIRECTION('',(0.707106781186548,0.707106781186547,0.));
#887=DIRECTION('',(0.,-0.707106781186547,0.707106781186548));
#888=DIRECTION('center_axis',(-0.577350269189626,0.577350269189625,-0.577350269189626));
#889=DIRECTION('ref_axis',(-0.707106781186548,0.,0.707106781186548));
#890=DIRECTION('',(0.,0.707106781186547,0.707106781186547));
#891=DIRECTION('',(0.707106781186547,0.,-0.707106781186547));
#892=DIRECTION('',(-0.707106781186547,-0.707106781186547,1.57009245868377E-15));
#893=DIRECTION('center_axis',(-0.707106781186548,0.,-0.707106781186548));
#894=DIRECTION('ref_axis',(-0.707106781186548,0.,0.707106781186548));
#895=DIRECTION('',(0.,1.,0.));
#896=DIRECTION('',(0.,-1.,0.));
#897=DIRECTION('',(-0.577350269189626,-0.577350269189626,0.577350269189626));
#898=DIRECTION('center_axis',(0.577350269189624,0.577350269189626,0.577350269189627));
#899=DIRECTION('ref_axis',(0.707106781186549,0.,-0.707106781186546));
#900=DIRECTION('',(1.57009245868377E-15,0.707106781186547,-0.707106781186547));
#901=DIRECTION('',(-0.707106781186549,0.,0.707106781186546));
#902=DIRECTION('',(0.707106781186547,-0.707106781186548,3.14018491736755E-15));
#903=DIRECTION('center_axis',(0.577350269189624,-0.577350269189626,0.577350269189627));
#904=DIRECTION('ref_axis',(0.70710678118655,0.,-0.707106781186545));
#905=DIRECTION('',(0.707106781186549,0.,-0.707106781186546));
#906=DIRECTION('',(-1.57009245868377E-15,0.707106781186547,0.707106781186548));
#907=DIRECTION('',(-0.707106781186548,-0.707106781186547,-3.14018491736755E-15));
#908=DIRECTION('center_axis',(-0.577350269189626,0.577350269189626,0.577350269189626));
#909=DIRECTION('ref_axis',(0.707106781186547,0.,0.707106781186547));
#910=DIRECTION('',(0.707106781186547,0.707106781186547,0.));
#911=DIRECTION('',(-0.707106781186547,0.,-0.707106781186547));
#912=DIRECTION('',(0.,-0.707106781186547,0.707106781186547));
#913=DIRECTION('center_axis',(0.,-0.707106781186548,0.707106781186547));
#914=DIRECTION('ref_axis',(1.,0.,0.));
#915=DIRECTION('',(1.,0.,0.));
#916=DIRECTION('',(1.,0.,0.));
#917=DIRECTION('',(1.,0.,0.));
#918=DIRECTION('',(-1.,0.,0.));
#919=DIRECTION('',(-0.577350269189627,-0.577350269189626,-0.577350269189624));
#920=DIRECTION('center_axis',(-0.707106781186548,0.,0.707106781186548));
#921=DIRECTION('ref_axis',(0.707106781186548,0.,0.707106781186548));
#922=DIRECTION('',(0.,1.,0.));
#923=DIRECTION('',(0.,-1.,0.));
#924=DIRECTION('center_axis',(0.,0.707106781186548,0.707106781186548));
#925=DIRECTION('ref_axis',(1.,0.,0.));
#926=DIRECTION('',(-1.,0.,0.));
#927=DIRECTION('',(1.,0.,0.));
#928=DIRECTION('center_axis',(-0.707106781186548,0.707106781186548,0.));
#929=DIRECTION('ref_axis',(0.,0.,1.));
#930=DIRECTION('',(0.,0.,-1.));
#931=DIRECTION('',(0.,0.,1.));
#932=DIRECTION('center_axis',(0.707106781186547,-0.707106781186548,4.7418899758906E-17));
#933=DIRECTION('ref_axis',(6.70604511518551E-17,0.,-1.));
#934=DIRECTION('',(-6.70604511518551E-17,0.,1.));
#935=DIRECTION('',(6.70604511518551E-17,0.,-1.));
#936=DIRECTION('',(6.70604511518551E-17,0.,-1.));
#937=DIRECTION('',(6.70604511518551E-17,0.,-1.));
#938=DIRECTION('center_axis',(0.707106781186546,0.,0.707106781186549));
#939=DIRECTION('ref_axis',(0.707106781186549,0.,-0.707106781186546));
#940=DIRECTION('',(0.,-1.,0.));
#941=DIRECTION('',(0.,1.,0.));
#942=DIRECTION('center_axis',(0.707106781186548,0.707106781186547,4.7418899758906E-17));
#943=DIRECTION('ref_axis',(6.70604511518551E-17,0.,-1.));
#944=DIRECTION('',(-6.70604511518551E-17,0.,1.));
#945=DIRECTION('',(6.70604511518551E-17,0.,-1.));
#946=DIRECTION('center_axis',(-5.76180718783037E-17,0.707106781186548,-0.707106781186548));
#947=DIRECTION('ref_axis',(-1.,0.,8.14842586880849E-17));
#948=DIRECTION('',(1.,0.,-8.14842586880849E-17));
#949=DIRECTION('',(-1.,0.,8.14842586880849E-17));
#950=DIRECTION('center_axis',(-5.76180718783036E-17,-0.707106781186548,
-0.707106781186547));
#951=DIRECTION('ref_axis',(-1.,0.,8.14842586880849E-17));
#952=DIRECTION('',(1.,0.,-8.14842586880849E-17));
#953=DIRECTION('',(-1.,0.,8.14842586880849E-17));
#954=DIRECTION('',(-1.,0.,8.14842586880849E-17));
#955=DIRECTION('',(-1.,0.,8.14842586880849E-17));
#956=DIRECTION('center_axis',(0.707106781186548,0.,-0.707106781186547));
#957=DIRECTION('ref_axis',(-0.707106781186547,0.,-0.707106781186548));
#958=DIRECTION('',(0.,-1.,0.));
#959=DIRECTION('',(0.,1.,0.));
#960=DIRECTION('center_axis',(-1.,0.,0.));
#961=DIRECTION('ref_axis',(0.,0.,1.));
#962=DIRECTION('',(0.,0.,1.));
#963=DIRECTION('center_axis',(0.,1.,0.));
#964=DIRECTION('ref_axis',(1.,0.,0.));
#965=DIRECTION('center_axis',(0.,-1.,0.));
#966=DIRECTION('ref_axis',(0.707106781186547,0.,-0.707106781186548));
#967=DIRECTION('center_axis',(0.,1.,0.));
#968=DIRECTION('ref_axis',(1.,0.,0.));
#969=DIRECTION('center_axis',(0.,-1.,0.));
#970=DIRECTION('ref_axis',(0.707106781186548,0.,0.707106781186547));
#971=DIRECTION('center_axis',(0.,1.,0.));
#972=DIRECTION('ref_axis',(1.,0.,0.));
#973=DIRECTION('center_axis',(0.,-1.,0.));
#974=DIRECTION('ref_axis',(-0.707106781186547,0.,-0.707106781186547));
#975=DIRECTION('',(0.,0.,1.));
#976=DIRECTION('center_axis',(0.,-1.,0.));
#977=DIRECTION('ref_axis',(-0.707106781186547,0.,0.707106781186547));
#978=DIRECTION('center_axis',(-8.14842586880849E-17,0.,-1.));
#979=DIRECTION('ref_axis',(-1.,0.,8.14842586880849E-17));
#980=DIRECTION('center_axis',(0.,0.,1.));
#981=DIRECTION('ref_axis',(1.,0.,0.));
#982=DIRECTION('center_axis',(0.,1.,0.));
#983=DIRECTION('ref_axis',(0.,0.,1.));
#984=DIRECTION('center_axis',(1.,0.,6.70604511518551E-17));
#985=DIRECTION('ref_axis',(6.70604511518551E-17,0.,-1.));
#986=DIRECTION('center_axis',(1.,0.,0.));
#987=DIRECTION('ref_axis',(0.,0.707106781186547,0.707106781186547));
#988=DIRECTION('center_axis',(-1.,0.,0.));
#989=DIRECTION('ref_axis',(0.,0.,1.));
#990=DIRECTION('',(1.,0.,0.));
#991=DIRECTION('center_axis',(1.,0.,0.));
#992=DIRECTION('ref_axis',(0.,1.,0.));
#993=DIRECTION('',(-1.,0.,0.));
#994=DIRECTION('center_axis',(0.,0.,1.));
#995=DIRECTION('ref_axis',(-0.707106781186547,0.707106781186547,0.));
#996=DIRECTION('center_axis',(0.,0.,-1.));
#997=DIRECTION('ref_axis',(-1.,0.,0.));
#998=DIRECTION('',(0.,0.,1.));
#999=DIRECTION('center_axis',(1.77635683940025E-15,0.,1.));
#1000=DIRECTION('ref_axis',(0.,1.,0.));
#1001=DIRECTION('',(0.,0.,-1.));
#1002=DIRECTION('center_axis',(-0.408248290463863,-0.816496580927727,0.408248290463863));
#1003=DIRECTION('ref_axis',(-0.577350269189626,0.577350269189626,0.577350269189626));
#1004=DIRECTION('center_axis',(0.,-1.,0.));
#1005=DIRECTION('ref_axis',(-0.707106781186548,0.,0.707106781186548));
#1006=DIRECTION('center_axis',(-1.,0.,8.14842586880849E-17));
#1007=DIRECTION('ref_axis',(0.,0.707106781186547,-0.707106781186547));
#1008=DIRECTION('center_axis',(1.,0.,1.11022302462516E-16));
#1009=DIRECTION('ref_axis',(1.11022302462516E-16,0.,-1.));
#1010=DIRECTION('',(-1.,0.,8.14842586880849E-17));
#1011=DIRECTION('center_axis',(-1.,0.,0.));
#1012=DIRECTION('ref_axis',(0.,1.,0.));
#1013=DIRECTION('',(1.,0.,-8.14842586880849E-17));
#1014=DIRECTION('center_axis',(-0.408248290463862,-0.816496580927726,-0.408248290463863));
#1015=DIRECTION('ref_axis',(-0.577350269189626,0.577350269189626,-0.577350269189626));
#1016=DIRECTION('center_axis',(0.,-1.,0.));
#1017=DIRECTION('ref_axis',(-0.707106781186548,0.,-0.707106781186547));
#1018=DIRECTION('center_axis',(6.70604511518551E-17,0.,-1.));
#1019=DIRECTION('ref_axis',(0.707106781186548,0.707106781186547,0.));
#1020=DIRECTION('center_axis',(0.,0.,1.));
#1021=DIRECTION('ref_axis',(1.,0.,0.));
#1022=DIRECTION('',(6.70604511518551E-17,0.,-1.));
#1023=DIRECTION('center_axis',(0.,0.,-1.));
#1024=DIRECTION('ref_axis',(0.,1.,0.));
#1025=DIRECTION('',(-6.70604511518551E-17,0.,1.));
#1026=DIRECTION('center_axis',(0.408248290463863,-0.816496580927726,-0.408248290463863));
#1027=DIRECTION('ref_axis',(0.577350269189626,0.577350269189626,-0.577350269189626));
#1028=DIRECTION('center_axis',(0.,-1.,0.));
#1029=DIRECTION('ref_axis',(0.707106781186547,0.,-0.707106781186548));
#1030=DIRECTION('center_axis',(0.408248290463863,0.408248290463862,-0.816496580927726));
#1031=DIRECTION('ref_axis',(0.577350269189626,0.577350269189626,0.577350269189626));
#1032=DIRECTION('center_axis',(0.,-1.,0.));
#1033=DIRECTION('ref_axis',(0.707106781186547,0.,0.707106781186548));
#1034=DIRECTION('center_axis',(0.,1.,0.));
#1035=DIRECTION('ref_axis',(-0.707106781186547,0.,0.707106781186547));
#1036=DIRECTION('',(0.,-1.,0.));
#1037=DIRECTION('',(0.,1.,0.));
#1038=DIRECTION('center_axis',(0.,0.,1.));
#1039=DIRECTION('ref_axis',(1.,0.,0.));
#1040=DIRECTION('',(0.,1.,0.));
#1041=DIRECTION('center_axis',(0.,1.,0.));
#1042=DIRECTION('ref_axis',(0.707106781186548,0.,0.707106781186547));
#1043=DIRECTION('',(0.,-1.,0.));
#1044=DIRECTION('center_axis',(1.,0.,6.70604511518551E-17));
#1045=DIRECTION('ref_axis',(6.70604511518551E-17,0.,-1.));
#1046=DIRECTION('',(0.,1.,0.));
#1047=DIRECTION('center_axis',(0.,1.,0.));
#1048=DIRECTION('ref_axis',(0.,0.,1.));
#1049=DIRECTION('center_axis',(0.,1.,0.));
#1050=DIRECTION('ref_axis',(0.707106781186547,0.,-0.707106781186548));
#1051=DIRECTION('',(0.,-1.,0.));
#1052=DIRECTION('center_axis',(-8.14842586880849E-17,0.,-1.));
#1053=DIRECTION('ref_axis',(-1.,0.,8.14842586880849E-17));
#1054=DIRECTION('',(0.,1.,0.));
#1055=DIRECTION('center_axis',(0.,1.,0.));
#1056=DIRECTION('ref_axis',(-0.707106781186547,0.,-0.707106781186547));
#1057=DIRECTION('',(0.,-1.,0.));
#1058=DIRECTION('center_axis',(-1.,0.,0.));
#1059=DIRECTION('ref_axis',(0.,0.,1.));
#1060=CARTESIAN_POINT('',(0.,0.,0.));
#1061=CARTESIAN_POINT('Origin',(-22.9426096098013,50.,23.5368700397109));
#1062=CARTESIAN_POINT('',(-26.4426096098013,50.,23.5368700397109));
#1063=CARTESIAN_POINT('Origin',(-22.9426096098013,50.,23.5368700397109));
#1064=CARTESIAN_POINT('',(-26.4426096098013,48.,23.5368700397109));
#1065=CARTESIAN_POINT('',(-26.4426096098013,50.,23.5368700397109));
#1066=CARTESIAN_POINT('Origin',(-22.9426096098013,48.,23.5368700397109));
#1067=CARTESIAN_POINT('Origin',(-32.9426096098014,50.,9.53687003971089));
#1068=CARTESIAN_POINT('',(-34.4426096098014,45.,9.53687003971089));
#1069=CARTESIAN_POINT('Origin',(-32.9426096098014,45.,9.53687003971089));
#1070=CARTESIAN_POINT('',(-34.4426096098014,48.,9.53687003971089));
#1071=CARTESIAN_POINT('',(-34.4426096098014,50.,9.53687003971089));
#1072=CARTESIAN_POINT('Origin',(-32.9426096098014,48.,9.53687003971089));
#1073=CARTESIAN_POINT('Origin',(-32.9426096098014,45.,9.53687003971089));
#1074=CARTESIAN_POINT('Origin',(-12.9426096098013,50.,27.5368700397109));
#1075=CARTESIAN_POINT('',(-14.4426096098013,45.,27.5368700397109));
#1076=CARTESIAN_POINT('Origin',(-12.9426096098013,45.,27.5368700397109));
#1077=CARTESIAN_POINT('',(-14.4426096098013,48.,27.5368700397109));
#1078=CARTESIAN_POINT('',(-14.4426096098013,50.,27.5368700397109));
#1079=CARTESIAN_POINT('Origin',(-12.9426096098013,48.,27.5368700397109));
#1080=CARTESIAN_POINT('Origin',(-12.9426096098013,45.,27.5368700397109));
#1081=CARTESIAN_POINT('Origin',(-12.9426096098013,50.,9.53687003971091));
#1082=CARTESIAN_POINT('',(-14.4426096098013,45.,9.53687003971091));
#1083=CARTESIAN_POINT('Origin',(-12.9426096098013,45.,9.53687003971091));
#1084=CARTESIAN_POINT('',(-14.4426096098013,48.,9.53687003971091));
#1085=CARTESIAN_POINT('',(-14.4426096098013,50.,9.53687003971091));
#1086=CARTESIAN_POINT('Origin',(-12.9426096098013,48.,9.53687003971091));
#1087=CARTESIAN_POINT('Origin',(-12.9426096098013,45.,9.53687003971091));
#1088=CARTESIAN_POINT('Origin',(-32.9426096098014,50.,27.5368700397109));
#1089=CARTESIAN_POINT('',(-34.4426096098014,45.,27.5368700397109));
#1090=CARTESIAN_POINT('Origin',(-32.9426096098014,45.,27.5368700397109));
#1091=CARTESIAN_POINT('',(-34.4426096098014,48.,27.5368700397109));
#1092=CARTESIAN_POINT('',(-34.4426096098014,50.,27.5368700397109));
#1093=CARTESIAN_POINT('Origin',(-32.9426096098014,48.,27.5368700397109));
#1094=CARTESIAN_POINT('Origin',(-32.9426096098014,45.,27.5368700397109));
#1095=CARTESIAN_POINT('Origin',(2.00000000000001,48.,-24.5));
#1096=CARTESIAN_POINT('',(4.00000000000001,48.,-22.5));
#1097=CARTESIAN_POINT('',(2.00000000000001,50.,-22.5));
#1098=CARTESIAN_POINT('',(4.00000000000001,48.,-22.5));
#1099=CARTESIAN_POINT('',(2.00000000000001,48.,-24.5));
#1100=CARTESIAN_POINT('',(2.00000000000001,48.,-24.5));
#1101=CARTESIAN_POINT('',(2.00000000000001,50.,-22.5));
#1102=CARTESIAN_POINT('Origin',(2.00000000000001,0.,-22.5));
#1103=CARTESIAN_POINT('',(4.00000000000001,2.,-22.5));
#1104=CARTESIAN_POINT('',(2.00000000000001,2.,-24.5));
#1105=CARTESIAN_POINT('',(4.00000000000001,2.,-22.5));
#1106=CARTESIAN_POINT('',(2.00000000000001,0.,-22.5));
#1107=CARTESIAN_POINT('',(2.00000000000001,0.,-22.5));
#1108=CARTESIAN_POINT('',(2.00000000000001,2.,-24.5));
#1109=CARTESIAN_POINT('Origin',(-50.5,48.,-22.5));
#1110=CARTESIAN_POINT('',(-48.5,48.,-24.5));
#1111=CARTESIAN_POINT('',(-48.5,50.,-22.5));
#1112=CARTESIAN_POINT('',(-48.5,48.,-24.5));
#1113=CARTESIAN_POINT('',(-50.5,48.,-22.5));
#1114=CARTESIAN_POINT('',(-50.5,48.,-22.5));
#1115=CARTESIAN_POINT('',(-48.5,50.,-22.5));
#1116=CARTESIAN_POINT('Origin',(-49.5,0.,-23.5));
#1117=CARTESIAN_POINT('',(-50.5,0.,-22.5));
#1118=CARTESIAN_POINT('',(-50.5,0.,-22.5));
#1119=CARTESIAN_POINT('',(-48.5,2.,-24.5));
#1120=CARTESIAN_POINT('',(-48.5,0.,-24.5));
#1121=CARTESIAN_POINT('',(-48.5,2.,-24.5));
#1122=CARTESIAN_POINT('Origin',(4.,48.,48.));
#1123=CARTESIAN_POINT('',(2.,48.,50.));
#1124=CARTESIAN_POINT('',(2.00000000000001,50.,48.));
#1125=CARTESIAN_POINT('',(2.,48.,50.));
#1126=CARTESIAN_POINT('',(4.,48.,48.));
#1127=CARTESIAN_POINT('',(4.,48.,48.));
#1128=CARTESIAN_POINT('',(2.00000000000001,50.,48.));
#1129=CARTESIAN_POINT('Origin',(2.00000000000001,0.,48.));
#1130=CARTESIAN_POINT('',(2.,2.,50.));
#1131=CARTESIAN_POINT('',(4.,2.,48.));
#1132=CARTESIAN_POINT('',(2.,2.,50.));
#1133=CARTESIAN_POINT('',(2.,0.,48.));
#1134=CARTESIAN_POINT('',(2.00000000000001,0.,48.));
#1135=CARTESIAN_POINT('',(4.,2.,48.));
#1136=CARTESIAN_POINT('Origin',(-48.5,48.,50.));
#1137=CARTESIAN_POINT('',(-50.5,48.,48.));
#1138=CARTESIAN_POINT('',(-48.5,50.,48.));
#1139=CARTESIAN_POINT('',(-50.5,48.,48.));
#1140=CARTESIAN_POINT('',(-48.5,48.,50.));
#1141=CARTESIAN_POINT('',(-48.5,48.,50.));
#1142=CARTESIAN_POINT('',(-48.5,50.,48.));
#1143=CARTESIAN_POINT('Origin',(-36.875,1.,49.));
#1144=CARTESIAN_POINT('',(-50.5,0.,48.));
#1145=CARTESIAN_POINT('',(-43.5,0.,48.));
#1146=CARTESIAN_POINT('',(-36.875,0.,48.));
#1147=CARTESIAN_POINT('',(-3.,0.,48.));
#1148=CARTESIAN_POINT('',(-36.875,0.,48.));
#1149=CARTESIAN_POINT('',(-36.875,0.,48.));
#1150=CARTESIAN_POINT('',(-48.5,2.,50.));
#1151=CARTESIAN_POINT('',(-36.875,2.,50.));
#1152=CARTESIAN_POINT('',(-48.5,2.,50.));
#1153=CARTESIAN_POINT('Origin',(-49.5,0.,49.));
#1154=CARTESIAN_POINT('',(-48.5,0.,50.));
#1155=CARTESIAN_POINT('',(-50.5,0.,48.));
#1156=CARTESIAN_POINT('Origin',(-36.875,49.,49.));
#1157=CARTESIAN_POINT('',(-36.875,50.,48.));
#1158=CARTESIAN_POINT('',(-36.875,48.,50.));
#1159=CARTESIAN_POINT('Origin',(-49.5,49.,-5.875));
#1160=CARTESIAN_POINT('',(-48.5,50.,-5.875));
#1161=CARTESIAN_POINT('',(-50.5,48.,-5.875));
#1162=CARTESIAN_POINT('Origin',(3.,1.,31.375));
#1163=CARTESIAN_POINT('',(4.,2.,31.375));
#1164=CARTESIAN_POINT('',(2.,0.,43.));
#1165=CARTESIAN_POINT('',(2.,0.,31.375));
#1166=CARTESIAN_POINT('',(2.00000000000001,0.,-17.5));
#1167=CARTESIAN_POINT('',(2.,0.,31.375));
#1168=CARTESIAN_POINT('',(2.,0.,31.375));
#1169=CARTESIAN_POINT('Origin',(3.,0.,49.));
#1170=CARTESIAN_POINT('',(2.,0.,50.));
#1171=CARTESIAN_POINT('',(4.,0.,48.));
#1172=CARTESIAN_POINT('Origin',(3.00000000000001,49.,31.375));
#1173=CARTESIAN_POINT('',(2.00000000000001,50.,31.375));
#1174=CARTESIAN_POINT('',(4.,48.,31.375));
#1175=CARTESIAN_POINT('Origin',(-9.62499999999999,49.,-23.5));
#1176=CARTESIAN_POINT('',(-9.62499999999999,50.,-22.5));
#1177=CARTESIAN_POINT('',(-9.62499999999999,48.,-24.5));
#1178=CARTESIAN_POINT('Origin',(-9.62499999999999,1.,-23.5));
#1179=CARTESIAN_POINT('',(-9.62499999999999,2.,-24.5));
#1180=CARTESIAN_POINT('',(-2.99999999999999,0.,-22.5));
#1181=CARTESIAN_POINT('',(-9.62499999999999,0.,-22.5));
#1182=CARTESIAN_POINT('',(-43.5,0.,-22.5));
#1183=CARTESIAN_POINT('',(-9.62499999999999,0.,-22.5));
#1184=CARTESIAN_POINT('',(-9.62499999999999,0.,-22.5));
#1185=CARTESIAN_POINT('Origin',(3.00000000000001,0.,-23.5));
#1186=CARTESIAN_POINT('',(4.00000000000001,0.,-22.5));
#1187=CARTESIAN_POINT('',(2.00000000000001,0.,-24.5));
#1188=CARTESIAN_POINT('Origin',(-50.5,0.,-24.5));
#1189=CARTESIAN_POINT('',(-50.5,0.,-24.5));
#1190=CARTESIAN_POINT('Origin',(-23.25,0.,12.75));
#1191=CARTESIAN_POINT('Origin',(-2.99999999999999,0.,-17.5));
#1192=CARTESIAN_POINT('Origin',(-23.25,0.,12.75));
#1193=CARTESIAN_POINT('Origin',(-3.,0.,43.));
#1194=CARTESIAN_POINT('Origin',(-23.25,0.,12.75));
#1195=CARTESIAN_POINT('',(-48.5,0.,-17.5));
#1196=CARTESIAN_POINT('Origin',(-43.5,0.,-17.5));
#1197=CARTESIAN_POINT('',(-48.5,0.,43.));
#1198=CARTESIAN_POINT('',(-48.5,0.,-5.875));
#1199=CARTESIAN_POINT('Origin',(-43.5,0.,43.));
#1200=CARTESIAN_POINT('Origin',(4.00000000000001,0.,-24.5));
#1201=CARTESIAN_POINT('Origin',(-50.5,0.,50.));
#1202=CARTESIAN_POINT('Origin',(-23.25,50.,12.75));
#1203=CARTESIAN_POINT('Origin',(4.,0.,50.));
#1204=CARTESIAN_POINT('Origin',(-36.875,43.,43.));
#1205=CARTESIAN_POINT('',(-43.5,43.,48.));
#1206=CARTESIAN_POINT('',(-43.5,48.,43.));
#1207=CARTESIAN_POINT('Origin',(-43.5,43.,43.));
#1208=CARTESIAN_POINT('',(-3.,48.,43.));
#1209=CARTESIAN_POINT('',(-36.875,48.,43.));
#1210=CARTESIAN_POINT('',(-3.,43.,48.));
#1211=CARTESIAN_POINT('Origin',(-3.,43.,43.));
#1212=CARTESIAN_POINT('',(-36.875,43.,48.));
#1213=CARTESIAN_POINT('Origin',(-43.5,43.,-5.875));
#1214=CARTESIAN_POINT('',(-48.5,43.,-17.5));
#1215=CARTESIAN_POINT('',(-43.5,48.,-17.5));
#1216=CARTESIAN_POINT('Origin',(-43.5,43.,-17.5));
#1217=CARTESIAN_POINT('',(-43.5,48.,-5.875));
#1218=CARTESIAN_POINT('',(-48.5,43.,43.));
#1219=CARTESIAN_POINT('Origin',(-43.5,43.,43.));
#1220=CARTESIAN_POINT('',(-48.5,43.,-5.875));
#1221=CARTESIAN_POINT('Origin',(-43.5,43.,43.));
#1222=CARTESIAN_POINT('Origin',(-43.5,43.,43.));
#1223=CARTESIAN_POINT('Origin',(-9.62499999999999,43.,-17.5));
#1224=CARTESIAN_POINT('',(-2.99999999999999,43.,-22.5));
#1225=CARTESIAN_POINT('',(-2.99999999999999,48.,-17.5));
#1226=CARTESIAN_POINT('Origin',(-2.99999999999999,43.,-17.5));
#1227=CARTESIAN_POINT('',(-9.62499999999999,48.,-17.5));
#1228=CARTESIAN_POINT('',(-43.5,43.,-22.5));
#1229=CARTESIAN_POINT('Origin',(-43.5,43.,-17.5));
#1230=CARTESIAN_POINT('',(-9.62499999999999,43.,-22.5));
#1231=CARTESIAN_POINT('Origin',(-43.5,43.,-17.5));
#1232=CARTESIAN_POINT('Origin',(-43.5,43.,-17.5));
#1233=CARTESIAN_POINT('Origin',(-3.,43.,31.375));
#1234=CARTESIAN_POINT('',(2.,43.,43.));
#1235=CARTESIAN_POINT('Origin',(-3.,43.,43.));
#1236=CARTESIAN_POINT('',(-3.,48.,31.375));
#1237=CARTESIAN_POINT('',(2.00000000000001,43.,-17.5));
#1238=CARTESIAN_POINT('Origin',(-2.99999999999999,43.,-17.5));
#1239=CARTESIAN_POINT('',(2.00000000000001,43.,31.375));
#1240=CARTESIAN_POINT('Origin',(-2.99999999999999,43.,-17.5));
#1241=CARTESIAN_POINT('Origin',(-2.99999999999999,43.,-17.5));
#1242=CARTESIAN_POINT('Origin',(-3.,43.,43.));
#1243=CARTESIAN_POINT('Origin',(-3.,43.,43.));
#1244=CARTESIAN_POINT('Origin',(-43.5,0.,43.));
#1245=CARTESIAN_POINT('',(-43.5,0.,48.));
#1246=CARTESIAN_POINT('',(-48.5,0.,43.));
#1247=CARTESIAN_POINT('Origin',(-50.5,0.,48.));
#1248=CARTESIAN_POINT('',(-3.,0.,48.));
#1249=CARTESIAN_POINT('Origin',(-3.,0.,43.));
#1250=CARTESIAN_POINT('',(2.,0.,43.));
#1251=CARTESIAN_POINT('Origin',(2.,0.,50.));
#1252=CARTESIAN_POINT('',(2.00000000000001,0.,-17.5));
#1253=CARTESIAN_POINT('Origin',(-23.25,48.,12.75));
#1254=CARTESIAN_POINT('Origin',(-2.99999999999999,0.,-17.5));
#1255=CARTESIAN_POINT('',(-2.99999999999999,0.,-22.5));
#1256=CARTESIAN_POINT('Origin',(4.00000000000001,0.,-22.5));
#1257=CARTESIAN_POINT('',(-43.5,0.,-22.5));
#1258=CARTESIAN_POINT('Origin',(-43.5,0.,-17.5));
#1259=CARTESIAN_POINT('',(-48.5,0.,-17.5));
#1260=CARTESIAN_POINT('Origin',(-48.5,0.,-24.5));
#1261=UNCERTAINTY_MEASURE_WITH_UNIT(LENGTH_MEASURE(0.01),#1265,
'DISTANCE_ACCURACY_VALUE',
'Maximum model space distance between geometric entities at asserted c
onnectivities');
#1262=UNCERTAINTY_MEASURE_WITH_UNIT(LENGTH_MEASURE(0.01),#1265,
'DISTANCE_ACCURACY_VALUE',
'Maximum model space distance between geometric entities at asserted c
onnectivities');
#1263=(
GEOMETRIC_REPRESENTATION_CONTEXT(3)
GLOBAL_UNCERTAINTY_ASSIGNED_CONTEXT((#1261))
GLOBAL_UNIT_ASSIGNED_CONTEXT((#1265,#1267,#1268))
REPRESENTATION_CONTEXT('','3D')
);
#1264=(
GEOMETRIC_REPRESENTATION_CONTEXT(3)
GLOBAL_UNCERTAINTY_ASSIGNED_CONTEXT((#1262))
GLOBAL_UNIT_ASSIGNED_CONTEXT((#1265,#1267,#1268))
REPRESENTATION_CONTEXT('','3D')
);
#1265=(
LENGTH_UNIT()
NAMED_UNIT(*)
SI_UNIT(.MILLI.,.METRE.)
);
#1266=(
LENGTH_UNIT()
NAMED_UNIT(*)
SI_UNIT($,.METRE.)
);
#1267=(
NAMED_UNIT(*)
PLANE_ANGLE_UNIT()
SI_UNIT($,.RADIAN.)
);
#1268=(
NAMED_UNIT(*)
SI_UNIT($,.STERADIAN.)
SOLID_ANGLE_UNIT()
);
#1269=SHAPE_DEFINITION_REPRESENTATION(#1270,#1271);
#1270=PRODUCT_DEFINITION_SHAPE('',$,#1273);
#1271=SHAPE_REPRESENTATION('',(#755),#1263);
#1272=PRODUCT_DEFINITION_CONTEXT('part definition',#1277,'design');
#1273=PRODUCT_DEFINITION('2026-08-24-00-09-28-916','On/box',#1274,#1272);
#1274=PRODUCT_DEFINITION_FORMATION('',$,#1279);
#1275=PRODUCT_RELATED_PRODUCT_CATEGORY('On/box','On/box',(#1279));
#1276=APPLICATION_PROTOCOL_DEFINITION('international standard',
'automotive_design',2009,#1277);
#1277=APPLICATION_CONTEXT(
'Core Data for Automotive Mechanical Design Process');
#1278=PRODUCT_CONTEXT('part definition',#1277,'mechanical');
#1279=PRODUCT('2026-08-24-00-09-28-916','On/box',$,(#1278));
#1280=PRESENTATION_STYLE_ASSIGNMENT((#1281));
#1281=SURFACE_STYLE_USAGE(.BOTH.,#1282);
#1282=SURFACE_SIDE_STYLE('',(#1283));
#1283=SURFACE_STYLE_FILL_AREA(#1284);
#1284=FILL_AREA_STYLE('Steel - Satin',(#1285));
#1285=FILL_AREA_STYLE_COLOUR('Steel - Satin',#1286);
#1286=COLOUR_RGB('Steel - Satin',0.627450980392157,0.627450980392157,0.627450980392157);
ENDSEC;
END-ISO-10303-21;
