%TF.GenerationSoftware,KiCad,Pcbnew,9.0.7*%
%TF.CreationDate,2026-08-19T18:36:58+03:00*%
%TF.ProjectId,M-O-Y,4d2d4f2d-592e-46b6-9963-61645f706362,rev?*%
%TF.SameCoordinates,Original*%
%TF.FileFunction,Copper,L2,Bot*%
%TF.FilePolarity,Positive*%
%FSLAX46Y46*%
G04 Gerber Fmt 4.6, Leading zero omitted, Abs format (unit mm)*
G04 Created by KiCad (PCBNEW 9.0.7) date 2026-08-19 18:36:58*
%MOMM*%
%LPD*%
G01*
G04 APERTURE LIST*
%TA.AperFunction,ComponentPad*%
%ADD10R,1.000000X1.000000*%
%TD*%
%TA.AperFunction,ComponentPad*%
%ADD11C,1.000000*%
%TD*%
%TA.AperFunction,ComponentPad*%
%ADD12R,3.000000X3.000000*%
%TD*%
%TA.AperFunction,ComponentPad*%
%ADD13C,4.048000*%
%TD*%
%TA.AperFunction,ComponentPad*%
%ADD14R,1.530000X1.530000*%
%TD*%
%TA.AperFunction,ComponentPad*%
%ADD15C,1.530000*%
%TD*%
%TA.AperFunction,ViaPad*%
%ADD16C,0.600000*%
%TD*%
%TA.AperFunction,Conductor*%
%ADD17C,0.200000*%
%TD*%
G04 APERTURE END LIST*
D10*
%TO.P,Voice1,1,Pin_1*%
%TO.N,GND*%
X169000000Y-133460000D03*
D11*
%TO.P,Voice1,2,Pin_2*%
%TO.N,VCC*%
X169000000Y-134730000D03*
%TO.P,Voice1,3,Pin_3*%
%TO.N,Imax_I2c*%
X169000000Y-136000000D03*
%TD*%
D12*
%TO.P,U8,4,OUT-*%
%TO.N,GND*%
X191156500Y-58522500D03*
%TO.P,U8,3,OUT+*%
%TO.N,VCC*%
X191156500Y-75667500D03*
%TO.P,U8,1,IN+*%
%TO.N,Net-(U2-BAT)*%
X230653500Y-75667500D03*
%TO.P,U8,2,IN-*%
%TO.N,Net-(U2-GND)_1*%
X230653500Y-58522500D03*
D13*
%TO.P,U8,*%
%TO.N,*%
X195919000Y-59221000D03*
X225891000Y-74969000D03*
%TD*%
D14*
%TO.P,U1,J1_1,3V3*%
%TO.N,3V3_1*%
X137970000Y-58140000D03*
D15*
%TO.P,U1,J1_2,3V3*%
%TO.N,3V3*%
X135430000Y-58140000D03*
%TO.P,U1,J1_3,RST*%
%TO.N,unconnected-(U1-RST-PadJ1_3)*%
X132890000Y-58140000D03*
%TO.P,U1,J1_4,GPIO4*%
%TO.N,On{slash}of*%
X130350000Y-58140000D03*
%TO.P,U1,J1_5,GPIO5*%
%TO.N,unconnected-(U1-GPIO5-PadJ1_5)*%
X127810000Y-58140000D03*
%TO.P,U1,J1_6,GPIO6*%
%TO.N,M1*%
X125270000Y-58140000D03*
%TO.P,U1,J1_7,GPIO7*%
%TO.N,unconnected-(U1-GPIO7-PadJ1_7)*%
X122730000Y-58140000D03*
%TO.P,U1,J1_8,GPIO15*%
%TO.N,unconnected-(U1-GPIO15-PadJ1_8)*%
X120190000Y-58140000D03*
%TO.P,U1,J1_9,GPIO16*%
%TO.N,display_2*%
X117650000Y-58140000D03*
%TO.P,U1,J1_10,GPIO17*%
%TO.N,unconnected-(U1-GPIO17-PadJ1_10)*%
X115110000Y-58140000D03*
%TO.P,U1,J1_11,GPIO18*%
%TO.N,display_3*%
X112570000Y-58140000D03*
%TO.P,U1,J1_12,GPIO8*%
%TO.N,M2*%
X110030000Y-58140000D03*
%TO.P,U1,J1_13,GPIO3*%
%TO.N,unconnected-(U1-GPIO3-PadJ1_13)*%
X107490000Y-58140000D03*
%TO.P,U1,J1_14,GPIO46*%
%TO.N,unconnected-(U1-GPIO46-PadJ1_14)*%
X104950000Y-58140000D03*
%TO.P,U1,J1_15,GPIO9*%
%TO.N,unconnected-(U1-GPIO9-PadJ1_15)*%
X102410000Y-58140000D03*
%TO.P,U1,J1_16,GPIO10*%
%TO.N,unconnected-(U1-GPIO10-PadJ1_16)*%
X99870000Y-58140000D03*
%TO.P,U1,J1_17,GPIO11*%
%TO.N,SDA*%
X97330000Y-58140000D03*
%TO.P,U1,J1_18,GPIO12*%
%TO.N,SCL*%
X94790000Y-58140000D03*
%TO.P,U1,J1_19,GPIO13*%
%TO.N,unconnected-(U1-GPIO13-PadJ1_19)*%
X92250000Y-58140000D03*
%TO.P,U1,J1_20,GPIO14*%
%TO.N,display1*%
X89710000Y-58140000D03*
%TO.P,U1,J1_21,5V0*%
%TO.N,VCC*%
X87170000Y-58140000D03*
%TO.P,U1,J1_22,GND*%
%TO.N,GND*%
X84630000Y-58140000D03*
%TO.P,U1,J3_1,GND*%
X137970000Y-81000000D03*
%TO.P,U1,J3_2,U0TXD/GPIO43*%
%TO.N,unconnected-(U1-U0TXD{slash}GPIO43-PadJ3_2)*%
X135430000Y-81000000D03*
%TO.P,U1,J3_3,U0RXD/GPIO44*%
%TO.N,unconnected-(U1-U0RXD{slash}GPIO44-PadJ3_3)*%
X132890000Y-81000000D03*
%TO.P,U1,J3_4,GPIO1*%
%TO.N,unconnected-(U1-GPIO1-PadJ3_4)*%
X130350000Y-81000000D03*
%TO.P,U1,J3_5,GPIO2*%
%TO.N,Mic_I2c*%
X127810000Y-81000000D03*
%TO.P,U1,J3_6,MTMS/GPIO42*%
%TO.N,unconnected-(U1-MTMS{slash}GPIO42-PadJ3_6)*%
X125270000Y-81000000D03*
%TO.P,U1,J3_7,MTDI/GPIO41*%
%TO.N,unconnected-(U1-MTDI{slash}GPIO41-PadJ3_7)*%
X122730000Y-81000000D03*
%TO.P,U1,J3_8,MTDO/GPIO40*%
%TO.N,unconnected-(U1-MTDO{slash}GPIO40-PadJ3_8)*%
X120190000Y-81000000D03*
%TO.P,U1,J3_9,MTCK/GPIO39*%
%TO.N,unconnected-(U1-MTCK{slash}GPIO39-PadJ3_9)*%
X117650000Y-81000000D03*
%TO.P,U1,J3_10,GPIO38*%
%TO.N,unconnected-(U1-GPIO38-PadJ3_10)*%
X115110000Y-81000000D03*
%TO.P,U1,J3_11,GPIO37*%
%TO.N,unconnected-(U1-GPIO37-PadJ3_11)*%
X112570000Y-81000000D03*
%TO.P,U1,J3_12,GPIO36*%
%TO.N,unconnected-(U1-GPIO36-PadJ3_12)*%
X110030000Y-81000000D03*
%TO.P,U1,J3_13,GPIO35*%
%TO.N,unconnected-(U1-GPIO35-PadJ3_13)*%
X107490000Y-81000000D03*
%TO.P,U1,J3_14,GPIO0*%
%TO.N,Imax_I2c*%
X104950000Y-81000000D03*
%TO.P,U1,J3_15,GPIO45*%
%TO.N,unconnected-(U1-GPIO45-PadJ3_15)*%
X102410000Y-81000000D03*
%TO.P,U1,J3_16,GPIO48*%
%TO.N,unconnected-(U1-GPIO48-PadJ3_16)*%
X99870000Y-81000000D03*
%TO.P,U1,J3_17,GPIO47*%
%TO.N,unconnected-(U1-GPIO47-PadJ3_17)*%
X97330000Y-81000000D03*
%TO.P,U1,J3_18,GPIO21*%
%TO.N,unconnected-(U1-GPIO21-PadJ3_18)*%
X94790000Y-81000000D03*
%TO.P,U1,J3_19,USB_D+/GPIO20*%
%TO.N,unconnected-(U1-USB_D+{slash}GPIO20-PadJ3_19)*%
X92250000Y-81000000D03*
%TO.P,U1,J3_20,USB_D-/GPIO19*%
%TO.N,unconnected-(U1-USB_D-{slash}GPIO19-PadJ3_20)*%
X89710000Y-81000000D03*
%TO.P,U1,J3_21,GND*%
%TO.N,GND*%
X87170000Y-81000000D03*
%TO.P,U1,J3_22,GND*%
X84630000Y-81000000D03*
%TD*%
D10*
%TO.P,TouchSensor1,1,Pin_1*%
%TO.N,GND*%
X151850000Y-133460000D03*
D11*
%TO.P,TouchSensor1,2,Pin_2*%
%TO.N,3.3*%
X151850000Y-134730000D03*
%TO.P,TouchSensor1,3,Pin_3*%
%TO.N,On{slash}of*%
X151850000Y-136000000D03*
%TD*%
D10*
%TO.P,TFT1.5inch1,1,Pin_1*%
%TO.N,display_3*%
X82000000Y-112540000D03*
D11*
%TO.P,TFT1.5inch1,2,Pin_2*%
%TO.N,display_2*%
X82000000Y-111270000D03*
%TO.P,TFT1.5inch1,3,Pin_3*%
%TO.N,display1*%
X82000000Y-110000000D03*
%TO.P,TFT1.5inch1,4,Pin_4*%
%TO.N,SDA*%
X82000000Y-108730000D03*
%TO.P,TFT1.5inch1,5,Pin_5*%
%TO.N,SCL*%
X82000000Y-107460000D03*
%TO.P,TFT1.5inch1,6,Pin_6*%
%TO.N,3.3*%
X82000000Y-106190000D03*
%TO.P,TFT1.5inch1,7,Pin_7*%
%TO.N,GND*%
X82000000Y-104920000D03*
%TD*%
D10*
%TO.P,Servo2,1,Pin_1*%
%TO.N,M2*%
X137000000Y-133460000D03*
D11*
%TO.P,Servo2,2,Pin_2*%
%TO.N,VCC*%
X137000000Y-134730000D03*
%TO.P,Servo2,3,Pin_3*%
%TO.N,GND*%
X137000000Y-136000000D03*
%TD*%
D10*
%TO.P,Servo1,1,Pin_1*%
%TO.N,M1*%
X119000000Y-133460000D03*
D11*
%TO.P,Servo1,2,Pin_2*%
%TO.N,VCC*%
X119000000Y-134730000D03*
%TO.P,Servo1,3,Pin_3*%
%TO.N,GND*%
X119000000Y-136000000D03*
%TD*%
D10*
%TO.P,Mic1,1,Pin_1*%
%TO.N,GND*%
X98000000Y-133460000D03*
D11*
%TO.P,Mic1,2,Pin_2*%
%TO.N,3.3*%
X98000000Y-134730000D03*
%TO.P,Mic1,3,Pin_3*%
%TO.N,Mic_I2c*%
X98000000Y-136000000D03*
%TD*%
D16*
%TO.N,3.3*%
X116000000Y-138000000D03*
%TD*%
D17*
%TO.N,VCC*%
X166929000Y-136801000D02*
X139071000Y-136801000D01*
X139071000Y-136801000D02*
X137000000Y-134730000D01*
X169000000Y-134730000D02*
X166929000Y-136801000D01*
%TO.N,display_2*%
X97790000Y-78000000D02*
X117650000Y-58140000D01*
X89000000Y-102000000D02*
X87000000Y-100000000D01*
X87000000Y-100000000D02*
X83000000Y-100000000D01*
X83000000Y-100000000D02*
X83000000Y-78000000D01*
X89000000Y-111000000D02*
X89000000Y-102000000D01*
X88730000Y-111270000D02*
X89000000Y-111000000D01*
X82000000Y-111270000D02*
X88730000Y-111270000D01*
X83000000Y-78000000D02*
X97790000Y-78000000D01*
%TO.N,3.3*%
X81810000Y-106000000D02*
X78000000Y-106000000D01*
X82000000Y-106190000D02*
X81810000Y-106000000D01*
X96000000Y-136000000D02*
X96000000Y-135000000D01*
X78000000Y-118000000D02*
X96000000Y-136000000D01*
X78000000Y-106000000D02*
X78000000Y-118000000D01*
X96000000Y-135000000D02*
X96270000Y-134730000D01*
X96000000Y-138000000D02*
X96000000Y-136000000D01*
X116000000Y-138000000D02*
X96000000Y-138000000D01*
X96270000Y-134730000D02*
X98000000Y-134730000D01*
%TO.N,Mic_I2c*%
X114000000Y-85000000D02*
X123810000Y-85000000D01*
X114000000Y-128000000D02*
X114000000Y-85000000D01*
X123810000Y-85000000D02*
X127810000Y-81000000D01*
X106000000Y-136000000D02*
X114000000Y-128000000D01*
X98000000Y-136000000D02*
X106000000Y-136000000D01*
%TO.N,On{slash}of*%
X132490000Y-56000000D02*
X130350000Y-58140000D01*
X145000000Y-136000000D02*
X145000000Y-56000000D01*
X151850000Y-136000000D02*
X145000000Y-136000000D01*
X145000000Y-56000000D02*
X132490000Y-56000000D01*
%TD*%
%TA.AperFunction,Conductor*%
%TO.N,GND*%
G36*
X88224417Y-81700863D02*
G01*
X88224418Y-81700863D01*
X88251924Y-81663005D01*
X88329234Y-81511277D01*
X88377208Y-81460481D01*
X88445029Y-81443686D01*
X88511164Y-81466223D01*
X88550204Y-81511277D01*
X88570662Y-81551427D01*
X88627647Y-81663266D01*
X88744731Y-81824418D01*
X88885582Y-81965269D01*
X89046734Y-82082353D01*
X89158572Y-82139337D01*
X89224219Y-82172786D01*
X89413657Y-82234338D01*
X89413658Y-82234338D01*
X89413661Y-82234339D01*
X89610403Y-82265500D01*
X89610404Y-82265500D01*
X89809596Y-82265500D01*
X89809597Y-82265500D01*
X90006339Y-82234339D01*
X90006342Y-82234338D01*
X90006343Y-82234338D01*
X90195780Y-82172786D01*
X90195780Y-82172785D01*
X90195783Y-82172785D01*
X90373266Y-82082353D01*
X90534418Y-81965269D01*
X90675269Y-81824418D01*
X90792353Y-81663266D01*
X90869515Y-81511827D01*
X90917490Y-81461031D01*
X90985311Y-81444236D01*
X91051446Y-81466773D01*
X91090485Y-81511827D01*
X91167647Y-81663266D01*
X91284731Y-81824418D01*
X91425582Y-81965269D01*
X91586734Y-82082353D01*
X91698572Y-82139337D01*
X91764219Y-82172786D01*
X91953657Y-82234338D01*
X91953658Y-82234338D01*
X91953661Y-82234339D01*
X92150403Y-82265500D01*
X92150404Y-82265500D01*
X92349596Y-82265500D01*
X92349597Y-82265500D01*
X92546339Y-82234339D01*
X92546342Y-82234338D01*
X92546343Y-82234338D01*
X92735780Y-82172786D01*
X92735780Y-82172785D01*
X92735783Y-82172785D01*
X92913266Y-82082353D01*
X93074418Y-81965269D01*
X93215269Y-81824418D01*
X93332353Y-81663266D01*
X93409515Y-81511827D01*
X93457490Y-81461031D01*
X93525311Y-81444236D01*
X93591446Y-81466773D01*
X93630485Y-81511827D01*
X93707647Y-81663266D01*
X93824731Y-81824418D01*
X93965582Y-81965269D01*
X94126734Y-82082353D01*
X94238572Y-82139337D01*
X94304219Y-82172786D01*
X94493657Y-82234338D01*
X94493658Y-82234338D01*
X94493661Y-82234339D01*
X94690403Y-82265500D01*
X94690404Y-82265500D01*
X94889596Y-82265500D01*
X94889597Y-82265500D01*
X95086339Y-82234339D01*
X95086342Y-82234338D01*
X95086343Y-82234338D01*
X95275780Y-82172786D01*
X95275780Y-82172785D01*
X95275783Y-82172785D01*
X95453266Y-82082353D01*
X95614418Y-81965269D01*
X95755269Y-81824418D01*
X95872353Y-81663266D01*
X95949515Y-81511827D01*
X95997490Y-81461031D01*
X96065311Y-81444236D01*
X96131446Y-81466773D01*
X96170485Y-81511827D01*
X96247647Y-81663266D01*
X96364731Y-81824418D01*
X96505582Y-81965269D01*
X96666734Y-82082353D01*
X96778572Y-82139337D01*
X96844219Y-82172786D01*
X97033657Y-82234338D01*
X97033658Y-82234338D01*
X97033661Y-82234339D01*
X97230403Y-82265500D01*
X97230404Y-82265500D01*
X97429596Y-82265500D01*
X97429597Y-82265500D01*
X97626339Y-82234339D01*
X97626342Y-82234338D01*
X97626343Y-82234338D01*
X97815780Y-82172786D01*
X97815780Y-82172785D01*
X97815783Y-82172785D01*
X97993266Y-82082353D01*
X98154418Y-81965269D01*
X98295269Y-81824418D01*
X98412353Y-81663266D01*
X98489515Y-81511827D01*
X98537490Y-81461031D01*
X98605311Y-81444236D01*
X98671446Y-81466773D01*
X98710485Y-81511827D01*
X98787647Y-81663266D01*
X98904731Y-81824418D01*
X99045582Y-81965269D01*
X99206734Y-82082353D01*
X99318572Y-82139337D01*
X99384219Y-82172786D01*
X99573657Y-82234338D01*
X99573658Y-82234338D01*
X99573661Y-82234339D01*
X99770403Y-82265500D01*
X99770404Y-82265500D01*
X99969596Y-82265500D01*
X99969597Y-82265500D01*
X100166339Y-82234339D01*
X100166342Y-82234338D01*
X100166343Y-82234338D01*
X100355780Y-82172786D01*
X100355780Y-82172785D01*
X100355783Y-82172785D01*
X100533266Y-82082353D01*
X100694418Y-81965269D01*
X100835269Y-81824418D01*
X100952353Y-81663266D01*
X101029515Y-81511827D01*
X101077490Y-81461031D01*
X101145311Y-81444236D01*
X101211446Y-81466773D01*
X101250485Y-81511827D01*
X101327647Y-81663266D01*
X101444731Y-81824418D01*
X101585582Y-81965269D01*
X101746734Y-82082353D01*
X101858572Y-82139337D01*
X101924219Y-82172786D01*
X102113657Y-82234338D01*
X102113658Y-82234338D01*
X102113661Y-82234339D01*
X102310403Y-82265500D01*
X102310404Y-82265500D01*
X102509596Y-82265500D01*
X102509597Y-82265500D01*
X102706339Y-82234339D01*
X102706342Y-82234338D01*
X102706343Y-82234338D01*
X102895780Y-82172786D01*
X102895780Y-82172785D01*
X102895783Y-82172785D01*
X103073266Y-82082353D01*
X103234418Y-81965269D01*
X103375269Y-81824418D01*
X103492353Y-81663266D01*
X103569515Y-81511827D01*
X103617490Y-81461031D01*
X103685311Y-81444236D01*
X103751446Y-81466773D01*
X103790485Y-81511827D01*
X103867647Y-81663266D01*
X103984731Y-81824418D01*
X104125582Y-81965269D01*
X104286734Y-82082353D01*
X104398572Y-82139337D01*
X104464219Y-82172786D01*
X104653657Y-82234338D01*
X104653658Y-82234338D01*
X104653661Y-82234339D01*
X104850403Y-82265500D01*
X104850404Y-82265500D01*
X105049596Y-82265500D01*
X105049597Y-82265500D01*
X105246339Y-82234339D01*
X105246342Y-82234338D01*
X105246343Y-82234338D01*
X105435780Y-82172786D01*
X105435780Y-82172785D01*
X105435783Y-82172785D01*
X105613266Y-82082353D01*
X105774418Y-81965269D01*
X105915269Y-81824418D01*
X106032353Y-81663266D01*
X106109515Y-81511827D01*
X106157490Y-81461031D01*
X106225311Y-81444236D01*
X106291446Y-81466773D01*
X106330485Y-81511827D01*
X106407647Y-81663266D01*
X106524731Y-81824418D01*
X106665582Y-81965269D01*
X106826734Y-82082353D01*
X106938572Y-82139337D01*
X107004219Y-82172786D01*
X107193657Y-82234338D01*
X107193658Y-82234338D01*
X107193661Y-82234339D01*
X107390403Y-82265500D01*
X107390404Y-82265500D01*
X107589596Y-82265500D01*
X107589597Y-82265500D01*
X107786339Y-82234339D01*
X107786342Y-82234338D01*
X107786343Y-82234338D01*
X107975780Y-82172786D01*
X107975780Y-82172785D01*
X107975783Y-82172785D01*
X108153266Y-82082353D01*
X108314418Y-81965269D01*
X108455269Y-81824418D01*
X108572353Y-81663266D01*
X108649515Y-81511827D01*
X108697490Y-81461031D01*
X108765311Y-81444236D01*
X108831446Y-81466773D01*
X108870485Y-81511827D01*
X108947647Y-81663266D01*
X109064731Y-81824418D01*
X109205582Y-81965269D01*
X109366734Y-82082353D01*
X109478572Y-82139337D01*
X109544219Y-82172786D01*
X109733657Y-82234338D01*
X109733658Y-82234338D01*
X109733661Y-82234339D01*
X109930403Y-82265500D01*
X109930404Y-82265500D01*
X110129596Y-82265500D01*
X110129597Y-82265500D01*
X110326339Y-82234339D01*
X110326342Y-82234338D01*
X110326343Y-82234338D01*
X110515780Y-82172786D01*
X110515780Y-82172785D01*
X110515783Y-82172785D01*
X110693266Y-82082353D01*
X110854418Y-81965269D01*
X110995269Y-81824418D01*
X111112353Y-81663266D01*
X111189515Y-81511827D01*
X111237490Y-81461031D01*
X111305311Y-81444236D01*
X111371446Y-81466773D01*
X111410485Y-81511827D01*
X111487647Y-81663266D01*
X111604731Y-81824418D01*
X111745582Y-81965269D01*
X111906734Y-82082353D01*
X112018572Y-82139337D01*
X112084219Y-82172786D01*
X112273657Y-82234338D01*
X112273658Y-82234338D01*
X112273661Y-82234339D01*
X112470403Y-82265500D01*
X112470404Y-82265500D01*
X112669596Y-82265500D01*
X112669597Y-82265500D01*
X112866339Y-82234339D01*
X112866342Y-82234338D01*
X112866343Y-82234338D01*
X113055780Y-82172786D01*
X113055780Y-82172785D01*
X113055783Y-82172785D01*
X113233266Y-82082353D01*
X113394418Y-81965269D01*
X113535269Y-81824418D01*
X113652353Y-81663266D01*
X113729515Y-81511827D01*
X113777490Y-81461031D01*
X113845311Y-81444236D01*
X113911446Y-81466773D01*
X113950485Y-81511827D01*
X114027647Y-81663266D01*
X114144731Y-81824418D01*
X114285582Y-81965269D01*
X114446734Y-82082353D01*
X114558572Y-82139337D01*
X114624219Y-82172786D01*
X114813657Y-82234338D01*
X114813658Y-82234338D01*
X114813661Y-82234339D01*
X115010403Y-82265500D01*
X115010404Y-82265500D01*
X115209596Y-82265500D01*
X115209597Y-82265500D01*
X115406339Y-82234339D01*
X115406342Y-82234338D01*
X115406343Y-82234338D01*
X115595780Y-82172786D01*
X115595780Y-82172785D01*
X115595783Y-82172785D01*
X115773266Y-82082353D01*
X115934418Y-81965269D01*
X116075269Y-81824418D01*
X116192353Y-81663266D01*
X116269515Y-81511827D01*
X116317490Y-81461031D01*
X116385311Y-81444236D01*
X116451446Y-81466773D01*
X116490485Y-81511827D01*
X116567647Y-81663266D01*
X116684731Y-81824418D01*
X116825582Y-81965269D01*
X116986734Y-82082353D01*
X117098572Y-82139337D01*
X117164219Y-82172786D01*
X117353657Y-82234338D01*
X117353658Y-82234338D01*
X117353661Y-82234339D01*
X117550403Y-82265500D01*
X117550404Y-82265500D01*
X117749596Y-82265500D01*
X117749597Y-82265500D01*
X117946339Y-82234339D01*
X117946342Y-82234338D01*
X117946343Y-82234338D01*
X118135780Y-82172786D01*
X118135780Y-82172785D01*
X118135783Y-82172785D01*
X118313266Y-82082353D01*
X118474418Y-81965269D01*
X118615269Y-81824418D01*
X118732353Y-81663266D01*
X118809515Y-81511827D01*
X118857490Y-81461031D01*
X118925311Y-81444236D01*
X118991446Y-81466773D01*
X119030485Y-81511827D01*
X119107647Y-81663266D01*
X119224731Y-81824418D01*
X119365582Y-81965269D01*
X119526734Y-82082353D01*
X119638572Y-82139337D01*
X119704219Y-82172786D01*
X119893657Y-82234338D01*
X119893658Y-82234338D01*
X119893661Y-82234339D01*
X120090403Y-82265500D01*
X120090404Y-82265500D01*
X120289596Y-82265500D01*
X120289597Y-82265500D01*
X120486339Y-82234339D01*
X120486342Y-82234338D01*
X120486343Y-82234338D01*
X120675780Y-82172786D01*
X120675780Y-82172785D01*
X120675783Y-82172785D01*
X120853266Y-82082353D01*
X121014418Y-81965269D01*
X121155269Y-81824418D01*
X121272353Y-81663266D01*
X121349515Y-81511827D01*
X121397490Y-81461031D01*
X121465311Y-81444236D01*
X121531446Y-81466773D01*
X121570485Y-81511827D01*
X121647647Y-81663266D01*
X121764731Y-81824418D01*
X121905582Y-81965269D01*
X122066734Y-82082353D01*
X122178572Y-82139337D01*
X122244219Y-82172786D01*
X122433657Y-82234338D01*
X122433658Y-82234338D01*
X122433661Y-82234339D01*
X122630403Y-82265500D01*
X122630404Y-82265500D01*
X122829596Y-82265500D01*
X122829597Y-82265500D01*
X123026339Y-82234339D01*
X123026342Y-82234338D01*
X123026343Y-82234338D01*
X123215780Y-82172786D01*
X123215780Y-82172785D01*
X123215783Y-82172785D01*
X123393266Y-82082353D01*
X123554418Y-81965269D01*
X123695269Y-81824418D01*
X123812353Y-81663266D01*
X123889515Y-81511827D01*
X123937490Y-81461031D01*
X124005311Y-81444236D01*
X124071446Y-81466773D01*
X124110485Y-81511827D01*
X124187647Y-81663266D01*
X124304731Y-81824418D01*
X124445582Y-81965269D01*
X124606734Y-82082353D01*
X124718572Y-82139337D01*
X124784219Y-82172786D01*
X124973657Y-82234338D01*
X124973658Y-82234338D01*
X124973661Y-82234339D01*
X125170403Y-82265500D01*
X125170404Y-82265500D01*
X125369596Y-82265500D01*
X125369597Y-82265500D01*
X125379615Y-82263913D01*
X125448906Y-82272864D01*
X125502360Y-82317858D01*
X125523003Y-82384609D01*
X125504281Y-82451923D01*
X125486697Y-82474066D01*
X123597584Y-84363181D01*
X123536261Y-84396666D01*
X123509903Y-84399500D01*
X113920943Y-84399500D01*
X113768216Y-84440423D01*
X113768209Y-84440426D01*
X113631290Y-84519475D01*
X113631282Y-84519481D01*
X113519481Y-84631282D01*
X113519475Y-84631290D01*
X113440426Y-84768209D01*
X113440423Y-84768216D01*
X113399500Y-84920943D01*
X113399500Y-127699903D01*
X113379815Y-127766942D01*
X113363181Y-127787584D01*
X105787584Y-135363181D01*
X105726261Y-135396666D01*
X105699903Y-135399500D01*
X98987934Y-135399500D01*
X98920895Y-135379815D01*
X98875140Y-135327011D01*
X98865196Y-135257853D01*
X98883796Y-135209309D01*
X98883759Y-135209289D01*
X98883919Y-135208988D01*
X98884831Y-135206610D01*
X98885844Y-135205092D01*
X98886632Y-135203914D01*
X98962051Y-135021835D01*
X99000229Y-134829903D01*
X99000500Y-134828543D01*
X99000500Y-134631456D01*
X98962052Y-134438170D01*
X98962051Y-134438169D01*
X98962051Y-134438165D01*
X98919458Y-134335337D01*
X98911990Y-134265869D01*
X98934757Y-134213571D01*
X98943351Y-134202091D01*
X98993597Y-134067376D01*
X98993598Y-134067372D01*
X98999999Y-134007844D01*
X99000000Y-134007827D01*
X99000000Y-133710000D01*
X98209618Y-133710000D01*
X98260064Y-133659554D01*
X98302851Y-133585445D01*
X98325000Y-133502787D01*
X98325000Y-133417213D01*
X98302851Y-133334555D01*
X98260064Y-133260446D01*
X98209618Y-133210000D01*
X98250000Y-133210000D01*
X99000000Y-133210000D01*
X99000000Y-132912172D01*
X98999999Y-132912155D01*
X98993598Y-132852627D01*
X98993596Y-132852620D01*
X98943354Y-132717913D01*
X98943350Y-132717906D01*
X98857190Y-132602812D01*
X98857187Y-132602809D01*
X98742093Y-132516649D01*
X98742086Y-132516645D01*
X98607379Y-132466403D01*
X98607372Y-132466401D01*
X98547844Y-132460000D01*
X98250000Y-132460000D01*
X98250000Y-133210000D01*
X98209618Y-133210000D01*
X98199554Y-133199936D01*
X98125445Y-133157149D01*
X98042787Y-133135000D01*
X97957213Y-133135000D01*
X97874555Y-133157149D01*
X97800446Y-133199936D01*
X97739936Y-133260446D01*
X97697149Y-133334555D01*
X97675000Y-133417213D01*
X97675000Y-133502787D01*
X97697149Y-133585445D01*
X97739936Y-133659554D01*
X97790382Y-133710000D01*
X97000000Y-133710000D01*
X97000000Y-134005500D01*
X96980315Y-134072539D01*
X96927511Y-134118294D01*
X96876000Y-134129500D01*
X96356670Y-134129500D01*
X96356654Y-134129499D01*
X96349058Y-134129499D01*
X96190943Y-134129499D01*
X96114579Y-134149961D01*
X96038214Y-134170423D01*
X96038209Y-134170426D01*
X95901290Y-134249475D01*
X95901282Y-134249481D01*
X95631284Y-134519480D01*
X95631283Y-134519481D01*
X95587679Y-134563084D01*
X95526356Y-134596569D01*
X95456664Y-134591583D01*
X95412318Y-134563083D01*
X93761390Y-132912155D01*
X97000000Y-132912155D01*
X97000000Y-133210000D01*
X97750000Y-133210000D01*
X97750000Y-132460000D01*
X97452155Y-132460000D01*
X97392627Y-132466401D01*
X97392620Y-132466403D01*
X97257913Y-132516645D01*
X97257906Y-132516649D01*
X97142812Y-132602809D01*
X97142809Y-132602812D01*
X97056649Y-132717906D01*
X97056645Y-132717913D01*
X97006403Y-132852620D01*
X97006401Y-132852627D01*
X97000000Y-132912155D01*
X93761390Y-132912155D01*
X78636819Y-117787584D01*
X78603334Y-117726261D01*
X78600500Y-117699903D01*
X78600500Y-106724500D01*
X78620185Y-106657461D01*
X78672989Y-106611706D01*
X78724500Y-106600500D01*
X81005149Y-106600500D01*
X81012944Y-106602789D01*
X81020970Y-106601513D01*
X81045987Y-106612491D01*
X81072188Y-106620185D01*
X81079151Y-106627045D01*
X81084950Y-106629590D01*
X81097718Y-106645338D01*
X81108456Y-106655917D01*
X81112709Y-106662323D01*
X81113368Y-106663914D01*
X81174959Y-106756091D01*
X81175175Y-106756417D01*
X81185453Y-106789589D01*
X81195848Y-106822787D01*
X81195796Y-106822972D01*
X81195854Y-106823157D01*
X81186569Y-106856608D01*
X81177363Y-106890167D01*
X81177173Y-106890462D01*
X81177168Y-106890481D01*
X81177152Y-106890495D01*
X81174971Y-106893890D01*
X81113366Y-106986089D01*
X81037950Y-107168160D01*
X81037947Y-107168170D01*
X80999500Y-107361456D01*
X80999500Y-107361459D01*
X80999500Y-107558541D01*
X80999500Y-107558543D01*
X80999499Y-107558543D01*
X81037947Y-107751829D01*
X81037950Y-107751839D01*
X81113365Y-107933907D01*
X81113368Y-107933914D01*
X81157352Y-107999740D01*
X81174971Y-108026110D01*
X81195848Y-108092787D01*
X81177363Y-108160167D01*
X81174971Y-108163890D01*
X81113366Y-108256089D01*
X81037950Y-108438160D01*
X81037947Y-108438170D01*
X80999500Y-108631456D01*
X80999500Y-108631459D01*
X80999500Y-108828541D01*
X80999500Y-108828543D01*
X80999499Y-108828543D01*
X81037947Y-109021829D01*
X81037950Y-109021839D01*
X81113365Y-109203907D01*
X81113368Y-109203914D01*
X81157352Y-109269740D01*
X81174971Y-109296110D01*
X81195848Y-109362787D01*
X81177363Y-109430167D01*
X81174971Y-109433890D01*
X81113366Y-109526089D01*
X81037950Y-109708160D01*
X81037947Y-109708170D01*
X80999500Y-109901456D01*
X80999500Y-109901459D01*
X80999500Y-110098541D01*
X80999500Y-110098543D01*
X80999499Y-110098543D01*
X81037947Y-110291829D01*
X81037950Y-110291839D01*
X81113365Y-110473907D01*
X81113368Y-110473914D01*
X81116973Y-110479309D01*
X81174971Y-110566110D01*
X81195848Y-110632787D01*
X81177363Y-110700167D01*
X81174971Y-110703890D01*
X81113366Y-110796089D01*
X81037950Y-110978160D01*
X81037947Y-110978170D01*
X80999500Y-111171456D01*
X80999500Y-111171459D01*
X80999500Y-111368541D01*
X80999500Y-111368543D01*
X80999499Y-111368543D01*
X81037947Y-111561828D01*
X81037949Y-111561836D01*
X81080318Y-111664124D01*
X81087787Y-111733593D01*
X81065026Y-111785884D01*
X81056203Y-111797670D01*
X81056202Y-111797671D01*
X81005908Y-111932517D01*
X80999501Y-111992116D01*
X80999500Y-111992135D01*
X80999500Y-113087870D01*
X80999501Y-113087876D01*
X81005908Y-113147483D01*
X81056202Y-113282328D01*
X81056206Y-113282335D01*
X81142452Y-113397544D01*
X81142455Y-113397547D01*
X81257664Y-113483793D01*
X81257671Y-113483797D01*
X81392517Y-113534091D01*
X81392516Y-113534091D01*
X81399444Y-113534835D01*
X81452127Y-113540500D01*
X82547872Y-113540499D01*
X82607483Y-113534091D01*
X82742331Y-113483796D01*
X82857546Y-113397546D01*
X82943796Y-113282331D01*
X82994091Y-113147483D01*
X83000500Y-113087873D01*
X83000499Y-111994499D01*
X83020184Y-111927461D01*
X83072987Y-111881706D01*
X83124499Y-111870500D01*
X88643331Y-111870500D01*
X88643347Y-111870501D01*
X88650943Y-111870501D01*
X88809054Y-111870501D01*
X88809057Y-111870501D01*
X88961785Y-111829577D01*
X89019552Y-111796225D01*
X89098716Y-111750520D01*
X89210520Y-111638716D01*
X89210520Y-111638715D01*
X89227948Y-111621287D01*
X89227953Y-111621280D01*
X89480520Y-111368716D01*
X89559577Y-111231784D01*
X89600501Y-111079057D01*
X89600501Y-110920942D01*
X89600501Y-110913347D01*
X89600500Y-110913329D01*
X89600500Y-101920945D01*
X89600500Y-101920943D01*
X89559577Y-101768216D01*
X89559577Y-101768215D01*
X89559577Y-101768214D01*
X89530639Y-101718095D01*
X89530637Y-101718092D01*
X89500951Y-101666673D01*
X89480520Y-101631284D01*
X89368716Y-101519480D01*
X89368715Y-101519479D01*
X89364385Y-101515149D01*
X89364374Y-101515139D01*
X87487590Y-99638355D01*
X87487588Y-99638352D01*
X87368717Y-99519481D01*
X87368716Y-99519480D01*
X87281904Y-99469360D01*
X87281904Y-99469359D01*
X87281900Y-99469358D01*
X87231785Y-99440423D01*
X87079057Y-99399499D01*
X86920943Y-99399499D01*
X86913347Y-99399499D01*
X86913331Y-99399500D01*
X83724500Y-99399500D01*
X83657461Y-99379815D01*
X83611706Y-99327011D01*
X83600500Y-99275500D01*
X83600500Y-81727308D01*
X83620185Y-81660269D01*
X83636819Y-81639627D01*
X84138871Y-81137574D01*
X84154755Y-81196853D01*
X84221898Y-81313147D01*
X84316853Y-81408102D01*
X84433147Y-81475245D01*
X84492425Y-81491128D01*
X83929134Y-82054417D01*
X83966994Y-82081924D01*
X84144405Y-82172320D01*
X84333777Y-82233852D01*
X84530437Y-82265000D01*
X84729563Y-82265000D01*
X84926222Y-82233852D01*
X85115594Y-82172320D01*
X85293005Y-82081924D01*
X85330863Y-82054418D01*
X85330863Y-82054417D01*
X84767574Y-81491128D01*
X84826853Y-81475245D01*
X84943147Y-81408102D01*
X85038102Y-81313147D01*
X85105245Y-81196853D01*
X85121128Y-81137574D01*
X85684417Y-81700863D01*
X85684418Y-81700863D01*
X85711924Y-81663005D01*
X85789515Y-81510727D01*
X85837490Y-81459931D01*
X85905311Y-81443136D01*
X85971446Y-81465674D01*
X86010485Y-81510727D01*
X86088077Y-81663008D01*
X86115580Y-81700863D01*
X86115581Y-81700864D01*
X86678871Y-81137574D01*
X86694755Y-81196853D01*
X86761898Y-81313147D01*
X86856853Y-81408102D01*
X86973147Y-81475245D01*
X87032425Y-81491128D01*
X86469134Y-82054417D01*
X86506994Y-82081924D01*
X86684405Y-82172320D01*
X86873777Y-82233852D01*
X87070437Y-82265000D01*
X87269563Y-82265000D01*
X87466222Y-82233852D01*
X87655594Y-82172320D01*
X87833005Y-82081924D01*
X87870863Y-82054418D01*
X87870863Y-82054417D01*
X87307574Y-81491128D01*
X87366853Y-81475245D01*
X87483147Y-81408102D01*
X87578102Y-81313147D01*
X87645245Y-81196853D01*
X87661128Y-81137574D01*
X88224417Y-81700863D01*
G37*
%TD.AperFunction*%
%TA.AperFunction,Conductor*%
G36*
X229501941Y-49500561D02*
G01*
X230092598Y-49519123D01*
X230100340Y-49519610D01*
X230686734Y-49575040D01*
X230694459Y-49576016D01*
X231276188Y-49668153D01*
X231283802Y-49669605D01*
X231858649Y-49798098D01*
X231866172Y-49800031D01*
X232431789Y-49964358D01*
X232439139Y-49966746D01*
X232993338Y-50166270D01*
X233000561Y-50169129D01*
X233541113Y-50403047D01*
X233548162Y-50406364D01*
X234072951Y-50673758D01*
X234079777Y-50677511D01*
X234586734Y-50977324D01*
X234593311Y-50981498D01*
X235080446Y-51312555D01*
X235086748Y-51317134D01*
X235552118Y-51678112D01*
X235558121Y-51683077D01*
X235999940Y-52072593D01*
X236005618Y-52077926D01*
X236422073Y-52494381D01*
X236427406Y-52500059D01*
X236816922Y-52941878D01*
X236821887Y-52947881D01*
X237182865Y-53413251D01*
X237187444Y-53419553D01*
X237518501Y-53906688D01*
X237522675Y-53913265D01*
X237822488Y-54420222D01*
X237826241Y-54427048D01*
X238093635Y-54951837D01*
X238096952Y-54958886D01*
X238330868Y-55499434D01*
X238333735Y-55506676D01*
X238533246Y-56060840D01*
X238535648Y-56068234D01*
X238699965Y-56633816D01*
X238701903Y-56641361D01*
X238830390Y-57216178D01*
X238831849Y-57223830D01*
X238923982Y-57805538D01*
X238924959Y-57813267D01*
X238980388Y-58399643D01*
X238980877Y-58407417D01*
X238999439Y-58998058D01*
X238999500Y-59001953D01*
X238999500Y-132998046D01*
X238999439Y-133001941D01*
X238980877Y-133592582D01*
X238980388Y-133600356D01*
X238924959Y-134186732D01*
X238923982Y-134194461D01*
X238831849Y-134776169D01*
X238830390Y-134783821D01*
X238701903Y-135358638D01*
X238699965Y-135366183D01*
X238535648Y-135931765D01*
X238533242Y-135939168D01*
X238511343Y-135999999D01*
X238333735Y-136493323D01*
X238330868Y-136500565D01*
X238096952Y-137041113D01*
X238093635Y-137048162D01*
X237826241Y-137572951D01*
X237822488Y-137579777D01*
X237522675Y-138086734D01*
X237518501Y-138093311D01*
X237187444Y-138580446D01*
X237182865Y-138586748D01*
X236821887Y-139052118D01*
X236816922Y-139058121D01*
X236427406Y-139499940D01*
X236422073Y-139505618D01*
X236005618Y-139922073D01*
X235999940Y-139927406D01*
X235558121Y-140316922D01*
X235552118Y-140321887D01*
X235086748Y-140682865D01*
X235080446Y-140687444D01*
X234593311Y-141018501D01*
X234586734Y-141022675D01*
X234079777Y-141322488D01*
X234072951Y-141326241D01*
X233548162Y-141593635D01*
X233541113Y-141596952D01*
X233000565Y-141830868D01*
X232993323Y-141833735D01*
X232611504Y-141971198D01*
X232439168Y-142033242D01*
X232431765Y-142035648D01*
X231866183Y-142199965D01*
X231858638Y-142201903D01*
X231283821Y-142330390D01*
X231276169Y-142331849D01*
X230694461Y-142423982D01*
X230686732Y-142424959D01*
X230100356Y-142480388D01*
X230092582Y-142480877D01*
X229501941Y-142499439D01*
X229498046Y-142499500D01*
X84501954Y-142499500D01*
X84498059Y-142499439D01*
X83907417Y-142480877D01*
X83899643Y-142480388D01*
X83313267Y-142424959D01*
X83305538Y-142423982D01*
X82723830Y-142331849D01*
X82716178Y-142330390D01*
X82141361Y-142201903D01*
X82133816Y-142199965D01*
X81568234Y-142035648D01*
X81560840Y-142033246D01*
X81006676Y-141833735D01*
X80999434Y-141830868D01*
X80458886Y-141596952D01*
X80451837Y-141593635D01*
X79927048Y-141326241D01*
X79920222Y-141322488D01*
X79413265Y-141022675D01*
X79406688Y-141018501D01*
X78919553Y-140687444D01*
X78913251Y-140682865D01*
X78447881Y-140321887D01*
X78441878Y-140316922D01*
X78000059Y-139927406D01*
X77994381Y-139922073D01*
X77577926Y-139505618D01*
X77572593Y-139499940D01*
X77183077Y-139058121D01*
X77178112Y-139052118D01*
X76817134Y-138586748D01*
X76812555Y-138580446D01*
X76481498Y-138093311D01*
X76477324Y-138086734D01*
X76177511Y-137579777D01*
X76173758Y-137572951D01*
X75968299Y-137169716D01*
X75906363Y-137048160D01*
X75903047Y-137041113D01*
X75868625Y-136961569D01*
X75669129Y-136500561D01*
X75666270Y-136493338D01*
X75466746Y-135939139D01*
X75464358Y-135931789D01*
X75300031Y-135366172D01*
X75298096Y-135358638D01*
X75296207Y-135350185D01*
X75169605Y-134783802D01*
X75168153Y-134776188D01*
X75076016Y-134194459D01*
X75075040Y-134186732D01*
X75058130Y-134007844D01*
X75019610Y-133600340D01*
X75019123Y-133592598D01*
X75000561Y-133001941D01*
X75000500Y-132998046D01*
X75000500Y-118079054D01*
X77399498Y-118079054D01*
X77440423Y-118231785D01*
X77469358Y-118281900D01*
X77469359Y-118281904D01*
X77469360Y-118281904D01*
X77519479Y-118368714D01*
X77519481Y-118368717D01*
X77638349Y-118487585D01*
X77638355Y-118487590D01*
X95363181Y-136212416D01*
X95396666Y-136273739D01*
X95399500Y-136300097D01*
X95399500Y-137920943D01*
X95399500Y-138079057D01*
X95403320Y-138093311D01*
X95440423Y-138231783D01*
X95440426Y-138231790D01*
X95519475Y-138368709D01*
X95519479Y-138368714D01*
X95519480Y-138368716D01*
X95631284Y-138480520D01*
X95631286Y-138480521D01*
X95631290Y-138480524D01*
X95768209Y-138559573D01*
X95768216Y-138559577D01*
X95920943Y-138600500D01*
X115420234Y-138600500D01*
X115487273Y-138620185D01*
X115489125Y-138621398D01*
X115620814Y-138709390D01*
X115620827Y-138709397D01*
X115766498Y-138769735D01*
X115766503Y-138769737D01*
X115921153Y-138800499D01*
X115921156Y-138800500D01*
X115921158Y-138800500D01*
X116078844Y-138800500D01*
X116078845Y-138800499D01*
X116233497Y-138769737D01*
X116379179Y-138709394D01*
X116510289Y-138621789D01*
X116621789Y-138510289D01*
X116709394Y-138379179D01*
X116713728Y-138368717D01*
X116769735Y-138233501D01*
X116769737Y-138233497D01*
X116800500Y-138078842D01*
X116800500Y-137921158D01*
X116800500Y-137921155D01*
X116800499Y-137921153D01*
X116769738Y-137766510D01*
X116769737Y-137766503D01*
X116769735Y-137766498D01*
X116709397Y-137620827D01*
X116709390Y-137620814D01*
X116621789Y-137489711D01*
X116621786Y-137489707D01*
X116510292Y-137378213D01*
X116510288Y-137378210D01*
X116379185Y-137290609D01*
X116379172Y-137290602D01*
X116233501Y-137230264D01*
X116233489Y-137230261D01*
X116078845Y-137199500D01*
X116078842Y-137199500D01*
X115921158Y-137199500D01*
X115921155Y-137199500D01*
X115766510Y-137230261D01*
X115766498Y-137230264D01*
X115620827Y-137290602D01*
X115620814Y-137290609D01*
X115489125Y-137378602D01*
X115422447Y-137399480D01*
X115420234Y-137399500D01*
X96724500Y-137399500D01*
X96657461Y-137379815D01*
X96611706Y-137327011D01*
X96600500Y-137275500D01*
X96600500Y-135454500D01*
X96620185Y-135387461D01*
X96672989Y-135341706D01*
X96724500Y-135330500D01*
X97012067Y-135330500D01*
X97079106Y-135350185D01*
X97124861Y-135402989D01*
X97134805Y-135472147D01*
X97116201Y-135520696D01*
X97116238Y-135520716D01*
X97116081Y-135521008D01*
X97115168Y-135523390D01*
X97114002Y-135525136D01*
X97113365Y-135526090D01*
X97037950Y-135708160D01*
X97037947Y-135708170D01*
X96999500Y-135901456D01*
X96999500Y-135901459D01*
X96999500Y-136098541D01*
X96999500Y-136098543D01*
X96999499Y-136098543D01*
X97037947Y-136291829D01*
X97037950Y-136291839D01*
X97113364Y-136473907D01*
X97113371Y-136473920D01*
X97222860Y-136637781D01*
X97222863Y-136637785D01*
X97362214Y-136777136D01*
X97362218Y-136777139D01*
X97526079Y-136886628D01*
X97526092Y-136886635D01*
X97708160Y-136962049D01*
X97708165Y-136962051D01*
X97708169Y-136962051D01*
X97708170Y-136962052D01*
X97901456Y-137000500D01*
X97901459Y-137000500D01*
X98098543Y-137000500D01*
X98228582Y-136974632D01*
X98291835Y-136962051D01*
X98473914Y-136886632D01*
X98509922Y-136862572D01*
X118490979Y-136862572D01*
X118526328Y-136886192D01*
X118708306Y-136961569D01*
X118708318Y-136961572D01*
X118901504Y-136999999D01*
X118901508Y-137000000D01*
X119098492Y-137000000D01*
X119098495Y-136999999D01*
X119291681Y-136961572D01*
X119291693Y-136961569D01*
X119473676Y-136886190D01*
X119473680Y-136886187D01*
X119509019Y-136862573D01*
X119509020Y-136862572D01*
X136490979Y-136862572D01*
X136526328Y-136886192D01*
X136708306Y-136961569D01*
X136708318Y-136961572D01*
X136901504Y-136999999D01*
X136901508Y-137000000D01*
X137098492Y-137000000D01*
X137098495Y-136999999D01*
X137291681Y-136961572D01*
X137291693Y-136961569D01*
X137473676Y-136886190D01*
X137473680Y-136886187D01*
X137509019Y-136862573D01*
X137509020Y-136862572D01*
X137000001Y-136353553D01*
X137000000Y-136353553D01*
X136490979Y-136862572D01*
X119509020Y-136862572D01*
X119000001Y-136353553D01*
X119000000Y-136353553D01*
X118490979Y-136862572D01*
X98509922Y-136862572D01*
X98637782Y-136777139D01*
X98637785Y-136777136D01*
X98686241Y-136728681D01*
X98778103Y-136636819D01*
X98839426Y-136603334D01*
X98865784Y-136600500D01*
X105913331Y-136600500D01*
X105913347Y-136600501D01*
X105920943Y-136600501D01*
X106079054Y-136600501D01*
X106079057Y-136600501D01*
X106231785Y-136559577D01*
X106289552Y-136526225D01*
X106368716Y-136480520D01*
X106480520Y-136368716D01*
X106480520Y-136368714D01*
X106490724Y-136358511D01*
X106490728Y-136358506D01*
X108020691Y-134828543D01*
X117999499Y-134828543D01*
X118037947Y-135021829D01*
X118037950Y-135021839D01*
X118113365Y-135203907D01*
X118113368Y-135203914D01*
X118149409Y-135257853D01*
X118175271Y-135296559D01*
X118196148Y-135363236D01*
X118177663Y-135430616D01*
X118175271Y-135434339D01*
X118113809Y-135526325D01*
X118038430Y-135708306D01*
X118038427Y-135708318D01*
X118000000Y-135901504D01*
X118000000Y-136098495D01*
X118038427Y-136291681D01*
X118038430Y-136291693D01*
X118113808Y-136473673D01*
X118113809Y-136473675D01*
X118137426Y-136509019D01*
X118675000Y-135971445D01*
X118675000Y-136042787D01*
X118697149Y-136125445D01*
X118739936Y-136199554D01*
X118800446Y-136260064D01*
X118874555Y-136302851D01*
X118957213Y-136325000D01*
X119042787Y-136325000D01*
X119125445Y-136302851D01*
X119199554Y-136260064D01*
X119260064Y-136199554D01*
X119302851Y-136125445D01*
X119325000Y-136042787D01*
X119325000Y-135971447D01*
X119862572Y-136509020D01*
X119862573Y-136509019D01*
X119886187Y-136473680D01*
X119886190Y-136473676D01*
X119961569Y-136291693D01*
X119961572Y-136291681D01*
X119999999Y-136098495D01*
X120000000Y-136098492D01*
X120000000Y-135901508D01*
X119999999Y-135901504D01*
X119961572Y-135708318D01*
X119961569Y-135708306D01*
X119886192Y-135526328D01*
X119886188Y-135526321D01*
X119824728Y-135434341D01*
X119803850Y-135367663D01*
X119822334Y-135300283D01*
X119824704Y-135296595D01*
X119883242Y-135208988D01*
X119886627Y-135203922D01*
X119886629Y-135203918D01*
X119886632Y-135203914D01*
X119962051Y-135021835D01*
X120000229Y-134829903D01*
X120000500Y-134828543D01*
X120000500Y-134631456D01*
X119962052Y-134438170D01*
X119962051Y-134438169D01*
X119962051Y-134438165D01*
X119919680Y-134335873D01*
X119912212Y-134266407D01*
X119934977Y-134214111D01*
X119943796Y-134202331D01*
X119994091Y-134067483D01*
X120000500Y-134007873D01*
X120000499Y-132912128D01*
X119994091Y-132852517D01*
X119943884Y-132717906D01*
X119943797Y-132717671D01*
X119943793Y-132717664D01*
X119857547Y-132602455D01*
X119857544Y-132602452D01*
X119742335Y-132516206D01*
X119742328Y-132516202D01*
X119607482Y-132465908D01*
X119607483Y-132465908D01*
X119547883Y-132459501D01*
X119547881Y-132459500D01*
X119547873Y-132459500D01*
X119547864Y-132459500D01*
X118452129Y-132459500D01*
X118452123Y-132459501D01*
X118392516Y-132465908D01*
X118257671Y-132516202D01*
X118257664Y-132516206D01*
X118142455Y-132602452D01*
X118142452Y-132602455D01*
X118056206Y-132717664D01*
X118056202Y-132717671D01*
X118005908Y-132852517D01*
X117999501Y-132912116D01*
X117999501Y-132912123D01*
X117999500Y-132912135D01*
X117999500Y-134007870D01*
X117999501Y-134007876D01*
X118005908Y-134067483D01*
X118056202Y-134202328D01*
X118056206Y-134202335D01*
X118065023Y-134214113D01*
X118089440Y-134279578D01*
X118080318Y-134335874D01*
X118054500Y-134398206D01*
X118037950Y-134438164D01*
X118037948Y-134438168D01*
X118037947Y-134438171D01*
X117999500Y-134631456D01*
X117999500Y-134631459D01*
X117999500Y-134828541D01*
X117999500Y-134828543D01*
X117999499Y-134828543D01*
X108020691Y-134828543D01*
X114358506Y-128490728D01*
X114358511Y-128490724D01*
X114368714Y-128480520D01*
X114368716Y-128480520D01*
X114480520Y-128368716D01*
X114559577Y-128231784D01*
X114600500Y-128079057D01*
X114600500Y-85724500D01*
X114620185Y-85657461D01*
X114672989Y-85611706D01*
X114724500Y-85600500D01*
X123723331Y-85600500D01*
X123723347Y-85600501D01*
X123730943Y-85600501D01*
X123889054Y-85600501D01*
X123889057Y-85600501D01*
X124041785Y-85559577D01*
X124091904Y-85530639D01*
X124178716Y-85480520D01*
X124290520Y-85368716D01*
X124290520Y-85368714D01*
X124300728Y-85358507D01*
X124300730Y-85358504D01*
X127392978Y-82266255D01*
X127454299Y-82232772D01*
X127509614Y-82233366D01*
X127513644Y-82234333D01*
X127513661Y-82234339D01*
X127710403Y-82265500D01*
X127710404Y-82265500D01*
X127909596Y-82265500D01*
X127909597Y-82265500D01*
X128106339Y-82234339D01*
X128106342Y-82234338D01*
X128106343Y-82234338D01*
X128295780Y-82172786D01*
X128295780Y-82172785D01*
X128295783Y-82172785D01*
X128473266Y-82082353D01*
X128634418Y-81965269D01*
X128775269Y-81824418D01*
X128892353Y-81663266D01*
X128969515Y-81511827D01*
X129017490Y-81461031D01*
X129085311Y-81444236D01*
X129151446Y-81466773D01*
X129190485Y-81511827D01*
X129267647Y-81663266D01*
X129384731Y-81824418D01*
X129525582Y-81965269D01*
X129686734Y-82082353D01*
X129798572Y-82139337D01*
X129864219Y-82172786D01*
X130053657Y-82234338D01*
X130053658Y-82234338D01*
X130053661Y-82234339D01*
X130250403Y-82265500D01*
X130250404Y-82265500D01*
X130449596Y-82265500D01*
X130449597Y-82265500D01*
X130646339Y-82234339D01*
X130646342Y-82234338D01*
X130646343Y-82234338D01*
X130835780Y-82172786D01*
X130835780Y-82172785D01*
X130835783Y-82172785D01*
X131013266Y-82082353D01*
X131174418Y-81965269D01*
X131315269Y-81824418D01*
X131432353Y-81663266D01*
X131509515Y-81511827D01*
X131557490Y-81461031D01*
X131625311Y-81444236D01*
X131691446Y-81466773D01*
X131730485Y-81511827D01*
X131807647Y-81663266D01*
X131924731Y-81824418D01*
X132065582Y-81965269D01*
X132226734Y-82082353D01*
X132338572Y-82139337D01*
X132404219Y-82172786D01*
X132593657Y-82234338D01*
X132593658Y-82234338D01*
X132593661Y-82234339D01*
X132790403Y-82265500D01*
X132790404Y-82265500D01*
X132989596Y-82265500D01*
X132989597Y-82265500D01*
X133186339Y-82234339D01*
X133186342Y-82234338D01*
X133186343Y-82234338D01*
X133375780Y-82172786D01*
X133375780Y-82172785D01*
X133375783Y-82172785D01*
X133553266Y-82082353D01*
X133714418Y-81965269D01*
X133855269Y-81824418D01*
X133972353Y-81663266D01*
X134049515Y-81511827D01*
X134097490Y-81461031D01*
X134165311Y-81444236D01*
X134231446Y-81466773D01*
X134270485Y-81511827D01*
X134347647Y-81663266D01*
X134464731Y-81824418D01*
X134605582Y-81965269D01*
X134766734Y-82082353D01*
X134878572Y-82139337D01*
X134944219Y-82172786D01*
X135133657Y-82234338D01*
X135133658Y-82234338D01*
X135133661Y-82234339D01*
X135330403Y-82265500D01*
X135330404Y-82265500D01*
X135529596Y-82265500D01*
X135529597Y-82265500D01*
X135726339Y-82234339D01*
X135726342Y-82234338D01*
X135726343Y-82234338D01*
X135915780Y-82172786D01*
X135915780Y-82172785D01*
X135915783Y-82172785D01*
X136093266Y-82082353D01*
X136254418Y-81965269D01*
X136395269Y-81824418D01*
X136512353Y-81663266D01*
X136589795Y-81511276D01*
X136637769Y-81460481D01*
X136705590Y-81443686D01*
X136771725Y-81466223D01*
X136810765Y-81511277D01*
X136888077Y-81663008D01*
X136915580Y-81700863D01*
X136915581Y-81700864D01*
X137478871Y-81137574D01*
X137494755Y-81196853D01*
X137561898Y-81313147D01*
X137656853Y-81408102D01*
X137773147Y-81475245D01*
X137832425Y-81491128D01*
X137269134Y-82054417D01*
X137306994Y-82081924D01*
X137484405Y-82172320D01*
X137673777Y-82233852D01*
X137870437Y-82265000D01*
X138069563Y-82265000D01*
X138266222Y-82233852D01*
X138455594Y-82172320D01*
X138633005Y-82081924D01*
X138670863Y-82054418D01*
X138670863Y-82054417D01*
X138107574Y-81491128D01*
X138166853Y-81475245D01*
X138283147Y-81408102D01*
X138378102Y-81313147D01*
X138445245Y-81196853D01*
X138461128Y-81137574D01*
X139024417Y-81700863D01*
X139024418Y-81700863D01*
X139051924Y-81663005D01*
X139142320Y-81485594D01*
X139203852Y-81296222D01*
X139235000Y-81099563D01*
X139235000Y-80900436D01*
X139203852Y-80703777D01*
X139142320Y-80514405D01*
X139051924Y-80336994D01*
X139024417Y-80299135D01*
X139024417Y-80299134D01*
X138461128Y-80862424D01*
X138445245Y-80803147D01*
X138378102Y-80686853D01*
X138283147Y-80591898D01*
X138166853Y-80524755D01*
X138107574Y-80508871D01*
X138670864Y-79945581D01*
X138670863Y-79945580D01*
X138633008Y-79918077D01*
X138455594Y-79827679D01*
X138266222Y-79766147D01*
X138069563Y-79735000D01*
X137870437Y-79735000D01*
X137673777Y-79766147D01*
X137484405Y-79827679D01*
X137306990Y-79918077D01*
X137269135Y-79945580D01*
X137269135Y-79945581D01*
X137832425Y-80508871D01*
X137773147Y-80524755D01*
X137656853Y-80591898D01*
X137561898Y-80686853D01*
X137494755Y-80803147D01*
X137478871Y-80862425D01*
X136915581Y-80299135D01*
X136915580Y-80299135D01*
X136888075Y-80336993D01*
X136810764Y-80488723D01*
X136762790Y-80539518D01*
X136694969Y-80556313D01*
X136628834Y-80533775D01*
X136589795Y-80488722D01*
X136558299Y-80426909D01*
X136512353Y-80336734D01*
X136395269Y-80175582D01*
X136254418Y-80034731D01*
X136093266Y-79917647D01*
X135915780Y-79827213D01*
X135726342Y-79765661D01*
X135578782Y-79742290D01*
X135529597Y-79734500D01*
X135330403Y-79734500D01*
X135264822Y-79744887D01*
X135133659Y-79765661D01*
X135133656Y-79765661D01*
X134944219Y-79827213D01*
X134766733Y-79917647D01*
X134728286Y-79945581D01*
X134605582Y-80034731D01*
X134605580Y-80034733D01*
X134605579Y-80034733D01*
X134464733Y-80175579D01*
X134464733Y-80175580D01*
X134464731Y-80175582D01*
X134414447Y-80244790D01*
X134347647Y-80336733D01*
X134270485Y-80488172D01*
X134222510Y-80538968D01*
X134154689Y-80555763D01*
X134088554Y-80533225D01*
X134049515Y-80488172D01*
X134007877Y-80406453D01*
X133972353Y-80336734D01*
X133855269Y-80175582D01*
X133714418Y-80034731D01*
X133553266Y-79917647D01*
X133375780Y-79827213D01*
X133186342Y-79765661D01*
X133038782Y-79742290D01*
X132989597Y-79734500D01*
X132790403Y-79734500D01*
X132724822Y-79744887D01*
X132593659Y-79765661D01*
X132593656Y-79765661D01*
X132404219Y-79827213D01*
X132226733Y-79917647D01*
X132188286Y-79945581D01*
X132065582Y-80034731D01*
X132065580Y-80034733D01*
X132065579Y-80034733D01*
X131924733Y-80175579D01*
X131924733Y-80175580D01*
X131924731Y-80175582D01*
X131874447Y-80244790D01*
X131807647Y-80336733D01*
X131730485Y-80488172D01*
X131682510Y-80538968D01*
X131614689Y-80555763D01*
X131548554Y-80533225D01*
X131509515Y-80488172D01*
X131467877Y-80406453D01*
X131432353Y-80336734D01*
X131315269Y-80175582D01*
X131174418Y-80034731D01*
X131013266Y-79917647D01*
X130835780Y-79827213D01*
X130646342Y-79765661D01*
X130498782Y-79742290D01*
X130449597Y-79734500D01*
X130250403Y-79734500D01*
X130184822Y-79744887D01*
X130053659Y-79765661D01*
X130053656Y-79765661D01*
X129864219Y-79827213D01*
X129686733Y-79917647D01*
X129648286Y-79945581D01*
X129525582Y-80034731D01*
X129525580Y-80034733D01*
X129525579Y-80034733D01*
X129384733Y-80175579D01*
X129384733Y-80175580D01*
X129384731Y-80175582D01*
X129334447Y-80244790D01*
X129267647Y-80336733D01*
X129190485Y-80488172D01*
X129142510Y-80538968D01*
X129074689Y-80555763D01*
X129008554Y-80533225D01*
X128969515Y-80488172D01*
X128927877Y-80406453D01*
X128892353Y-80336734D01*
X128775269Y-80175582D01*
X128634418Y-80034731D01*
X128473266Y-79917647D01*
X128295780Y-79827213D01*
X128106342Y-79765661D01*
X127958782Y-79742290D01*
X127909597Y-79734500D01*
X127710403Y-79734500D01*
X127644822Y-79744887D01*
X127513659Y-79765661D01*
X127513656Y-79765661D01*
X127324219Y-79827213D01*
X127146733Y-79917647D01*
X127108286Y-79945581D01*
X126985582Y-80034731D01*
X126985580Y-80034733D01*
X126985579Y-80034733D01*
X126844733Y-80175579D01*
X126844733Y-80175580D01*
X126844731Y-80175582D01*
X126794447Y-80244790D01*
X126727647Y-80336733D01*
X126650485Y-80488172D01*
X126602510Y-80538968D01*
X126534689Y-80555763D01*
X126468554Y-80533225D01*
X126429515Y-80488172D01*
X126387877Y-80406453D01*
X126352353Y-80336734D01*
X126235269Y-80175582D01*
X126094418Y-80034731D01*
X125933266Y-79917647D01*
X125755780Y-79827213D01*
X125566342Y-79765661D01*
X125418782Y-79742290D01*
X125369597Y-79734500D01*
X125170403Y-79734500D01*
X125104822Y-79744887D01*
X124973659Y-79765661D01*
X124973656Y-79765661D01*
X124784219Y-79827213D01*
X124606733Y-79917647D01*
X124568286Y-79945581D01*
X124445582Y-80034731D01*
X124445580Y-80034733D01*
X124445579Y-80034733D01*
X124304733Y-80175579D01*
X124304733Y-80175580D01*
X124304731Y-80175582D01*
X124254447Y-80244790D01*
X124187647Y-80336733D01*
X124110485Y-80488172D01*
X124062510Y-80538968D01*
X123994689Y-80555763D01*
X123928554Y-80533225D01*
X123889515Y-80488172D01*
X123847877Y-80406453D01*
X123812353Y-80336734D01*
X123695269Y-80175582D01*
X123554418Y-80034731D01*
X123393266Y-79917647D01*
X123215780Y-79827213D01*
X123026342Y-79765661D01*
X122878782Y-79742290D01*
X122829597Y-79734500D01*
X122630403Y-79734500D01*
X122564822Y-79744887D01*
X122433659Y-79765661D01*
X122433656Y-79765661D01*
X122244219Y-79827213D01*
X122066733Y-79917647D01*
X122028286Y-79945581D01*
X121905582Y-80034731D01*
X121905580Y-80034733D01*
X121905579Y-80034733D01*
X121764733Y-80175579D01*
X121764733Y-80175580D01*
X121764731Y-80175582D01*
X121714447Y-80244790D01*
X121647647Y-80336733D01*
X121570485Y-80488172D01*
X121522510Y-80538968D01*
X121454689Y-80555763D01*
X121388554Y-80533225D01*
X121349515Y-80488172D01*
X121307877Y-80406453D01*
X121272353Y-80336734D01*
X121155269Y-80175582D01*
X121014418Y-80034731D01*
X120853266Y-79917647D01*
X120675780Y-79827213D01*
X120486342Y-79765661D01*
X120338782Y-79742290D01*
X120289597Y-79734500D01*
X120090403Y-79734500D01*
X120024822Y-79744887D01*
X119893659Y-79765661D01*
X119893656Y-79765661D01*
X119704219Y-79827213D01*
X119526733Y-79917647D01*
X119488286Y-79945581D01*
X119365582Y-80034731D01*
X119365580Y-80034733D01*
X119365579Y-80034733D01*
X119224733Y-80175579D01*
X119224733Y-80175580D01*
X119224731Y-80175582D01*
X119174447Y-80244790D01*
X119107647Y-80336733D01*
X119030485Y-80488172D01*
X118982510Y-80538968D01*
X118914689Y-80555763D01*
X118848554Y-80533225D01*
X118809515Y-80488172D01*
X118767877Y-80406453D01*
X118732353Y-80336734D01*
X118615269Y-80175582D01*
X118474418Y-80034731D01*
X118313266Y-79917647D01*
X118135780Y-79827213D01*
X117946342Y-79765661D01*
X117798782Y-79742290D01*
X117749597Y-79734500D01*
X117550403Y-79734500D01*
X117484822Y-79744887D01*
X117353659Y-79765661D01*
X117353656Y-79765661D01*
X117164219Y-79827213D01*
X116986733Y-79917647D01*
X116948286Y-79945581D01*
X116825582Y-80034731D01*
X116825580Y-80034733D01*
X116825579Y-80034733D01*
X116684733Y-80175579D01*
X116684733Y-80175580D01*
X116684731Y-80175582D01*
X116634447Y-80244790D01*
X116567647Y-80336733D01*
X116490485Y-80488172D01*
X116442510Y-80538968D01*
X116374689Y-80555763D01*
X116308554Y-80533225D01*
X116269515Y-80488172D01*
X116227877Y-80406453D01*
X116192353Y-80336734D01*
X116075269Y-80175582D01*
X115934418Y-80034731D01*
X115773266Y-79917647D01*
X115595780Y-79827213D01*
X115406342Y-79765661D01*
X115258782Y-79742290D01*
X115209597Y-79734500D01*
X115010403Y-79734500D01*
X114944822Y-79744887D01*
X114813659Y-79765661D01*
X114813656Y-79765661D01*
X114624219Y-79827213D01*
X114446733Y-79917647D01*
X114408286Y-79945581D01*
X114285582Y-80034731D01*
X114285580Y-80034733D01*
X114285579Y-80034733D01*
X114144733Y-80175579D01*
X114144733Y-80175580D01*
X114144731Y-80175582D01*
X114094447Y-80244790D01*
X114027647Y-80336733D01*
X113950485Y-80488172D01*
X113902510Y-80538968D01*
X113834689Y-80555763D01*
X113768554Y-80533225D01*
X113729515Y-80488172D01*
X113687877Y-80406453D01*
X113652353Y-80336734D01*
X113535269Y-80175582D01*
X113394418Y-80034731D01*
X113233266Y-79917647D01*
X113055780Y-79827213D01*
X112866342Y-79765661D01*
X112718782Y-79742290D01*
X112669597Y-79734500D01*
X112470403Y-79734500D01*
X112404822Y-79744887D01*
X112273659Y-79765661D01*
X112273656Y-79765661D01*
X112084219Y-79827213D01*
X111906733Y-79917647D01*
X111868286Y-79945581D01*
X111745582Y-80034731D01*
X111745580Y-80034733D01*
X111745579Y-80034733D01*
X111604733Y-80175579D01*
X111604733Y-80175580D01*
X111604731Y-80175582D01*
X111554447Y-80244790D01*
X111487647Y-80336733D01*
X111410485Y-80488172D01*
X111362510Y-80538968D01*
X111294689Y-80555763D01*
X111228554Y-80533225D01*
X111189515Y-80488172D01*
X111147877Y-80406453D01*
X111112353Y-80336734D01*
X110995269Y-80175582D01*
X110854418Y-80034731D01*
X110693266Y-79917647D01*
X110515780Y-79827213D01*
X110326342Y-79765661D01*
X110178782Y-79742290D01*
X110129597Y-79734500D01*
X109930403Y-79734500D01*
X109864822Y-79744887D01*
X109733659Y-79765661D01*
X109733656Y-79765661D01*
X109544219Y-79827213D01*
X109366733Y-79917647D01*
X109328286Y-79945581D01*
X109205582Y-80034731D01*
X109205580Y-80034733D01*
X109205579Y-80034733D01*
X109064733Y-80175579D01*
X109064733Y-80175580D01*
X109064731Y-80175582D01*
X109014447Y-80244790D01*
X108947647Y-80336733D01*
X108870485Y-80488172D01*
X108822510Y-80538968D01*
X108754689Y-80555763D01*
X108688554Y-80533225D01*
X108649515Y-80488172D01*
X108607877Y-80406453D01*
X108572353Y-80336734D01*
X108455269Y-80175582D01*
X108314418Y-80034731D01*
X108153266Y-79917647D01*
X107975780Y-79827213D01*
X107786342Y-79765661D01*
X107638782Y-79742290D01*
X107589597Y-79734500D01*
X107390403Y-79734500D01*
X107324822Y-79744887D01*
X107193659Y-79765661D01*
X107193656Y-79765661D01*
X107004219Y-79827213D01*
X106826733Y-79917647D01*
X106788286Y-79945581D01*
X106665582Y-80034731D01*
X106665580Y-80034733D01*
X106665579Y-80034733D01*
X106524733Y-80175579D01*
X106524733Y-80175580D01*
X106524731Y-80175582D01*
X106474447Y-80244790D01*
X106407647Y-80336733D01*
X106330485Y-80488172D01*
X106282510Y-80538968D01*
X106214689Y-80555763D01*
X106148554Y-80533225D01*
X106109515Y-80488172D01*
X106067877Y-80406453D01*
X106032353Y-80336734D01*
X105915269Y-80175582D01*
X105774418Y-80034731D01*
X105613266Y-79917647D01*
X105435780Y-79827213D01*
X105246342Y-79765661D01*
X105098782Y-79742290D01*
X105049597Y-79734500D01*
X104850403Y-79734500D01*
X104784822Y-79744887D01*
X104653659Y-79765661D01*
X104653656Y-79765661D01*
X104464219Y-79827213D01*
X104286733Y-79917647D01*
X104248286Y-79945581D01*
X104125582Y-80034731D01*
X104125580Y-80034733D01*
X104125579Y-80034733D01*
X103984733Y-80175579D01*
X103984733Y-80175580D01*
X103984731Y-80175582D01*
X103934447Y-80244790D01*
X103867647Y-80336733D01*
X103790485Y-80488172D01*
X103742510Y-80538968D01*
X103674689Y-80555763D01*
X103608554Y-80533225D01*
X103569515Y-80488172D01*
X103527877Y-80406453D01*
X103492353Y-80336734D01*
X103375269Y-80175582D01*
X103234418Y-80034731D01*
X103073266Y-79917647D01*
X102895780Y-79827213D01*
X102706342Y-79765661D01*
X102558782Y-79742290D01*
X102509597Y-79734500D01*
X102310403Y-79734500D01*
X102244822Y-79744887D01*
X102113659Y-79765661D01*
X102113656Y-79765661D01*
X101924219Y-79827213D01*
X101746733Y-79917647D01*
X101708286Y-79945581D01*
X101585582Y-80034731D01*
X101585580Y-80034733D01*
X101585579Y-80034733D01*
X101444733Y-80175579D01*
X101444733Y-80175580D01*
X101444731Y-80175582D01*
X101394447Y-80244790D01*
X101327647Y-80336733D01*
X101250485Y-80488172D01*
X101202510Y-80538968D01*
X101134689Y-80555763D01*
X101068554Y-80533225D01*
X101029515Y-80488172D01*
X100987877Y-80406453D01*
X100952353Y-80336734D01*
X100835269Y-80175582D01*
X100694418Y-80034731D01*
X100533266Y-79917647D01*
X100355780Y-79827213D01*
X100166342Y-79765661D01*
X100018782Y-79742290D01*
X99969597Y-79734500D01*
X99770403Y-79734500D01*
X99704822Y-79744887D01*
X99573659Y-79765661D01*
X99573656Y-79765661D01*
X99384219Y-79827213D01*
X99206733Y-79917647D01*
X99168286Y-79945581D01*
X99045582Y-80034731D01*
X99045580Y-80034733D01*
X99045579Y-80034733D01*
X98904733Y-80175579D01*
X98904733Y-80175580D01*
X98904731Y-80175582D01*
X98854447Y-80244790D01*
X98787647Y-80336733D01*
X98710485Y-80488172D01*
X98662510Y-80538968D01*
X98594689Y-80555763D01*
X98528554Y-80533225D01*
X98489515Y-80488172D01*
X98447877Y-80406453D01*
X98412353Y-80336734D01*
X98295269Y-80175582D01*
X98154418Y-80034731D01*
X97993266Y-79917647D01*
X97815780Y-79827213D01*
X97626342Y-79765661D01*
X97478782Y-79742290D01*
X97429597Y-79734500D01*
X97230403Y-79734500D01*
X97164822Y-79744887D01*
X97033659Y-79765661D01*
X97033656Y-79765661D01*
X96844219Y-79827213D01*
X96666733Y-79917647D01*
X96628286Y-79945581D01*
X96505582Y-80034731D01*
X96505580Y-80034733D01*
X96505579Y-80034733D01*
X96364733Y-80175579D01*
X96364733Y-80175580D01*
X96364731Y-80175582D01*
X96314447Y-80244790D01*
X96247647Y-80336733D01*
X96170485Y-80488172D01*
X96122510Y-80538968D01*
X96054689Y-80555763D01*
X95988554Y-80533225D01*
X95949515Y-80488172D01*
X95907877Y-80406453D01*
X95872353Y-80336734D01*
X95755269Y-80175582D01*
X95614418Y-80034731D01*
X95453266Y-79917647D01*
X95275780Y-79827213D01*
X95086342Y-79765661D01*
X94938782Y-79742290D01*
X94889597Y-79734500D01*
X94690403Y-79734500D01*
X94624822Y-79744887D01*
X94493659Y-79765661D01*
X94493656Y-79765661D01*
X94304219Y-79827213D01*
X94126733Y-79917647D01*
X94088286Y-79945581D01*
X93965582Y-80034731D01*
X93965580Y-80034733D01*
X93965579Y-80034733D01*
X93824733Y-80175579D01*
X93824733Y-80175580D01*
X93824731Y-80175582D01*
X93774447Y-80244790D01*
X93707647Y-80336733D01*
X93630485Y-80488172D01*
X93582510Y-80538968D01*
X93514689Y-80555763D01*
X93448554Y-80533225D01*
X93409515Y-80488172D01*
X93367877Y-80406453D01*
X93332353Y-80336734D01*
X93215269Y-80175582D01*
X93074418Y-80034731D01*
X92913266Y-79917647D01*
X92735780Y-79827213D01*
X92546342Y-79765661D01*
X92398782Y-79742290D01*
X92349597Y-79734500D01*
X92150403Y-79734500D01*
X92084822Y-79744887D01*
X91953659Y-79765661D01*
X91953656Y-79765661D01*
X91764219Y-79827213D01*
X91586733Y-79917647D01*
X91548286Y-79945581D01*
X91425582Y-80034731D01*
X91425580Y-80034733D01*
X91425579Y-80034733D01*
X91284733Y-80175579D01*
X91284733Y-80175580D01*
X91284731Y-80175582D01*
X91234447Y-80244790D01*
X91167647Y-80336733D01*
X91090485Y-80488172D01*
X91042510Y-80538968D01*
X90974689Y-80555763D01*
X90908554Y-80533225D01*
X90869515Y-80488172D01*
X90827877Y-80406453D01*
X90792353Y-80336734D01*
X90675269Y-80175582D01*
X90534418Y-80034731D01*
X90373266Y-79917647D01*
X90195780Y-79827213D01*
X90006342Y-79765661D01*
X89858782Y-79742290D01*
X89809597Y-79734500D01*
X89610403Y-79734500D01*
X89544822Y-79744887D01*
X89413659Y-79765661D01*
X89413656Y-79765661D01*
X89224219Y-79827213D01*
X89046733Y-79917647D01*
X89008286Y-79945581D01*
X88885582Y-80034731D01*
X88885580Y-80034733D01*
X88885579Y-80034733D01*
X88744733Y-80175579D01*
X88744733Y-80175580D01*
X88744731Y-80175582D01*
X88709555Y-80223997D01*
X88627645Y-80336735D01*
X88550203Y-80488723D01*
X88502229Y-80539518D01*
X88434408Y-80556313D01*
X88368273Y-80533775D01*
X88329234Y-80488722D01*
X88251924Y-80336994D01*
X88224417Y-80299135D01*
X88224417Y-80299134D01*
X87661128Y-80862424D01*
X87645245Y-80803147D01*
X87578102Y-80686853D01*
X87483147Y-80591898D01*
X87366853Y-80524755D01*
X87307574Y-80508871D01*
X87870864Y-79945581D01*
X87870863Y-79945580D01*
X87833008Y-79918077D01*
X87655594Y-79827679D01*
X87466222Y-79766147D01*
X87269563Y-79735000D01*
X87070437Y-79735000D01*
X86873777Y-79766147D01*
X86684405Y-79827679D01*
X86506990Y-79918077D01*
X86469135Y-79945580D01*
X86469135Y-79945581D01*
X87032425Y-80508871D01*
X86973147Y-80524755D01*
X86856853Y-80591898D01*
X86761898Y-80686853D01*
X86694755Y-80803147D01*
X86678871Y-80862425D01*
X86115581Y-80299135D01*
X86115580Y-80299135D01*
X86088074Y-80336995D01*
X86088073Y-80336996D01*
X86010484Y-80489272D01*
X85962510Y-80540068D01*
X85894689Y-80556863D01*
X85828554Y-80534325D01*
X85789516Y-80489272D01*
X85711928Y-80336999D01*
X85684417Y-80299135D01*
X85684417Y-80299134D01*
X85121128Y-80862424D01*
X85105245Y-80803147D01*
X85038102Y-80686853D01*
X84943147Y-80591898D01*
X84826853Y-80524755D01*
X84767574Y-80508871D01*
X85330864Y-79945581D01*
X85330863Y-79945580D01*
X85293008Y-79918077D01*
X85115594Y-79827679D01*
X84926222Y-79766147D01*
X84729563Y-79735000D01*
X84530437Y-79735000D01*
X84333777Y-79766147D01*
X84144405Y-79827679D01*
X83966990Y-79918077D01*
X83929135Y-79945580D01*
X83929135Y-79945581D01*
X84492425Y-80508871D01*
X84433147Y-80524755D01*
X84316853Y-80591898D01*
X84221898Y-80686853D01*
X84154755Y-80803147D01*
X84138871Y-80862425D01*
X83636819Y-80360373D01*
X83603334Y-80299050D01*
X83600500Y-80272692D01*
X83600500Y-78724500D01*
X83620185Y-78657461D01*
X83672989Y-78611706D01*
X83724500Y-78600500D01*
X97703331Y-78600500D01*
X97703347Y-78600501D01*
X97710943Y-78600501D01*
X97869054Y-78600501D01*
X97869057Y-78600501D01*
X98021785Y-78559577D01*
X98071904Y-78530639D01*
X98158716Y-78480520D01*
X98270520Y-78368716D01*
X98270520Y-78368714D01*
X98280728Y-78358507D01*
X98280730Y-78358504D01*
X117232978Y-59406255D01*
X117294299Y-59372772D01*
X117349614Y-59373366D01*
X117353644Y-59374333D01*
X117353661Y-59374339D01*
X117550403Y-59405500D01*
X117550404Y-59405500D01*
X117749596Y-59405500D01*
X117749597Y-59405500D01*
X117946339Y-59374339D01*
X117946342Y-59374338D01*
X117946343Y-59374338D01*
X118135780Y-59312786D01*
X118135780Y-59312785D01*
X118135783Y-59312785D01*
X118313266Y-59222353D01*
X118474418Y-59105269D01*
X118615269Y-58964418D01*
X118732353Y-58803266D01*
X118809515Y-58651827D01*
X118857490Y-58601031D01*
X118925311Y-58584236D01*
X118991446Y-58606773D01*
X119030485Y-58651827D01*
X119107647Y-58803266D01*
X119224731Y-58964418D01*
X119365582Y-59105269D01*
X119526734Y-59222353D01*
X119638572Y-59279337D01*
X119704219Y-59312786D01*
X119893657Y-59374338D01*
X119893658Y-59374338D01*
X119893661Y-59374339D01*
X120090403Y-59405500D01*
X120090404Y-59405500D01*
X120289596Y-59405500D01*
X120289597Y-59405500D01*
X120486339Y-59374339D01*
X120486342Y-59374338D01*
X120486343Y-59374338D01*
X120675780Y-59312786D01*
X120675780Y-59312785D01*
X120675783Y-59312785D01*
X120853266Y-59222353D01*
X121014418Y-59105269D01*
X121155269Y-58964418D01*
X121272353Y-58803266D01*
X121349515Y-58651827D01*
X121397490Y-58601031D01*
X121465311Y-58584236D01*
X121531446Y-58606773D01*
X121570485Y-58651827D01*
X121647647Y-58803266D01*
X121764731Y-58964418D01*
X121905582Y-59105269D01*
X122066734Y-59222353D01*
X122178572Y-59279337D01*
X122244219Y-59312786D01*
X122433657Y-59374338D01*
X122433658Y-59374338D01*
X122433661Y-59374339D01*
X122630403Y-59405500D01*
X122630404Y-59405500D01*
X122829596Y-59405500D01*
X122829597Y-59405500D01*
X123026339Y-59374339D01*
X123026342Y-59374338D01*
X123026343Y-59374338D01*
X123215780Y-59312786D01*
X123215780Y-59312785D01*
X123215783Y-59312785D01*
X123393266Y-59222353D01*
X123554418Y-59105269D01*
X123695269Y-58964418D01*
X123812353Y-58803266D01*
X123889515Y-58651827D01*
X123937490Y-58601031D01*
X124005311Y-58584236D01*
X124071446Y-58606773D01*
X124110485Y-58651827D01*
X124187647Y-58803266D01*
X124304731Y-58964418D01*
X124445582Y-59105269D01*
X124606734Y-59222353D01*
X124718572Y-59279337D01*
X124784219Y-59312786D01*
X124973657Y-59374338D01*
X124973658Y-59374338D01*
X124973661Y-59374339D01*
X125170403Y-59405500D01*
X125170404Y-59405500D01*
X125369596Y-59405500D01*
X125369597Y-59405500D01*
X125566339Y-59374339D01*
X125566342Y-59374338D01*
X125566343Y-59374338D01*
X125755780Y-59312786D01*
X125755780Y-59312785D01*
X125755783Y-59312785D01*
X125933266Y-59222353D01*
X126094418Y-59105269D01*
X126235269Y-58964418D01*
X126352353Y-58803266D01*
X126429515Y-58651827D01*
X126477490Y-58601031D01*
X126545311Y-58584236D01*
X126611446Y-58606773D01*
X126650485Y-58651827D01*
X126727647Y-58803266D01*
X126844731Y-58964418D01*
X126985582Y-59105269D01*
X127146734Y-59222353D01*
X127258572Y-59279337D01*
X127324219Y-59312786D01*
X127513657Y-59374338D01*
X127513658Y-59374338D01*
X127513661Y-59374339D01*
X127710403Y-59405500D01*
X127710404Y-59405500D01*
X127909596Y-59405500D01*
X127909597Y-59405500D01*
X128106339Y-59374339D01*
X128106342Y-59374338D01*
X128106343Y-59374338D01*
X128295780Y-59312786D01*
X128295780Y-59312785D01*
X128295783Y-59312785D01*
X128473266Y-59222353D01*
X128634418Y-59105269D01*
X128775269Y-58964418D01*
X128892353Y-58803266D01*
X128969515Y-58651827D01*
X129017490Y-58601031D01*
X129085311Y-58584236D01*
X129151446Y-58606773D01*
X129190485Y-58651827D01*
X129267647Y-58803266D01*
X129384731Y-58964418D01*
X129525582Y-59105269D01*
X129686734Y-59222353D01*
X129798572Y-59279337D01*
X129864219Y-59312786D01*
X130053657Y-59374338D01*
X130053658Y-59374338D01*
X130053661Y-59374339D01*
X130250403Y-59405500D01*
X130250404Y-59405500D01*
X130449596Y-59405500D01*
X130449597Y-59405500D01*
X130646339Y-59374339D01*
X130646342Y-59374338D01*
X130646343Y-59374338D01*
X130835780Y-59312786D01*
X130835780Y-59312785D01*
X130835783Y-59312785D01*
X131013266Y-59222353D01*
X131174418Y-59105269D01*
X131315269Y-58964418D01*
X131432353Y-58803266D01*
X131509515Y-58651827D01*
X131557490Y-58601031D01*
X131625311Y-58584236D01*
X131691446Y-58606773D01*
X131730485Y-58651827D01*
X131807647Y-58803266D01*
X131924731Y-58964418D01*
X132065582Y-59105269D01*
X132226734Y-59222353D01*
X132338572Y-59279337D01*
X132404219Y-59312786D01*
X132593657Y-59374338D01*
X132593658Y-59374338D01*
X132593661Y-59374339D01*
X132790403Y-59405500D01*
X132790404Y-59405500D01*
X132989596Y-59405500D01*
X132989597Y-59405500D01*
X133186339Y-59374339D01*
X133186342Y-59374338D01*
X133186343Y-59374338D01*
X133375780Y-59312786D01*
X133375780Y-59312785D01*
X133375783Y-59312785D01*
X133553266Y-59222353D01*
X133714418Y-59105269D01*
X133855269Y-58964418D01*
X133972353Y-58803266D01*
X134049515Y-58651827D01*
X134097490Y-58601031D01*
X134165311Y-58584236D01*
X134231446Y-58606773D01*
X134270485Y-58651827D01*
X134347647Y-58803266D01*
X134464731Y-58964418D01*
X134605582Y-59105269D01*
X134766734Y-59222353D01*
X134878572Y-59279337D01*
X134944219Y-59312786D01*
X135133657Y-59374338D01*
X135133658Y-59374338D01*
X135133661Y-59374339D01*
X135330403Y-59405500D01*
X135330404Y-59405500D01*
X135529596Y-59405500D01*
X135529597Y-59405500D01*
X135726339Y-59374339D01*
X135726342Y-59374338D01*
X135726343Y-59374338D01*
X135915780Y-59312786D01*
X135915780Y-59312785D01*
X135915783Y-59312785D01*
X136093266Y-59222353D01*
X136254418Y-59105269D01*
X136395269Y-58964418D01*
X136480184Y-58847542D01*
X136535511Y-58804878D01*
X136605125Y-58798899D01*
X136666920Y-58831504D01*
X136701277Y-58892343D01*
X136704500Y-58920426D01*
X136704500Y-58952868D01*
X136704501Y-58952876D01*
X136710908Y-59012483D01*
X136761202Y-59147328D01*
X136761206Y-59147335D01*
X136847452Y-59262544D01*
X136847455Y-59262547D01*
X136962664Y-59348793D01*
X136962671Y-59348797D01*
X137097517Y-59399091D01*
X137097516Y-59399091D01*
X137104444Y-59399835D01*
X137157127Y-59405500D01*
X138782872Y-59405499D01*
X138842483Y-59399091D01*
X138977331Y-59348796D01*
X139092546Y-59262546D01*
X139178796Y-59147331D01*
X139229091Y-59012483D01*
X139235500Y-58952873D01*
X139235499Y-57327128D01*
X139229091Y-57267517D01*
X139178796Y-57132669D01*
X139178795Y-57132668D01*
X139178793Y-57132664D01*
X139092547Y-57017455D01*
X139092544Y-57017452D01*
X138977335Y-56931206D01*
X138977328Y-56931202D01*
X138842482Y-56880908D01*
X138842483Y-56880908D01*
X138782883Y-56874501D01*
X138782881Y-56874500D01*
X138782873Y-56874500D01*
X138782864Y-56874500D01*
X137157129Y-56874500D01*
X137157123Y-56874501D01*
X137097516Y-56880908D01*
X136962671Y-56931202D01*
X136962664Y-56931206D01*
X136847455Y-57017452D01*
X136847452Y-57017455D01*
X136761206Y-57132664D01*
X136761202Y-57132671D01*
X136710908Y-57267517D01*
X136705741Y-57315580D01*
X136704501Y-57327123D01*
X136704500Y-57327135D01*
X136704500Y-57359568D01*
X136684815Y-57426607D01*
X136632011Y-57472362D01*
X136562853Y-57482306D01*
X136499297Y-57453281D01*
X136480182Y-57432454D01*
X136427227Y-57359568D01*
X136395269Y-57315582D01*
X136254418Y-57174731D01*
X136093266Y-57057647D01*
X135981427Y-57000662D01*
X135915780Y-56967213D01*
X135726342Y-56905661D01*
X135578782Y-56882290D01*
X135529597Y-56874500D01*
X135330403Y-56874500D01*
X135264822Y-56884887D01*
X135133659Y-56905661D01*
X135133656Y-56905661D01*
X134944219Y-56967213D01*
X134766733Y-57057647D01*
X134728286Y-57085581D01*
X134605582Y-57174731D01*
X134605580Y-57174733D01*
X134605579Y-57174733D01*
X134464733Y-57315579D01*
X134464733Y-57315580D01*
X134464731Y-57315582D01*
X134432773Y-57359568D01*
X134347647Y-57476733D01*
X134270485Y-57628172D01*
X134222510Y-57678968D01*
X134154689Y-57695763D01*
X134088554Y-57673225D01*
X134049515Y-57628172D01*
X133972483Y-57476990D01*
X133972353Y-57476734D01*
X133855269Y-57315582D01*
X133714418Y-57174731D01*
X133553266Y-57057647D01*
X133441427Y-57000662D01*
X133375780Y-56967213D01*
X133186342Y-56905661D01*
X133038782Y-56882290D01*
X132989597Y-56874500D01*
X132790403Y-56874500D01*
X132787246Y-56875000D01*
X132780375Y-56876088D01*
X132711082Y-56867130D01*
X132657632Y-56822132D01*
X132636995Y-56755379D01*
X132655723Y-56688067D01*
X132673294Y-56665939D01*
X132702419Y-56636815D01*
X132763741Y-56603333D01*
X132790097Y-56600500D01*
X144275500Y-56600500D01*
X144342539Y-56620185D01*
X144388294Y-56672989D01*
X144399500Y-56724500D01*
X144399500Y-136076500D01*
X144379815Y-136143539D01*
X144327011Y-136189294D01*
X144275500Y-136200500D01*
X139371097Y-136200500D01*
X139304058Y-136180815D01*
X139283416Y-136164181D01*
X138036819Y-134917584D01*
X138003334Y-134856261D01*
X138000500Y-134829903D01*
X138000500Y-134631456D01*
X137962052Y-134438170D01*
X137962051Y-134438169D01*
X137962051Y-134438165D01*
X137919680Y-134335873D01*
X137912212Y-134266407D01*
X137934977Y-134214111D01*
X137943796Y-134202331D01*
X137994091Y-134067483D01*
X138000500Y-134007873D01*
X138000499Y-132912128D01*
X137994091Y-132852517D01*
X137943884Y-132717906D01*
X137943797Y-132717671D01*
X137943793Y-132717664D01*
X137857547Y-132602455D01*
X137857544Y-132602452D01*
X137742335Y-132516206D01*
X137742328Y-132516202D01*
X137607482Y-132465908D01*
X137607483Y-132465908D01*
X137547883Y-132459501D01*
X137547881Y-132459500D01*
X137547873Y-132459500D01*
X137547864Y-132459500D01*
X136452129Y-132459500D01*
X136452123Y-132459501D01*
X136392516Y-132465908D01*
X136257671Y-132516202D01*
X136257664Y-132516206D01*
X136142455Y-132602452D01*
X136142452Y-132602455D01*
X136056206Y-132717664D01*
X136056202Y-132717671D01*
X136005908Y-132852517D01*
X135999501Y-132912116D01*
X135999501Y-132912123D01*
X135999500Y-132912135D01*
X135999500Y-134007870D01*
X135999501Y-134007876D01*
X136005908Y-134067483D01*
X136056202Y-134202328D01*
X136056206Y-134202335D01*
X136065023Y-134214113D01*
X136089440Y-134279578D01*
X136080318Y-134335874D01*
X136054500Y-134398206D01*
X136037950Y-134438164D01*
X136037948Y-134438168D01*
X136037947Y-134438171D01*
X135999500Y-134631456D01*
X135999500Y-134631459D01*
X135999500Y-134828541D01*
X135999500Y-134828543D01*
X135999499Y-134828543D01*
X136037947Y-135021829D01*
X136037950Y-135021839D01*
X136113365Y-135203907D01*
X136113368Y-135203914D01*
X136149409Y-135257853D01*
X136175271Y-135296559D01*
X136196148Y-135363236D01*
X136177663Y-135430616D01*
X136175271Y-135434339D01*
X136113809Y-135526325D01*
X136038430Y-135708306D01*
X136038427Y-135708318D01*
X136000000Y-135901504D01*
X136000000Y-136098495D01*
X136038427Y-136291681D01*
X136038430Y-136291693D01*
X136113808Y-136473673D01*
X136113809Y-136473675D01*
X136137426Y-136509019D01*
X136675000Y-135971445D01*
X136675000Y-136042787D01*
X136697149Y-136125445D01*
X136739936Y-136199554D01*
X136800446Y-136260064D01*
X136874555Y-136302851D01*
X136957213Y-136325000D01*
X137042787Y-136325000D01*
X137125445Y-136302851D01*
X137199554Y-136260064D01*
X137260064Y-136199554D01*
X137302851Y-136125445D01*
X137325000Y-136042787D01*
X137325000Y-135971447D01*
X137862572Y-136509020D01*
X137865395Y-136508742D01*
X137934041Y-136521761D01*
X137965229Y-136544464D01*
X138586139Y-137165374D01*
X138586149Y-137165385D01*
X138590479Y-137169715D01*
X138590480Y-137169716D01*
X138702284Y-137281520D01*
X138781079Y-137327011D01*
X138789095Y-137331639D01*
X138789097Y-137331641D01*
X138839213Y-137360576D01*
X138839215Y-137360577D01*
X138991942Y-137401500D01*
X138991943Y-137401500D01*
X166842331Y-137401500D01*
X166842347Y-137401501D01*
X166849943Y-137401501D01*
X167008054Y-137401501D01*
X167008057Y-137401501D01*
X167160785Y-137360577D01*
X167210904Y-137331639D01*
X167297716Y-137281520D01*
X167409520Y-137169716D01*
X167409520Y-137169714D01*
X167419728Y-137159507D01*
X167419730Y-137159504D01*
X168003306Y-136575927D01*
X168064627Y-136542444D01*
X168134319Y-136547428D01*
X168190252Y-136589300D01*
X168194087Y-136594719D01*
X168222860Y-136637782D01*
X168362214Y-136777136D01*
X168362218Y-136777139D01*
X168526079Y-136886628D01*
X168526092Y-136886635D01*
X168708160Y-136962049D01*
X168708165Y-136962051D01*
X168708169Y-136962051D01*
X168708170Y-136962052D01*
X168901456Y-137000500D01*
X168901459Y-137000500D01*
X169098543Y-137000500D01*
X169228582Y-136974632D01*
X169291835Y-136962051D01*
X169473914Y-136886632D01*
X169637782Y-136777139D01*
X169777139Y-136637782D01*
X169886632Y-136473914D01*
X169962051Y-136291835D01*
X169982448Y-136189294D01*
X170000500Y-136098543D01*
X170000500Y-135901456D01*
X169962052Y-135708170D01*
X169962051Y-135708169D01*
X169962051Y-135708165D01*
X169957488Y-135697149D01*
X169886635Y-135526092D01*
X169886633Y-135526088D01*
X169886632Y-135526086D01*
X169883044Y-135520716D01*
X169825029Y-135433891D01*
X169804151Y-135367214D01*
X169822635Y-135299834D01*
X169825029Y-135296109D01*
X169850591Y-135257853D01*
X169886632Y-135203914D01*
X169962051Y-135021835D01*
X170000229Y-134829903D01*
X170000500Y-134828543D01*
X170000500Y-134631456D01*
X169962052Y-134438170D01*
X169962051Y-134438169D01*
X169962051Y-134438165D01*
X169919458Y-134335337D01*
X169911990Y-134265869D01*
X169934757Y-134213571D01*
X169943351Y-134202091D01*
X169993597Y-134067376D01*
X169993598Y-134067372D01*
X169999999Y-134007844D01*
X170000000Y-134007827D01*
X170000000Y-133710000D01*
X169209618Y-133710000D01*
X169260064Y-133659554D01*
X169302851Y-133585445D01*
X169325000Y-133502787D01*
X169325000Y-133417213D01*
X169302851Y-133334555D01*
X169260064Y-133260446D01*
X169209618Y-133210000D01*
X169250000Y-133210000D01*
X170000000Y-133210000D01*
X170000000Y-132912172D01*
X169999999Y-132912155D01*
X169993598Y-132852627D01*
X169993596Y-132852620D01*
X169943354Y-132717913D01*
X169943350Y-132717906D01*
X169857190Y-132602812D01*
X169857187Y-132602809D01*
X169742093Y-132516649D01*
X169742086Y-132516645D01*
X169607379Y-132466403D01*
X169607372Y-132466401D01*
X169547844Y-132460000D01*
X169250000Y-132460000D01*
X169250000Y-133210000D01*
X169209618Y-133210000D01*
X169199554Y-133199936D01*
X169125445Y-133157149D01*
X169042787Y-133135000D01*
X168957213Y-133135000D01*
X168874555Y-133157149D01*
X168800446Y-133199936D01*
X168739936Y-133260446D01*
X168697149Y-133334555D01*
X168675000Y-133417213D01*
X168675000Y-133502787D01*
X168697149Y-133585445D01*
X168739936Y-133659554D01*
X168790382Y-133710000D01*
X168000000Y-133710000D01*
X168000000Y-134007844D01*
X168006401Y-134067372D01*
X168006402Y-134067376D01*
X168056647Y-134202088D01*
X168056649Y-134202092D01*
X168065247Y-134213577D01*
X168089663Y-134279041D01*
X168080541Y-134335337D01*
X168080319Y-134335874D01*
X168037950Y-134438164D01*
X168037948Y-134438168D01*
X168037947Y-134438171D01*
X167999500Y-134631456D01*
X167999500Y-134829902D01*
X167979815Y-134896941D01*
X167963181Y-134917583D01*
X166716584Y-136164181D01*
X166655261Y-136197666D01*
X166628903Y-136200500D01*
X152974500Y-136200500D01*
X152907461Y-136180815D01*
X152861706Y-136128011D01*
X152850500Y-136076500D01*
X152850500Y-135901456D01*
X152812052Y-135708170D01*
X152812051Y-135708169D01*
X152812051Y-135708165D01*
X152807488Y-135697149D01*
X152736635Y-135526092D01*
X152736633Y-135526088D01*
X152736632Y-135526086D01*
X152733044Y-135520716D01*
X152675029Y-135433891D01*
X152654151Y-135367214D01*
X152672635Y-135299834D01*
X152675029Y-135296109D01*
X152700591Y-135257853D01*
X152736632Y-135203914D01*
X152812051Y-135021835D01*
X152850229Y-134829903D01*
X152850500Y-134828543D01*
X152850500Y-134631456D01*
X152812052Y-134438170D01*
X152812051Y-134438169D01*
X152812051Y-134438165D01*
X152769458Y-134335337D01*
X152761990Y-134265869D01*
X152784757Y-134213571D01*
X152793351Y-134202091D01*
X152843597Y-134067376D01*
X152843598Y-134067372D01*
X152849999Y-134007844D01*
X152850000Y-134007827D01*
X152850000Y-133710000D01*
X152059618Y-133710000D01*
X152110064Y-133659554D01*
X152152851Y-133585445D01*
X152175000Y-133502787D01*
X152175000Y-133417213D01*
X152152851Y-133334555D01*
X152110064Y-133260446D01*
X152059618Y-133210000D01*
X152100000Y-133210000D01*
X152850000Y-133210000D01*
X152850000Y-132912172D01*
X152849999Y-132912155D01*
X168000000Y-132912155D01*
X168000000Y-133210000D01*
X168750000Y-133210000D01*
X168750000Y-132460000D01*
X168452155Y-132460000D01*
X168392627Y-132466401D01*
X168392620Y-132466403D01*
X168257913Y-132516645D01*
X168257906Y-132516649D01*
X168142812Y-132602809D01*
X168142809Y-132602812D01*
X168056649Y-132717906D01*
X168056645Y-132717913D01*
X168006403Y-132852620D01*
X168006401Y-132852627D01*
X168000000Y-132912155D01*
X152849999Y-132912155D01*
X152843598Y-132852627D01*
X152843596Y-132852620D01*
X152793354Y-132717913D01*
X152793350Y-132717906D01*
X152707190Y-132602812D01*
X152707187Y-132602809D01*
X152592093Y-132516649D01*
X152592086Y-132516645D01*
X152457379Y-132466403D01*
X152457372Y-132466401D01*
X152397844Y-132460000D01*
X152100000Y-132460000D01*
X152100000Y-133210000D01*
X152059618Y-133210000D01*
X152049554Y-133199936D01*
X151975445Y-133157149D01*
X151892787Y-133135000D01*
X151807213Y-133135000D01*
X151724555Y-133157149D01*
X151650446Y-133199936D01*
X151589936Y-133260446D01*
X151547149Y-133334555D01*
X151525000Y-133417213D01*
X151525000Y-133502787D01*
X151547149Y-133585445D01*
X151589936Y-133659554D01*
X151640382Y-133710000D01*
X150850000Y-133710000D01*
X150850000Y-134007844D01*
X150856401Y-134067372D01*
X150856402Y-134067376D01*
X150906647Y-134202088D01*
X150906649Y-134202092D01*
X150915247Y-134213577D01*
X150939663Y-134279041D01*
X150930541Y-134335337D01*
X150930319Y-134335874D01*
X150887950Y-134438164D01*
X150887948Y-134438168D01*
X150887947Y-134438171D01*
X150849500Y-134631456D01*
X150849500Y-134631459D01*
X150849500Y-134828541D01*
X150849500Y-134828543D01*
X150849499Y-134828543D01*
X150887947Y-135021829D01*
X150887950Y-135021839D01*
X150963365Y-135203909D01*
X150963366Y-135203910D01*
X150963368Y-135203914D01*
X150965168Y-135206608D01*
X150965678Y-135208237D01*
X150966238Y-135209284D01*
X150966039Y-135209390D01*
X150986047Y-135273284D01*
X150967564Y-135340664D01*
X150915586Y-135387356D01*
X150862067Y-135399500D01*
X145724500Y-135399500D01*
X145657461Y-135379815D01*
X145611706Y-135327011D01*
X145600500Y-135275500D01*
X145600500Y-132912155D01*
X150850000Y-132912155D01*
X150850000Y-133210000D01*
X151600000Y-133210000D01*
X151600000Y-132460000D01*
X151302155Y-132460000D01*
X151242627Y-132466401D01*
X151242620Y-132466403D01*
X151107913Y-132516645D01*
X151107906Y-132516649D01*
X150992812Y-132602809D01*
X150992809Y-132602812D01*
X150906649Y-132717906D01*
X150906645Y-132717913D01*
X150856403Y-132852620D01*
X150856401Y-132852627D01*
X150850000Y-132912155D01*
X145600500Y-132912155D01*
X145600500Y-96682699D01*
X149499500Y-96682699D01*
X149499500Y-97317300D01*
X149537815Y-97950718D01*
X149614304Y-98580666D01*
X149728693Y-99204867D01*
X149880557Y-99821005D01*
X149880562Y-99821021D01*
X150051231Y-100368716D01*
X150069348Y-100426856D01*
X150089700Y-100480520D01*
X150294370Y-101020191D01*
X150517132Y-101515149D01*
X150554816Y-101598878D01*
X150643690Y-101768214D01*
X150849727Y-102160783D01*
X151178009Y-102703828D01*
X151178025Y-102703853D01*
X151538498Y-103226088D01*
X151929852Y-103725616D01*
X151929853Y-103725617D01*
X152350656Y-104200605D01*
X152350690Y-104200641D01*
X152799358Y-104649309D01*
X152799394Y-104649343D01*
X153274382Y-105070146D01*
X153274383Y-105070147D01*
X153773911Y-105461501D01*
X153911922Y-105556763D01*
X154296162Y-105821985D01*
X154839226Y-106150278D01*
X155401122Y-106445184D01*
X155979798Y-106705625D01*
X155979805Y-106705627D01*
X155979808Y-106705629D01*
X156029567Y-106724500D01*
X156573144Y-106930652D01*
X157178994Y-107119442D01*
X157795138Y-107271308D01*
X158419326Y-107385695D01*
X159049283Y-107462185D01*
X159682708Y-107500500D01*
X159682721Y-107500500D01*
X160317279Y-107500500D01*
X160317292Y-107500500D01*
X160950717Y-107462185D01*
X161580674Y-107385695D01*
X162204862Y-107271308D01*
X162821006Y-107119442D01*
X163426856Y-106930652D01*
X164020202Y-106705625D01*
X164598878Y-106445184D01*
X165160774Y-106150278D01*
X165703838Y-105821985D01*
X166226090Y-105461500D01*
X166544950Y-105211689D01*
X166725616Y-105070147D01*
X166725617Y-105070146D01*
X166756733Y-105042580D01*
X167200616Y-104649334D01*
X167649334Y-104200616D01*
X168070141Y-103725623D01*
X168070146Y-103725617D01*
X168070147Y-103725616D01*
X168256598Y-103487627D01*
X168461500Y-103226090D01*
X168821985Y-102703838D01*
X169150278Y-102160774D01*
X169445184Y-101598878D01*
X169705625Y-101020202D01*
X169930652Y-100426856D01*
X170119442Y-99821006D01*
X170271308Y-99204862D01*
X170385695Y-98580674D01*
X170462185Y-97950717D01*
X170500500Y-97317292D01*
X170500500Y-96682708D01*
X170462185Y-96049283D01*
X170385695Y-95419326D01*
X170271308Y-94795138D01*
X170119442Y-94178994D01*
X169930652Y-93573144D01*
X169705625Y-92979798D01*
X169445184Y-92401122D01*
X169150278Y-91839226D01*
X168821985Y-91296162D01*
X168461500Y-90773910D01*
X168238117Y-90488782D01*
X168070147Y-90274383D01*
X168070146Y-90274382D01*
X167649343Y-89799394D01*
X167649309Y-89799358D01*
X167200641Y-89350690D01*
X167200605Y-89350656D01*
X166725617Y-88929853D01*
X166725616Y-88929852D01*
X166226088Y-88538498D01*
X165703853Y-88178025D01*
X165703845Y-88178020D01*
X165703838Y-88178015D01*
X165442654Y-88020124D01*
X165160783Y-87849727D01*
X165160777Y-87849724D01*
X165160774Y-87849722D01*
X164598878Y-87554816D01*
X164598876Y-87554815D01*
X164598872Y-87554813D01*
X164020191Y-87294370D01*
X163624353Y-87144249D01*
X163426856Y-87069348D01*
X163426849Y-87069346D01*
X163426847Y-87069345D01*
X162821021Y-86880562D01*
X162821005Y-86880557D01*
X162204867Y-86728693D01*
X162204862Y-86728692D01*
X161580674Y-86614305D01*
X161580666Y-86614304D01*
X160950718Y-86537815D01*
X160317300Y-86499500D01*
X160317292Y-86499500D01*
X159682708Y-86499500D01*
X159682699Y-86499500D01*
X159049281Y-86537815D01*
X158419333Y-86614304D01*
X158419330Y-86614304D01*
X158419326Y-86614305D01*
X157957643Y-86698911D01*
X157795132Y-86728693D01*
X157178994Y-86880557D01*
X157178978Y-86880562D01*
X156573152Y-87069345D01*
X155979808Y-87294370D01*
X155401127Y-87554813D01*
X154839216Y-87849727D01*
X154296171Y-88178009D01*
X154296146Y-88178025D01*
X153773911Y-88538498D01*
X153274383Y-88929852D01*
X153274382Y-88929853D01*
X152799394Y-89350656D01*
X152799358Y-89350690D01*
X152350690Y-89799358D01*
X152350656Y-89799394D01*
X151929853Y-90274382D01*
X151929852Y-90274383D01*
X151538498Y-90773911D01*
X151178025Y-91296146D01*
X151178009Y-91296171D01*
X150849727Y-91839216D01*
X150554813Y-92401127D01*
X150294370Y-92979808D01*
X150069345Y-93573152D01*
X149880562Y-94178978D01*
X149880557Y-94178994D01*
X149728693Y-94795132D01*
X149614304Y-95419333D01*
X149537815Y-96049281D01*
X149499500Y-96682699D01*
X145600500Y-96682699D01*
X145600500Y-74119635D01*
X189156000Y-74119635D01*
X189156000Y-77215370D01*
X189156001Y-77215376D01*
X189162408Y-77274983D01*
X189212702Y-77409828D01*
X189212706Y-77409835D01*
X189298952Y-77525044D01*
X189298955Y-77525047D01*
X189414164Y-77611293D01*
X189414171Y-77611297D01*
X189549017Y-77661591D01*
X189549016Y-77661591D01*
X189555944Y-77662335D01*
X189608627Y-77668000D01*
X192704372Y-77667999D01*
X192763983Y-77661591D01*
X192898831Y-77611296D01*
X193014046Y-77525046D01*
X193100296Y-77409831D01*
X193150591Y-77274983D01*
X193157000Y-77215373D01*
X193156999Y-74827222D01*
X223366500Y-74827222D01*
X223366500Y-75110777D01*
X223398245Y-75392523D01*
X223398247Y-75392535D01*
X223461342Y-75668976D01*
X223461345Y-75668984D01*
X223554992Y-75936610D01*
X223678015Y-76192070D01*
X223678017Y-76192073D01*
X223828872Y-76432158D01*
X224005660Y-76653843D01*
X224206157Y-76854340D01*
X224427842Y-77031128D01*
X224667927Y-77181983D01*
X224923393Y-77305009D01*
X225124394Y-77375342D01*
X225191015Y-77398654D01*
X225191023Y-77398657D01*
X225191026Y-77398657D01*
X225191027Y-77398658D01*
X225467464Y-77461753D01*
X225749223Y-77493499D01*
X225749224Y-77493500D01*
X225749227Y-77493500D01*
X226032776Y-77493500D01*
X226032776Y-77493499D01*
X226314536Y-77461753D01*
X226590973Y-77398658D01*
X226858607Y-77305009D01*
X227114073Y-77181983D01*
X227354158Y-77031128D01*
X227575843Y-76854340D01*
X227776340Y-76653843D01*
X227953128Y-76432158D01*
X228103983Y-76192073D01*
X228227009Y-75936607D01*
X228320658Y-75668973D01*
X228383753Y-75392536D01*
X228383754Y-75392524D01*
X228383755Y-75392521D01*
X228405780Y-75197042D01*
X228432846Y-75132628D01*
X228490441Y-75093073D01*
X228560278Y-75090935D01*
X228620184Y-75126893D01*
X228651140Y-75189531D01*
X228653000Y-75210925D01*
X228653000Y-77215370D01*
X228653001Y-77215376D01*
X228659408Y-77274983D01*
X228709702Y-77409828D01*
X228709706Y-77409835D01*
X228795952Y-77525044D01*
X228795955Y-77525047D01*
X228911164Y-77611293D01*
X228911171Y-77611297D01*
X229046017Y-77661591D01*
X229046016Y-77661591D01*
X229052944Y-77662335D01*
X229105627Y-77668000D01*
X232201372Y-77667999D01*
X232260983Y-77661591D01*
X232395831Y-77611296D01*
X232511046Y-77525046D01*
X232597296Y-77409831D01*
X232647591Y-77274983D01*
X232654000Y-77215373D01*
X232653999Y-74119628D01*
X232647591Y-74060017D01*
X232625724Y-74001389D01*
X232597297Y-73925171D01*
X232597293Y-73925164D01*
X232511047Y-73809955D01*
X232511044Y-73809952D01*
X232395835Y-73723706D01*
X232395828Y-73723702D01*
X232260982Y-73673408D01*
X232260983Y-73673408D01*
X232201383Y-73667001D01*
X232201381Y-73667000D01*
X232201373Y-73667000D01*
X232201364Y-73667000D01*
X229105629Y-73667000D01*
X229105623Y-73667001D01*
X229046016Y-73673408D01*
X228911171Y-73723702D01*
X228911164Y-73723706D01*
X228795955Y-73809952D01*
X228795952Y-73809955D01*
X228709706Y-73925164D01*
X228709702Y-73925171D01*
X228659408Y-74060017D01*
X228653001Y-74119616D01*
X228653001Y-74119623D01*
X228653000Y-74119635D01*
X228653000Y-74727073D01*
X228633315Y-74794112D01*
X228580511Y-74839867D01*
X228511353Y-74849811D01*
X228447797Y-74820786D01*
X228410023Y-74762008D01*
X228405780Y-74740956D01*
X228383755Y-74545478D01*
X228383754Y-74545473D01*
X228383753Y-74545464D01*
X228320658Y-74269027D01*
X228227009Y-74001393D01*
X228103983Y-73745927D01*
X227953128Y-73505842D01*
X227776340Y-73284157D01*
X227575843Y-73083660D01*
X227354158Y-72906872D01*
X227114073Y-72756017D01*
X227114070Y-72756015D01*
X226858610Y-72632992D01*
X226590984Y-72539345D01*
X226590976Y-72539342D01*
X226383645Y-72492020D01*
X226314536Y-72476247D01*
X226314532Y-72476246D01*
X226314523Y-72476245D01*
X226032777Y-72444500D01*
X226032773Y-72444500D01*
X225749227Y-72444500D01*
X225749222Y-72444500D01*
X225467476Y-72476245D01*
X225467464Y-72476247D01*
X225191023Y-72539342D01*
X225191015Y-72539345D01*
X224923389Y-72632992D01*
X224667929Y-72756015D01*
X224427843Y-72906871D01*
X224206157Y-73083659D01*
X224005659Y-73284157D01*
X223828871Y-73505843D01*
X223678015Y-73745929D01*
X223554992Y-74001389D01*
X223461345Y-74269015D01*
X223461342Y-74269023D01*
X223398247Y-74545464D01*
X223398245Y-74545476D01*
X223366500Y-74827222D01*
X193156999Y-74827222D01*
X193156999Y-74119628D01*
X193150591Y-74060017D01*
X193128724Y-74001389D01*
X193100297Y-73925171D01*
X193100293Y-73925164D01*
X193014047Y-73809955D01*
X193014044Y-73809952D01*
X192898835Y-73723706D01*
X192898828Y-73723702D01*
X192763982Y-73673408D01*
X192763983Y-73673408D01*
X192704383Y-73667001D01*
X192704381Y-73667000D01*
X192704373Y-73667000D01*
X192704364Y-73667000D01*
X189608629Y-73667000D01*
X189608623Y-73667001D01*
X189549016Y-73673408D01*
X189414171Y-73723702D01*
X189414164Y-73723706D01*
X189298955Y-73809952D01*
X189298952Y-73809955D01*
X189212706Y-73925164D01*
X189212702Y-73925171D01*
X189162408Y-74060017D01*
X189156001Y-74119616D01*
X189156001Y-74119623D01*
X189156000Y-74119635D01*
X145600500Y-74119635D01*
X145600500Y-56974655D01*
X189156500Y-56974655D01*
X189156500Y-58272500D01*
X190608018Y-58272500D01*
X190597389Y-58290909D01*
X190556500Y-58443509D01*
X190556500Y-58601491D01*
X190597389Y-58754091D01*
X190608018Y-58772500D01*
X189156500Y-58772500D01*
X189156500Y-60070344D01*
X189162901Y-60129872D01*
X189162903Y-60129879D01*
X189213145Y-60264586D01*
X189213149Y-60264593D01*
X189299309Y-60379687D01*
X189299312Y-60379690D01*
X189414406Y-60465850D01*
X189414413Y-60465854D01*
X189549120Y-60516096D01*
X189549127Y-60516098D01*
X189608655Y-60522499D01*
X189608672Y-60522500D01*
X190906500Y-60522500D01*
X190906500Y-59070982D01*
X190924909Y-59081611D01*
X191077509Y-59122500D01*
X191235491Y-59122500D01*
X191388091Y-59081611D01*
X191406500Y-59070982D01*
X191406500Y-60522500D01*
X192704328Y-60522500D01*
X192704344Y-60522499D01*
X192763872Y-60516098D01*
X192763879Y-60516096D01*
X192898586Y-60465854D01*
X192898593Y-60465850D01*
X193013687Y-60379690D01*
X193013690Y-60379687D01*
X193099850Y-60264593D01*
X193099854Y-60264586D01*
X193150096Y-60129879D01*
X193150098Y-60129872D01*
X193156499Y-60070344D01*
X193156500Y-60070327D01*
X193156500Y-59458490D01*
X193176185Y-59391451D01*
X193228989Y-59345696D01*
X193298147Y-59335752D01*
X193361703Y-59364777D01*
X193399477Y-59423555D01*
X193403720Y-59444607D01*
X193426244Y-59644521D01*
X193426247Y-59644535D01*
X193489342Y-59920976D01*
X193489345Y-59920984D01*
X193582992Y-60188610D01*
X193706015Y-60444070D01*
X193706017Y-60444073D01*
X193856872Y-60684158D01*
X194033660Y-60905843D01*
X194234157Y-61106340D01*
X194455842Y-61283128D01*
X194695927Y-61433983D01*
X194951393Y-61557009D01*
X195152394Y-61627342D01*
X195219015Y-61650654D01*
X195219023Y-61650657D01*
X195219026Y-61650657D01*
X195219027Y-61650658D01*
X195495464Y-61713753D01*
X195777223Y-61745499D01*
X195777224Y-61745500D01*
X195777227Y-61745500D01*
X196060776Y-61745500D01*
X196060776Y-61745499D01*
X196342536Y-61713753D01*
X196618973Y-61650658D01*
X196886607Y-61557009D01*
X197142073Y-61433983D01*
X197382158Y-61283128D01*
X197603843Y-61106340D01*
X197804340Y-60905843D01*
X197981128Y-60684158D01*
X198131983Y-60444073D01*
X198255009Y-60188607D01*
X198348658Y-59920973D01*
X198411753Y-59644536D01*
X198443500Y-59362773D01*
X198443500Y-59079227D01*
X198411753Y-58797464D01*
X198348658Y-58521027D01*
X198255009Y-58253393D01*
X198131983Y-57997927D01*
X197981128Y-57757842D01*
X197804340Y-57536157D01*
X197603843Y-57335660D01*
X197593145Y-57327129D01*
X197518393Y-57267516D01*
X197382158Y-57158872D01*
X197142073Y-57008017D01*
X197142070Y-57008015D01*
X197072756Y-56974635D01*
X228653000Y-56974635D01*
X228653000Y-60070370D01*
X228653001Y-60070376D01*
X228659408Y-60129983D01*
X228709702Y-60264828D01*
X228709706Y-60264835D01*
X228795952Y-60380044D01*
X228795955Y-60380047D01*
X228911164Y-60466293D01*
X228911171Y-60466297D01*
X229046017Y-60516591D01*
X229046016Y-60516591D01*
X229052944Y-60517335D01*
X229105627Y-60523000D01*
X232201372Y-60522999D01*
X232260983Y-60516591D01*
X232395831Y-60466296D01*
X232511046Y-60380046D01*
X232597296Y-60264831D01*
X232647591Y-60129983D01*
X232654000Y-60070373D01*
X232653999Y-56974628D01*
X232647591Y-56915017D01*
X232644685Y-56907226D01*
X232597297Y-56780171D01*
X232597293Y-56780164D01*
X232511047Y-56664955D01*
X232511044Y-56664952D01*
X232395835Y-56578706D01*
X232395828Y-56578702D01*
X232260982Y-56528408D01*
X232260983Y-56528408D01*
X232201383Y-56522001D01*
X232201381Y-56522000D01*
X232201373Y-56522000D01*
X232201364Y-56522000D01*
X229105629Y-56522000D01*
X229105623Y-56522001D01*
X229046016Y-56528408D01*
X228911171Y-56578702D01*
X228911164Y-56578706D01*
X228795955Y-56664952D01*
X228795952Y-56664955D01*
X228709706Y-56780164D01*
X228709702Y-56780171D01*
X228659408Y-56915017D01*
X228657668Y-56931206D01*
X228653001Y-56974623D01*
X228653000Y-56974635D01*
X197072756Y-56974635D01*
X196886610Y-56884992D01*
X196618984Y-56791345D01*
X196618976Y-56791342D01*
X196411645Y-56744020D01*
X196342536Y-56728247D01*
X196342532Y-56728246D01*
X196342523Y-56728245D01*
X196060777Y-56696500D01*
X196060773Y-56696500D01*
X195777227Y-56696500D01*
X195777222Y-56696500D01*
X195495476Y-56728245D01*
X195495464Y-56728247D01*
X195219023Y-56791342D01*
X195219015Y-56791345D01*
X194951389Y-56884992D01*
X194695929Y-57008015D01*
X194455843Y-57158871D01*
X194234157Y-57335659D01*
X194033659Y-57536157D01*
X193856871Y-57757843D01*
X193706015Y-57997929D01*
X193582992Y-58253389D01*
X193489345Y-58521015D01*
X193489342Y-58521023D01*
X193426247Y-58797464D01*
X193426245Y-58797476D01*
X193403720Y-58997393D01*
X193376654Y-59061807D01*
X193319059Y-59101362D01*
X193249222Y-59103499D01*
X193189315Y-59067541D01*
X193158360Y-59004903D01*
X193156500Y-58983509D01*
X193156500Y-58772500D01*
X191704982Y-58772500D01*
X191715611Y-58754091D01*
X191756500Y-58601491D01*
X191756500Y-58443509D01*
X191715611Y-58290909D01*
X191704982Y-58272500D01*
X193156500Y-58272500D01*
X193156500Y-56974672D01*
X193156499Y-56974655D01*
X193150098Y-56915127D01*
X193150096Y-56915120D01*
X193099854Y-56780413D01*
X193099850Y-56780406D01*
X193013690Y-56665312D01*
X193013687Y-56665309D01*
X192898593Y-56579149D01*
X192898586Y-56579145D01*
X192763879Y-56528903D01*
X192763872Y-56528901D01*
X192704344Y-56522500D01*
X191406500Y-56522500D01*
X191406500Y-57974017D01*
X191388091Y-57963389D01*
X191235491Y-57922500D01*
X191077509Y-57922500D01*
X190924909Y-57963389D01*
X190906500Y-57974017D01*
X190906500Y-56522500D01*
X189608655Y-56522500D01*
X189549127Y-56528901D01*
X189549120Y-56528903D01*
X189414413Y-56579145D01*
X189414406Y-56579149D01*
X189299312Y-56665309D01*
X189299309Y-56665312D01*
X189213149Y-56780406D01*
X189213145Y-56780413D01*
X189162903Y-56915120D01*
X189162901Y-56915127D01*
X189156500Y-56974655D01*
X145600500Y-56974655D01*
X145600500Y-55920945D01*
X145600500Y-55920943D01*
X145559577Y-55768216D01*
X145559573Y-55768209D01*
X145480524Y-55631290D01*
X145480518Y-55631282D01*
X145368717Y-55519481D01*
X145368709Y-55519475D01*
X145231790Y-55440426D01*
X145231786Y-55440424D01*
X145231784Y-55440423D01*
X145079057Y-55399500D01*
X145079056Y-55399500D01*
X132576669Y-55399500D01*
X132576653Y-55399499D01*
X132569057Y-55399499D01*
X132410943Y-55399499D01*
X132303587Y-55428265D01*
X132258210Y-55440424D01*
X132258209Y-55440425D01*
X132208096Y-55469359D01*
X132208095Y-55469360D01*
X132164689Y-55494420D01*
X132121285Y-55519479D01*
X132121282Y-55519481D01*
X132009478Y-55631286D01*
X130767022Y-56873741D01*
X130705699Y-56907226D01*
X130650404Y-56906636D01*
X130646344Y-56905661D01*
X130459623Y-56876088D01*
X130449597Y-56874500D01*
X130250403Y-56874500D01*
X130184822Y-56884887D01*
X130053659Y-56905661D01*
X130053656Y-56905661D01*
X129864219Y-56967213D01*
X129686733Y-57057647D01*
X129648286Y-57085581D01*
X129525582Y-57174731D01*
X129525580Y-57174733D01*
X129525579Y-57174733D01*
X129384733Y-57315579D01*
X129384733Y-57315580D01*
X129384731Y-57315582D01*
X129352773Y-57359568D01*
X129267647Y-57476733D01*
X129190485Y-57628172D01*
X129142510Y-57678968D01*
X129074689Y-57695763D01*
X129008554Y-57673225D01*
X128969515Y-57628172D01*
X128892483Y-57476990D01*
X128892353Y-57476734D01*
X128775269Y-57315582D01*
X128634418Y-57174731D01*
X128473266Y-57057647D01*
X128361427Y-57000662D01*
X128295780Y-56967213D01*
X128106342Y-56905661D01*
X127958782Y-56882290D01*
X127909597Y-56874500D01*
X127710403Y-56874500D01*
X127644822Y-56884887D01*
X127513659Y-56905661D01*
X127513656Y-56905661D01*
X127324219Y-56967213D01*
X127146733Y-57057647D01*
X127108286Y-57085581D01*
X126985582Y-57174731D01*
X126985580Y-57174733D01*
X126985579Y-57174733D01*
X126844733Y-57315579D01*
X126844733Y-57315580D01*
X126844731Y-57315582D01*
X126812773Y-57359568D01*
X126727647Y-57476733D01*
X126650485Y-57628172D01*
X126602510Y-57678968D01*
X126534689Y-57695763D01*
X126468554Y-57673225D01*
X126429515Y-57628172D01*
X126352483Y-57476990D01*
X126352353Y-57476734D01*
X126235269Y-57315582D01*
X126094418Y-57174731D01*
X125933266Y-57057647D01*
X125821427Y-57000662D01*
X125755780Y-56967213D01*
X125566342Y-56905661D01*
X125418782Y-56882290D01*
X125369597Y-56874500D01*
X125170403Y-56874500D01*
X125104822Y-56884887D01*
X124973659Y-56905661D01*
X124973656Y-56905661D01*
X124784219Y-56967213D01*
X124606733Y-57057647D01*
X124568286Y-57085581D01*
X124445582Y-57174731D01*
X124445580Y-57174733D01*
X124445579Y-57174733D01*
X124304733Y-57315579D01*
X124304733Y-57315580D01*
X124304731Y-57315582D01*
X124272773Y-57359568D01*
X124187647Y-57476733D01*
X124110485Y-57628172D01*
X124062510Y-57678968D01*
X123994689Y-57695763D01*
X123928554Y-57673225D01*
X123889515Y-57628172D01*
X123812483Y-57476990D01*
X123812353Y-57476734D01*
X123695269Y-57315582D01*
X123554418Y-57174731D01*
X123393266Y-57057647D01*
X123281427Y-57000662D01*
X123215780Y-56967213D01*
X123026342Y-56905661D01*
X122878782Y-56882290D01*
X122829597Y-56874500D01*
X122630403Y-56874500D01*
X122564822Y-56884887D01*
X122433659Y-56905661D01*
X122433656Y-56905661D01*
X122244219Y-56967213D01*
X122066733Y-57057647D01*
X122028286Y-57085581D01*
X121905582Y-57174731D01*
X121905580Y-57174733D01*
X121905579Y-57174733D01*
X121764733Y-57315579D01*
X121764733Y-57315580D01*
X121764731Y-57315582D01*
X121732773Y-57359568D01*
X121647647Y-57476733D01*
X121570485Y-57628172D01*
X121522510Y-57678968D01*
X121454689Y-57695763D01*
X121388554Y-57673225D01*
X121349515Y-57628172D01*
X121272483Y-57476990D01*
X121272353Y-57476734D01*
X121155269Y-57315582D01*
X121014418Y-57174731D01*
X120853266Y-57057647D01*
X120741427Y-57000662D01*
X120675780Y-56967213D01*
X120486342Y-56905661D01*
X120338782Y-56882290D01*
X120289597Y-56874500D01*
X120090403Y-56874500D01*
X120024822Y-56884887D01*
X119893659Y-56905661D01*
X119893656Y-56905661D01*
X119704219Y-56967213D01*
X119526733Y-57057647D01*
X119488286Y-57085581D01*
X119365582Y-57174731D01*
X119365580Y-57174733D01*
X119365579Y-57174733D01*
X119224733Y-57315579D01*
X119224733Y-57315580D01*
X119224731Y-57315582D01*
X119192773Y-57359568D01*
X119107647Y-57476733D01*
X119030485Y-57628172D01*
X118982510Y-57678968D01*
X118914689Y-57695763D01*
X118848554Y-57673225D01*
X118809515Y-57628172D01*
X118732483Y-57476990D01*
X118732353Y-57476734D01*
X118615269Y-57315582D01*
X118474418Y-57174731D01*
X118313266Y-57057647D01*
X118201427Y-57000662D01*
X118135780Y-56967213D01*
X117946342Y-56905661D01*
X117798782Y-56882290D01*
X117749597Y-56874500D01*
X117550403Y-56874500D01*
X117484822Y-56884887D01*
X117353659Y-56905661D01*
X117353656Y-56905661D01*
X117164219Y-56967213D01*
X116986733Y-57057647D01*
X116948286Y-57085581D01*
X116825582Y-57174731D01*
X116825580Y-57174733D01*
X116825579Y-57174733D01*
X116684733Y-57315579D01*
X116684733Y-57315580D01*
X116684731Y-57315582D01*
X116652773Y-57359568D01*
X116567647Y-57476733D01*
X116490485Y-57628172D01*
X116442510Y-57678968D01*
X116374689Y-57695763D01*
X116308554Y-57673225D01*
X116269515Y-57628172D01*
X116192483Y-57476990D01*
X116192353Y-57476734D01*
X116075269Y-57315582D01*
X115934418Y-57174731D01*
X115773266Y-57057647D01*
X115661427Y-57000662D01*
X115595780Y-56967213D01*
X115406342Y-56905661D01*
X115258782Y-56882290D01*
X115209597Y-56874500D01*
X115010403Y-56874500D01*
X114944822Y-56884887D01*
X114813659Y-56905661D01*
X114813656Y-56905661D01*
X114624219Y-56967213D01*
X114446733Y-57057647D01*
X114408286Y-57085581D01*
X114285582Y-57174731D01*
X114285580Y-57174733D01*
X114285579Y-57174733D01*
X114144733Y-57315579D01*
X114144733Y-57315580D01*
X114144731Y-57315582D01*
X114112773Y-57359568D01*
X114027647Y-57476733D01*
X113950485Y-57628172D01*
X113902510Y-57678968D01*
X113834689Y-57695763D01*
X113768554Y-57673225D01*
X113729515Y-57628172D01*
X113652483Y-57476990D01*
X113652353Y-57476734D01*
X113535269Y-57315582D01*
X113394418Y-57174731D01*
X113233266Y-57057647D01*
X113121427Y-57000662D01*
X113055780Y-56967213D01*
X112866342Y-56905661D01*
X112718782Y-56882290D01*
X112669597Y-56874500D01*
X112470403Y-56874500D01*
X112404822Y-56884887D01*
X112273659Y-56905661D01*
X112273656Y-56905661D01*
X112084219Y-56967213D01*
X111906733Y-57057647D01*
X111868286Y-57085581D01*
X111745582Y-57174731D01*
X111745580Y-57174733D01*
X111745579Y-57174733D01*
X111604733Y-57315579D01*
X111604733Y-57315580D01*
X111604731Y-57315582D01*
X111572773Y-57359568D01*
X111487647Y-57476733D01*
X111410485Y-57628172D01*
X111362510Y-57678968D01*
X111294689Y-57695763D01*
X111228554Y-57673225D01*
X111189515Y-57628172D01*
X111112483Y-57476990D01*
X111112353Y-57476734D01*
X110995269Y-57315582D01*
X110854418Y-57174731D01*
X110693266Y-57057647D01*
X110581427Y-57000662D01*
X110515780Y-56967213D01*
X110326342Y-56905661D01*
X110178782Y-56882290D01*
X110129597Y-56874500D01*
X109930403Y-56874500D01*
X109864822Y-56884887D01*
X109733659Y-56905661D01*
X109733656Y-56905661D01*
X109544219Y-56967213D01*
X109366733Y-57057647D01*
X109328286Y-57085581D01*
X109205582Y-57174731D01*
X109205580Y-57174733D01*
X109205579Y-57174733D01*
X109064733Y-57315579D01*
X109064733Y-57315580D01*
X109064731Y-57315582D01*
X109032773Y-57359568D01*
X108947647Y-57476733D01*
X108870485Y-57628172D01*
X108822510Y-57678968D01*
X108754689Y-57695763D01*
X108688554Y-57673225D01*
X108649515Y-57628172D01*
X108572483Y-57476990D01*
X108572353Y-57476734D01*
X108455269Y-57315582D01*
X108314418Y-57174731D01*
X108153266Y-57057647D01*
X108041427Y-57000662D01*
X107975780Y-56967213D01*
X107786342Y-56905661D01*
X107638782Y-56882290D01*
X107589597Y-56874500D01*
X107390403Y-56874500D01*
X107324822Y-56884887D01*
X107193659Y-56905661D01*
X107193656Y-56905661D01*
X107004219Y-56967213D01*
X106826733Y-57057647D01*
X106788286Y-57085581D01*
X106665582Y-57174731D01*
X106665580Y-57174733D01*
X106665579Y-57174733D01*
X106524733Y-57315579D01*
X106524733Y-57315580D01*
X106524731Y-57315582D01*
X106492773Y-57359568D01*
X106407647Y-57476733D01*
X106330485Y-57628172D01*
X106282510Y-57678968D01*
X106214689Y-57695763D01*
X106148554Y-57673225D01*
X106109515Y-57628172D01*
X106032483Y-57476990D01*
X106032353Y-57476734D01*
X105915269Y-57315582D01*
X105774418Y-57174731D01*
X105613266Y-57057647D01*
X105501427Y-57000662D01*
X105435780Y-56967213D01*
X105246342Y-56905661D01*
X105098782Y-56882290D01*
X105049597Y-56874500D01*
X104850403Y-56874500D01*
X104784822Y-56884887D01*
X104653659Y-56905661D01*
X104653656Y-56905661D01*
X104464219Y-56967213D01*
X104286733Y-57057647D01*
X104248286Y-57085581D01*
X104125582Y-57174731D01*
X104125580Y-57174733D01*
X104125579Y-57174733D01*
X103984733Y-57315579D01*
X103984733Y-57315580D01*
X103984731Y-57315582D01*
X103952773Y-57359568D01*
X103867647Y-57476733D01*
X103790485Y-57628172D01*
X103742510Y-57678968D01*
X103674689Y-57695763D01*
X103608554Y-57673225D01*
X103569515Y-57628172D01*
X103492483Y-57476990D01*
X103492353Y-57476734D01*
X103375269Y-57315582D01*
X103234418Y-57174731D01*
X103073266Y-57057647D01*
X102961427Y-57000662D01*
X102895780Y-56967213D01*
X102706342Y-56905661D01*
X102558782Y-56882290D01*
X102509597Y-56874500D01*
X102310403Y-56874500D01*
X102244822Y-56884887D01*
X102113659Y-56905661D01*
X102113656Y-56905661D01*
X101924219Y-56967213D01*
X101746733Y-57057647D01*
X101708286Y-57085581D01*
X101585582Y-57174731D01*
X101585580Y-57174733D01*
X101585579Y-57174733D01*
X101444733Y-57315579D01*
X101444733Y-57315580D01*
X101444731Y-57315582D01*
X101412773Y-57359568D01*
X101327647Y-57476733D01*
X101250485Y-57628172D01*
X101202510Y-57678968D01*
X101134689Y-57695763D01*
X101068554Y-57673225D01*
X101029515Y-57628172D01*
X100952483Y-57476990D01*
X100952353Y-57476734D01*
X100835269Y-57315582D01*
X100694418Y-57174731D01*
X100533266Y-57057647D01*
X100421427Y-57000662D01*
X100355780Y-56967213D01*
X100166342Y-56905661D01*
X100018782Y-56882290D01*
X99969597Y-56874500D01*
X99770403Y-56874500D01*
X99704822Y-56884887D01*
X99573659Y-56905661D01*
X99573656Y-56905661D01*
X99384219Y-56967213D01*
X99206733Y-57057647D01*
X99168286Y-57085581D01*
X99045582Y-57174731D01*
X99045580Y-57174733D01*
X99045579Y-57174733D01*
X98904733Y-57315579D01*
X98904733Y-57315580D01*
X98904731Y-57315582D01*
X98872773Y-57359568D01*
X98787647Y-57476733D01*
X98710485Y-57628172D01*
X98662510Y-57678968D01*
X98594689Y-57695763D01*
X98528554Y-57673225D01*
X98489515Y-57628172D01*
X98412483Y-57476990D01*
X98412353Y-57476734D01*
X98295269Y-57315582D01*
X98154418Y-57174731D01*
X97993266Y-57057647D01*
X97881427Y-57000662D01*
X97815780Y-56967213D01*
X97626342Y-56905661D01*
X97478782Y-56882290D01*
X97429597Y-56874500D01*
X97230403Y-56874500D01*
X97164822Y-56884887D01*
X97033659Y-56905661D01*
X97033656Y-56905661D01*
X96844219Y-56967213D01*
X96666733Y-57057647D01*
X96628286Y-57085581D01*
X96505582Y-57174731D01*
X96505580Y-57174733D01*
X96505579Y-57174733D01*
X96364733Y-57315579D01*
X96364733Y-57315580D01*
X96364731Y-57315582D01*
X96332773Y-57359568D01*
X96247647Y-57476733D01*
X96170485Y-57628172D01*
X96122510Y-57678968D01*
X96054689Y-57695763D01*
X95988554Y-57673225D01*
X95949515Y-57628172D01*
X95872483Y-57476990D01*
X95872353Y-57476734D01*
X95755269Y-57315582D01*
X95614418Y-57174731D01*
X95453266Y-57057647D01*
X95341427Y-57000662D01*
X95275780Y-56967213D01*
X95086342Y-56905661D01*
X94938782Y-56882290D01*
X94889597Y-56874500D01*
X94690403Y-56874500D01*
X94624822Y-56884887D01*
X94493659Y-56905661D01*
X94493656Y-56905661D01*
X94304219Y-56967213D01*
X94126733Y-57057647D01*
X94088286Y-57085581D01*
X93965582Y-57174731D01*
X93965580Y-57174733D01*
X93965579Y-57174733D01*
X93824733Y-57315579D01*
X93824733Y-57315580D01*
X93824731Y-57315582D01*
X93792773Y-57359568D01*
X93707647Y-57476733D01*
X93630485Y-57628172D01*
X93582510Y-57678968D01*
X93514689Y-57695763D01*
X93448554Y-57673225D01*
X93409515Y-57628172D01*
X93332483Y-57476990D01*
X93332353Y-57476734D01*
X93215269Y-57315582D01*
X93074418Y-57174731D01*
X92913266Y-57057647D01*
X92801427Y-57000662D01*
X92735780Y-56967213D01*
X92546342Y-56905661D01*
X92398782Y-56882290D01*
X92349597Y-56874500D01*
X92150403Y-56874500D01*
X92084822Y-56884887D01*
X91953659Y-56905661D01*
X91953656Y-56905661D01*
X91764219Y-56967213D01*
X91586733Y-57057647D01*
X91548286Y-57085581D01*
X91425582Y-57174731D01*
X91425580Y-57174733D01*
X91425579Y-57174733D01*
X91284733Y-57315579D01*
X91284733Y-57315580D01*
X91284731Y-57315582D01*
X91252773Y-57359568D01*
X91167647Y-57476733D01*
X91090485Y-57628172D01*
X91042510Y-57678968D01*
X90974689Y-57695763D01*
X90908554Y-57673225D01*
X90869515Y-57628172D01*
X90792483Y-57476990D01*
X90792353Y-57476734D01*
X90675269Y-57315582D01*
X90534418Y-57174731D01*
X90373266Y-57057647D01*
X90261427Y-57000662D01*
X90195780Y-56967213D01*
X90006342Y-56905661D01*
X89858782Y-56882290D01*
X89809597Y-56874500D01*
X89610403Y-56874500D01*
X89544822Y-56884887D01*
X89413659Y-56905661D01*
X89413656Y-56905661D01*
X89224219Y-56967213D01*
X89046733Y-57057647D01*
X89008286Y-57085581D01*
X88885582Y-57174731D01*
X88885580Y-57174733D01*
X88885579Y-57174733D01*
X88744733Y-57315579D01*
X88744733Y-57315580D01*
X88744731Y-57315582D01*
X88712773Y-57359568D01*
X88627647Y-57476733D01*
X88550485Y-57628172D01*
X88502510Y-57678968D01*
X88434689Y-57695763D01*
X88368554Y-57673225D01*
X88329515Y-57628172D01*
X88252483Y-57476990D01*
X88252353Y-57476734D01*
X88135269Y-57315582D01*
X87994418Y-57174731D01*
X87833266Y-57057647D01*
X87721427Y-57000662D01*
X87655780Y-56967213D01*
X87466342Y-56905661D01*
X87318782Y-56882290D01*
X87269597Y-56874500D01*
X87070403Y-56874500D01*
X87004822Y-56884887D01*
X86873659Y-56905661D01*
X86873656Y-56905661D01*
X86684219Y-56967213D01*
X86506733Y-57057647D01*
X86468286Y-57085581D01*
X86345582Y-57174731D01*
X86345580Y-57174733D01*
X86345579Y-57174733D01*
X86204733Y-57315579D01*
X86204733Y-57315580D01*
X86204731Y-57315582D01*
X86172773Y-57359568D01*
X86087645Y-57476735D01*
X86010203Y-57628723D01*
X85962229Y-57679518D01*
X85894408Y-57696313D01*
X85828273Y-57673775D01*
X85789234Y-57628722D01*
X85711924Y-57476994D01*
X85684417Y-57439135D01*
X85684417Y-57439134D01*
X85121128Y-58002424D01*
X85105245Y-57943147D01*
X85038102Y-57826853D01*
X84943147Y-57731898D01*
X84826853Y-57664755D01*
X84767574Y-57648871D01*
X85330864Y-57085581D01*
X85330863Y-57085580D01*
X85293008Y-57058077D01*
X85115594Y-56967679D01*
X84926222Y-56906147D01*
X84729563Y-56875000D01*
X84530437Y-56875000D01*
X84333777Y-56906147D01*
X84144405Y-56967679D01*
X83966990Y-57058077D01*
X83929135Y-57085580D01*
X83929135Y-57085581D01*
X84492425Y-57648871D01*
X84433147Y-57664755D01*
X84316853Y-57731898D01*
X84221898Y-57826853D01*
X84154755Y-57943147D01*
X84138871Y-58002425D01*
X83575581Y-57439135D01*
X83575580Y-57439135D01*
X83548077Y-57476990D01*
X83457679Y-57654405D01*
X83396147Y-57843777D01*
X83365000Y-58040436D01*
X83365000Y-58239563D01*
X83396147Y-58436222D01*
X83457679Y-58625594D01*
X83548077Y-58803008D01*
X83575580Y-58840863D01*
X83575581Y-58840864D01*
X84138871Y-58277574D01*
X84154755Y-58336853D01*
X84221898Y-58453147D01*
X84316853Y-58548102D01*
X84433147Y-58615245D01*
X84492425Y-58631128D01*
X83929134Y-59194417D01*
X83966994Y-59221924D01*
X84144405Y-59312320D01*
X84333777Y-59373852D01*
X84530437Y-59405000D01*
X84729563Y-59405000D01*
X84926222Y-59373852D01*
X85115594Y-59312320D01*
X85293005Y-59221924D01*
X85330863Y-59194418D01*
X85330863Y-59194417D01*
X84767574Y-58631128D01*
X84826853Y-58615245D01*
X84943147Y-58548102D01*
X85038102Y-58453147D01*
X85105245Y-58336853D01*
X85121128Y-58277574D01*
X85684417Y-58840863D01*
X85684418Y-58840863D01*
X85711924Y-58803005D01*
X85789234Y-58651277D01*
X85837208Y-58600481D01*
X85905029Y-58583686D01*
X85971164Y-58606223D01*
X86010204Y-58651277D01*
X86030662Y-58691427D01*
X86087647Y-58803266D01*
X86204731Y-58964418D01*
X86345582Y-59105269D01*
X86506734Y-59222353D01*
X86618572Y-59279337D01*
X86684219Y-59312786D01*
X86873657Y-59374338D01*
X86873658Y-59374338D01*
X86873661Y-59374339D01*
X87070403Y-59405500D01*
X87070404Y-59405500D01*
X87269596Y-59405500D01*
X87269597Y-59405500D01*
X87466339Y-59374339D01*
X87466342Y-59374338D01*
X87466343Y-59374338D01*
X87655780Y-59312786D01*
X87655780Y-59312785D01*
X87655783Y-59312785D01*
X87833266Y-59222353D01*
X87994418Y-59105269D01*
X88135269Y-58964418D01*
X88252353Y-58803266D01*
X88329515Y-58651827D01*
X88377490Y-58601031D01*
X88445311Y-58584236D01*
X88511446Y-58606773D01*
X88550485Y-58651827D01*
X88627647Y-58803266D01*
X88744731Y-58964418D01*
X88885582Y-59105269D01*
X89046734Y-59222353D01*
X89158572Y-59279337D01*
X89224219Y-59312786D01*
X89413657Y-59374338D01*
X89413658Y-59374338D01*
X89413661Y-59374339D01*
X89610403Y-59405500D01*
X89610404Y-59405500D01*
X89809596Y-59405500D01*
X89809597Y-59405500D01*
X90006339Y-59374339D01*
X90006342Y-59374338D01*
X90006343Y-59374338D01*
X90195780Y-59312786D01*
X90195780Y-59312785D01*
X90195783Y-59312785D01*
X90373266Y-59222353D01*
X90534418Y-59105269D01*
X90675269Y-58964418D01*
X90792353Y-58803266D01*
X90869515Y-58651827D01*
X90917490Y-58601031D01*
X90985311Y-58584236D01*
X91051446Y-58606773D01*
X91090485Y-58651827D01*
X91167647Y-58803266D01*
X91284731Y-58964418D01*
X91425582Y-59105269D01*
X91586734Y-59222353D01*
X91698572Y-59279337D01*
X91764219Y-59312786D01*
X91953657Y-59374338D01*
X91953658Y-59374338D01*
X91953661Y-59374339D01*
X92150403Y-59405500D01*
X92150404Y-59405500D01*
X92349596Y-59405500D01*
X92349597Y-59405500D01*
X92546339Y-59374339D01*
X92546342Y-59374338D01*
X92546343Y-59374338D01*
X92735780Y-59312786D01*
X92735780Y-59312785D01*
X92735783Y-59312785D01*
X92913266Y-59222353D01*
X93074418Y-59105269D01*
X93215269Y-58964418D01*
X93332353Y-58803266D01*
X93409515Y-58651827D01*
X93457490Y-58601031D01*
X93525311Y-58584236D01*
X93591446Y-58606773D01*
X93630485Y-58651827D01*
X93707647Y-58803266D01*
X93824731Y-58964418D01*
X93965582Y-59105269D01*
X94126734Y-59222353D01*
X94238572Y-59279337D01*
X94304219Y-59312786D01*
X94493657Y-59374338D01*
X94493658Y-59374338D01*
X94493661Y-59374339D01*
X94690403Y-59405500D01*
X94690404Y-59405500D01*
X94889596Y-59405500D01*
X94889597Y-59405500D01*
X95086339Y-59374339D01*
X95086342Y-59374338D01*
X95086343Y-59374338D01*
X95275780Y-59312786D01*
X95275780Y-59312785D01*
X95275783Y-59312785D01*
X95453266Y-59222353D01*
X95614418Y-59105269D01*
X95755269Y-58964418D01*
X95872353Y-58803266D01*
X95949515Y-58651827D01*
X95997490Y-58601031D01*
X96065311Y-58584236D01*
X96131446Y-58606773D01*
X96170485Y-58651827D01*
X96247647Y-58803266D01*
X96364731Y-58964418D01*
X96505582Y-59105269D01*
X96666734Y-59222353D01*
X96778572Y-59279337D01*
X96844219Y-59312786D01*
X97033657Y-59374338D01*
X97033658Y-59374338D01*
X97033661Y-59374339D01*
X97230403Y-59405500D01*
X97230404Y-59405500D01*
X97429596Y-59405500D01*
X97429597Y-59405500D01*
X97626339Y-59374339D01*
X97626342Y-59374338D01*
X97626343Y-59374338D01*
X97815780Y-59312786D01*
X97815780Y-59312785D01*
X97815783Y-59312785D01*
X97993266Y-59222353D01*
X98154418Y-59105269D01*
X98295269Y-58964418D01*
X98412353Y-58803266D01*
X98489515Y-58651827D01*
X98537490Y-58601031D01*
X98605311Y-58584236D01*
X98671446Y-58606773D01*
X98710485Y-58651827D01*
X98787647Y-58803266D01*
X98904731Y-58964418D01*
X99045582Y-59105269D01*
X99206734Y-59222353D01*
X99318572Y-59279337D01*
X99384219Y-59312786D01*
X99573657Y-59374338D01*
X99573658Y-59374338D01*
X99573661Y-59374339D01*
X99770403Y-59405500D01*
X99770404Y-59405500D01*
X99969596Y-59405500D01*
X99969597Y-59405500D01*
X100166339Y-59374339D01*
X100166342Y-59374338D01*
X100166343Y-59374338D01*
X100355780Y-59312786D01*
X100355780Y-59312785D01*
X100355783Y-59312785D01*
X100533266Y-59222353D01*
X100694418Y-59105269D01*
X100835269Y-58964418D01*
X100952353Y-58803266D01*
X101029515Y-58651827D01*
X101077490Y-58601031D01*
X101145311Y-58584236D01*
X101211446Y-58606773D01*
X101250485Y-58651827D01*
X101327647Y-58803266D01*
X101444731Y-58964418D01*
X101585582Y-59105269D01*
X101746734Y-59222353D01*
X101858572Y-59279337D01*
X101924219Y-59312786D01*
X102113657Y-59374338D01*
X102113658Y-59374338D01*
X102113661Y-59374339D01*
X102310403Y-59405500D01*
X102310404Y-59405500D01*
X102509596Y-59405500D01*
X102509597Y-59405500D01*
X102706339Y-59374339D01*
X102706342Y-59374338D01*
X102706343Y-59374338D01*
X102895780Y-59312786D01*
X102895780Y-59312785D01*
X102895783Y-59312785D01*
X103073266Y-59222353D01*
X103234418Y-59105269D01*
X103375269Y-58964418D01*
X103492353Y-58803266D01*
X103569515Y-58651827D01*
X103617490Y-58601031D01*
X103685311Y-58584236D01*
X103751446Y-58606773D01*
X103790485Y-58651827D01*
X103867647Y-58803266D01*
X103984731Y-58964418D01*
X104125582Y-59105269D01*
X104286734Y-59222353D01*
X104398572Y-59279337D01*
X104464219Y-59312786D01*
X104653657Y-59374338D01*
X104653658Y-59374338D01*
X104653661Y-59374339D01*
X104850403Y-59405500D01*
X104850404Y-59405500D01*
X105049596Y-59405500D01*
X105049597Y-59405500D01*
X105246339Y-59374339D01*
X105246342Y-59374338D01*
X105246343Y-59374338D01*
X105435780Y-59312786D01*
X105435780Y-59312785D01*
X105435783Y-59312785D01*
X105613266Y-59222353D01*
X105774418Y-59105269D01*
X105915269Y-58964418D01*
X106032353Y-58803266D01*
X106109515Y-58651827D01*
X106157490Y-58601031D01*
X106225311Y-58584236D01*
X106291446Y-58606773D01*
X106330485Y-58651827D01*
X106407647Y-58803266D01*
X106524731Y-58964418D01*
X106665582Y-59105269D01*
X106826734Y-59222353D01*
X106938572Y-59279337D01*
X107004219Y-59312786D01*
X107193657Y-59374338D01*
X107193658Y-59374338D01*
X107193661Y-59374339D01*
X107390403Y-59405500D01*
X107390404Y-59405500D01*
X107589596Y-59405500D01*
X107589597Y-59405500D01*
X107786339Y-59374339D01*
X107786342Y-59374338D01*
X107786343Y-59374338D01*
X107975780Y-59312786D01*
X107975780Y-59312785D01*
X107975783Y-59312785D01*
X108153266Y-59222353D01*
X108314418Y-59105269D01*
X108455269Y-58964418D01*
X108572353Y-58803266D01*
X108649515Y-58651827D01*
X108697490Y-58601031D01*
X108765311Y-58584236D01*
X108831446Y-58606773D01*
X108870485Y-58651827D01*
X108947647Y-58803266D01*
X109064731Y-58964418D01*
X109205582Y-59105269D01*
X109366734Y-59222353D01*
X109478572Y-59279337D01*
X109544219Y-59312786D01*
X109733657Y-59374338D01*
X109733658Y-59374338D01*
X109733661Y-59374339D01*
X109930403Y-59405500D01*
X109930404Y-59405500D01*
X110129596Y-59405500D01*
X110129597Y-59405500D01*
X110326339Y-59374339D01*
X110326342Y-59374338D01*
X110326343Y-59374338D01*
X110515780Y-59312786D01*
X110515780Y-59312785D01*
X110515783Y-59312785D01*
X110693266Y-59222353D01*
X110854418Y-59105269D01*
X110995269Y-58964418D01*
X111112353Y-58803266D01*
X111189515Y-58651827D01*
X111237490Y-58601031D01*
X111305311Y-58584236D01*
X111371446Y-58606773D01*
X111410485Y-58651827D01*
X111487647Y-58803266D01*
X111604731Y-58964418D01*
X111745582Y-59105269D01*
X111906734Y-59222353D01*
X112018572Y-59279337D01*
X112084219Y-59312786D01*
X112273657Y-59374338D01*
X112273658Y-59374338D01*
X112273661Y-59374339D01*
X112470403Y-59405500D01*
X112470404Y-59405500D01*
X112669596Y-59405500D01*
X112669597Y-59405500D01*
X112866339Y-59374339D01*
X112866342Y-59374338D01*
X112866343Y-59374338D01*
X113055780Y-59312786D01*
X113055780Y-59312785D01*
X113055783Y-59312785D01*
X113233266Y-59222353D01*
X113394418Y-59105269D01*
X113535269Y-58964418D01*
X113652353Y-58803266D01*
X113729515Y-58651827D01*
X113777490Y-58601031D01*
X113845311Y-58584236D01*
X113911446Y-58606773D01*
X113950485Y-58651827D01*
X114027647Y-58803266D01*
X114144731Y-58964418D01*
X114285582Y-59105269D01*
X114446734Y-59222353D01*
X114558572Y-59279337D01*
X114624219Y-59312786D01*
X114813657Y-59374338D01*
X114813658Y-59374338D01*
X114813661Y-59374339D01*
X115010403Y-59405500D01*
X115010404Y-59405500D01*
X115209596Y-59405500D01*
X115209597Y-59405500D01*
X115219615Y-59403913D01*
X115288906Y-59412864D01*
X115342360Y-59457858D01*
X115363003Y-59524609D01*
X115344281Y-59591923D01*
X115326697Y-59614066D01*
X97577584Y-77363181D01*
X97516261Y-77396666D01*
X97489903Y-77399500D01*
X82920943Y-77399500D01*
X82768216Y-77440423D01*
X82768209Y-77440426D01*
X82631290Y-77519475D01*
X82631282Y-77519481D01*
X82519481Y-77631282D01*
X82519475Y-77631290D01*
X82440426Y-77768209D01*
X82440423Y-77768216D01*
X82399500Y-77920943D01*
X82399500Y-100079056D01*
X82440423Y-100231783D01*
X82440426Y-100231790D01*
X82519475Y-100368709D01*
X82519479Y-100368714D01*
X82519480Y-100368716D01*
X82631284Y-100480520D01*
X82631286Y-100480521D01*
X82631290Y-100480524D01*
X82768209Y-100559573D01*
X82768216Y-100559577D01*
X82920943Y-100600500D01*
X83079057Y-100600500D01*
X86699903Y-100600500D01*
X86766942Y-100620185D01*
X86787584Y-100636819D01*
X88363181Y-102212416D01*
X88396666Y-102273739D01*
X88399500Y-102300097D01*
X88399500Y-110545500D01*
X88379815Y-110612539D01*
X88327011Y-110658294D01*
X88275500Y-110669500D01*
X82987934Y-110669500D01*
X82920895Y-110649815D01*
X82875140Y-110597011D01*
X82865196Y-110527853D01*
X82883796Y-110479309D01*
X82883759Y-110479289D01*
X82883919Y-110478988D01*
X82884831Y-110476610D01*
X82886629Y-110473918D01*
X82886632Y-110473914D01*
X82962051Y-110291835D01*
X83000500Y-110098541D01*
X83000500Y-109901459D01*
X83000500Y-109901456D01*
X82962052Y-109708170D01*
X82962051Y-109708169D01*
X82962051Y-109708165D01*
X82962049Y-109708160D01*
X82886635Y-109526092D01*
X82886633Y-109526088D01*
X82886632Y-109526086D01*
X82825029Y-109433891D01*
X82804151Y-109367214D01*
X82822635Y-109299834D01*
X82825029Y-109296109D01*
X82837872Y-109276887D01*
X82886632Y-109203914D01*
X82962051Y-109021835D01*
X83000500Y-108828541D01*
X83000500Y-108631459D01*
X83000500Y-108631456D01*
X82962052Y-108438170D01*
X82962051Y-108438169D01*
X82962051Y-108438165D01*
X82962049Y-108438160D01*
X82886635Y-108256092D01*
X82886633Y-108256088D01*
X82886632Y-108256086D01*
X82825029Y-108163891D01*
X82804151Y-108097214D01*
X82822635Y-108029834D01*
X82825029Y-108026109D01*
X82837872Y-108006887D01*
X82886632Y-107933914D01*
X82962051Y-107751835D01*
X83000500Y-107558541D01*
X83000500Y-107361459D01*
X83000500Y-107361456D01*
X82962052Y-107168170D01*
X82962051Y-107168169D01*
X82962051Y-107168165D01*
X82962049Y-107168160D01*
X82886635Y-106986092D01*
X82886633Y-106986088D01*
X82886632Y-106986086D01*
X82825029Y-106893891D01*
X82804151Y-106827214D01*
X82822635Y-106759834D01*
X82825029Y-106756109D01*
X82846149Y-106724500D01*
X82886632Y-106663914D01*
X82889945Y-106655917D01*
X82962049Y-106481839D01*
X82962051Y-106481835D01*
X83000500Y-106288541D01*
X83000500Y-106091459D01*
X83000500Y-106091456D01*
X82962052Y-105898170D01*
X82962051Y-105898169D01*
X82962051Y-105898165D01*
X82930499Y-105821990D01*
X82886635Y-105716092D01*
X82886628Y-105716079D01*
X82824728Y-105623440D01*
X82803850Y-105556763D01*
X82822334Y-105489383D01*
X82824729Y-105485657D01*
X82886189Y-105393676D01*
X82886191Y-105393673D01*
X82961569Y-105211693D01*
X82961572Y-105211681D01*
X82999999Y-105018495D01*
X83000000Y-105018492D01*
X83000000Y-104821508D01*
X82999999Y-104821504D01*
X82961572Y-104628318D01*
X82961569Y-104628306D01*
X82886192Y-104446328D01*
X82862572Y-104410979D01*
X82325000Y-104948551D01*
X82325000Y-104877213D01*
X82302851Y-104794555D01*
X82260064Y-104720446D01*
X82199554Y-104659936D01*
X82125445Y-104617149D01*
X82042787Y-104595000D01*
X81957213Y-104595000D01*
X81874555Y-104617149D01*
X81800446Y-104659936D01*
X81739936Y-104720446D01*
X81697149Y-104794555D01*
X81675000Y-104877213D01*
X81675000Y-104948552D01*
X81137426Y-104410978D01*
X81137426Y-104410979D01*
X81113813Y-104446318D01*
X81113809Y-104446325D01*
X81038429Y-104628310D01*
X81038427Y-104628318D01*
X81000000Y-104821504D01*
X81000000Y-105018495D01*
X81038427Y-105211681D01*
X81038429Y-105211689D01*
X81045205Y-105228047D01*
X81052674Y-105297516D01*
X81021399Y-105359995D01*
X80961310Y-105395648D01*
X80930644Y-105399500D01*
X77920943Y-105399500D01*
X77768216Y-105440423D01*
X77768209Y-105440426D01*
X77631290Y-105519475D01*
X77631282Y-105519481D01*
X77519481Y-105631282D01*
X77519475Y-105631290D01*
X77440426Y-105768209D01*
X77440423Y-105768216D01*
X77399500Y-105920943D01*
X77399500Y-117913330D01*
X77399499Y-117913348D01*
X77399499Y-118079054D01*
X77399498Y-118079054D01*
X75000500Y-118079054D01*
X75000500Y-104057426D01*
X81490978Y-104057426D01*
X82000000Y-104566446D01*
X82000001Y-104566446D01*
X82509020Y-104057426D01*
X82473675Y-104033809D01*
X82473673Y-104033808D01*
X82291693Y-103958430D01*
X82291681Y-103958427D01*
X82098495Y-103920000D01*
X81901504Y-103920000D01*
X81708318Y-103958427D01*
X81708310Y-103958429D01*
X81526325Y-104033809D01*
X81526318Y-104033813D01*
X81490979Y-104057426D01*
X81490978Y-104057426D01*
X75000500Y-104057426D01*
X75000500Y-59001953D01*
X75000561Y-58998058D01*
X75006632Y-58804878D01*
X75019123Y-58407399D01*
X75019609Y-58399661D01*
X75075041Y-57813257D01*
X75076017Y-57805538D01*
X75083571Y-57757843D01*
X75168154Y-57223805D01*
X75169604Y-57216203D01*
X75298100Y-56641342D01*
X75300029Y-56633835D01*
X75464361Y-56068200D01*
X75466743Y-56060869D01*
X75666274Y-55506650D01*
X75669124Y-55499449D01*
X75903053Y-54958872D01*
X75906356Y-54951852D01*
X76173764Y-54427036D01*
X76177504Y-54420234D01*
X76477333Y-53913250D01*
X76481488Y-53906703D01*
X76812560Y-53419545D01*
X76817134Y-53413251D01*
X77178112Y-52947881D01*
X77183077Y-52941878D01*
X77331161Y-52773910D01*
X77572608Y-52500042D01*
X77577910Y-52494397D01*
X77994397Y-52077910D01*
X78000042Y-52072608D01*
X78441880Y-51683074D01*
X78447881Y-51678112D01*
X78870022Y-51350666D01*
X78913259Y-51317127D01*
X78919545Y-51312560D01*
X79406703Y-50981488D01*
X79413250Y-50977333D01*
X79920234Y-50677504D01*
X79927036Y-50673764D01*
X80451852Y-50406356D01*
X80458872Y-50403053D01*
X80999449Y-50169124D01*
X81006650Y-50166274D01*
X81560869Y-49966743D01*
X81568200Y-49964361D01*
X82133835Y-49800029D01*
X82141342Y-49798100D01*
X82716203Y-49669604D01*
X82723805Y-49668154D01*
X83305544Y-49576016D01*
X83313261Y-49575040D01*
X83899661Y-49519609D01*
X83907399Y-49519123D01*
X84498059Y-49500561D01*
X84501954Y-49500500D01*
X84565892Y-49500500D01*
X229434108Y-49500500D01*
X229498046Y-49500500D01*
X229501941Y-49500561D01*
G37*
%TD.AperFunction*%
%TD*%
M02*
