%TF.GenerationSoftware,KiCad,Pcbnew,9.0.7*%
%TF.CreationDate,2026-08-19T18:36:58+03:00*%
%TF.ProjectId,M-O-Y,4d2d4f2d-592e-46b6-9963-61645f706362,rev?*%
%TF.SameCoordinates,Original*%
%TF.FileFunction,Copper,L1,Top*%
%TF.FilePolarity,Positive*%
%FSLAX46Y46*%
G04 Gerber Fmt 4.6, Leading zero omitted, Abs format (unit mm)*
G04 Created by KiCad (PCBNEW 9.0.7) date 2026-08-19 18:36:58*
%MOMM*%
%LPD*%
G01*
G04 APERTURE LIST*
G04 Aperture macros list*
%AMRoundRect*
0 Rectangle with rounded corners*
0 $1 Rounding radius*
0 $2 $3 $4 $5 $6 $7 $8 $9 X,Y pos of 4 corners*
0 Add a 4 corners polygon primitive as box body*
4,1,4,$2,$3,$4,$5,$6,$7,$8,$9,$2,$3,0*
0 Add four circle primitives for the rounded corners*
1,1,$1+$1,$2,$3*
1,1,$1+$1,$4,$5*
1,1,$1+$1,$6,$7*
1,1,$1+$1,$8,$9*
0 Add four rect primitives between the rounded corners*
20,1,$1+$1,$2,$3,$4,$5,0*
20,1,$1+$1,$4,$5,$6,$7,0*
20,1,$1+$1,$6,$7,$8,$9,0*
20,1,$1+$1,$8,$9,$2,$3,0*%
G04 Aperture macros list end*
%TA.AperFunction,ComponentPad*%
%ADD10R,1.000000X1.000000*%
%TD*%
%TA.AperFunction,ComponentPad*%
%ADD11C,1.000000*%
%TD*%
%TA.AperFunction,SMDPad,CuDef*%
%ADD12RoundRect,0.375000X-0.625000X-0.375000X0.625000X-0.375000X0.625000X0.375000X-0.625000X0.375000X0*%
%TD*%
%TA.AperFunction,SMDPad,CuDef*%
%ADD13RoundRect,0.500000X-0.500000X-1.400000X0.500000X-1.400000X0.500000X1.400000X-0.500000X1.400000X0*%
%TD*%
%TA.AperFunction,ComponentPad*%
%ADD14R,3.000000X3.000000*%
%TD*%
%TA.AperFunction,ComponentPad*%
%ADD15C,4.048000*%
%TD*%
%TA.AperFunction,ComponentPad*%
%ADD16R,1.530000X1.530000*%
%TD*%
%TA.AperFunction,ComponentPad*%
%ADD17C,1.530000*%
%TD*%
%TA.AperFunction,ViaPad*%
%ADD18C,0.600000*%
%TD*%
%TA.AperFunction,Conductor*%
%ADD19C,0.200000*%
%TD*%
G04 APERTURE END LIST*
D10*
%TO.P,Voice1,1,Pin_1*%
%TO.N,GND*%
X169000000Y-133460000D03*
D11*
%TO.P,Voice1,2,Pin_2*%
%TO.N,VCC*%
X169000000Y-134730000D03*
%TO.P,Voice1,3,Pin_3*%
%TO.N,Imax_I2c*%
X169000000Y-136000000D03*
%TD*%
D12*
%TO.P,U10,1,GND*%
%TO.N,GND*%
X207850000Y-93700000D03*
%TO.P,U10,2,VO*%
%TO.N,3.3*%
X207850000Y-96000000D03*
D13*
X214150000Y-96000000D03*
D12*
%TO.P,U10,3,VI*%
%TO.N,VCC*%
X207850000Y-98300000D03*
%TD*%
D14*
%TO.P,U8,4,OUT-*%
%TO.N,GND*%
X191156500Y-58522500D03*
%TO.P,U8,3,OUT+*%
%TO.N,VCC*%
X191156500Y-75667500D03*
%TO.P,U8,1,IN+*%
%TO.N,Net-(U2-BAT)*%
X230653500Y-75667500D03*
%TO.P,U8,2,IN-*%
%TO.N,Net-(U2-GND)_1*%
X230653500Y-58522500D03*
D15*
%TO.P,U8,*%
%TO.N,*%
X195919000Y-59221000D03*
X225891000Y-74969000D03*
%TD*%
D16*
%TO.P,U1,J1_1,3V3*%
%TO.N,3V3_1*%
X137970000Y-58140000D03*
D17*
%TO.P,U1,J1_2,3V3*%
%TO.N,3V3*%
X135430000Y-58140000D03*
%TO.P,U1,J1_3,RST*%
%TO.N,unconnected-(U1-RST-PadJ1_3)*%
X132890000Y-58140000D03*
%TO.P,U1,J1_4,GPIO4*%
%TO.N,On{slash}of*%
X130350000Y-58140000D03*
%TO.P,U1,J1_5,GPIO5*%
%TO.N,unconnected-(U1-GPIO5-PadJ1_5)*%
X127810000Y-58140000D03*
%TO.P,U1,J1_6,GPIO6*%
%TO.N,M1*%
X125270000Y-58140000D03*
%TO.P,U1,J1_7,GPIO7*%
%TO.N,unconnected-(U1-GPIO7-PadJ1_7)*%
X122730000Y-58140000D03*
%TO.P,U1,J1_8,GPIO15*%
%TO.N,unconnected-(U1-GPIO15-PadJ1_8)*%
X120190000Y-58140000D03*
%TO.P,U1,J1_9,GPIO16*%
%TO.N,display_2*%
X117650000Y-58140000D03*
%TO.P,U1,J1_10,GPIO17*%
%TO.N,unconnected-(U1-GPIO17-PadJ1_10)*%
X115110000Y-58140000D03*
%TO.P,U1,J1_11,GPIO18*%
%TO.N,display_3*%
X112570000Y-58140000D03*
%TO.P,U1,J1_12,GPIO8*%
%TO.N,M2*%
X110030000Y-58140000D03*
%TO.P,U1,J1_13,GPIO3*%
%TO.N,unconnected-(U1-GPIO3-PadJ1_13)*%
X107490000Y-58140000D03*
%TO.P,U1,J1_14,GPIO46*%
%TO.N,unconnected-(U1-GPIO46-PadJ1_14)*%
X104950000Y-58140000D03*
%TO.P,U1,J1_15,GPIO9*%
%TO.N,unconnected-(U1-GPIO9-PadJ1_15)*%
X102410000Y-58140000D03*
%TO.P,U1,J1_16,GPIO10*%
%TO.N,unconnected-(U1-GPIO10-PadJ1_16)*%
X99870000Y-58140000D03*
%TO.P,U1,J1_17,GPIO11*%
%TO.N,SDA*%
X97330000Y-58140000D03*
%TO.P,U1,J1_18,GPIO12*%
%TO.N,SCL*%
X94790000Y-58140000D03*
%TO.P,U1,J1_19,GPIO13*%
%TO.N,unconnected-(U1-GPIO13-PadJ1_19)*%
X92250000Y-58140000D03*
%TO.P,U1,J1_20,GPIO14*%
%TO.N,display1*%
X89710000Y-58140000D03*
%TO.P,U1,J1_21,5V0*%
%TO.N,VCC*%
X87170000Y-58140000D03*
%TO.P,U1,J1_22,GND*%
%TO.N,GND*%
X84630000Y-58140000D03*
%TO.P,U1,J3_1,GND*%
X137970000Y-81000000D03*
%TO.P,U1,J3_2,U0TXD/GPIO43*%
%TO.N,unconnected-(U1-U0TXD{slash}GPIO43-PadJ3_2)*%
X135430000Y-81000000D03*
%TO.P,U1,J3_3,U0RXD/GPIO44*%
%TO.N,unconnected-(U1-U0RXD{slash}GPIO44-PadJ3_3)*%
X132890000Y-81000000D03*
%TO.P,U1,J3_4,GPIO1*%
%TO.N,unconnected-(U1-GPIO1-PadJ3_4)*%
X130350000Y-81000000D03*
%TO.P,U1,J3_5,GPIO2*%
%TO.N,Mic_I2c*%
X127810000Y-81000000D03*
%TO.P,U1,J3_6,MTMS/GPIO42*%
%TO.N,unconnected-(U1-MTMS{slash}GPIO42-PadJ3_6)*%
X125270000Y-81000000D03*
%TO.P,U1,J3_7,MTDI/GPIO41*%
%TO.N,unconnected-(U1-MTDI{slash}GPIO41-PadJ3_7)*%
X122730000Y-81000000D03*
%TO.P,U1,J3_8,MTDO/GPIO40*%
%TO.N,unconnected-(U1-MTDO{slash}GPIO40-PadJ3_8)*%
X120190000Y-81000000D03*
%TO.P,U1,J3_9,MTCK/GPIO39*%
%TO.N,unconnected-(U1-MTCK{slash}GPIO39-PadJ3_9)*%
X117650000Y-81000000D03*
%TO.P,U1,J3_10,GPIO38*%
%TO.N,unconnected-(U1-GPIO38-PadJ3_10)*%
X115110000Y-81000000D03*
%TO.P,U1,J3_11,GPIO37*%
%TO.N,unconnected-(U1-GPIO37-PadJ3_11)*%
X112570000Y-81000000D03*
%TO.P,U1,J3_12,GPIO36*%
%TO.N,unconnected-(U1-GPIO36-PadJ3_12)*%
X110030000Y-81000000D03*
%TO.P,U1,J3_13,GPIO35*%
%TO.N,unconnected-(U1-GPIO35-PadJ3_13)*%
X107490000Y-81000000D03*
%TO.P,U1,J3_14,GPIO0*%
%TO.N,Imax_I2c*%
X104950000Y-81000000D03*
%TO.P,U1,J3_15,GPIO45*%
%TO.N,unconnected-(U1-GPIO45-PadJ3_15)*%
X102410000Y-81000000D03*
%TO.P,U1,J3_16,GPIO48*%
%TO.N,unconnected-(U1-GPIO48-PadJ3_16)*%
X99870000Y-81000000D03*
%TO.P,U1,J3_17,GPIO47*%
%TO.N,unconnected-(U1-GPIO47-PadJ3_17)*%
X97330000Y-81000000D03*
%TO.P,U1,J3_18,GPIO21*%
%TO.N,unconnected-(U1-GPIO21-PadJ3_18)*%
X94790000Y-81000000D03*
%TO.P,U1,J3_19,USB_D+/GPIO20*%
%TO.N,unconnected-(U1-USB_D+{slash}GPIO20-PadJ3_19)*%
X92250000Y-81000000D03*
%TO.P,U1,J3_20,USB_D-/GPIO19*%
%TO.N,unconnected-(U1-USB_D-{slash}GPIO19-PadJ3_20)*%
X89710000Y-81000000D03*
%TO.P,U1,J3_21,GND*%
%TO.N,GND*%
X87170000Y-81000000D03*
%TO.P,U1,J3_22,GND*%
X84630000Y-81000000D03*
%TD*%
D10*
%TO.P,TouchSensor1,1,Pin_1*%
%TO.N,GND*%
X151850000Y-133460000D03*
D11*
%TO.P,TouchSensor1,2,Pin_2*%
%TO.N,3.3*%
X151850000Y-134730000D03*
%TO.P,TouchSensor1,3,Pin_3*%
%TO.N,On{slash}of*%
X151850000Y-136000000D03*
%TD*%
D10*
%TO.P,TFT1.5inch1,1,Pin_1*%
%TO.N,display_3*%
X82000000Y-112540000D03*
D11*
%TO.P,TFT1.5inch1,2,Pin_2*%
%TO.N,display_2*%
X82000000Y-111270000D03*
%TO.P,TFT1.5inch1,3,Pin_3*%
%TO.N,display1*%
X82000000Y-110000000D03*
%TO.P,TFT1.5inch1,4,Pin_4*%
%TO.N,SDA*%
X82000000Y-108730000D03*
%TO.P,TFT1.5inch1,5,Pin_5*%
%TO.N,SCL*%
X82000000Y-107460000D03*
%TO.P,TFT1.5inch1,6,Pin_6*%
%TO.N,3.3*%
X82000000Y-106190000D03*
%TO.P,TFT1.5inch1,7,Pin_7*%
%TO.N,GND*%
X82000000Y-104920000D03*
%TD*%
D10*
%TO.P,Servo2,1,Pin_1*%
%TO.N,M2*%
X137000000Y-133460000D03*
D11*
%TO.P,Servo2,2,Pin_2*%
%TO.N,VCC*%
X137000000Y-134730000D03*
%TO.P,Servo2,3,Pin_3*%
%TO.N,GND*%
X137000000Y-136000000D03*
%TD*%
D10*
%TO.P,Servo1,1,Pin_1*%
%TO.N,M1*%
X119000000Y-133460000D03*
D11*
%TO.P,Servo1,2,Pin_2*%
%TO.N,VCC*%
X119000000Y-134730000D03*
%TO.P,Servo1,3,Pin_3*%
%TO.N,GND*%
X119000000Y-136000000D03*
%TD*%
D10*
%TO.P,Mic1,1,Pin_1*%
%TO.N,GND*%
X98000000Y-133460000D03*
D11*
%TO.P,Mic1,2,Pin_2*%
%TO.N,3.3*%
X98000000Y-134730000D03*
%TO.P,Mic1,3,Pin_3*%
%TO.N,Mic_I2c*%
X98000000Y-136000000D03*
%TD*%
D18*
%TO.N,3.3*%
X116000000Y-138000000D03*
%TD*%
D19*
%TO.N,3.3*%
X214150000Y-96000000D02*
X207850000Y-96000000D01*
%TO.N,VCC*%
X137000000Y-134730000D02*
X119000000Y-134730000D01*
%TO.N,display_3*%
X85540000Y-112540000D02*
X82000000Y-112540000D01*
X86000000Y-113000000D02*
X85540000Y-112540000D01*
X87000000Y-113000000D02*
X86000000Y-113000000D01*
X87000000Y-103432900D02*
X87000000Y-113000000D01*
X85567100Y-102000000D02*
X87000000Y-103432900D01*
X82000000Y-102000000D02*
X85567100Y-102000000D01*
X82000000Y-79000000D02*
X82000000Y-102000000D01*
X100000000Y-61000000D02*
X82000000Y-79000000D01*
X109710000Y-61000000D02*
X100000000Y-61000000D01*
X112570000Y-58140000D02*
X109710000Y-61000000D01*
%TO.N,SDA*%
X84730000Y-108730000D02*
X82000000Y-108730000D01*
X86000000Y-108000000D02*
X85000000Y-109000000D01*
X86000000Y-103000000D02*
X86000000Y-108000000D01*
X81000000Y-102000000D02*
X82000000Y-103000000D01*
X81000000Y-74470000D02*
X81000000Y-102000000D01*
X82000000Y-103000000D02*
X86000000Y-103000000D01*
X85000000Y-109000000D02*
X84730000Y-108730000D01*
X97330000Y-58140000D02*
X81000000Y-74470000D01*
%TO.N,SCL*%
X81460000Y-108000000D02*
X82000000Y-107460000D01*
X80000000Y-108000000D02*
X81460000Y-108000000D01*
X80000000Y-72930000D02*
X80000000Y-108000000D01*
X94790000Y-58140000D02*
X80000000Y-72930000D01*
%TO.N,display1*%
X79000000Y-110000000D02*
X82000000Y-110000000D01*
X89710000Y-59290000D02*
X79000000Y-70000000D01*
X89710000Y-58140000D02*
X89710000Y-59290000D01*
X79000000Y-70000000D02*
X79000000Y-110000000D01*
%TO.N,GND*%
X183522500Y-58522500D02*
X191156500Y-58522500D01*
X184000000Y-59000000D02*
X183522500Y-58522500D01*
X207850000Y-87227042D02*
X198622958Y-78000000D01*
X207850000Y-93700000D02*
X207850000Y-87227042D01*
X198622958Y-78000000D02*
X184000000Y-78000000D01*
X184000000Y-78000000D02*
X184000000Y-59000000D01*
%TO.N,VCC*%
X219000000Y-103000000D02*
X221000000Y-101000000D01*
X221000000Y-99809942D02*
X196857558Y-75667500D01*
X208000000Y-103000000D02*
X219000000Y-103000000D01*
X207850000Y-102850000D02*
X208000000Y-103000000D01*
X221000000Y-101000000D02*
X221000000Y-99809942D01*
X196857558Y-75667500D02*
X191156500Y-75667500D01*
X207850000Y-98300000D02*
X207850000Y-102850000D01*
%TO.N,3.3*%
X156000000Y-138000000D02*
X116000000Y-138000000D01*
X164000000Y-123000000D02*
X156000000Y-131000000D01*
X164000000Y-123000000D02*
X163912000Y-123000000D01*
X156000000Y-131000000D02*
X156000000Y-138000000D01*
X163912000Y-123000000D02*
X152182000Y-134730000D01*
X179000000Y-123000000D02*
X164000000Y-123000000D01*
X179000000Y-98000000D02*
X179000000Y-123000000D01*
X181000000Y-96000000D02*
X179000000Y-98000000D01*
X207850000Y-96000000D02*
X181000000Y-96000000D01*
X152182000Y-134730000D02*
X151850000Y-134730000D01*
%TO.N,Imax_I2c*%
X104950000Y-129950000D02*
X104950000Y-81000000D01*
X167000000Y-139000000D02*
X114000000Y-139000000D01*
X169000000Y-137000000D02*
X167000000Y-139000000D01*
X169000000Y-136000000D02*
X169000000Y-137000000D01*
X114000000Y-139000000D02*
X104950000Y-129950000D01*
%TO.N,M2*%
X114170000Y-54000000D02*
X110030000Y-58140000D01*
X151000000Y-54000000D02*
X114170000Y-54000000D01*
X151000000Y-87000000D02*
X151000000Y-54000000D01*
X137000000Y-87000000D02*
X151000000Y-87000000D01*
X137000000Y-133460000D02*
X137000000Y-87000000D01*
%TO.N,M1*%
X128410000Y-55000000D02*
X125270000Y-58140000D01*
X150000000Y-86000000D02*
X150000000Y-55000000D01*
X119000000Y-86000000D02*
X150000000Y-86000000D01*
X119000000Y-133460000D02*
X119000000Y-86000000D01*
X150000000Y-55000000D02*
X128410000Y-55000000D01*
%TD*%
%TA.AperFunction,Conductor*%
%TO.N,VCC*%
G36*
X229501941Y-49500561D02*
G01*
X230092598Y-49519123D01*
X230100340Y-49519610D01*
X230686734Y-49575040D01*
X230694459Y-49576016D01*
X231276188Y-49668153D01*
X231283802Y-49669605D01*
X231858649Y-49798098D01*
X231866172Y-49800031D01*
X232431789Y-49964358D01*
X232439139Y-49966746D01*
X232993338Y-50166270D01*
X233000561Y-50169129D01*
X233541113Y-50403047D01*
X233548162Y-50406364D01*
X234072951Y-50673758D01*
X234079777Y-50677511D01*
X234586734Y-50977324D01*
X234593311Y-50981498D01*
X235080446Y-51312555D01*
X235086748Y-51317134D01*
X235552118Y-51678112D01*
X235558121Y-51683077D01*
X235999940Y-52072593D01*
X236005618Y-52077926D01*
X236422073Y-52494381D01*
X236427406Y-52500059D01*
X236816922Y-52941878D01*
X236821887Y-52947881D01*
X237182865Y-53413251D01*
X237187444Y-53419553D01*
X237518501Y-53906688D01*
X237522675Y-53913265D01*
X237822488Y-54420222D01*
X237826241Y-54427048D01*
X238093635Y-54951837D01*
X238096952Y-54958886D01*
X238330868Y-55499434D01*
X238333735Y-55506676D01*
X238533246Y-56060840D01*
X238535648Y-56068234D01*
X238699965Y-56633816D01*
X238701903Y-56641361D01*
X238830390Y-57216178D01*
X238831849Y-57223830D01*
X238923982Y-57805538D01*
X238924959Y-57813267D01*
X238980388Y-58399643D01*
X238980877Y-58407417D01*
X238999439Y-58998058D01*
X238999500Y-59001953D01*
X238999500Y-132998046D01*
X238999439Y-133001941D01*
X238980877Y-133592582D01*
X238980388Y-133600356D01*
X238924959Y-134186732D01*
X238923982Y-134194461D01*
X238831849Y-134776169D01*
X238830390Y-134783821D01*
X238701903Y-135358638D01*
X238699965Y-135366183D01*
X238535648Y-135931765D01*
X238533241Y-135939174D01*
X238333735Y-136493323D01*
X238330868Y-136500565D01*
X238096952Y-137041113D01*
X238093635Y-137048162D01*
X237826241Y-137572951D01*
X237822488Y-137579777D01*
X237522675Y-138086734D01*
X237518501Y-138093311D01*
X237187444Y-138580446D01*
X237182865Y-138586748D01*
X236821887Y-139052118D01*
X236816922Y-139058121D01*
X236427406Y-139499940D01*
X236422073Y-139505618D01*
X236005618Y-139922073D01*
X235999940Y-139927406D01*
X235558121Y-140316922D01*
X235552118Y-140321887D01*
X235086748Y-140682865D01*
X235080446Y-140687444D01*
X234593311Y-141018501D01*
X234586734Y-141022675D01*
X234079777Y-141322488D01*
X234072951Y-141326241D01*
X233548162Y-141593635D01*
X233541113Y-141596952D01*
X233000565Y-141830868D01*
X232993323Y-141833735D01*
X232611504Y-141971198D01*
X232439168Y-142033242D01*
X232431765Y-142035648D01*
X231866183Y-142199965D01*
X231858638Y-142201903D01*
X231283821Y-142330390D01*
X231276169Y-142331849D01*
X230694461Y-142423982D01*
X230686732Y-142424959D01*
X230100356Y-142480388D01*
X230092582Y-142480877D01*
X229501941Y-142499439D01*
X229498046Y-142499500D01*
X84501954Y-142499500D01*
X84498059Y-142499439D01*
X83907417Y-142480877D01*
X83899643Y-142480388D01*
X83313267Y-142424959D01*
X83305538Y-142423982D01*
X82723830Y-142331849D01*
X82716178Y-142330390D01*
X82141361Y-142201903D01*
X82133816Y-142199965D01*
X81568234Y-142035648D01*
X81560840Y-142033246D01*
X81006676Y-141833735D01*
X80999434Y-141830868D01*
X80458886Y-141596952D01*
X80451837Y-141593635D01*
X79927048Y-141326241D01*
X79920222Y-141322488D01*
X79413265Y-141022675D01*
X79406688Y-141018501D01*
X78919553Y-140687444D01*
X78913251Y-140682865D01*
X78447881Y-140321887D01*
X78441878Y-140316922D01*
X78000059Y-139927406D01*
X77994381Y-139922073D01*
X77577926Y-139505618D01*
X77572593Y-139499940D01*
X77555475Y-139480524D01*
X77447898Y-139358501D01*
X77183077Y-139058121D01*
X77178112Y-139052118D01*
X76817134Y-138586748D01*
X76812555Y-138580446D01*
X76481498Y-138093311D01*
X76477324Y-138086734D01*
X76177511Y-137579777D01*
X76173758Y-137572951D01*
X75906364Y-137048162D01*
X75903047Y-137041113D01*
X75851045Y-136920943D01*
X75669129Y-136500561D01*
X75666270Y-136493338D01*
X75466746Y-135939139D01*
X75464358Y-135931789D01*
X75300031Y-135366172D01*
X75298096Y-135358638D01*
X75284851Y-135299383D01*
X75179606Y-134828543D01*
X96999499Y-134828543D01*
X97037947Y-135021829D01*
X97037950Y-135021839D01*
X97113365Y-135203907D01*
X97113368Y-135203914D01*
X97126028Y-135222861D01*
X97174971Y-135296110D01*
X97195848Y-135362787D01*
X97177363Y-135430167D01*
X97174971Y-135433890D01*
X97113366Y-135526089D01*
X97037950Y-135708160D01*
X97037947Y-135708170D01*
X96999500Y-135901456D01*
X96999500Y-135901459D01*
X96999500Y-136098541D01*
X96999500Y-136098543D01*
X96999499Y-136098543D01*
X97037947Y-136291829D01*
X97037950Y-136291839D01*
X97113364Y-136473907D01*
X97113371Y-136473920D01*
X97222860Y-136637781D01*
X97222863Y-136637785D01*
X97362214Y-136777136D01*
X97362218Y-136777139D01*
X97526079Y-136886628D01*
X97526092Y-136886635D01*
X97708160Y-136962049D01*
X97708165Y-136962051D01*
X97708169Y-136962051D01*
X97708170Y-136962052D01*
X97901456Y-137000500D01*
X97901459Y-137000500D01*
X98098543Y-137000500D01*
X98228582Y-136974632D01*
X98291835Y-136962051D01*
X98473914Y-136886632D01*
X98637782Y-136777139D01*
X98777139Y-136637782D01*
X98886632Y-136473914D01*
X98962051Y-136291835D01*
X99000500Y-136098541D01*
X99000500Y-135901459D01*
X99000500Y-135901456D01*
X98962052Y-135708170D01*
X98962051Y-135708169D01*
X98962051Y-135708165D01*
X98886635Y-135526093D01*
X98886635Y-135526092D01*
X98886633Y-135526088D01*
X98886632Y-135526086D01*
X98825029Y-135433891D01*
X98804151Y-135367214D01*
X98822635Y-135299834D01*
X98825029Y-135296109D01*
X98837872Y-135276887D01*
X98886632Y-135203914D01*
X98962051Y-135021835D01*
X98980407Y-134929554D01*
X99000500Y-134828543D01*
X99000500Y-134631456D01*
X98962052Y-134438170D01*
X98962051Y-134438169D01*
X98962051Y-134438165D01*
X98919680Y-134335873D01*
X98912212Y-134266407D01*
X98934977Y-134214111D01*
X98943796Y-134202331D01*
X98994091Y-134067483D01*
X99000500Y-134007873D01*
X99000499Y-132912128D01*
X98994091Y-132852517D01*
X98943796Y-132717669D01*
X98943795Y-132717668D01*
X98943793Y-132717664D01*
X98857547Y-132602455D01*
X98857544Y-132602452D01*
X98742335Y-132516206D01*
X98742328Y-132516202D01*
X98607482Y-132465908D01*
X98607483Y-132465908D01*
X98547883Y-132459501D01*
X98547881Y-132459500D01*
X98547873Y-132459500D01*
X98547864Y-132459500D01*
X97452129Y-132459500D01*
X97452123Y-132459501D01*
X97392516Y-132465908D01*
X97257671Y-132516202D01*
X97257664Y-132516206D01*
X97142455Y-132602452D01*
X97142452Y-132602455D01*
X97056206Y-132717664D01*
X97056202Y-132717671D01*
X97005908Y-132852517D01*
X96999501Y-132912116D01*
X96999501Y-132912123D01*
X96999500Y-132912135D01*
X96999500Y-134007870D01*
X96999501Y-134007876D01*
X97005908Y-134067483D01*
X97056202Y-134202328D01*
X97056206Y-134202335D01*
X97065023Y-134214113D01*
X97089440Y-134279578D01*
X97080318Y-134335874D01*
X97080125Y-134336340D01*
X97037950Y-134438164D01*
X97037948Y-134438168D01*
X97037947Y-134438171D01*
X96999500Y-134631456D01*
X96999500Y-134631459D01*
X96999500Y-134828541D01*
X96999500Y-134828543D01*
X96999499Y-134828543D01*
X75179606Y-134828543D01*
X75169605Y-134783802D01*
X75168153Y-134776188D01*
X75076016Y-134194459D01*
X75075040Y-134186732D01*
X75019611Y-133600356D01*
X75019123Y-133592598D01*
X75000561Y-133001941D01*
X75000500Y-132998046D01*
X75000500Y-69920943D01*
X78399499Y-69920943D01*
X78399499Y-70079057D01*
X78399500Y-70079060D01*
X78399500Y-110079057D01*
X78404722Y-110098543D01*
X78440423Y-110231783D01*
X78440426Y-110231790D01*
X78519475Y-110368709D01*
X78519479Y-110368714D01*
X78519480Y-110368716D01*
X78631284Y-110480520D01*
X78631286Y-110480521D01*
X78631290Y-110480524D01*
X78768209Y-110559573D01*
X78768216Y-110559577D01*
X78920943Y-110600500D01*
X79079057Y-110600500D01*
X81012067Y-110600500D01*
X81079106Y-110620185D01*
X81124861Y-110672989D01*
X81134805Y-110742147D01*
X81116201Y-110790696D01*
X81116238Y-110790716D01*
X81116081Y-110791008D01*
X81115168Y-110793390D01*
X81114002Y-110795136D01*
X81113365Y-110796090D01*
X81037950Y-110978160D01*
X81037947Y-110978170D01*
X80999500Y-111171456D01*
X80999500Y-111171459D01*
X80999500Y-111368541D01*
X80999500Y-111368543D01*
X80999499Y-111368543D01*
X81037947Y-111561828D01*
X81037949Y-111561836D01*
X81080318Y-111664124D01*
X81087787Y-111733593D01*
X81065026Y-111785884D01*
X81056203Y-111797670D01*
X81056202Y-111797671D01*
X81005908Y-111932517D01*
X80999501Y-111992116D01*
X80999500Y-111992127D01*
X80999500Y-113087870D01*
X80999501Y-113087876D01*
X81005908Y-113147483D01*
X81056202Y-113282328D01*
X81056206Y-113282335D01*
X81142452Y-113397544D01*
X81142455Y-113397547D01*
X81257664Y-113483793D01*
X81257671Y-113483797D01*
X81392517Y-113534091D01*
X81392516Y-113534091D01*
X81399444Y-113534835D01*
X81452127Y-113540500D01*
X82547872Y-113540499D01*
X82607483Y-113534091D01*
X82742331Y-113483796D01*
X82857546Y-113397546D01*
X82943796Y-113282331D01*
X82966609Y-113221167D01*
X83008480Y-113165233D01*
X83073944Y-113140816D01*
X83082791Y-113140500D01*
X85239903Y-113140500D01*
X85306942Y-113160185D01*
X85327584Y-113176819D01*
X85515139Y-113364374D01*
X85515149Y-113364385D01*
X85519479Y-113368715D01*
X85519480Y-113368716D01*
X85631284Y-113480520D01*
X85718095Y-113530639D01*
X85718097Y-113530641D01*
X85768208Y-113559573D01*
X85768215Y-113559577D01*
X85920942Y-113600500D01*
X85920943Y-113600500D01*
X85920944Y-113600500D01*
X87079055Y-113600500D01*
X87079057Y-113600500D01*
X87231784Y-113559577D01*
X87368716Y-113480520D01*
X87480520Y-113368716D01*
X87559577Y-113231784D01*
X87600500Y-113079057D01*
X87600500Y-103521960D01*
X87600501Y-103521947D01*
X87600501Y-103353844D01*
X87600501Y-103353843D01*
X87559577Y-103201116D01*
X87490634Y-103081702D01*
X87480524Y-103064190D01*
X87480518Y-103064182D01*
X86054690Y-101638355D01*
X86054688Y-101638352D01*
X85935817Y-101519481D01*
X85935816Y-101519480D01*
X85849004Y-101469360D01*
X85849004Y-101469359D01*
X85849000Y-101469358D01*
X85798885Y-101440423D01*
X85646157Y-101399499D01*
X85488043Y-101399499D01*
X85480447Y-101399499D01*
X85480431Y-101399500D01*
X82724500Y-101399500D01*
X82657461Y-101379815D01*
X82611706Y-101327011D01*
X82600500Y-101275500D01*
X82600500Y-80900403D01*
X83364500Y-80900403D01*
X83364500Y-81099596D01*
X83395661Y-81296340D01*
X83395661Y-81296343D01*
X83457213Y-81485780D01*
X83457215Y-81485783D01*
X83547647Y-81663266D01*
X83664731Y-81824418D01*
X83805582Y-81965269D01*
X83966734Y-82082353D01*
X84144217Y-82172785D01*
X84144219Y-82172786D01*
X84333657Y-82234338D01*
X84333658Y-82234338D01*
X84333661Y-82234339D01*
X84530403Y-82265500D01*
X84530404Y-82265500D01*
X84729596Y-82265500D01*
X84729597Y-82265500D01*
X84926339Y-82234339D01*
X84926342Y-82234338D01*
X84926343Y-82234338D01*
X85115780Y-82172786D01*
X85115780Y-82172785D01*
X85115783Y-82172785D01*
X85293266Y-82082353D01*
X85454418Y-81965269D01*
X85595269Y-81824418D01*
X85712353Y-81663266D01*
X85789515Y-81511827D01*
X85837490Y-81461031D01*
X85905311Y-81444236D01*
X85971446Y-81466773D01*
X86010485Y-81511827D01*
X86087647Y-81663266D01*
X86204731Y-81824418D01*
X86345582Y-81965269D01*
X86506734Y-82082353D01*
X86684217Y-82172785D01*
X86684219Y-82172786D01*
X86873657Y-82234338D01*
X86873658Y-82234338D01*
X86873661Y-82234339D01*
X87070403Y-82265500D01*
X87070404Y-82265500D01*
X87269596Y-82265500D01*
X87269597Y-82265500D01*
X87466339Y-82234339D01*
X87466342Y-82234338D01*
X87466343Y-82234338D01*
X87655780Y-82172786D01*
X87655780Y-82172785D01*
X87655783Y-82172785D01*
X87833266Y-82082353D01*
X87994418Y-81965269D01*
X88135269Y-81824418D01*
X88252353Y-81663266D01*
X88329515Y-81511827D01*
X88377490Y-81461031D01*
X88445311Y-81444236D01*
X88511446Y-81466773D01*
X88550485Y-81511827D01*
X88627647Y-81663266D01*
X88744731Y-81824418D01*
X88885582Y-81965269D01*
X89046734Y-82082353D01*
X89224217Y-82172785D01*
X89224219Y-82172786D01*
X89413657Y-82234338D01*
X89413658Y-82234338D01*
X89413661Y-82234339D01*
X89610403Y-82265500D01*
X89610404Y-82265500D01*
X89809596Y-82265500D01*
X89809597Y-82265500D01*
X90006339Y-82234339D01*
X90006342Y-82234338D01*
X90006343Y-82234338D01*
X90195780Y-82172786D01*
X90195780Y-82172785D01*
X90195783Y-82172785D01*
X90373266Y-82082353D01*
X90534418Y-81965269D01*
X90675269Y-81824418D01*
X90792353Y-81663266D01*
X90869515Y-81511827D01*
X90917490Y-81461031D01*
X90985311Y-81444236D01*
X91051446Y-81466773D01*
X91090485Y-81511827D01*
X91167647Y-81663266D01*
X91284731Y-81824418D01*
X91425582Y-81965269D01*
X91586734Y-82082353D01*
X91764217Y-82172785D01*
X91764219Y-82172786D01*
X91953657Y-82234338D01*
X91953658Y-82234338D01*
X91953661Y-82234339D01*
X92150403Y-82265500D01*
X92150404Y-82265500D01*
X92349596Y-82265500D01*
X92349597Y-82265500D01*
X92546339Y-82234339D01*
X92546342Y-82234338D01*
X92546343Y-82234338D01*
X92735780Y-82172786D01*
X92735780Y-82172785D01*
X92735783Y-82172785D01*
X92913266Y-82082353D01*
X93074418Y-81965269D01*
X93215269Y-81824418D01*
X93332353Y-81663266D01*
X93409515Y-81511827D01*
X93457490Y-81461031D01*
X93525311Y-81444236D01*
X93591446Y-81466773D01*
X93630485Y-81511827D01*
X93707647Y-81663266D01*
X93824731Y-81824418D01*
X93965582Y-81965269D01*
X94126734Y-82082353D01*
X94304217Y-82172785D01*
X94304219Y-82172786D01*
X94493657Y-82234338D01*
X94493658Y-82234338D01*
X94493661Y-82234339D01*
X94690403Y-82265500D01*
X94690404Y-82265500D01*
X94889596Y-82265500D01*
X94889597Y-82265500D01*
X95086339Y-82234339D01*
X95086342Y-82234338D01*
X95086343Y-82234338D01*
X95275780Y-82172786D01*
X95275780Y-82172785D01*
X95275783Y-82172785D01*
X95453266Y-82082353D01*
X95614418Y-81965269D01*
X95755269Y-81824418D01*
X95872353Y-81663266D01*
X95949515Y-81511827D01*
X95997490Y-81461031D01*
X96065311Y-81444236D01*
X96131446Y-81466773D01*
X96170485Y-81511827D01*
X96247647Y-81663266D01*
X96364731Y-81824418D01*
X96505582Y-81965269D01*
X96666734Y-82082353D01*
X96844217Y-82172785D01*
X96844219Y-82172786D01*
X97033657Y-82234338D01*
X97033658Y-82234338D01*
X97033661Y-82234339D01*
X97230403Y-82265500D01*
X97230404Y-82265500D01*
X97429596Y-82265500D01*
X97429597Y-82265500D01*
X97626339Y-82234339D01*
X97626342Y-82234338D01*
X97626343Y-82234338D01*
X97815780Y-82172786D01*
X97815780Y-82172785D01*
X97815783Y-82172785D01*
X97993266Y-82082353D01*
X98154418Y-81965269D01*
X98295269Y-81824418D01*
X98412353Y-81663266D01*
X98489515Y-81511827D01*
X98537490Y-81461031D01*
X98605311Y-81444236D01*
X98671446Y-81466773D01*
X98710485Y-81511827D01*
X98787647Y-81663266D01*
X98904731Y-81824418D01*
X99045582Y-81965269D01*
X99206734Y-82082353D01*
X99384217Y-82172785D01*
X99384219Y-82172786D01*
X99573657Y-82234338D01*
X99573658Y-82234338D01*
X99573661Y-82234339D01*
X99770403Y-82265500D01*
X99770404Y-82265500D01*
X99969596Y-82265500D01*
X99969597Y-82265500D01*
X100166339Y-82234339D01*
X100166342Y-82234338D01*
X100166343Y-82234338D01*
X100355780Y-82172786D01*
X100355780Y-82172785D01*
X100355783Y-82172785D01*
X100533266Y-82082353D01*
X100694418Y-81965269D01*
X100835269Y-81824418D01*
X100952353Y-81663266D01*
X101029515Y-81511827D01*
X101077490Y-81461031D01*
X101145311Y-81444236D01*
X101211446Y-81466773D01*
X101250485Y-81511827D01*
X101327647Y-81663266D01*
X101444731Y-81824418D01*
X101585582Y-81965269D01*
X101746734Y-82082353D01*
X101924217Y-82172785D01*
X101924219Y-82172786D01*
X102113657Y-82234338D01*
X102113658Y-82234338D01*
X102113661Y-82234339D01*
X102310403Y-82265500D01*
X102310404Y-82265500D01*
X102509596Y-82265500D01*
X102509597Y-82265500D01*
X102706339Y-82234339D01*
X102706342Y-82234338D01*
X102706343Y-82234338D01*
X102895780Y-82172786D01*
X102895780Y-82172785D01*
X102895783Y-82172785D01*
X103073266Y-82082353D01*
X103234418Y-81965269D01*
X103375269Y-81824418D01*
X103492353Y-81663266D01*
X103569515Y-81511827D01*
X103617490Y-81461031D01*
X103685311Y-81444236D01*
X103751446Y-81466773D01*
X103790485Y-81511827D01*
X103867647Y-81663266D01*
X103984731Y-81824418D01*
X104125582Y-81965269D01*
X104286734Y-82082353D01*
X104286744Y-82082358D01*
X104290273Y-82084520D01*
X104337157Y-82136325D01*
X104349500Y-82190258D01*
X104349500Y-129863330D01*
X104349499Y-129863348D01*
X104349499Y-130029054D01*
X104349498Y-130029054D01*
X104390423Y-130181785D01*
X104419358Y-130231900D01*
X104419359Y-130231904D01*
X104419360Y-130231904D01*
X104469479Y-130318714D01*
X104469481Y-130318717D01*
X104588349Y-130437585D01*
X104588354Y-130437589D01*
X113631284Y-139480520D01*
X113631286Y-139480521D01*
X113631290Y-139480524D01*
X113768209Y-139559573D01*
X113768216Y-139559577D01*
X113920943Y-139600501D01*
X113920945Y-139600501D01*
X114086654Y-139600501D01*
X114086670Y-139600500D01*
X166913331Y-139600500D01*
X166913347Y-139600501D01*
X166920943Y-139600501D01*
X167079054Y-139600501D01*
X167079057Y-139600501D01*
X167231785Y-139559577D01*
X167281904Y-139530639D01*
X167368716Y-139480520D01*
X167480520Y-139368716D01*
X167480520Y-139368714D01*
X167490728Y-139358507D01*
X167490730Y-139358504D01*
X169368713Y-137480521D01*
X169368716Y-137480520D01*
X169480520Y-137368716D01*
X169530639Y-137281904D01*
X169559577Y-137231785D01*
X169600500Y-137079057D01*
X169600500Y-136920943D01*
X169600500Y-136865784D01*
X169620185Y-136798745D01*
X169636819Y-136778103D01*
X169777136Y-136637785D01*
X169777139Y-136637782D01*
X169886632Y-136473914D01*
X169962051Y-136291835D01*
X170000500Y-136098541D01*
X170000500Y-135901459D01*
X170000500Y-135901456D01*
X169962052Y-135708170D01*
X169962051Y-135708169D01*
X169962051Y-135708165D01*
X169886635Y-135526093D01*
X169886635Y-135526092D01*
X169886628Y-135526079D01*
X169824728Y-135433440D01*
X169803850Y-135366763D01*
X169822334Y-135299383D01*
X169824729Y-135295657D01*
X169886189Y-135203676D01*
X169886191Y-135203673D01*
X169961569Y-135021693D01*
X169961572Y-135021681D01*
X169999999Y-134828495D01*
X170000000Y-134828492D01*
X170000000Y-134631508D01*
X169999999Y-134631504D01*
X169961573Y-134438318D01*
X169961570Y-134438309D01*
X169919333Y-134336339D01*
X169911864Y-134266870D01*
X169934629Y-134214576D01*
X169943796Y-134202331D01*
X169994091Y-134067483D01*
X170000500Y-134007873D01*
X170000499Y-132912128D01*
X169994091Y-132852517D01*
X169943796Y-132717669D01*
X169943795Y-132717668D01*
X169943793Y-132717664D01*
X169857547Y-132602455D01*
X169857544Y-132602452D01*
X169742335Y-132516206D01*
X169742328Y-132516202D01*
X169607482Y-132465908D01*
X169607483Y-132465908D01*
X169547883Y-132459501D01*
X169547881Y-132459500D01*
X169547873Y-132459500D01*
X169547864Y-132459500D01*
X168452129Y-132459500D01*
X168452123Y-132459501D01*
X168392516Y-132465908D01*
X168257671Y-132516202D01*
X168257664Y-132516206D01*
X168142455Y-132602452D01*
X168142452Y-132602455D01*
X168056206Y-132717664D01*
X168056202Y-132717671D01*
X168005908Y-132852517D01*
X167999501Y-132912116D01*
X167999501Y-132912123D01*
X167999500Y-132912135D01*
X167999500Y-134007870D01*
X167999501Y-134007876D01*
X168005908Y-134067483D01*
X168056202Y-134202328D01*
X168056203Y-134202330D01*
X168065372Y-134214578D01*
X168089788Y-134280043D01*
X168080665Y-134336340D01*
X168038432Y-134438300D01*
X168038427Y-134438317D01*
X168000000Y-134631504D01*
X168000000Y-134828495D01*
X168038427Y-135021681D01*
X168038430Y-135021693D01*
X168113807Y-135203671D01*
X168113814Y-135203684D01*
X168175270Y-135295659D01*
X168196148Y-135362337D01*
X168177663Y-135429717D01*
X168175271Y-135433440D01*
X168113370Y-135526082D01*
X168113364Y-135526093D01*
X168037950Y-135708160D01*
X168037947Y-135708170D01*
X167999500Y-135901456D01*
X167999500Y-135901459D01*
X167999500Y-136098541D01*
X167999500Y-136098543D01*
X167999499Y-136098543D01*
X168037947Y-136291829D01*
X168037950Y-136291839D01*
X168113364Y-136473907D01*
X168113371Y-136473920D01*
X168222860Y-136637781D01*
X168222863Y-136637785D01*
X168280240Y-136695162D01*
X168313725Y-136756485D01*
X168308741Y-136826177D01*
X168280240Y-136870524D01*
X166787584Y-138363181D01*
X166726261Y-138396666D01*
X166699903Y-138399500D01*
X156675686Y-138399500D01*
X156608647Y-138379815D01*
X156562892Y-138327011D01*
X156552948Y-138257853D01*
X156557912Y-138239752D01*
X156557473Y-138239635D01*
X156559577Y-138231784D01*
X156600500Y-138079057D01*
X156600500Y-131300097D01*
X156620185Y-131233058D01*
X156636819Y-131212416D01*
X164212416Y-123636819D01*
X164273739Y-123603334D01*
X164300097Y-123600500D01*
X179079055Y-123600500D01*
X179079057Y-123600500D01*
X179231784Y-123559577D01*
X179368716Y-123480520D01*
X179480520Y-123368716D01*
X179559577Y-123231784D01*
X179600500Y-123079057D01*
X179600500Y-98751096D01*
X206350000Y-98751096D01*
X206352897Y-98793824D01*
X206398831Y-98978523D01*
X206483390Y-99149022D01*
X206483392Y-99149025D01*
X206602632Y-99297366D01*
X206602633Y-99297367D01*
X206750974Y-99416607D01*
X206750977Y-99416609D01*
X206921476Y-99501168D01*
X207106175Y-99547102D01*
X207148903Y-99550000D01*
X207600000Y-99550000D01*
X208100000Y-99550000D01*
X208551097Y-99550000D01*
X208593824Y-99547102D01*
X208778523Y-99501168D01*
X208949022Y-99416609D01*
X208949025Y-99416607D01*
X209097366Y-99297367D01*
X209097367Y-99297366D01*
X209216607Y-99149025D01*
X209216609Y-99149022D01*
X209301168Y-98978523D01*
X209347102Y-98793824D01*
X209350000Y-98751096D01*
X209350000Y-98550000D01*
X208100000Y-98550000D01*
X208100000Y-99550000D01*
X207600000Y-99550000D01*
X207600000Y-98550000D01*
X206350000Y-98550000D01*
X206350000Y-98751096D01*
X179600500Y-98751096D01*
X179600500Y-98300097D01*
X179620185Y-98233058D01*
X179636819Y-98212416D01*
X181212416Y-96636819D01*
X181273739Y-96603334D01*
X181300097Y-96600500D01*
X206283084Y-96600500D01*
X206350123Y-96620185D01*
X206395878Y-96672989D01*
X206397574Y-96677112D01*
X206482967Y-96849292D01*
X206482969Y-96849295D01*
X206602277Y-96997721D01*
X206602278Y-96997722D01*
X206671884Y-97053673D01*
X206711803Y-97111016D01*
X206714383Y-97180838D01*
X206678804Y-97240971D01*
X206671885Y-97246967D01*
X206602631Y-97302635D01*
X206483392Y-97450974D01*
X206483390Y-97450977D01*
X206398831Y-97621476D01*
X206352897Y-97806175D01*
X206350000Y-97848903D01*
X206350000Y-98050000D01*
X209350000Y-98050000D01*
X209350000Y-97848903D01*
X209347102Y-97806175D01*
X209301168Y-97621476D01*
X209216609Y-97450977D01*
X209216607Y-97450974D01*
X209097367Y-97302633D01*
X209097366Y-97302632D01*
X209028115Y-97246967D01*
X208988196Y-97189624D01*
X208985616Y-97119802D01*
X209021194Y-97059669D01*
X209028089Y-97053694D01*
X209097722Y-96997722D01*
X209217030Y-96849296D01*
X209299650Y-96682708D01*
X209304628Y-96672671D01*
X209306535Y-96673617D01*
X209342131Y-96625590D01*
X209407478Y-96600860D01*
X209416916Y-96600500D01*
X212525501Y-96600500D01*
X212592540Y-96620185D01*
X212638295Y-96672989D01*
X212649501Y-96724500D01*
X212649501Y-97458034D01*
X212660113Y-97577415D01*
X212716089Y-97773045D01*
X212716090Y-97773048D01*
X212716091Y-97773049D01*
X212810302Y-97953407D01*
X212810304Y-97953409D01*
X212938890Y-98111109D01*
X213032803Y-98187684D01*
X213096593Y-98239698D01*
X213276951Y-98333909D01*
X213472582Y-98389886D01*
X213591963Y-98400500D01*
X214708036Y-98400499D01*
X214827418Y-98389886D01*
X215023049Y-98333909D01*
X215203407Y-98239698D01*
X215361109Y-98111109D01*
X215489698Y-97953407D01*
X215583909Y-97773049D01*
X215639886Y-97577418D01*
X215650500Y-97458037D01*
X215650499Y-94541964D01*
X215639886Y-94422582D01*
X215583909Y-94226951D01*
X215489698Y-94046593D01*
X215437684Y-93982803D01*
X215361109Y-93888890D01*
X215203409Y-93760304D01*
X215203410Y-93760304D01*
X215203407Y-93760302D01*
X215023049Y-93666091D01*
X215023048Y-93666090D01*
X215023045Y-93666089D01*
X214905829Y-93632550D01*
X214827418Y-93610114D01*
X214827415Y-93610113D01*
X214827413Y-93610113D01*
X214761102Y-93604217D01*
X214708037Y-93599500D01*
X214708032Y-93599500D01*
X213591971Y-93599500D01*
X213591965Y-93599500D01*
X213591964Y-93599501D01*
X213580316Y-93600536D01*
X213472584Y-93610113D01*
X213276954Y-93666089D01*
X213186772Y-93713196D01*
X213096593Y-93760302D01*
X213096591Y-93760303D01*
X213096590Y-93760304D01*
X212938890Y-93888890D01*
X212810304Y-94046590D01*
X212716089Y-94226954D01*
X212660114Y-94422583D01*
X212660113Y-94422586D01*
X212649500Y-94541966D01*
X212649500Y-95275500D01*
X212629815Y-95342539D01*
X212577011Y-95388294D01*
X212525500Y-95399500D01*
X209416916Y-95399500D01*
X209349877Y-95379815D01*
X209304122Y-95327011D01*
X209302425Y-95322887D01*
X209217032Y-95150707D01*
X209217030Y-95150704D01*
X209097722Y-95002278D01*
X209097721Y-95002277D01*
X209028514Y-94946647D01*
X208988595Y-94889304D01*
X208986015Y-94819482D01*
X209021594Y-94759349D01*
X209028514Y-94753353D01*
X209037909Y-94745800D01*
X209097722Y-94697722D01*
X209217030Y-94549296D01*
X209301641Y-94378693D01*
X209347600Y-94193889D01*
X209350500Y-94151123D01*
X209350499Y-93248878D01*
X209347600Y-93206111D01*
X209301641Y-93021307D01*
X209299046Y-93016075D01*
X209217032Y-92850707D01*
X209217030Y-92850704D01*
X209097722Y-92702278D01*
X209097721Y-92702277D01*
X208949295Y-92582969D01*
X208949292Y-92582967D01*
X208778697Y-92498360D01*
X208593892Y-92452400D01*
X208566107Y-92450516D01*
X208500554Y-92426339D01*
X208458478Y-92370559D01*
X208450500Y-92326800D01*
X208450500Y-87316101D01*
X208450501Y-87316088D01*
X208450501Y-87147987D01*
X208450501Y-87147985D01*
X208409577Y-86995257D01*
X208380639Y-86945137D01*
X208330520Y-86858326D01*
X208218716Y-86746522D01*
X208218715Y-86746521D01*
X208214385Y-86742191D01*
X208214374Y-86742181D01*
X199110548Y-77638355D01*
X199110546Y-77638352D01*
X198991675Y-77519481D01*
X198991674Y-77519480D01*
X198891687Y-77461753D01*
X198891686Y-77461752D01*
X198854741Y-77440422D01*
X198798839Y-77425443D01*
X198702015Y-77399499D01*
X198543901Y-77399499D01*
X198536305Y-77399499D01*
X198536289Y-77399500D01*
X193274745Y-77399500D01*
X193207706Y-77379815D01*
X193161951Y-77327011D01*
X193151456Y-77262243D01*
X193156499Y-77215341D01*
X193156500Y-77215327D01*
X193156500Y-75917500D01*
X191704982Y-75917500D01*
X191715611Y-75899091D01*
X191756500Y-75746491D01*
X191756500Y-75588509D01*
X191715611Y-75435909D01*
X191704982Y-75417500D01*
X193156500Y-75417500D01*
X193156500Y-74827222D01*
X223366500Y-74827222D01*
X223366500Y-75110777D01*
X223398245Y-75392523D01*
X223398247Y-75392535D01*
X223461342Y-75668976D01*
X223461345Y-75668984D01*
X223554992Y-75936610D01*
X223678015Y-76192070D01*
X223678017Y-76192073D01*
X223828872Y-76432158D01*
X224005660Y-76653843D01*
X224206157Y-76854340D01*
X224427842Y-77031128D01*
X224667927Y-77181983D01*
X224923393Y-77305009D01*
X225124394Y-77375342D01*
X225191015Y-77398654D01*
X225191023Y-77398657D01*
X225191026Y-77398657D01*
X225191027Y-77398658D01*
X225467464Y-77461753D01*
X225749223Y-77493499D01*
X225749224Y-77493500D01*
X225749227Y-77493500D01*
X226032776Y-77493500D01*
X226032776Y-77493499D01*
X226314536Y-77461753D01*
X226590973Y-77398658D01*
X226858607Y-77305009D01*
X227114073Y-77181983D01*
X227354158Y-77031128D01*
X227575843Y-76854340D01*
X227776340Y-76653843D01*
X227953128Y-76432158D01*
X228103983Y-76192073D01*
X228227009Y-75936607D01*
X228320658Y-75668973D01*
X228383753Y-75392536D01*
X228383754Y-75392524D01*
X228383755Y-75392521D01*
X228405780Y-75197042D01*
X228432846Y-75132628D01*
X228490441Y-75093073D01*
X228560278Y-75090935D01*
X228620184Y-75126893D01*
X228651140Y-75189531D01*
X228653000Y-75210925D01*
X228653000Y-77215370D01*
X228653001Y-77215376D01*
X228659408Y-77274983D01*
X228709702Y-77409828D01*
X228709706Y-77409835D01*
X228795952Y-77525044D01*
X228795955Y-77525047D01*
X228911164Y-77611293D01*
X228911171Y-77611297D01*
X229046017Y-77661591D01*
X229046016Y-77661591D01*
X229052944Y-77662335D01*
X229105627Y-77668000D01*
X232201372Y-77667999D01*
X232260983Y-77661591D01*
X232395831Y-77611296D01*
X232511046Y-77525046D01*
X232597296Y-77409831D01*
X232647591Y-77274983D01*
X232654000Y-77215373D01*
X232653999Y-74119628D01*
X232647591Y-74060017D01*
X232625724Y-74001389D01*
X232597297Y-73925171D01*
X232597293Y-73925164D01*
X232511047Y-73809955D01*
X232511044Y-73809952D01*
X232395835Y-73723706D01*
X232395828Y-73723702D01*
X232260982Y-73673408D01*
X232260983Y-73673408D01*
X232201383Y-73667001D01*
X232201381Y-73667000D01*
X232201373Y-73667000D01*
X232201364Y-73667000D01*
X229105629Y-73667000D01*
X229105623Y-73667001D01*
X229046016Y-73673408D01*
X228911171Y-73723702D01*
X228911164Y-73723706D01*
X228795955Y-73809952D01*
X228795952Y-73809955D01*
X228709706Y-73925164D01*
X228709702Y-73925171D01*
X228659408Y-74060017D01*
X228653001Y-74119616D01*
X228653001Y-74119623D01*
X228653000Y-74119635D01*
X228653000Y-74727073D01*
X228633315Y-74794112D01*
X228580511Y-74839867D01*
X228511353Y-74849811D01*
X228447797Y-74820786D01*
X228410023Y-74762008D01*
X228405780Y-74740956D01*
X228383755Y-74545478D01*
X228383754Y-74545473D01*
X228383753Y-74545464D01*
X228320658Y-74269027D01*
X228227009Y-74001393D01*
X228103983Y-73745927D01*
X227953128Y-73505842D01*
X227776340Y-73284157D01*
X227575843Y-73083660D01*
X227354158Y-72906872D01*
X227114073Y-72756017D01*
X227114070Y-72756015D01*
X226858610Y-72632992D01*
X226590984Y-72539345D01*
X226590976Y-72539342D01*
X226383645Y-72492020D01*
X226314536Y-72476247D01*
X226314532Y-72476246D01*
X226314523Y-72476245D01*
X226032777Y-72444500D01*
X226032773Y-72444500D01*
X225749227Y-72444500D01*
X225749222Y-72444500D01*
X225467476Y-72476245D01*
X225467464Y-72476247D01*
X225191023Y-72539342D01*
X225191015Y-72539345D01*
X224923389Y-72632992D01*
X224667929Y-72756015D01*
X224427843Y-72906871D01*
X224206157Y-73083659D01*
X224005659Y-73284157D01*
X223828871Y-73505843D01*
X223678015Y-73745929D01*
X223554992Y-74001389D01*
X223461345Y-74269015D01*
X223461342Y-74269023D01*
X223398247Y-74545464D01*
X223398245Y-74545476D01*
X223366500Y-74827222D01*
X193156500Y-74827222D01*
X193156500Y-74119672D01*
X193156499Y-74119655D01*
X193150098Y-74060127D01*
X193150096Y-74060120D01*
X193099854Y-73925413D01*
X193099850Y-73925406D01*
X193013690Y-73810312D01*
X193013687Y-73810309D01*
X192898593Y-73724149D01*
X192898586Y-73724145D01*
X192763879Y-73673903D01*
X192763872Y-73673901D01*
X192704344Y-73667500D01*
X191406500Y-73667500D01*
X191406500Y-75119017D01*
X191388091Y-75108389D01*
X191235491Y-75067500D01*
X191077509Y-75067500D01*
X190924909Y-75108389D01*
X190906500Y-75119017D01*
X190906500Y-73667500D01*
X189608655Y-73667500D01*
X189549127Y-73673901D01*
X189549120Y-73673903D01*
X189414413Y-73724145D01*
X189414406Y-73724149D01*
X189299312Y-73810309D01*
X189299309Y-73810312D01*
X189213149Y-73925406D01*
X189213145Y-73925413D01*
X189162903Y-74060120D01*
X189162901Y-74060127D01*
X189156500Y-74119655D01*
X189156500Y-75417500D01*
X190608018Y-75417500D01*
X190597389Y-75435909D01*
X190556500Y-75588509D01*
X190556500Y-75746491D01*
X190597389Y-75899091D01*
X190608018Y-75917500D01*
X189156500Y-75917500D01*
X189156500Y-77215341D01*
X189161544Y-77262243D01*
X189149140Y-77331003D01*
X189101530Y-77382141D01*
X189038255Y-77399500D01*
X184724500Y-77399500D01*
X184657461Y-77379815D01*
X184611706Y-77327011D01*
X184600500Y-77275500D01*
X184600500Y-59247000D01*
X184620185Y-59179961D01*
X184672989Y-59134206D01*
X184724500Y-59123000D01*
X189032001Y-59123000D01*
X189099040Y-59142685D01*
X189144795Y-59195489D01*
X189156001Y-59247000D01*
X189156001Y-60070376D01*
X189162408Y-60129983D01*
X189212702Y-60264828D01*
X189212706Y-60264835D01*
X189298952Y-60380044D01*
X189298955Y-60380047D01*
X189414164Y-60466293D01*
X189414171Y-60466297D01*
X189549017Y-60516591D01*
X189549016Y-60516591D01*
X189555944Y-60517335D01*
X189608627Y-60523000D01*
X192704372Y-60522999D01*
X192763983Y-60516591D01*
X192898831Y-60466296D01*
X193014046Y-60380046D01*
X193100296Y-60264831D01*
X193150591Y-60129983D01*
X193157000Y-60070373D01*
X193156999Y-59462923D01*
X193176683Y-59395887D01*
X193229487Y-59350132D01*
X193298646Y-59340188D01*
X193362202Y-59369213D01*
X193399976Y-59427991D01*
X193404219Y-59449042D01*
X193426245Y-59644523D01*
X193426246Y-59644532D01*
X193426247Y-59644536D01*
X193442020Y-59713645D01*
X193489342Y-59920976D01*
X193489345Y-59920984D01*
X193582992Y-60188610D01*
X193706015Y-60444070D01*
X193706017Y-60444073D01*
X193856872Y-60684158D01*
X194033660Y-60905843D01*
X194234157Y-61106340D01*
X194455842Y-61283128D01*
X194695927Y-61433983D01*
X194951393Y-61557009D01*
X195083783Y-61603334D01*
X195219015Y-61650654D01*
X195219023Y-61650657D01*
X195219026Y-61650657D01*
X195219027Y-61650658D01*
X195495464Y-61713753D01*
X195777223Y-61745499D01*
X195777224Y-61745500D01*
X195777227Y-61745500D01*
X196060776Y-61745500D01*
X196060776Y-61745499D01*
X196342536Y-61713753D01*
X196618973Y-61650658D01*
X196886607Y-61557009D01*
X197142073Y-61433983D01*
X197382158Y-61283128D01*
X197603843Y-61106340D01*
X197804340Y-60905843D01*
X197981128Y-60684158D01*
X198131983Y-60444073D01*
X198255009Y-60188607D01*
X198348658Y-59920973D01*
X198411753Y-59644536D01*
X198443500Y-59362773D01*
X198443500Y-59079227D01*
X198411753Y-58797464D01*
X198348658Y-58521027D01*
X198255009Y-58253393D01*
X198131983Y-57997927D01*
X197981128Y-57757842D01*
X197804340Y-57536157D01*
X197603843Y-57335660D01*
X197593145Y-57327129D01*
X197518393Y-57267516D01*
X197382158Y-57158872D01*
X197142073Y-57008017D01*
X197142070Y-57008015D01*
X197072756Y-56974635D01*
X228653000Y-56974635D01*
X228653000Y-60070370D01*
X228653001Y-60070376D01*
X228659408Y-60129983D01*
X228709702Y-60264828D01*
X228709706Y-60264835D01*
X228795952Y-60380044D01*
X228795955Y-60380047D01*
X228911164Y-60466293D01*
X228911171Y-60466297D01*
X229046017Y-60516591D01*
X229046016Y-60516591D01*
X229052944Y-60517335D01*
X229105627Y-60523000D01*
X232201372Y-60522999D01*
X232260983Y-60516591D01*
X232395831Y-60466296D01*
X232511046Y-60380046D01*
X232597296Y-60264831D01*
X232647591Y-60129983D01*
X232654000Y-60070373D01*
X232653999Y-56974628D01*
X232647591Y-56915017D01*
X232644685Y-56907226D01*
X232597297Y-56780171D01*
X232597293Y-56780164D01*
X232511047Y-56664955D01*
X232511044Y-56664952D01*
X232395835Y-56578706D01*
X232395828Y-56578702D01*
X232260982Y-56528408D01*
X232260983Y-56528408D01*
X232201383Y-56522001D01*
X232201381Y-56522000D01*
X232201373Y-56522000D01*
X232201364Y-56522000D01*
X229105629Y-56522000D01*
X229105623Y-56522001D01*
X229046016Y-56528408D01*
X228911171Y-56578702D01*
X228911164Y-56578706D01*
X228795955Y-56664952D01*
X228795952Y-56664955D01*
X228709706Y-56780164D01*
X228709702Y-56780171D01*
X228659408Y-56915017D01*
X228657668Y-56931206D01*
X228653001Y-56974623D01*
X228653000Y-56974635D01*
X197072756Y-56974635D01*
X196886610Y-56884992D01*
X196618984Y-56791345D01*
X196618976Y-56791342D01*
X196411645Y-56744020D01*
X196342536Y-56728247D01*
X196342532Y-56728246D01*
X196342523Y-56728245D01*
X196060777Y-56696500D01*
X196060773Y-56696500D01*
X195777227Y-56696500D01*
X195777222Y-56696500D01*
X195495476Y-56728245D01*
X195495464Y-56728247D01*
X195219023Y-56791342D01*
X195219015Y-56791345D01*
X194951389Y-56884992D01*
X194695929Y-57008015D01*
X194455843Y-57158871D01*
X194234157Y-57335659D01*
X194033659Y-57536157D01*
X193856871Y-57757843D01*
X193706015Y-57997929D01*
X193582992Y-58253389D01*
X193489345Y-58521015D01*
X193489342Y-58521023D01*
X193426247Y-58797464D01*
X193426245Y-58797476D01*
X193404219Y-58992958D01*
X193377152Y-59057372D01*
X193319557Y-59096927D01*
X193249720Y-59099064D01*
X193189814Y-59063106D01*
X193158858Y-59000468D01*
X193156999Y-58979081D01*
X193156999Y-56974628D01*
X193150591Y-56915017D01*
X193147685Y-56907226D01*
X193100297Y-56780171D01*
X193100293Y-56780164D01*
X193014047Y-56664955D01*
X193014044Y-56664952D01*
X192898835Y-56578706D01*
X192898828Y-56578702D01*
X192763982Y-56528408D01*
X192763983Y-56528408D01*
X192704383Y-56522001D01*
X192704381Y-56522000D01*
X192704373Y-56522000D01*
X192704364Y-56522000D01*
X189608629Y-56522000D01*
X189608623Y-56522001D01*
X189549016Y-56528408D01*
X189414171Y-56578702D01*
X189414164Y-56578706D01*
X189298955Y-56664952D01*
X189298952Y-56664955D01*
X189212706Y-56780164D01*
X189212702Y-56780171D01*
X189162408Y-56915017D01*
X189160668Y-56931206D01*
X189156001Y-56974623D01*
X189156000Y-56974635D01*
X189156000Y-57798000D01*
X189136315Y-57865039D01*
X189083511Y-57910794D01*
X189032000Y-57922000D01*
X183609169Y-57922000D01*
X183609153Y-57921999D01*
X183601557Y-57921999D01*
X183443443Y-57921999D01*
X183336087Y-57950765D01*
X183290710Y-57962924D01*
X183290709Y-57962925D01*
X183240596Y-57991859D01*
X183240595Y-57991860D01*
X183197189Y-58016920D01*
X183153785Y-58041979D01*
X183153782Y-58041981D01*
X183041981Y-58153782D01*
X183041977Y-58153787D01*
X183011173Y-58207143D01*
X182992477Y-58239526D01*
X182962923Y-58290715D01*
X182921999Y-58443443D01*
X182921999Y-58443445D01*
X182921999Y-58601554D01*
X182921998Y-58601554D01*
X182928490Y-58625783D01*
X182962923Y-58754285D01*
X182991052Y-58803005D01*
X182991858Y-58804400D01*
X182991859Y-58804404D01*
X182991860Y-58804404D01*
X183016766Y-58847544D01*
X183041979Y-58891214D01*
X183041981Y-58891217D01*
X183160849Y-59010085D01*
X183160855Y-59010090D01*
X183363181Y-59212416D01*
X183396666Y-59273739D01*
X183399500Y-59300097D01*
X183399500Y-78079056D01*
X183440423Y-78231783D01*
X183440426Y-78231790D01*
X183519475Y-78368709D01*
X183519479Y-78368714D01*
X183519480Y-78368716D01*
X183631284Y-78480520D01*
X183631286Y-78480521D01*
X183631290Y-78480524D01*
X183698765Y-78519480D01*
X183768216Y-78559577D01*
X183920943Y-78600500D01*
X184079057Y-78600500D01*
X198322861Y-78600500D01*
X198389900Y-78620185D01*
X198410542Y-78636819D01*
X207213181Y-87439458D01*
X207246666Y-87500781D01*
X207249500Y-87527139D01*
X207249500Y-92326801D01*
X207229815Y-92393840D01*
X207177011Y-92439595D01*
X207133886Y-92450517D01*
X207106113Y-92452399D01*
X207106112Y-92452399D01*
X206921303Y-92498360D01*
X206750707Y-92582967D01*
X206750704Y-92582969D01*
X206602278Y-92702277D01*
X206602277Y-92702278D01*
X206482969Y-92850704D01*
X206482967Y-92850707D01*
X206398360Y-93021302D01*
X206352400Y-93206107D01*
X206349500Y-93248879D01*
X206349500Y-94151122D01*
X206349501Y-94151125D01*
X206352399Y-94193886D01*
X206352399Y-94193887D01*
X206398360Y-94378696D01*
X206482967Y-94549292D01*
X206482969Y-94549295D01*
X206602277Y-94697721D01*
X206602278Y-94697722D01*
X206671486Y-94753353D01*
X206711405Y-94810696D01*
X206713985Y-94880518D01*
X206678406Y-94940651D01*
X206671486Y-94946647D01*
X206602278Y-95002277D01*
X206602277Y-95002278D01*
X206482969Y-95150704D01*
X206482967Y-95150707D01*
X206395372Y-95327329D01*
X206393464Y-95326382D01*
X206357869Y-95374410D01*
X206292522Y-95399140D01*
X206283084Y-95399500D01*
X181079057Y-95399500D01*
X180920943Y-95399500D01*
X180768215Y-95440423D01*
X180768214Y-95440423D01*
X180768212Y-95440424D01*
X180768209Y-95440425D01*
X180718096Y-95469359D01*
X180718095Y-95469360D01*
X180674689Y-95494420D01*
X180631285Y-95519479D01*
X180631282Y-95519481D01*
X178519481Y-97631282D01*
X178519479Y-97631285D01*
X178469361Y-97718094D01*
X178469359Y-97718096D01*
X178440425Y-97768209D01*
X178440424Y-97768210D01*
X178430251Y-97806175D01*
X178399499Y-97920943D01*
X178399499Y-97920945D01*
X178399499Y-98089046D01*
X178399500Y-98089059D01*
X178399500Y-122275500D01*
X178379815Y-122342539D01*
X178327011Y-122388294D01*
X178275500Y-122399500D01*
X164079057Y-122399500D01*
X163991057Y-122399500D01*
X163832943Y-122399500D01*
X163680215Y-122440423D01*
X163680214Y-122440423D01*
X163680212Y-122440424D01*
X163680209Y-122440425D01*
X163630096Y-122469359D01*
X163630095Y-122469360D01*
X163586689Y-122494420D01*
X163543285Y-122519479D01*
X163543282Y-122519481D01*
X153062180Y-133000584D01*
X153000857Y-133034069D01*
X152931165Y-133029085D01*
X152875232Y-132987213D01*
X152850815Y-132921749D01*
X152850499Y-132912903D01*
X152850499Y-132912129D01*
X152850498Y-132912123D01*
X152850497Y-132912116D01*
X152844091Y-132852517D01*
X152793796Y-132717669D01*
X152793795Y-132717668D01*
X152793793Y-132717664D01*
X152707547Y-132602455D01*
X152707544Y-132602452D01*
X152592335Y-132516206D01*
X152592328Y-132516202D01*
X152457482Y-132465908D01*
X152457483Y-132465908D01*
X152397883Y-132459501D01*
X152397881Y-132459500D01*
X152397873Y-132459500D01*
X152397864Y-132459500D01*
X151302129Y-132459500D01*
X151302123Y-132459501D01*
X151242516Y-132465908D01*
X151107671Y-132516202D01*
X151107664Y-132516206D01*
X150992455Y-132602452D01*
X150992452Y-132602455D01*
X150906206Y-132717664D01*
X150906202Y-132717671D01*
X150855908Y-132852517D01*
X150849501Y-132912116D01*
X150849501Y-132912123D01*
X150849500Y-132912135D01*
X150849500Y-134007870D01*
X150849501Y-134007876D01*
X150855908Y-134067483D01*
X150906202Y-134202328D01*
X150906206Y-134202335D01*
X150915023Y-134214113D01*
X150939440Y-134279578D01*
X150930318Y-134335874D01*
X150930125Y-134336340D01*
X150887950Y-134438164D01*
X150887948Y-134438168D01*
X150887947Y-134438171D01*
X150849500Y-134631456D01*
X150849500Y-134631459D01*
X150849500Y-134828541D01*
X150849500Y-134828543D01*
X150849499Y-134828543D01*
X150887947Y-135021829D01*
X150887950Y-135021839D01*
X150963365Y-135203907D01*
X150963368Y-135203914D01*
X150976028Y-135222861D01*
X151024971Y-135296110D01*
X151045848Y-135362787D01*
X151027363Y-135430167D01*
X151024971Y-135433890D01*
X150963366Y-135526089D01*
X150887950Y-135708160D01*
X150887947Y-135708170D01*
X150849500Y-135901456D01*
X150849500Y-135901459D01*
X150849500Y-136098541D01*
X150849500Y-136098543D01*
X150849499Y-136098543D01*
X150887947Y-136291829D01*
X150887950Y-136291839D01*
X150963364Y-136473907D01*
X150963371Y-136473920D01*
X151072860Y-136637781D01*
X151072863Y-136637785D01*
X151212214Y-136777136D01*
X151212218Y-136777139D01*
X151376079Y-136886628D01*
X151376092Y-136886635D01*
X151558160Y-136962049D01*
X151558165Y-136962051D01*
X151558169Y-136962051D01*
X151558170Y-136962052D01*
X151751456Y-137000500D01*
X151751459Y-137000500D01*
X151948543Y-137000500D01*
X152078582Y-136974632D01*
X152141835Y-136962051D01*
X152323914Y-136886632D01*
X152487782Y-136777139D01*
X152627139Y-136637782D01*
X152736632Y-136473914D01*
X152812051Y-136291835D01*
X152850500Y-136098541D01*
X152850500Y-135901459D01*
X152850500Y-135901456D01*
X152812052Y-135708170D01*
X152812051Y-135708169D01*
X152812051Y-135708165D01*
X152736635Y-135526093D01*
X152736635Y-135526092D01*
X152736633Y-135526088D01*
X152736632Y-135526086D01*
X152675029Y-135433891D01*
X152654151Y-135367214D01*
X152672635Y-135299834D01*
X152675029Y-135296109D01*
X152687872Y-135276887D01*
X152736632Y-135203914D01*
X152812051Y-135021835D01*
X152822752Y-134968033D01*
X152855136Y-134906125D01*
X152856631Y-134904602D01*
X155187821Y-132573413D01*
X155249142Y-132539930D01*
X155318834Y-132544914D01*
X155374767Y-132586786D01*
X155399184Y-132652250D01*
X155399500Y-132661096D01*
X155399500Y-137275500D01*
X155379815Y-137342539D01*
X155327011Y-137388294D01*
X155275500Y-137399500D01*
X116579766Y-137399500D01*
X116512727Y-137379815D01*
X116510875Y-137378602D01*
X116379185Y-137290609D01*
X116379172Y-137290602D01*
X116233501Y-137230264D01*
X116233489Y-137230261D01*
X116078845Y-137199500D01*
X116078842Y-137199500D01*
X115921158Y-137199500D01*
X115921155Y-137199500D01*
X115766510Y-137230261D01*
X115766498Y-137230264D01*
X115620827Y-137290602D01*
X115620814Y-137290609D01*
X115489711Y-137378210D01*
X115489707Y-137378213D01*
X115378213Y-137489707D01*
X115378210Y-137489711D01*
X115290609Y-137620814D01*
X115290602Y-137620827D01*
X115230264Y-137766498D01*
X115230261Y-137766510D01*
X115199500Y-137921153D01*
X115199500Y-138078846D01*
X115230261Y-138233489D01*
X115232031Y-138239324D01*
X115229279Y-138240158D01*
X115235503Y-138297359D01*
X115204309Y-138359878D01*
X115144266Y-138395608D01*
X115113445Y-138399500D01*
X114300098Y-138399500D01*
X114233059Y-138379815D01*
X114212417Y-138363181D01*
X105586819Y-129737583D01*
X105553334Y-129676260D01*
X105550500Y-129649902D01*
X105550500Y-82190258D01*
X105570185Y-82123219D01*
X105609727Y-82084520D01*
X105613249Y-82082361D01*
X105613266Y-82082353D01*
X105774418Y-81965269D01*
X105915269Y-81824418D01*
X106032353Y-81663266D01*
X106109515Y-81511827D01*
X106157490Y-81461031D01*
X106225311Y-81444236D01*
X106291446Y-81466773D01*
X106330485Y-81511827D01*
X106407647Y-81663266D01*
X106524731Y-81824418D01*
X106665582Y-81965269D01*
X106826734Y-82082353D01*
X107004217Y-82172785D01*
X107004219Y-82172786D01*
X107193657Y-82234338D01*
X107193658Y-82234338D01*
X107193661Y-82234339D01*
X107390403Y-82265500D01*
X107390404Y-82265500D01*
X107589596Y-82265500D01*
X107589597Y-82265500D01*
X107786339Y-82234339D01*
X107786342Y-82234338D01*
X107786343Y-82234338D01*
X107975780Y-82172786D01*
X107975780Y-82172785D01*
X107975783Y-82172785D01*
X108153266Y-82082353D01*
X108314418Y-81965269D01*
X108455269Y-81824418D01*
X108572353Y-81663266D01*
X108649515Y-81511827D01*
X108697490Y-81461031D01*
X108765311Y-81444236D01*
X108831446Y-81466773D01*
X108870485Y-81511827D01*
X108947647Y-81663266D01*
X109064731Y-81824418D01*
X109205582Y-81965269D01*
X109366734Y-82082353D01*
X109544217Y-82172785D01*
X109544219Y-82172786D01*
X109733657Y-82234338D01*
X109733658Y-82234338D01*
X109733661Y-82234339D01*
X109930403Y-82265500D01*
X109930404Y-82265500D01*
X110129596Y-82265500D01*
X110129597Y-82265500D01*
X110326339Y-82234339D01*
X110326342Y-82234338D01*
X110326343Y-82234338D01*
X110515780Y-82172786D01*
X110515780Y-82172785D01*
X110515783Y-82172785D01*
X110693266Y-82082353D01*
X110854418Y-81965269D01*
X110995269Y-81824418D01*
X111112353Y-81663266D01*
X111189515Y-81511827D01*
X111237490Y-81461031D01*
X111305311Y-81444236D01*
X111371446Y-81466773D01*
X111410485Y-81511827D01*
X111487647Y-81663266D01*
X111604731Y-81824418D01*
X111745582Y-81965269D01*
X111906734Y-82082353D01*
X112084217Y-82172785D01*
X112084219Y-82172786D01*
X112273657Y-82234338D01*
X112273658Y-82234338D01*
X112273661Y-82234339D01*
X112470403Y-82265500D01*
X112470404Y-82265500D01*
X112669596Y-82265500D01*
X112669597Y-82265500D01*
X112866339Y-82234339D01*
X112866342Y-82234338D01*
X112866343Y-82234338D01*
X113055780Y-82172786D01*
X113055780Y-82172785D01*
X113055783Y-82172785D01*
X113233266Y-82082353D01*
X113394418Y-81965269D01*
X113535269Y-81824418D01*
X113652353Y-81663266D01*
X113729515Y-81511827D01*
X113777490Y-81461031D01*
X113845311Y-81444236D01*
X113911446Y-81466773D01*
X113950485Y-81511827D01*
X114027647Y-81663266D01*
X114144731Y-81824418D01*
X114285582Y-81965269D01*
X114446734Y-82082353D01*
X114624217Y-82172785D01*
X114624219Y-82172786D01*
X114813657Y-82234338D01*
X114813658Y-82234338D01*
X114813661Y-82234339D01*
X115010403Y-82265500D01*
X115010404Y-82265500D01*
X115209596Y-82265500D01*
X115209597Y-82265500D01*
X115406339Y-82234339D01*
X115406342Y-82234338D01*
X115406343Y-82234338D01*
X115595780Y-82172786D01*
X115595780Y-82172785D01*
X115595783Y-82172785D01*
X115773266Y-82082353D01*
X115934418Y-81965269D01*
X116075269Y-81824418D01*
X116192353Y-81663266D01*
X116269515Y-81511827D01*
X116317490Y-81461031D01*
X116385311Y-81444236D01*
X116451446Y-81466773D01*
X116490485Y-81511827D01*
X116567647Y-81663266D01*
X116684731Y-81824418D01*
X116825582Y-81965269D01*
X116986734Y-82082353D01*
X117164217Y-82172785D01*
X117164219Y-82172786D01*
X117353657Y-82234338D01*
X117353658Y-82234338D01*
X117353661Y-82234339D01*
X117550403Y-82265500D01*
X117550404Y-82265500D01*
X117749596Y-82265500D01*
X117749597Y-82265500D01*
X117946339Y-82234339D01*
X117946342Y-82234338D01*
X117946343Y-82234338D01*
X118135780Y-82172786D01*
X118135780Y-82172785D01*
X118135783Y-82172785D01*
X118313266Y-82082353D01*
X118474418Y-81965269D01*
X118615269Y-81824418D01*
X118732353Y-81663266D01*
X118809515Y-81511827D01*
X118857490Y-81461031D01*
X118925311Y-81444236D01*
X118991446Y-81466773D01*
X119030485Y-81511827D01*
X119107647Y-81663266D01*
X119224731Y-81824418D01*
X119365582Y-81965269D01*
X119526734Y-82082353D01*
X119704217Y-82172785D01*
X119704219Y-82172786D01*
X119893657Y-82234338D01*
X119893658Y-82234338D01*
X119893661Y-82234339D01*
X120090403Y-82265500D01*
X120090404Y-82265500D01*
X120289596Y-82265500D01*
X120289597Y-82265500D01*
X120486339Y-82234339D01*
X120486342Y-82234338D01*
X120486343Y-82234338D01*
X120675780Y-82172786D01*
X120675780Y-82172785D01*
X120675783Y-82172785D01*
X120853266Y-82082353D01*
X121014418Y-81965269D01*
X121155269Y-81824418D01*
X121272353Y-81663266D01*
X121349515Y-81511827D01*
X121397490Y-81461031D01*
X121465311Y-81444236D01*
X121531446Y-81466773D01*
X121570485Y-81511827D01*
X121647647Y-81663266D01*
X121764731Y-81824418D01*
X121905582Y-81965269D01*
X122066734Y-82082353D01*
X122244217Y-82172785D01*
X122244219Y-82172786D01*
X122433657Y-82234338D01*
X122433658Y-82234338D01*
X122433661Y-82234339D01*
X122630403Y-82265500D01*
X122630404Y-82265500D01*
X122829596Y-82265500D01*
X122829597Y-82265500D01*
X123026339Y-82234339D01*
X123026342Y-82234338D01*
X123026343Y-82234338D01*
X123215780Y-82172786D01*
X123215780Y-82172785D01*
X123215783Y-82172785D01*
X123393266Y-82082353D01*
X123554418Y-81965269D01*
X123695269Y-81824418D01*
X123812353Y-81663266D01*
X123889515Y-81511827D01*
X123937490Y-81461031D01*
X124005311Y-81444236D01*
X124071446Y-81466773D01*
X124110485Y-81511827D01*
X124187647Y-81663266D01*
X124304731Y-81824418D01*
X124445582Y-81965269D01*
X124606734Y-82082353D01*
X124784217Y-82172785D01*
X124784219Y-82172786D01*
X124973657Y-82234338D01*
X124973658Y-82234338D01*
X124973661Y-82234339D01*
X125170403Y-82265500D01*
X125170404Y-82265500D01*
X125369596Y-82265500D01*
X125369597Y-82265500D01*
X125566339Y-82234339D01*
X125566342Y-82234338D01*
X125566343Y-82234338D01*
X125755780Y-82172786D01*
X125755780Y-82172785D01*
X125755783Y-82172785D01*
X125933266Y-82082353D01*
X126094418Y-81965269D01*
X126235269Y-81824418D01*
X126352353Y-81663266D01*
X126429515Y-81511827D01*
X126477490Y-81461031D01*
X126545311Y-81444236D01*
X126611446Y-81466773D01*
X126650485Y-81511827D01*
X126727647Y-81663266D01*
X126844731Y-81824418D01*
X126985582Y-81965269D01*
X127146734Y-82082353D01*
X127324217Y-82172785D01*
X127324219Y-82172786D01*
X127513657Y-82234338D01*
X127513658Y-82234338D01*
X127513661Y-82234339D01*
X127710403Y-82265500D01*
X127710404Y-82265500D01*
X127909596Y-82265500D01*
X127909597Y-82265500D01*
X128106339Y-82234339D01*
X128106342Y-82234338D01*
X128106343Y-82234338D01*
X128295780Y-82172786D01*
X128295780Y-82172785D01*
X128295783Y-82172785D01*
X128473266Y-82082353D01*
X128634418Y-81965269D01*
X128775269Y-81824418D01*
X128892353Y-81663266D01*
X128969515Y-81511827D01*
X129017490Y-81461031D01*
X129085311Y-81444236D01*
X129151446Y-81466773D01*
X129190485Y-81511827D01*
X129267647Y-81663266D01*
X129384731Y-81824418D01*
X129525582Y-81965269D01*
X129686734Y-82082353D01*
X129864217Y-82172785D01*
X129864219Y-82172786D01*
X130053657Y-82234338D01*
X130053658Y-82234338D01*
X130053661Y-82234339D01*
X130250403Y-82265500D01*
X130250404Y-82265500D01*
X130449596Y-82265500D01*
X130449597Y-82265500D01*
X130646339Y-82234339D01*
X130646342Y-82234338D01*
X130646343Y-82234338D01*
X130835780Y-82172786D01*
X130835780Y-82172785D01*
X130835783Y-82172785D01*
X131013266Y-82082353D01*
X131174418Y-81965269D01*
X131315269Y-81824418D01*
X131432353Y-81663266D01*
X131509515Y-81511827D01*
X131557490Y-81461031D01*
X131625311Y-81444236D01*
X131691446Y-81466773D01*
X131730485Y-81511827D01*
X131807647Y-81663266D01*
X131924731Y-81824418D01*
X132065582Y-81965269D01*
X132226734Y-82082353D01*
X132404217Y-82172785D01*
X132404219Y-82172786D01*
X132593657Y-82234338D01*
X132593658Y-82234338D01*
X132593661Y-82234339D01*
X132790403Y-82265500D01*
X132790404Y-82265500D01*
X132989596Y-82265500D01*
X132989597Y-82265500D01*
X133186339Y-82234339D01*
X133186342Y-82234338D01*
X133186343Y-82234338D01*
X133375780Y-82172786D01*
X133375780Y-82172785D01*
X133375783Y-82172785D01*
X133553266Y-82082353D01*
X133714418Y-81965269D01*
X133855269Y-81824418D01*
X133972353Y-81663266D01*
X134049515Y-81511827D01*
X134097490Y-81461031D01*
X134165311Y-81444236D01*
X134231446Y-81466773D01*
X134270485Y-81511827D01*
X134347647Y-81663266D01*
X134464731Y-81824418D01*
X134605582Y-81965269D01*
X134766734Y-82082353D01*
X134944217Y-82172785D01*
X134944219Y-82172786D01*
X135133657Y-82234338D01*
X135133658Y-82234338D01*
X135133661Y-82234339D01*
X135330403Y-82265500D01*
X135330404Y-82265500D01*
X135529596Y-82265500D01*
X135529597Y-82265500D01*
X135726339Y-82234339D01*
X135726342Y-82234338D01*
X135726343Y-82234338D01*
X135915780Y-82172786D01*
X135915780Y-82172785D01*
X135915783Y-82172785D01*
X136093266Y-82082353D01*
X136254418Y-81965269D01*
X136395269Y-81824418D01*
X136512353Y-81663266D01*
X136589515Y-81511827D01*
X136637490Y-81461031D01*
X136705311Y-81444236D01*
X136771446Y-81466773D01*
X136810485Y-81511827D01*
X136887647Y-81663266D01*
X137004731Y-81824418D01*
X137145582Y-81965269D01*
X137306734Y-82082353D01*
X137484217Y-82172785D01*
X137484219Y-82172786D01*
X137673657Y-82234338D01*
X137673658Y-82234338D01*
X137673661Y-82234339D01*
X137870403Y-82265500D01*
X137870404Y-82265500D01*
X138069596Y-82265500D01*
X138069597Y-82265500D01*
X138266339Y-82234339D01*
X138266342Y-82234338D01*
X138266343Y-82234338D01*
X138455780Y-82172786D01*
X138455780Y-82172785D01*
X138455783Y-82172785D01*
X138633266Y-82082353D01*
X138794418Y-81965269D01*
X138935269Y-81824418D01*
X139052353Y-81663266D01*
X139142785Y-81485783D01*
X139150827Y-81461031D01*
X139204338Y-81296343D01*
X139204338Y-81296342D01*
X139204339Y-81296339D01*
X139235500Y-81099597D01*
X139235500Y-80900403D01*
X139204339Y-80703661D01*
X139204338Y-80703657D01*
X139204338Y-80703656D01*
X139142786Y-80514219D01*
X139052352Y-80336733D01*
X138935269Y-80175582D01*
X138794418Y-80034731D01*
X138633266Y-79917647D01*
X138455780Y-79827213D01*
X138266342Y-79765661D01*
X138118782Y-79742290D01*
X138069597Y-79734500D01*
X137870403Y-79734500D01*
X137804822Y-79744887D01*
X137673659Y-79765661D01*
X137673656Y-79765661D01*
X137484219Y-79827213D01*
X137306733Y-79917647D01*
X137214790Y-79984447D01*
X137145582Y-80034731D01*
X137145580Y-80034733D01*
X137145579Y-80034733D01*
X137004733Y-80175579D01*
X137004733Y-80175580D01*
X137004731Y-80175582D01*
X136954447Y-80244790D01*
X136887647Y-80336733D01*
X136810485Y-80488172D01*
X136762510Y-80538968D01*
X136694689Y-80555763D01*
X136628554Y-80533225D01*
X136589515Y-80488172D01*
X136512352Y-80336733D01*
X136395269Y-80175582D01*
X136254418Y-80034731D01*
X136093266Y-79917647D01*
X135915780Y-79827213D01*
X135726342Y-79765661D01*
X135578782Y-79742290D01*
X135529597Y-79734500D01*
X135330403Y-79734500D01*
X135264822Y-79744887D01*
X135133659Y-79765661D01*
X135133656Y-79765661D01*
X134944219Y-79827213D01*
X134766733Y-79917647D01*
X134674790Y-79984447D01*
X134605582Y-80034731D01*
X134605580Y-80034733D01*
X134605579Y-80034733D01*
X134464733Y-80175579D01*
X134464733Y-80175580D01*
X134464731Y-80175582D01*
X134414447Y-80244790D01*
X134347647Y-80336733D01*
X134270485Y-80488172D01*
X134222510Y-80538968D01*
X134154689Y-80555763D01*
X134088554Y-80533225D01*
X134049515Y-80488172D01*
X133972352Y-80336733D01*
X133855269Y-80175582D01*
X133714418Y-80034731D01*
X133553266Y-79917647D01*
X133375780Y-79827213D01*
X133186342Y-79765661D01*
X133038782Y-79742290D01*
X132989597Y-79734500D01*
X132790403Y-79734500D01*
X132724822Y-79744887D01*
X132593659Y-79765661D01*
X132593656Y-79765661D01*
X132404219Y-79827213D01*
X132226733Y-79917647D01*
X132134790Y-79984447D01*
X132065582Y-80034731D01*
X132065580Y-80034733D01*
X132065579Y-80034733D01*
X131924733Y-80175579D01*
X131924733Y-80175580D01*
X131924731Y-80175582D01*
X131874447Y-80244790D01*
X131807647Y-80336733D01*
X131730485Y-80488172D01*
X131682510Y-80538968D01*
X131614689Y-80555763D01*
X131548554Y-80533225D01*
X131509515Y-80488172D01*
X131432352Y-80336733D01*
X131315269Y-80175582D01*
X131174418Y-80034731D01*
X131013266Y-79917647D01*
X130835780Y-79827213D01*
X130646342Y-79765661D01*
X130498782Y-79742290D01*
X130449597Y-79734500D01*
X130250403Y-79734500D01*
X130184822Y-79744887D01*
X130053659Y-79765661D01*
X130053656Y-79765661D01*
X129864219Y-79827213D01*
X129686733Y-79917647D01*
X129594790Y-79984447D01*
X129525582Y-80034731D01*
X129525580Y-80034733D01*
X129525579Y-80034733D01*
X129384733Y-80175579D01*
X129384733Y-80175580D01*
X129384731Y-80175582D01*
X129334447Y-80244790D01*
X129267647Y-80336733D01*
X129190485Y-80488172D01*
X129142510Y-80538968D01*
X129074689Y-80555763D01*
X129008554Y-80533225D01*
X128969515Y-80488172D01*
X128892352Y-80336733D01*
X128775269Y-80175582D01*
X128634418Y-80034731D01*
X128473266Y-79917647D01*
X128295780Y-79827213D01*
X128106342Y-79765661D01*
X127958782Y-79742290D01*
X127909597Y-79734500D01*
X127710403Y-79734500D01*
X127644822Y-79744887D01*
X127513659Y-79765661D01*
X127513656Y-79765661D01*
X127324219Y-79827213D01*
X127146733Y-79917647D01*
X127054790Y-79984447D01*
X126985582Y-80034731D01*
X126985580Y-80034733D01*
X126985579Y-80034733D01*
X126844733Y-80175579D01*
X126844733Y-80175580D01*
X126844731Y-80175582D01*
X126794447Y-80244790D01*
X126727647Y-80336733D01*
X126650485Y-80488172D01*
X126602510Y-80538968D01*
X126534689Y-80555763D01*
X126468554Y-80533225D01*
X126429515Y-80488172D01*
X126352352Y-80336733D01*
X126235269Y-80175582D01*
X126094418Y-80034731D01*
X125933266Y-79917647D01*
X125755780Y-79827213D01*
X125566342Y-79765661D01*
X125418782Y-79742290D01*
X125369597Y-79734500D01*
X125170403Y-79734500D01*
X125104822Y-79744887D01*
X124973659Y-79765661D01*
X124973656Y-79765661D01*
X124784219Y-79827213D01*
X124606733Y-79917647D01*
X124514790Y-79984447D01*
X124445582Y-80034731D01*
X124445580Y-80034733D01*
X124445579Y-80034733D01*
X124304733Y-80175579D01*
X124304733Y-80175580D01*
X124304731Y-80175582D01*
X124254447Y-80244790D01*
X124187647Y-80336733D01*
X124110485Y-80488172D01*
X124062510Y-80538968D01*
X123994689Y-80555763D01*
X123928554Y-80533225D01*
X123889515Y-80488172D01*
X123812352Y-80336733D01*
X123695269Y-80175582D01*
X123554418Y-80034731D01*
X123393266Y-79917647D01*
X123215780Y-79827213D01*
X123026342Y-79765661D01*
X122878782Y-79742290D01*
X122829597Y-79734500D01*
X122630403Y-79734500D01*
X122564822Y-79744887D01*
X122433659Y-79765661D01*
X122433656Y-79765661D01*
X122244219Y-79827213D01*
X122066733Y-79917647D01*
X121974790Y-79984447D01*
X121905582Y-80034731D01*
X121905580Y-80034733D01*
X121905579Y-80034733D01*
X121764733Y-80175579D01*
X121764733Y-80175580D01*
X121764731Y-80175582D01*
X121714447Y-80244790D01*
X121647647Y-80336733D01*
X121570485Y-80488172D01*
X121522510Y-80538968D01*
X121454689Y-80555763D01*
X121388554Y-80533225D01*
X121349515Y-80488172D01*
X121272352Y-80336733D01*
X121155269Y-80175582D01*
X121014418Y-80034731D01*
X120853266Y-79917647D01*
X120675780Y-79827213D01*
X120486342Y-79765661D01*
X120338782Y-79742290D01*
X120289597Y-79734500D01*
X120090403Y-79734500D01*
X120024822Y-79744887D01*
X119893659Y-79765661D01*
X119893656Y-79765661D01*
X119704219Y-79827213D01*
X119526733Y-79917647D01*
X119434790Y-79984447D01*
X119365582Y-80034731D01*
X119365580Y-80034733D01*
X119365579Y-80034733D01*
X119224733Y-80175579D01*
X119224733Y-80175580D01*
X119224731Y-80175582D01*
X119174447Y-80244790D01*
X119107647Y-80336733D01*
X119030485Y-80488172D01*
X118982510Y-80538968D01*
X118914689Y-80555763D01*
X118848554Y-80533225D01*
X118809515Y-80488172D01*
X118732352Y-80336733D01*
X118615269Y-80175582D01*
X118474418Y-80034731D01*
X118313266Y-79917647D01*
X118135780Y-79827213D01*
X117946342Y-79765661D01*
X117798782Y-79742290D01*
X117749597Y-79734500D01*
X117550403Y-79734500D01*
X117484822Y-79744887D01*
X117353659Y-79765661D01*
X117353656Y-79765661D01*
X117164219Y-79827213D01*
X116986733Y-79917647D01*
X116894790Y-79984447D01*
X116825582Y-80034731D01*
X116825580Y-80034733D01*
X116825579Y-80034733D01*
X116684733Y-80175579D01*
X116684733Y-80175580D01*
X116684731Y-80175582D01*
X116634447Y-80244790D01*
X116567647Y-80336733D01*
X116490485Y-80488172D01*
X116442510Y-80538968D01*
X116374689Y-80555763D01*
X116308554Y-80533225D01*
X116269515Y-80488172D01*
X116192352Y-80336733D01*
X116075269Y-80175582D01*
X115934418Y-80034731D01*
X115773266Y-79917647D01*
X115595780Y-79827213D01*
X115406342Y-79765661D01*
X115258782Y-79742290D01*
X115209597Y-79734500D01*
X115010403Y-79734500D01*
X114944822Y-79744887D01*
X114813659Y-79765661D01*
X114813656Y-79765661D01*
X114624219Y-79827213D01*
X114446733Y-79917647D01*
X114354790Y-79984447D01*
X114285582Y-80034731D01*
X114285580Y-80034733D01*
X114285579Y-80034733D01*
X114144733Y-80175579D01*
X114144733Y-80175580D01*
X114144731Y-80175582D01*
X114094447Y-80244790D01*
X114027647Y-80336733D01*
X113950485Y-80488172D01*
X113902510Y-80538968D01*
X113834689Y-80555763D01*
X113768554Y-80533225D01*
X113729515Y-80488172D01*
X113652352Y-80336733D01*
X113535269Y-80175582D01*
X113394418Y-80034731D01*
X113233266Y-79917647D01*
X113055780Y-79827213D01*
X112866342Y-79765661D01*
X112718782Y-79742290D01*
X112669597Y-79734500D01*
X112470403Y-79734500D01*
X112404822Y-79744887D01*
X112273659Y-79765661D01*
X112273656Y-79765661D01*
X112084219Y-79827213D01*
X111906733Y-79917647D01*
X111814790Y-79984447D01*
X111745582Y-80034731D01*
X111745580Y-80034733D01*
X111745579Y-80034733D01*
X111604733Y-80175579D01*
X111604733Y-80175580D01*
X111604731Y-80175582D01*
X111554447Y-80244790D01*
X111487647Y-80336733D01*
X111410485Y-80488172D01*
X111362510Y-80538968D01*
X111294689Y-80555763D01*
X111228554Y-80533225D01*
X111189515Y-80488172D01*
X111112352Y-80336733D01*
X110995269Y-80175582D01*
X110854418Y-80034731D01*
X110693266Y-79917647D01*
X110515780Y-79827213D01*
X110326342Y-79765661D01*
X110178782Y-79742290D01*
X110129597Y-79734500D01*
X109930403Y-79734500D01*
X109864822Y-79744887D01*
X109733659Y-79765661D01*
X109733656Y-79765661D01*
X109544219Y-79827213D01*
X109366733Y-79917647D01*
X109274790Y-79984447D01*
X109205582Y-80034731D01*
X109205580Y-80034733D01*
X109205579Y-80034733D01*
X109064733Y-80175579D01*
X109064733Y-80175580D01*
X109064731Y-80175582D01*
X109014447Y-80244790D01*
X108947647Y-80336733D01*
X108870485Y-80488172D01*
X108822510Y-80538968D01*
X108754689Y-80555763D01*
X108688554Y-80533225D01*
X108649515Y-80488172D01*
X108572352Y-80336733D01*
X108455269Y-80175582D01*
X108314418Y-80034731D01*
X108153266Y-79917647D01*
X107975780Y-79827213D01*
X107786342Y-79765661D01*
X107638782Y-79742290D01*
X107589597Y-79734500D01*
X107390403Y-79734500D01*
X107324822Y-79744887D01*
X107193659Y-79765661D01*
X107193656Y-79765661D01*
X107004219Y-79827213D01*
X106826733Y-79917647D01*
X106734790Y-79984447D01*
X106665582Y-80034731D01*
X106665580Y-80034733D01*
X106665579Y-80034733D01*
X106524733Y-80175579D01*
X106524733Y-80175580D01*
X106524731Y-80175582D01*
X106474447Y-80244790D01*
X106407647Y-80336733D01*
X106330485Y-80488172D01*
X106282510Y-80538968D01*
X106214689Y-80555763D01*
X106148554Y-80533225D01*
X106109515Y-80488172D01*
X106032352Y-80336733D01*
X105915269Y-80175582D01*
X105774418Y-80034731D01*
X105613266Y-79917647D01*
X105435780Y-79827213D01*
X105246342Y-79765661D01*
X105098782Y-79742290D01*
X105049597Y-79734500D01*
X104850403Y-79734500D01*
X104784822Y-79744887D01*
X104653659Y-79765661D01*
X104653656Y-79765661D01*
X104464219Y-79827213D01*
X104286733Y-79917647D01*
X104194790Y-79984447D01*
X104125582Y-80034731D01*
X104125580Y-80034733D01*
X104125579Y-80034733D01*
X103984733Y-80175579D01*
X103984733Y-80175580D01*
X103984731Y-80175582D01*
X103934447Y-80244790D01*
X103867647Y-80336733D01*
X103790485Y-80488172D01*
X103742510Y-80538968D01*
X103674689Y-80555763D01*
X103608554Y-80533225D01*
X103569515Y-80488172D01*
X103492352Y-80336733D01*
X103375269Y-80175582D01*
X103234418Y-80034731D01*
X103073266Y-79917647D01*
X102895780Y-79827213D01*
X102706342Y-79765661D01*
X102558782Y-79742290D01*
X102509597Y-79734500D01*
X102310403Y-79734500D01*
X102244822Y-79744887D01*
X102113659Y-79765661D01*
X102113656Y-79765661D01*
X101924219Y-79827213D01*
X101746733Y-79917647D01*
X101654790Y-79984447D01*
X101585582Y-80034731D01*
X101585580Y-80034733D01*
X101585579Y-80034733D01*
X101444733Y-80175579D01*
X101444733Y-80175580D01*
X101444731Y-80175582D01*
X101394447Y-80244790D01*
X101327647Y-80336733D01*
X101250485Y-80488172D01*
X101202510Y-80538968D01*
X101134689Y-80555763D01*
X101068554Y-80533225D01*
X101029515Y-80488172D01*
X100952352Y-80336733D01*
X100835269Y-80175582D01*
X100694418Y-80034731D01*
X100533266Y-79917647D01*
X100355780Y-79827213D01*
X100166342Y-79765661D01*
X100018782Y-79742290D01*
X99969597Y-79734500D01*
X99770403Y-79734500D01*
X99704822Y-79744887D01*
X99573659Y-79765661D01*
X99573656Y-79765661D01*
X99384219Y-79827213D01*
X99206733Y-79917647D01*
X99114790Y-79984447D01*
X99045582Y-80034731D01*
X99045580Y-80034733D01*
X99045579Y-80034733D01*
X98904733Y-80175579D01*
X98904733Y-80175580D01*
X98904731Y-80175582D01*
X98854447Y-80244790D01*
X98787647Y-80336733D01*
X98710485Y-80488172D01*
X98662510Y-80538968D01*
X98594689Y-80555763D01*
X98528554Y-80533225D01*
X98489515Y-80488172D01*
X98412352Y-80336733D01*
X98295269Y-80175582D01*
X98154418Y-80034731D01*
X97993266Y-79917647D01*
X97815780Y-79827213D01*
X97626342Y-79765661D01*
X97478782Y-79742290D01*
X97429597Y-79734500D01*
X97230403Y-79734500D01*
X97164822Y-79744887D01*
X97033659Y-79765661D01*
X97033656Y-79765661D01*
X96844219Y-79827213D01*
X96666733Y-79917647D01*
X96574790Y-79984447D01*
X96505582Y-80034731D01*
X96505580Y-80034733D01*
X96505579Y-80034733D01*
X96364733Y-80175579D01*
X96364733Y-80175580D01*
X96364731Y-80175582D01*
X96314447Y-80244790D01*
X96247647Y-80336733D01*
X96170485Y-80488172D01*
X96122510Y-80538968D01*
X96054689Y-80555763D01*
X95988554Y-80533225D01*
X95949515Y-80488172D01*
X95872352Y-80336733D01*
X95755269Y-80175582D01*
X95614418Y-80034731D01*
X95453266Y-79917647D01*
X95275780Y-79827213D01*
X95086342Y-79765661D01*
X94938782Y-79742290D01*
X94889597Y-79734500D01*
X94690403Y-79734500D01*
X94624822Y-79744887D01*
X94493659Y-79765661D01*
X94493656Y-79765661D01*
X94304219Y-79827213D01*
X94126733Y-79917647D01*
X94034790Y-79984447D01*
X93965582Y-80034731D01*
X93965580Y-80034733D01*
X93965579Y-80034733D01*
X93824733Y-80175579D01*
X93824733Y-80175580D01*
X93824731Y-80175582D01*
X93774447Y-80244790D01*
X93707647Y-80336733D01*
X93630485Y-80488172D01*
X93582510Y-80538968D01*
X93514689Y-80555763D01*
X93448554Y-80533225D01*
X93409515Y-80488172D01*
X93332352Y-80336733D01*
X93215269Y-80175582D01*
X93074418Y-80034731D01*
X92913266Y-79917647D01*
X92735780Y-79827213D01*
X92546342Y-79765661D01*
X92398782Y-79742290D01*
X92349597Y-79734500D01*
X92150403Y-79734500D01*
X92084822Y-79744887D01*
X91953659Y-79765661D01*
X91953656Y-79765661D01*
X91764219Y-79827213D01*
X91586733Y-79917647D01*
X91494790Y-79984447D01*
X91425582Y-80034731D01*
X91425580Y-80034733D01*
X91425579Y-80034733D01*
X91284733Y-80175579D01*
X91284733Y-80175580D01*
X91284731Y-80175582D01*
X91234447Y-80244790D01*
X91167647Y-80336733D01*
X91090485Y-80488172D01*
X91042510Y-80538968D01*
X90974689Y-80555763D01*
X90908554Y-80533225D01*
X90869515Y-80488172D01*
X90792352Y-80336733D01*
X90675269Y-80175582D01*
X90534418Y-80034731D01*
X90373266Y-79917647D01*
X90195780Y-79827213D01*
X90006342Y-79765661D01*
X89858782Y-79742290D01*
X89809597Y-79734500D01*
X89610403Y-79734500D01*
X89544822Y-79744887D01*
X89413659Y-79765661D01*
X89413656Y-79765661D01*
X89224219Y-79827213D01*
X89046733Y-79917647D01*
X88954790Y-79984447D01*
X88885582Y-80034731D01*
X88885580Y-80034733D01*
X88885579Y-80034733D01*
X88744733Y-80175579D01*
X88744733Y-80175580D01*
X88744731Y-80175582D01*
X88694447Y-80244790D01*
X88627647Y-80336733D01*
X88550485Y-80488172D01*
X88502510Y-80538968D01*
X88434689Y-80555763D01*
X88368554Y-80533225D01*
X88329515Y-80488172D01*
X88252352Y-80336733D01*
X88135269Y-80175582D01*
X87994418Y-80034731D01*
X87833266Y-79917647D01*
X87655780Y-79827213D01*
X87466342Y-79765661D01*
X87318782Y-79742290D01*
X87269597Y-79734500D01*
X87070403Y-79734500D01*
X87004822Y-79744887D01*
X86873659Y-79765661D01*
X86873656Y-79765661D01*
X86684219Y-79827213D01*
X86506733Y-79917647D01*
X86414790Y-79984447D01*
X86345582Y-80034731D01*
X86345580Y-80034733D01*
X86345579Y-80034733D01*
X86204733Y-80175579D01*
X86204733Y-80175580D01*
X86204731Y-80175582D01*
X86154447Y-80244790D01*
X86087647Y-80336733D01*
X86010485Y-80488172D01*
X85962510Y-80538968D01*
X85894689Y-80555763D01*
X85828554Y-80533225D01*
X85789515Y-80488172D01*
X85712352Y-80336733D01*
X85595269Y-80175582D01*
X85454418Y-80034731D01*
X85293266Y-79917647D01*
X85115780Y-79827213D01*
X84926342Y-79765661D01*
X84778782Y-79742290D01*
X84729597Y-79734500D01*
X84530403Y-79734500D01*
X84464822Y-79744887D01*
X84333659Y-79765661D01*
X84333656Y-79765661D01*
X84144219Y-79827213D01*
X83966733Y-79917647D01*
X83874790Y-79984447D01*
X83805582Y-80034731D01*
X83805580Y-80034733D01*
X83805579Y-80034733D01*
X83664733Y-80175579D01*
X83664733Y-80175580D01*
X83664731Y-80175582D01*
X83614447Y-80244790D01*
X83547647Y-80336733D01*
X83457213Y-80514219D01*
X83395661Y-80703656D01*
X83395661Y-80703659D01*
X83364500Y-80900403D01*
X82600500Y-80900403D01*
X82600500Y-79300097D01*
X82620185Y-79233058D01*
X82636819Y-79212416D01*
X100212416Y-61636819D01*
X100273739Y-61603334D01*
X100300097Y-61600500D01*
X109623331Y-61600500D01*
X109623347Y-61600501D01*
X109630943Y-61600501D01*
X109789054Y-61600501D01*
X109789057Y-61600501D01*
X109941785Y-61559577D01*
X109991904Y-61530639D01*
X110078716Y-61480520D01*
X110190520Y-61368716D01*
X110190520Y-61368714D01*
X110200728Y-61358507D01*
X110200729Y-61358504D01*
X112152979Y-59406255D01*
X112214300Y-59372772D01*
X112269618Y-59373367D01*
X112273650Y-59374335D01*
X112273661Y-59374339D01*
X112273671Y-59374340D01*
X112273673Y-59374341D01*
X112349521Y-59386354D01*
X112470403Y-59405500D01*
X112470404Y-59405500D01*
X112669596Y-59405500D01*
X112669597Y-59405500D01*
X112866339Y-59374339D01*
X112866342Y-59374338D01*
X112866343Y-59374338D01*
X113055780Y-59312786D01*
X113055780Y-59312785D01*
X113055783Y-59312785D01*
X113233266Y-59222353D01*
X113394418Y-59105269D01*
X113535269Y-58964418D01*
X113652353Y-58803266D01*
X113729515Y-58651827D01*
X113777490Y-58601031D01*
X113845311Y-58584236D01*
X113911446Y-58606773D01*
X113950485Y-58651827D01*
X114027647Y-58803266D01*
X114144731Y-58964418D01*
X114285582Y-59105269D01*
X114446734Y-59222353D01*
X114623304Y-59312320D01*
X114624219Y-59312786D01*
X114813657Y-59374338D01*
X114813658Y-59374338D01*
X114813661Y-59374339D01*
X115010403Y-59405500D01*
X115010404Y-59405500D01*
X115209596Y-59405500D01*
X115209597Y-59405500D01*
X115406339Y-59374339D01*
X115406342Y-59374338D01*
X115406343Y-59374338D01*
X115595780Y-59312786D01*
X115595780Y-59312785D01*
X115595783Y-59312785D01*
X115773266Y-59222353D01*
X115934418Y-59105269D01*
X116075269Y-58964418D01*
X116192353Y-58803266D01*
X116269515Y-58651827D01*
X116317490Y-58601031D01*
X116385311Y-58584236D01*
X116451446Y-58606773D01*
X116490485Y-58651827D01*
X116567647Y-58803266D01*
X116684731Y-58964418D01*
X116825582Y-59105269D01*
X116986734Y-59222353D01*
X117163304Y-59312320D01*
X117164219Y-59312786D01*
X117353657Y-59374338D01*
X117353658Y-59374338D01*
X117353661Y-59374339D01*
X117550403Y-59405500D01*
X117550404Y-59405500D01*
X117749596Y-59405500D01*
X117749597Y-59405500D01*
X117946339Y-59374339D01*
X117946342Y-59374338D01*
X117946343Y-59374338D01*
X118135780Y-59312786D01*
X118135780Y-59312785D01*
X118135783Y-59312785D01*
X118313266Y-59222353D01*
X118474418Y-59105269D01*
X118615269Y-58964418D01*
X118732353Y-58803266D01*
X118809515Y-58651827D01*
X118857490Y-58601031D01*
X118925311Y-58584236D01*
X118991446Y-58606773D01*
X119030485Y-58651827D01*
X119107647Y-58803266D01*
X119224731Y-58964418D01*
X119365582Y-59105269D01*
X119526734Y-59222353D01*
X119703304Y-59312320D01*
X119704219Y-59312786D01*
X119893657Y-59374338D01*
X119893658Y-59374338D01*
X119893661Y-59374339D01*
X120090403Y-59405500D01*
X120090404Y-59405500D01*
X120289596Y-59405500D01*
X120289597Y-59405500D01*
X120486339Y-59374339D01*
X120486342Y-59374338D01*
X120486343Y-59374338D01*
X120675780Y-59312786D01*
X120675780Y-59312785D01*
X120675783Y-59312785D01*
X120853266Y-59222353D01*
X121014418Y-59105269D01*
X121155269Y-58964418D01*
X121272353Y-58803266D01*
X121349515Y-58651827D01*
X121397490Y-58601031D01*
X121465311Y-58584236D01*
X121531446Y-58606773D01*
X121570485Y-58651827D01*
X121647647Y-58803266D01*
X121764731Y-58964418D01*
X121905582Y-59105269D01*
X122066734Y-59222353D01*
X122243304Y-59312320D01*
X122244219Y-59312786D01*
X122433657Y-59374338D01*
X122433658Y-59374338D01*
X122433661Y-59374339D01*
X122630403Y-59405500D01*
X122630404Y-59405500D01*
X122829596Y-59405500D01*
X122829597Y-59405500D01*
X123026339Y-59374339D01*
X123026342Y-59374338D01*
X123026343Y-59374338D01*
X123215780Y-59312786D01*
X123215780Y-59312785D01*
X123215783Y-59312785D01*
X123393266Y-59222353D01*
X123554418Y-59105269D01*
X123695269Y-58964418D01*
X123812353Y-58803266D01*
X123889515Y-58651827D01*
X123937490Y-58601031D01*
X124005311Y-58584236D01*
X124071446Y-58606773D01*
X124110485Y-58651827D01*
X124187647Y-58803266D01*
X124304731Y-58964418D01*
X124445582Y-59105269D01*
X124606734Y-59222353D01*
X124783304Y-59312320D01*
X124784219Y-59312786D01*
X124973657Y-59374338D01*
X124973658Y-59374338D01*
X124973661Y-59374339D01*
X125170403Y-59405500D01*
X125170404Y-59405500D01*
X125369596Y-59405500D01*
X125369597Y-59405500D01*
X125566339Y-59374339D01*
X125566342Y-59374338D01*
X125566343Y-59374338D01*
X125755780Y-59312786D01*
X125755780Y-59312785D01*
X125755783Y-59312785D01*
X125933266Y-59222353D01*
X126094418Y-59105269D01*
X126235269Y-58964418D01*
X126352353Y-58803266D01*
X126429515Y-58651827D01*
X126477490Y-58601031D01*
X126545311Y-58584236D01*
X126611446Y-58606773D01*
X126650485Y-58651827D01*
X126727647Y-58803266D01*
X126844731Y-58964418D01*
X126985582Y-59105269D01*
X127146734Y-59222353D01*
X127323304Y-59312320D01*
X127324219Y-59312786D01*
X127513657Y-59374338D01*
X127513658Y-59374338D01*
X127513661Y-59374339D01*
X127710403Y-59405500D01*
X127710404Y-59405500D01*
X127909596Y-59405500D01*
X127909597Y-59405500D01*
X128106339Y-59374339D01*
X128106342Y-59374338D01*
X128106343Y-59374338D01*
X128295780Y-59312786D01*
X128295780Y-59312785D01*
X128295783Y-59312785D01*
X128473266Y-59222353D01*
X128634418Y-59105269D01*
X128775269Y-58964418D01*
X128892353Y-58803266D01*
X128969515Y-58651827D01*
X129017490Y-58601031D01*
X129085311Y-58584236D01*
X129151446Y-58606773D01*
X129190485Y-58651827D01*
X129267647Y-58803266D01*
X129384731Y-58964418D01*
X129525582Y-59105269D01*
X129686734Y-59222353D01*
X129863304Y-59312320D01*
X129864219Y-59312786D01*
X130053657Y-59374338D01*
X130053658Y-59374338D01*
X130053661Y-59374339D01*
X130250403Y-59405500D01*
X130250404Y-59405500D01*
X130449596Y-59405500D01*
X130449597Y-59405500D01*
X130646339Y-59374339D01*
X130646342Y-59374338D01*
X130646343Y-59374338D01*
X130835780Y-59312786D01*
X130835780Y-59312785D01*
X130835783Y-59312785D01*
X131013266Y-59222353D01*
X131174418Y-59105269D01*
X131315269Y-58964418D01*
X131432353Y-58803266D01*
X131509515Y-58651827D01*
X131557490Y-58601031D01*
X131625311Y-58584236D01*
X131691446Y-58606773D01*
X131730485Y-58651827D01*
X131807647Y-58803266D01*
X131924731Y-58964418D01*
X132065582Y-59105269D01*
X132226734Y-59222353D01*
X132403304Y-59312320D01*
X132404219Y-59312786D01*
X132593657Y-59374338D01*
X132593658Y-59374338D01*
X132593661Y-59374339D01*
X132790403Y-59405500D01*
X132790404Y-59405500D01*
X132989596Y-59405500D01*
X132989597Y-59405500D01*
X133186339Y-59374339D01*
X133186342Y-59374338D01*
X133186343Y-59374338D01*
X133375780Y-59312786D01*
X133375780Y-59312785D01*
X133375783Y-59312785D01*
X133553266Y-59222353D01*
X133714418Y-59105269D01*
X133855269Y-58964418D01*
X133972353Y-58803266D01*
X134049515Y-58651827D01*
X134097490Y-58601031D01*
X134165311Y-58584236D01*
X134231446Y-58606773D01*
X134270485Y-58651827D01*
X134347647Y-58803266D01*
X134464731Y-58964418D01*
X134605582Y-59105269D01*
X134766734Y-59222353D01*
X134943304Y-59312320D01*
X134944219Y-59312786D01*
X135133657Y-59374338D01*
X135133658Y-59374338D01*
X135133661Y-59374339D01*
X135330403Y-59405500D01*
X135330404Y-59405500D01*
X135529596Y-59405500D01*
X135529597Y-59405500D01*
X135726339Y-59374339D01*
X135726342Y-59374338D01*
X135726343Y-59374338D01*
X135915780Y-59312786D01*
X135915780Y-59312785D01*
X135915783Y-59312785D01*
X136093266Y-59222353D01*
X136254418Y-59105269D01*
X136395269Y-58964418D01*
X136480184Y-58847542D01*
X136535511Y-58804878D01*
X136605125Y-58798899D01*
X136666920Y-58831504D01*
X136701277Y-58892343D01*
X136704500Y-58920426D01*
X136704500Y-58952868D01*
X136704501Y-58952876D01*
X136710908Y-59012483D01*
X136761202Y-59147328D01*
X136761206Y-59147335D01*
X136847452Y-59262544D01*
X136847455Y-59262547D01*
X136962664Y-59348793D01*
X136962671Y-59348797D01*
X137097517Y-59399091D01*
X137097516Y-59399091D01*
X137104444Y-59399835D01*
X137157127Y-59405500D01*
X138782872Y-59405499D01*
X138842483Y-59399091D01*
X138977331Y-59348796D01*
X139092546Y-59262546D01*
X139178796Y-59147331D01*
X139229091Y-59012483D01*
X139235500Y-58952873D01*
X139235499Y-57327128D01*
X139229091Y-57267517D01*
X139178796Y-57132669D01*
X139178795Y-57132668D01*
X139178793Y-57132664D01*
X139092547Y-57017455D01*
X139092544Y-57017452D01*
X138977335Y-56931206D01*
X138977328Y-56931202D01*
X138842482Y-56880908D01*
X138842483Y-56880908D01*
X138782883Y-56874501D01*
X138782881Y-56874500D01*
X138782873Y-56874500D01*
X138782864Y-56874500D01*
X137157129Y-56874500D01*
X137157123Y-56874501D01*
X137097516Y-56880908D01*
X136962671Y-56931202D01*
X136962664Y-56931206D01*
X136847455Y-57017452D01*
X136847452Y-57017455D01*
X136761206Y-57132664D01*
X136761202Y-57132671D01*
X136710908Y-57267517D01*
X136705741Y-57315580D01*
X136704501Y-57327123D01*
X136704500Y-57327135D01*
X136704500Y-57359568D01*
X136684815Y-57426607D01*
X136632011Y-57472362D01*
X136562853Y-57482306D01*
X136499297Y-57453281D01*
X136480182Y-57432454D01*
X136427227Y-57359568D01*
X136395269Y-57315582D01*
X136254418Y-57174731D01*
X136093266Y-57057647D01*
X135930346Y-56974635D01*
X135915780Y-56967213D01*
X135726342Y-56905661D01*
X135578782Y-56882290D01*
X135529597Y-56874500D01*
X135330403Y-56874500D01*
X135264822Y-56884887D01*
X135133659Y-56905661D01*
X135133656Y-56905661D01*
X134944219Y-56967213D01*
X134766733Y-57057647D01*
X134728286Y-57085581D01*
X134605582Y-57174731D01*
X134605580Y-57174733D01*
X134605579Y-57174733D01*
X134464733Y-57315579D01*
X134464733Y-57315580D01*
X134464731Y-57315582D01*
X134432773Y-57359568D01*
X134347647Y-57476733D01*
X134270485Y-57628172D01*
X134222510Y-57678968D01*
X134154689Y-57695763D01*
X134088554Y-57673225D01*
X134049515Y-57628172D01*
X133972485Y-57476994D01*
X133972353Y-57476734D01*
X133855269Y-57315582D01*
X133714418Y-57174731D01*
X133553266Y-57057647D01*
X133390346Y-56974635D01*
X133375780Y-56967213D01*
X133186342Y-56905661D01*
X133038782Y-56882290D01*
X132989597Y-56874500D01*
X132790403Y-56874500D01*
X132724822Y-56884887D01*
X132593659Y-56905661D01*
X132593656Y-56905661D01*
X132404219Y-56967213D01*
X132226733Y-57057647D01*
X132188286Y-57085581D01*
X132065582Y-57174731D01*
X132065580Y-57174733D01*
X132065579Y-57174733D01*
X131924733Y-57315579D01*
X131924733Y-57315580D01*
X131924731Y-57315582D01*
X131892773Y-57359568D01*
X131807647Y-57476733D01*
X131730485Y-57628172D01*
X131682510Y-57678968D01*
X131614689Y-57695763D01*
X131548554Y-57673225D01*
X131509515Y-57628172D01*
X131432485Y-57476994D01*
X131432353Y-57476734D01*
X131315269Y-57315582D01*
X131174418Y-57174731D01*
X131013266Y-57057647D01*
X130850346Y-56974635D01*
X130835780Y-56967213D01*
X130646342Y-56905661D01*
X130498782Y-56882290D01*
X130449597Y-56874500D01*
X130250403Y-56874500D01*
X130184822Y-56884887D01*
X130053659Y-56905661D01*
X130053656Y-56905661D01*
X129864219Y-56967213D01*
X129686733Y-57057647D01*
X129648286Y-57085581D01*
X129525582Y-57174731D01*
X129525580Y-57174733D01*
X129525579Y-57174733D01*
X129384733Y-57315579D01*
X129384733Y-57315580D01*
X129384731Y-57315582D01*
X129352773Y-57359568D01*
X129267647Y-57476733D01*
X129190485Y-57628172D01*
X129142510Y-57678968D01*
X129074689Y-57695763D01*
X129008554Y-57673225D01*
X128969515Y-57628172D01*
X128892485Y-57476994D01*
X128892353Y-57476734D01*
X128775269Y-57315582D01*
X128634418Y-57174731D01*
X128473266Y-57057647D01*
X128310346Y-56974635D01*
X128295780Y-56967213D01*
X128106342Y-56905661D01*
X127958782Y-56882290D01*
X127909597Y-56874500D01*
X127710403Y-56874500D01*
X127710400Y-56874500D01*
X127700372Y-56876088D01*
X127631080Y-56867130D01*
X127577630Y-56822131D01*
X127556994Y-56755378D01*
X127575722Y-56688065D01*
X127593294Y-56665940D01*
X128622417Y-55636819D01*
X128683740Y-55603334D01*
X128710098Y-55600500D01*
X149275500Y-55600500D01*
X149342539Y-55620185D01*
X149388294Y-55672989D01*
X149399500Y-55724500D01*
X149399500Y-85275500D01*
X149379815Y-85342539D01*
X149327011Y-85388294D01*
X149275500Y-85399500D01*
X118920943Y-85399500D01*
X118768216Y-85440423D01*
X118768209Y-85440426D01*
X118631290Y-85519475D01*
X118631282Y-85519481D01*
X118519481Y-85631282D01*
X118519475Y-85631290D01*
X118440426Y-85768209D01*
X118440423Y-85768216D01*
X118399500Y-85920943D01*
X118399500Y-132377209D01*
X118379815Y-132444248D01*
X118327011Y-132490003D01*
X118318833Y-132493391D01*
X118257671Y-132516202D01*
X118257664Y-132516206D01*
X118142455Y-132602452D01*
X118142452Y-132602455D01*
X118056206Y-132717664D01*
X118056202Y-132717671D01*
X118005908Y-132852517D01*
X117999501Y-132912116D01*
X117999501Y-132912123D01*
X117999500Y-132912135D01*
X117999500Y-134007870D01*
X117999501Y-134007876D01*
X118005908Y-134067483D01*
X118056202Y-134202328D01*
X118056203Y-134202330D01*
X118065372Y-134214578D01*
X118089788Y-134280043D01*
X118080665Y-134336340D01*
X118038432Y-134438300D01*
X118038427Y-134438317D01*
X118000000Y-134631504D01*
X118000000Y-134828495D01*
X118038427Y-135021681D01*
X118038430Y-135021693D01*
X118113807Y-135203671D01*
X118113814Y-135203684D01*
X118175270Y-135295659D01*
X118196148Y-135362337D01*
X118177663Y-135429717D01*
X118175271Y-135433440D01*
X118113370Y-135526082D01*
X118113364Y-135526093D01*
X118037950Y-135708160D01*
X118037947Y-135708170D01*
X117999500Y-135901456D01*
X117999500Y-135901459D01*
X117999500Y-136098541D01*
X117999500Y-136098543D01*
X117999499Y-136098543D01*
X118037947Y-136291829D01*
X118037950Y-136291839D01*
X118113364Y-136473907D01*
X118113371Y-136473920D01*
X118222860Y-136637781D01*
X118222863Y-136637785D01*
X118362214Y-136777136D01*
X118362218Y-136777139D01*
X118526079Y-136886628D01*
X118526092Y-136886635D01*
X118708160Y-136962049D01*
X118708165Y-136962051D01*
X118708169Y-136962051D01*
X118708170Y-136962052D01*
X118901456Y-137000500D01*
X118901459Y-137000500D01*
X119098543Y-137000500D01*
X119228582Y-136974632D01*
X119291835Y-136962051D01*
X119473914Y-136886632D01*
X119637782Y-136777139D01*
X119777139Y-136637782D01*
X119886632Y-136473914D01*
X119962051Y-136291835D01*
X120000500Y-136098541D01*
X120000500Y-135901459D01*
X120000500Y-135901456D01*
X119962052Y-135708170D01*
X119962051Y-135708169D01*
X119962051Y-135708165D01*
X119886635Y-135526093D01*
X119886635Y-135526092D01*
X119886628Y-135526079D01*
X119824728Y-135433440D01*
X119803850Y-135366763D01*
X119822334Y-135299383D01*
X119824729Y-135295657D01*
X119886189Y-135203676D01*
X119886191Y-135203673D01*
X119961569Y-135021693D01*
X119961572Y-135021681D01*
X119999999Y-134828495D01*
X120000000Y-134828492D01*
X120000000Y-134631508D01*
X119999999Y-134631504D01*
X119961573Y-134438318D01*
X119961570Y-134438309D01*
X119919333Y-134336339D01*
X119911864Y-134266870D01*
X119934629Y-134214576D01*
X119943796Y-134202331D01*
X119994091Y-134067483D01*
X120000500Y-134007873D01*
X120000499Y-132912128D01*
X119994091Y-132852517D01*
X119943796Y-132717669D01*
X119943795Y-132717668D01*
X119943793Y-132717664D01*
X119857547Y-132602455D01*
X119857544Y-132602452D01*
X119742335Y-132516206D01*
X119742328Y-132516202D01*
X119681167Y-132493391D01*
X119625233Y-132451520D01*
X119600816Y-132386056D01*
X119600500Y-132377209D01*
X119600500Y-86724500D01*
X119620185Y-86657461D01*
X119672989Y-86611706D01*
X119724500Y-86600500D01*
X136324314Y-86600500D01*
X136391353Y-86620185D01*
X136437108Y-86672989D01*
X136447052Y-86742147D01*
X136442087Y-86760247D01*
X136442527Y-86760365D01*
X136399500Y-86920943D01*
X136399500Y-132377209D01*
X136379815Y-132444248D01*
X136327011Y-132490003D01*
X136318833Y-132493391D01*
X136257671Y-132516202D01*
X136257664Y-132516206D01*
X136142455Y-132602452D01*
X136142452Y-132602455D01*
X136056206Y-132717664D01*
X136056202Y-132717671D01*
X136005908Y-132852517D01*
X135999501Y-132912116D01*
X135999501Y-132912123D01*
X135999500Y-132912135D01*
X135999500Y-134007870D01*
X135999501Y-134007876D01*
X136005908Y-134067483D01*
X136056202Y-134202328D01*
X136056203Y-134202330D01*
X136065372Y-134214578D01*
X136089788Y-134280043D01*
X136080665Y-134336340D01*
X136038432Y-134438300D01*
X136038427Y-134438317D01*
X136000000Y-134631504D01*
X136000000Y-134828495D01*
X136038427Y-135021681D01*
X136038430Y-135021693D01*
X136113807Y-135203671D01*
X136113814Y-135203684D01*
X136175270Y-135295659D01*
X136196148Y-135362337D01*
X136177663Y-135429717D01*
X136175271Y-135433440D01*
X136113370Y-135526082D01*
X136113364Y-135526093D01*
X136037950Y-135708160D01*
X136037947Y-135708170D01*
X135999500Y-135901456D01*
X135999500Y-135901459D01*
X135999500Y-136098541D01*
X135999500Y-136098543D01*
X135999499Y-136098543D01*
X136037947Y-136291829D01*
X136037950Y-136291839D01*
X136113364Y-136473907D01*
X136113371Y-136473920D01*
X136222860Y-136637781D01*
X136222863Y-136637785D01*
X136362214Y-136777136D01*
X136362218Y-136777139D01*
X136526079Y-136886628D01*
X136526092Y-136886635D01*
X136708160Y-136962049D01*
X136708165Y-136962051D01*
X136708169Y-136962051D01*
X136708170Y-136962052D01*
X136901456Y-137000500D01*
X136901459Y-137000500D01*
X137098543Y-137000500D01*
X137228582Y-136974632D01*
X137291835Y-136962051D01*
X137473914Y-136886632D01*
X137637782Y-136777139D01*
X137777139Y-136637782D01*
X137886632Y-136473914D01*
X137962051Y-136291835D01*
X138000500Y-136098541D01*
X138000500Y-135901459D01*
X138000500Y-135901456D01*
X137962052Y-135708170D01*
X137962051Y-135708169D01*
X137962051Y-135708165D01*
X137886635Y-135526093D01*
X137886635Y-135526092D01*
X137886628Y-135526079D01*
X137824728Y-135433440D01*
X137803850Y-135366763D01*
X137822334Y-135299383D01*
X137824729Y-135295657D01*
X137886189Y-135203676D01*
X137886191Y-135203673D01*
X137961569Y-135021693D01*
X137961572Y-135021681D01*
X137999999Y-134828495D01*
X138000000Y-134828492D01*
X138000000Y-134631508D01*
X137999999Y-134631504D01*
X137961573Y-134438318D01*
X137961570Y-134438309D01*
X137919333Y-134336339D01*
X137911864Y-134266870D01*
X137934629Y-134214576D01*
X137943796Y-134202331D01*
X137994091Y-134067483D01*
X138000500Y-134007873D01*
X138000499Y-132912128D01*
X137994091Y-132852517D01*
X137943796Y-132717669D01*
X137943795Y-132717668D01*
X137943793Y-132717664D01*
X137857547Y-132602455D01*
X137857544Y-132602452D01*
X137742335Y-132516206D01*
X137742328Y-132516202D01*
X137681167Y-132493391D01*
X137625233Y-132451520D01*
X137600816Y-132386056D01*
X137600500Y-132377209D01*
X137600500Y-96682699D01*
X149499500Y-96682699D01*
X149499500Y-97317300D01*
X149537815Y-97950718D01*
X149614304Y-98580666D01*
X149614305Y-98580674D01*
X149728692Y-99204862D01*
X149728693Y-99204867D01*
X149880557Y-99821005D01*
X149880562Y-99821021D01*
X150069345Y-100426847D01*
X150294370Y-101020191D01*
X150554813Y-101598872D01*
X150849727Y-102160783D01*
X151178009Y-102703828D01*
X151178025Y-102703853D01*
X151538498Y-103226088D01*
X151929852Y-103725616D01*
X151929853Y-103725617D01*
X152350656Y-104200605D01*
X152350690Y-104200641D01*
X152799358Y-104649309D01*
X152799394Y-104649343D01*
X153274382Y-105070146D01*
X153274383Y-105070147D01*
X153773911Y-105461501D01*
X154142732Y-105716080D01*
X154296162Y-105821985D01*
X154839226Y-106150278D01*
X155401122Y-106445184D01*
X155979798Y-106705625D01*
X155979805Y-106705627D01*
X155979808Y-106705629D01*
X156078973Y-106743237D01*
X156573144Y-106930652D01*
X157178994Y-107119442D01*
X157795138Y-107271308D01*
X158419326Y-107385695D01*
X159049283Y-107462185D01*
X159682708Y-107500500D01*
X159682721Y-107500500D01*
X160317279Y-107500500D01*
X160317292Y-107500500D01*
X160950717Y-107462185D01*
X161580674Y-107385695D01*
X162204862Y-107271308D01*
X162821006Y-107119442D01*
X163426856Y-106930652D01*
X164020202Y-106705625D01*
X164598878Y-106445184D01*
X165160774Y-106150278D01*
X165703838Y-105821985D01*
X166226090Y-105461500D01*
X166544772Y-105211829D01*
X166725616Y-105070147D01*
X166725617Y-105070146D01*
X166783867Y-105018541D01*
X167200616Y-104649334D01*
X167649334Y-104200616D01*
X168070141Y-103725623D01*
X168070146Y-103725617D01*
X168070147Y-103725616D01*
X168361412Y-103353843D01*
X168461500Y-103226090D01*
X168821985Y-102703838D01*
X169150278Y-102160774D01*
X169445184Y-101598878D01*
X169705625Y-101020202D01*
X169930652Y-100426856D01*
X170119442Y-99821006D01*
X170271308Y-99204862D01*
X170385695Y-98580674D01*
X170462185Y-97950717D01*
X170500500Y-97317292D01*
X170500500Y-96682708D01*
X170462185Y-96049283D01*
X170385695Y-95419326D01*
X170271308Y-94795138D01*
X170119442Y-94178994D01*
X169930652Y-93573144D01*
X169721366Y-93021303D01*
X169705629Y-92979808D01*
X169705627Y-92979805D01*
X169705625Y-92979798D01*
X169445184Y-92401122D01*
X169150278Y-91839226D01*
X168821985Y-91296162D01*
X168461500Y-90773910D01*
X168238117Y-90488782D01*
X168070147Y-90274383D01*
X168070146Y-90274382D01*
X167649343Y-89799394D01*
X167649309Y-89799358D01*
X167200641Y-89350690D01*
X167200605Y-89350656D01*
X166725617Y-88929853D01*
X166725616Y-88929852D01*
X166226088Y-88538498D01*
X165703853Y-88178025D01*
X165703845Y-88178020D01*
X165703838Y-88178015D01*
X165442654Y-88020124D01*
X165160783Y-87849727D01*
X165160777Y-87849724D01*
X165160774Y-87849722D01*
X164598878Y-87554816D01*
X164598876Y-87554815D01*
X164598872Y-87554813D01*
X164020191Y-87294370D01*
X163452456Y-87079057D01*
X163426856Y-87069348D01*
X163426849Y-87069346D01*
X163426847Y-87069345D01*
X162821021Y-86880562D01*
X162821005Y-86880557D01*
X162204867Y-86728693D01*
X162181987Y-86724500D01*
X161580674Y-86614305D01*
X161466979Y-86600500D01*
X160950718Y-86537815D01*
X160317300Y-86499500D01*
X160317292Y-86499500D01*
X159682708Y-86499500D01*
X159682699Y-86499500D01*
X159049281Y-86537815D01*
X158419333Y-86614304D01*
X158419330Y-86614304D01*
X158419326Y-86614305D01*
X158099099Y-86672989D01*
X157795132Y-86728693D01*
X157178994Y-86880557D01*
X157178978Y-86880562D01*
X156573152Y-87069345D01*
X155979808Y-87294370D01*
X155401127Y-87554813D01*
X154839216Y-87849727D01*
X154296171Y-88178009D01*
X154296146Y-88178025D01*
X153773911Y-88538498D01*
X153274383Y-88929852D01*
X153274382Y-88929853D01*
X152799394Y-89350656D01*
X152799358Y-89350690D01*
X152350690Y-89799358D01*
X152350656Y-89799394D01*
X151929853Y-90274382D01*
X151929852Y-90274383D01*
X151538498Y-90773911D01*
X151178025Y-91296146D01*
X151178009Y-91296171D01*
X150849727Y-91839216D01*
X150554813Y-92401127D01*
X150294370Y-92979808D01*
X150069345Y-93573152D01*
X149880562Y-94178978D01*
X149880557Y-94178994D01*
X149738991Y-94753353D01*
X149728692Y-94795138D01*
X149617939Y-95399500D01*
X149614304Y-95419333D01*
X149537815Y-96049281D01*
X149499500Y-96682699D01*
X137600500Y-96682699D01*
X137600500Y-87724500D01*
X137620185Y-87657461D01*
X137672989Y-87611706D01*
X137724500Y-87600500D01*
X151079055Y-87600500D01*
X151079057Y-87600500D01*
X151231784Y-87559577D01*
X151368716Y-87480520D01*
X151480520Y-87368716D01*
X151559577Y-87231784D01*
X151600500Y-87079057D01*
X151600500Y-53920943D01*
X151559577Y-53768216D01*
X151559573Y-53768209D01*
X151480524Y-53631290D01*
X151480518Y-53631282D01*
X151368717Y-53519481D01*
X151368709Y-53519475D01*
X151231790Y-53440426D01*
X151231786Y-53440424D01*
X151231784Y-53440423D01*
X151079057Y-53399500D01*
X114249057Y-53399500D01*
X114090943Y-53399500D01*
X113938215Y-53440423D01*
X113938214Y-53440423D01*
X113938212Y-53440424D01*
X113938209Y-53440425D01*
X113888096Y-53469359D01*
X113888095Y-53469360D01*
X113844689Y-53494420D01*
X113801285Y-53519479D01*
X113801282Y-53519481D01*
X113689478Y-53631286D01*
X110447022Y-56873741D01*
X110385699Y-56907226D01*
X110330404Y-56906636D01*
X110326344Y-56905661D01*
X110139623Y-56876088D01*
X110129597Y-56874500D01*
X109930403Y-56874500D01*
X109864822Y-56884887D01*
X109733659Y-56905661D01*
X109733656Y-56905661D01*
X109544219Y-56967213D01*
X109366733Y-57057647D01*
X109328286Y-57085581D01*
X109205582Y-57174731D01*
X109205580Y-57174733D01*
X109205579Y-57174733D01*
X109064733Y-57315579D01*
X109064733Y-57315580D01*
X109064731Y-57315582D01*
X109032773Y-57359568D01*
X108947647Y-57476733D01*
X108870485Y-57628172D01*
X108822510Y-57678968D01*
X108754689Y-57695763D01*
X108688554Y-57673225D01*
X108649515Y-57628172D01*
X108572485Y-57476994D01*
X108572353Y-57476734D01*
X108455269Y-57315582D01*
X108314418Y-57174731D01*
X108153266Y-57057647D01*
X107990346Y-56974635D01*
X107975780Y-56967213D01*
X107786342Y-56905661D01*
X107638782Y-56882290D01*
X107589597Y-56874500D01*
X107390403Y-56874500D01*
X107324822Y-56884887D01*
X107193659Y-56905661D01*
X107193656Y-56905661D01*
X107004219Y-56967213D01*
X106826733Y-57057647D01*
X106788286Y-57085581D01*
X106665582Y-57174731D01*
X106665580Y-57174733D01*
X106665579Y-57174733D01*
X106524733Y-57315579D01*
X106524733Y-57315580D01*
X106524731Y-57315582D01*
X106492773Y-57359568D01*
X106407647Y-57476733D01*
X106330485Y-57628172D01*
X106282510Y-57678968D01*
X106214689Y-57695763D01*
X106148554Y-57673225D01*
X106109515Y-57628172D01*
X106032485Y-57476994D01*
X106032353Y-57476734D01*
X105915269Y-57315582D01*
X105774418Y-57174731D01*
X105613266Y-57057647D01*
X105450346Y-56974635D01*
X105435780Y-56967213D01*
X105246342Y-56905661D01*
X105098782Y-56882290D01*
X105049597Y-56874500D01*
X104850403Y-56874500D01*
X104784822Y-56884887D01*
X104653659Y-56905661D01*
X104653656Y-56905661D01*
X104464219Y-56967213D01*
X104286733Y-57057647D01*
X104248286Y-57085581D01*
X104125582Y-57174731D01*
X104125580Y-57174733D01*
X104125579Y-57174733D01*
X103984733Y-57315579D01*
X103984733Y-57315580D01*
X103984731Y-57315582D01*
X103952773Y-57359568D01*
X103867647Y-57476733D01*
X103790485Y-57628172D01*
X103742510Y-57678968D01*
X103674689Y-57695763D01*
X103608554Y-57673225D01*
X103569515Y-57628172D01*
X103492485Y-57476994D01*
X103492353Y-57476734D01*
X103375269Y-57315582D01*
X103234418Y-57174731D01*
X103073266Y-57057647D01*
X102910346Y-56974635D01*
X102895780Y-56967213D01*
X102706342Y-56905661D01*
X102558782Y-56882290D01*
X102509597Y-56874500D01*
X102310403Y-56874500D01*
X102244822Y-56884887D01*
X102113659Y-56905661D01*
X102113656Y-56905661D01*
X101924219Y-56967213D01*
X101746733Y-57057647D01*
X101708286Y-57085581D01*
X101585582Y-57174731D01*
X101585580Y-57174733D01*
X101585579Y-57174733D01*
X101444733Y-57315579D01*
X101444733Y-57315580D01*
X101444731Y-57315582D01*
X101412773Y-57359568D01*
X101327647Y-57476733D01*
X101250485Y-57628172D01*
X101202510Y-57678968D01*
X101134689Y-57695763D01*
X101068554Y-57673225D01*
X101029515Y-57628172D01*
X100952485Y-57476994D01*
X100952353Y-57476734D01*
X100835269Y-57315582D01*
X100694418Y-57174731D01*
X100533266Y-57057647D01*
X100370346Y-56974635D01*
X100355780Y-56967213D01*
X100166342Y-56905661D01*
X100018782Y-56882290D01*
X99969597Y-56874500D01*
X99770403Y-56874500D01*
X99704822Y-56884887D01*
X99573659Y-56905661D01*
X99573656Y-56905661D01*
X99384219Y-56967213D01*
X99206733Y-57057647D01*
X99168286Y-57085581D01*
X99045582Y-57174731D01*
X99045580Y-57174733D01*
X99045579Y-57174733D01*
X98904733Y-57315579D01*
X98904733Y-57315580D01*
X98904731Y-57315582D01*
X98872773Y-57359568D01*
X98787647Y-57476733D01*
X98710485Y-57628172D01*
X98662510Y-57678968D01*
X98594689Y-57695763D01*
X98528554Y-57673225D01*
X98489515Y-57628172D01*
X98412485Y-57476994D01*
X98412353Y-57476734D01*
X98295269Y-57315582D01*
X98154418Y-57174731D01*
X97993266Y-57057647D01*
X97830346Y-56974635D01*
X97815780Y-56967213D01*
X97626342Y-56905661D01*
X97478782Y-56882290D01*
X97429597Y-56874500D01*
X97230403Y-56874500D01*
X97164822Y-56884887D01*
X97033659Y-56905661D01*
X97033656Y-56905661D01*
X96844219Y-56967213D01*
X96666733Y-57057647D01*
X96628286Y-57085581D01*
X96505582Y-57174731D01*
X96505580Y-57174733D01*
X96505579Y-57174733D01*
X96364733Y-57315579D01*
X96364733Y-57315580D01*
X96364731Y-57315582D01*
X96332773Y-57359568D01*
X96247647Y-57476733D01*
X96170485Y-57628172D01*
X96122510Y-57678968D01*
X96054689Y-57695763D01*
X95988554Y-57673225D01*
X95949515Y-57628172D01*
X95872485Y-57476994D01*
X95872353Y-57476734D01*
X95755269Y-57315582D01*
X95614418Y-57174731D01*
X95453266Y-57057647D01*
X95290346Y-56974635D01*
X95275780Y-56967213D01*
X95086342Y-56905661D01*
X94938782Y-56882290D01*
X94889597Y-56874500D01*
X94690403Y-56874500D01*
X94624822Y-56884887D01*
X94493659Y-56905661D01*
X94493656Y-56905661D01*
X94304219Y-56967213D01*
X94126733Y-57057647D01*
X94088286Y-57085581D01*
X93965582Y-57174731D01*
X93965580Y-57174733D01*
X93965579Y-57174733D01*
X93824733Y-57315579D01*
X93824733Y-57315580D01*
X93824731Y-57315582D01*
X93792773Y-57359568D01*
X93707647Y-57476733D01*
X93630485Y-57628172D01*
X93582510Y-57678968D01*
X93514689Y-57695763D01*
X93448554Y-57673225D01*
X93409515Y-57628172D01*
X93332485Y-57476994D01*
X93332353Y-57476734D01*
X93215269Y-57315582D01*
X93074418Y-57174731D01*
X92913266Y-57057647D01*
X92750346Y-56974635D01*
X92735780Y-56967213D01*
X92546342Y-56905661D01*
X92398782Y-56882290D01*
X92349597Y-56874500D01*
X92150403Y-56874500D01*
X92084822Y-56884887D01*
X91953659Y-56905661D01*
X91953656Y-56905661D01*
X91764219Y-56967213D01*
X91586733Y-57057647D01*
X91548286Y-57085581D01*
X91425582Y-57174731D01*
X91425580Y-57174733D01*
X91425579Y-57174733D01*
X91284733Y-57315579D01*
X91284733Y-57315580D01*
X91284731Y-57315582D01*
X91252773Y-57359568D01*
X91167647Y-57476733D01*
X91090485Y-57628172D01*
X91042510Y-57678968D01*
X90974689Y-57695763D01*
X90908554Y-57673225D01*
X90869515Y-57628172D01*
X90792485Y-57476994D01*
X90792353Y-57476734D01*
X90675269Y-57315582D01*
X90534418Y-57174731D01*
X90373266Y-57057647D01*
X90210346Y-56974635D01*
X90195780Y-56967213D01*
X90006342Y-56905661D01*
X89858782Y-56882290D01*
X89809597Y-56874500D01*
X89610403Y-56874500D01*
X89544822Y-56884887D01*
X89413659Y-56905661D01*
X89413656Y-56905661D01*
X89224219Y-56967213D01*
X89046733Y-57057647D01*
X89008286Y-57085581D01*
X88885582Y-57174731D01*
X88885580Y-57174733D01*
X88885579Y-57174733D01*
X88744733Y-57315579D01*
X88744733Y-57315580D01*
X88744731Y-57315582D01*
X88712773Y-57359568D01*
X88627645Y-57476735D01*
X88550203Y-57628723D01*
X88502229Y-57679518D01*
X88434408Y-57696313D01*
X88368273Y-57673775D01*
X88329234Y-57628722D01*
X88251924Y-57476994D01*
X88224417Y-57439135D01*
X88224417Y-57439134D01*
X87661128Y-58002424D01*
X87645245Y-57943147D01*
X87578102Y-57826853D01*
X87483147Y-57731898D01*
X87366853Y-57664755D01*
X87307574Y-57648871D01*
X87870864Y-57085581D01*
X87870863Y-57085580D01*
X87833008Y-57058077D01*
X87655594Y-56967679D01*
X87466222Y-56906147D01*
X87269563Y-56875000D01*
X87070437Y-56875000D01*
X86873777Y-56906147D01*
X86684405Y-56967679D01*
X86506990Y-57058077D01*
X86469135Y-57085580D01*
X86469135Y-57085581D01*
X87032425Y-57648871D01*
X86973147Y-57664755D01*
X86856853Y-57731898D01*
X86761898Y-57826853D01*
X86694755Y-57943147D01*
X86678871Y-58002425D01*
X86115581Y-57439135D01*
X86115580Y-57439135D01*
X86088075Y-57476993D01*
X86010764Y-57628723D01*
X85962790Y-57679518D01*
X85894969Y-57696313D01*
X85828834Y-57673775D01*
X85789795Y-57628722D01*
X85712485Y-57476994D01*
X85712353Y-57476734D01*
X85595269Y-57315582D01*
X85454418Y-57174731D01*
X85293266Y-57057647D01*
X85130346Y-56974635D01*
X85115780Y-56967213D01*
X84926342Y-56905661D01*
X84778782Y-56882290D01*
X84729597Y-56874500D01*
X84530403Y-56874500D01*
X84464822Y-56884887D01*
X84333659Y-56905661D01*
X84333656Y-56905661D01*
X84144219Y-56967213D01*
X83966733Y-57057647D01*
X83928286Y-57085581D01*
X83805582Y-57174731D01*
X83805580Y-57174733D01*
X83805579Y-57174733D01*
X83664733Y-57315579D01*
X83664733Y-57315580D01*
X83664731Y-57315582D01*
X83632773Y-57359568D01*
X83547647Y-57476733D01*
X83457213Y-57654219D01*
X83395661Y-57843656D01*
X83395661Y-57843659D01*
X83371227Y-57997929D01*
X83364500Y-58040403D01*
X83364500Y-58239597D01*
X83366685Y-58253393D01*
X83395661Y-58436340D01*
X83395661Y-58436343D01*
X83457213Y-58625780D01*
X83490662Y-58691427D01*
X83547647Y-58803266D01*
X83664731Y-58964418D01*
X83805582Y-59105269D01*
X83966734Y-59222353D01*
X84143304Y-59312320D01*
X84144219Y-59312786D01*
X84333657Y-59374338D01*
X84333658Y-59374338D01*
X84333661Y-59374339D01*
X84530403Y-59405500D01*
X84530404Y-59405500D01*
X84729596Y-59405500D01*
X84729597Y-59405500D01*
X84926339Y-59374339D01*
X84926342Y-59374338D01*
X84926343Y-59374338D01*
X85115780Y-59312786D01*
X85115780Y-59312785D01*
X85115783Y-59312785D01*
X85293266Y-59222353D01*
X85454418Y-59105269D01*
X85595269Y-58964418D01*
X85712353Y-58803266D01*
X85789795Y-58651276D01*
X85837769Y-58600481D01*
X85905590Y-58583686D01*
X85971725Y-58606223D01*
X86010765Y-58651277D01*
X86088077Y-58803008D01*
X86115580Y-58840863D01*
X86115581Y-58840864D01*
X86678871Y-58277574D01*
X86694755Y-58336853D01*
X86761898Y-58453147D01*
X86856853Y-58548102D01*
X86973147Y-58615245D01*
X87032425Y-58631128D01*
X86469134Y-59194417D01*
X86506994Y-59221924D01*
X86684405Y-59312320D01*
X86873777Y-59373852D01*
X87070437Y-59405000D01*
X87269563Y-59405000D01*
X87466222Y-59373852D01*
X87655594Y-59312320D01*
X87833005Y-59221924D01*
X87870863Y-59194418D01*
X87870863Y-59194417D01*
X87307574Y-58631128D01*
X87366853Y-58615245D01*
X87483147Y-58548102D01*
X87578102Y-58453147D01*
X87645245Y-58336853D01*
X87661128Y-58277574D01*
X88224417Y-58840863D01*
X88224418Y-58840863D01*
X88251924Y-58803005D01*
X88329234Y-58651277D01*
X88377208Y-58600481D01*
X88445029Y-58583686D01*
X88511164Y-58606223D01*
X88550204Y-58651277D01*
X88570662Y-58691427D01*
X88627647Y-58803266D01*
X88744731Y-58964418D01*
X88744733Y-58964420D01*
X88877857Y-59097544D01*
X88911342Y-59158867D01*
X88906358Y-59228559D01*
X88877857Y-59272906D01*
X78631286Y-69519478D01*
X78519481Y-69631282D01*
X78519479Y-69631285D01*
X78469361Y-69718094D01*
X78469359Y-69718096D01*
X78440425Y-69768209D01*
X78440424Y-69768210D01*
X78440423Y-69768215D01*
X78399499Y-69920943D01*
X75000500Y-69920943D01*
X75000500Y-59001953D01*
X75000561Y-58998058D01*
X75003883Y-58892343D01*
X75019123Y-58407399D01*
X75019609Y-58399663D01*
X75075040Y-57813261D01*
X75076017Y-57805538D01*
X75083571Y-57757843D01*
X75168154Y-57223805D01*
X75169604Y-57216203D01*
X75298100Y-56641342D01*
X75300029Y-56633835D01*
X75464361Y-56068200D01*
X75466743Y-56060869D01*
X75666274Y-55506650D01*
X75669124Y-55499449D01*
X75903053Y-54958872D01*
X75906356Y-54951852D01*
X76173764Y-54427036D01*
X76177504Y-54420234D01*
X76477333Y-53913250D01*
X76481488Y-53906703D01*
X76812560Y-53419545D01*
X76817134Y-53413251D01*
X76827801Y-53399500D01*
X77178114Y-52947878D01*
X77183077Y-52941878D01*
X77331161Y-52773910D01*
X77572608Y-52500042D01*
X77577910Y-52494397D01*
X77994397Y-52077910D01*
X78000042Y-52072608D01*
X78441880Y-51683074D01*
X78447881Y-51678112D01*
X78870022Y-51350666D01*
X78913259Y-51317127D01*
X78919545Y-51312560D01*
X79406703Y-50981488D01*
X79413250Y-50977333D01*
X79920234Y-50677504D01*
X79927036Y-50673764D01*
X80451852Y-50406356D01*
X80458872Y-50403053D01*
X80999449Y-50169124D01*
X81006650Y-50166274D01*
X81560869Y-49966743D01*
X81568200Y-49964361D01*
X82133835Y-49800029D01*
X82141342Y-49798100D01*
X82716203Y-49669604D01*
X82723805Y-49668154D01*
X83305544Y-49576016D01*
X83313261Y-49575040D01*
X83899661Y-49519609D01*
X83907399Y-49519123D01*
X84498059Y-49500561D01*
X84501954Y-49500500D01*
X84565892Y-49500500D01*
X229434108Y-49500500D01*
X229498046Y-49500500D01*
X229501941Y-49500561D01*
G37*
%TD.AperFunction*%
%TD*%
M02*
